<?xml version="1.0" encoding="utf-8"?>
<!-- Generator: Adobe Illustrator 19.0.0, SVG Export Plug-In . SVG Version: 6.00 Build 0)  -->
<svg version="1.1" id="svg1" xmlns="http://www.w3.org/2000/svg" xmlns:xlink="http://www.w3.org/1999/xlink" x="0px" y="0px"
	 viewBox="496 -368 1024 768" style="enable-background:new 496 -368 1024 768;" xml:space="preserve">
<style type="text/css">
	.st0{fill:#3498DB;}
	.st1{opacity:0.6;fill:none;stroke:#EFEFEF;stroke-miterlimit:10;enable-background:new    ;}
	.st2{fill:#586273;}
	.st3{opacity:0.8;fill:#2980B9;enable-background:new    ;}
	.st4{fill:#E6E9ED;}
	.st5{opacity:0.3;fill:#B7BFC7;enable-background:new    ;}
	.st6{fill:#DCE4E8;}
	.st7{display:none;fill:url(#mbplight_1_);}
	.st8{fill:#CCD1D9;}
	.st9{display:none;fill:#F5F7FA;stroke:#CCD1D9;stroke-miterlimit:10;}
	.st10{fill:#3B3B3B;stroke:#C1C1C1;stroke-miterlimit:10;}
	.st11{fill:#E74C3C;}
	.st12{fill:#D8D8DA;}
	.st13{fill:#AAB2BD;}
	.st14{fill:#FFFFFF;}
	.st15{fill:#E6E7E8;}
	.st16{fill:#49433C;}
	.st17{fill:#363532;}
	.st18{fill:#434A54;}
	.st19{fill:#F7F9F8;}
	.st20{fill:#44C650;}
	.st21{fill:none;}
	.st22{fill:#2980B9;}
	.st23{fill:#58585C;}
	.st24{fill:#464E5C;}
	.st25{fill:#F7D39A;}
	.st26{fill:#DA4453;}
	.st27{opacity:0.8;}
	.st28{fill:#EBF4FF;}
	.st29{fill:#E5E5E5;}
	.st30{fill:#B7BFC7;}
	.st31{opacity:0.3;}
	.st32{fill:#EFEEEE;}
	.st33{fill:#656D78;}
	.st34{fill:#2C3E50;}
	.st35{fill:#ECF0F1;}
	.st36{font-family:'Roboto-Black';}
	.st37{font-size:120px;}
	.st38{fill:#F5ECD9;}
	.st39{font-family:'Roboto-Regular';}
	.st40{font-size:14px;}
	.st41{fill:#DED6C7;}
	.st42{fill:#4CAEE5;}
	.st43{fill:#01050A;}
	.st44{font-family:'Roboto-Thin';}
	.st45{font-size:18px;}
	.st46{fill:#F5F7FA;}
	.st47{font-size:30px;}
</style>
<g id="bg">
	<rect x="-6589.3" y="-7630.2" class="st0" width="16291.8" height="14784"/>
</g>
<path id="wire1" class="st1" d="M516.4-414.6c45.9,59.7,97.6,127.8,180.5,125.9c65.6-1.5,127.1-41.7,193.4-31.3
	c67.3,10.6,116.7,71.3,167.2,111.7c53.2,42.6,112.2,66.4,172,97.3c46,23.8,69.2,58.5,77.5,109.3c5.8,35.4-0.1,84.2,22.4,114.6
	c29.1,39.5,157,60,101,134.8c-53,70.9-150.8,81.9-210.6,115.8c-16.1,9.1-38.5,26.3-51.5,34.8l-2,1.3"/>
<g id="introduction" xmlns:dc="http://purl.org/dc/elements/1.1/" xmlns:inkscape="http://www.inkscape.org/namespaces/inkscape" xmlns:rdf="http://www.w3.org/1999/02/22-rdf-syntax-ns#" xmlns:cc="http://creativecommons.org/ns#" xmlns:svg="http://www.w3.org/2000/svg" xmlns:sodipodi="http://sodipodi.sourceforge.net/DTD/sodipodi-0.dtd" sodipodi:docname="drawing.svg" inkscape:version="0.48.4 r9939">
	<g id="macbook">
		<path class="st2" d="M1436.7-63.3L1436.7-63.3C1436.7-63.2,1436.7-63.3,1436.7-63.3z"/>
		<path class="st3" d="M1467.6-90.7l-342.2-155.9c0,0-8.2-3.7-11.9,4.5c-3.7,8.2,4.5,11.9,4.5,11.9l24.6,11.2c0,0-8.2-3.7-11.9,4.5
			c-4.7,10.3-4.7,10.2-77.5,170.2c-3.9,8.5,0.8,19,9.3,22.9L1340.1,105c8.5,3.9,18.6,0.1,22.5-8.4c0,0,59.1-129.8,74.2-162.9l0,0
			c0.1-0.2,0.6-1.3,3.3-7.3c3.7-8.2-4.5-11.9-4.5-11.9l24.6,11.2c0,0,8.2,3.7,11.9-4.5C1475.8-87,1467.6-90.7,1467.6-90.7z"/>
		<g>
			<path class="st4" d="M1369.5,94.6c-3.9,8.5-14,12.3-22.5,8.4L1069.4-23.4c-8.5-3.9-13.2-14.4-9.3-22.9c0,0,73.8-162,77.5-170.2
				c3.7-8.2,11.9-4.5,11.9-4.5l293,133.5c0,0,8.2,3.7,4.5,11.9C1443.3-67.4,1369.5,94.6,1369.5,94.6z"/>
			<path class="st5" d="M1442.7-68.3l-364.2-20.6c0,0,54.4-119.4,58.1-127.6c3.7-8.2,11.9-4.5,11.9-4.5l293,133.5
				c0,0,8.2,3.7,4.5,11.9S1442.7-68.3,1442.7-68.3z"/>
			
				<rect x="1212.2" y="-154.5" transform="matrix(0.91 0.4145 -0.4145 0.91 54.1363 -549.5117)" class="st6" width="161.9" height="9"/>
			
				<radialGradient id="mbplight_1_" cx="1808.4031" cy="-11527.2197" r="163.2177" gradientTransform="matrix(0.9118 0.4011 9.550000e-02 -0.1842 737.0057 -3000.5847)" gradientUnits="userSpaceOnUse">
				<stop  offset="0.103" style="stop-color:#3498DB;stop-opacity:0.4"/>
				<stop  offset="0.7955" style="stop-color:#3498DB;stop-opacity:5.650000e-02"/>
				<stop  offset="0.9095" style="stop-color:#3498DB;stop-opacity:0"/>
			</radialGradient>
			<polygon id="mbplight" class="st7" points="1458.5,-41.5 1123.8,-192 1167.9,-231.8 1467,-95.4 			"/>
			<path class="st8" d="M1466.1-76.3l-342.2-155.9c0,0-8.2-3.7-4.5-11.9s11.9-4.5,11.9-4.5l342.3,155.9c0,0,8.2,3.7,4.5,11.9
				C1474.3-72.6,1466.1-76.3,1466.1-76.3z"/>
			
				<rect x="1175.6" y="-18.1" transform="matrix(0.91 0.4145 -0.4145 0.91 111.9674 -506.1181)" class="st9" width="92.9" height="46"/>
			<g>
				
					<rect x="1169.7" y="-170.4" transform="matrix(0.9101 0.4145 -0.4145 0.9101 37.8821 -503.3425)" class="st10" width="18" height="12"/>
				
					<rect x="1160.8" y="-153.2" transform="matrix(0.91 0.4145 -0.4145 0.91 45.2494 -497.9084)" class="st10" width="18" height="17"/>
				
					<rect x="1149.9" y="-128.9" transform="matrix(0.91 0.4145 -0.4145 0.91 55.3045 -493.6257)" class="st10" width="30" height="19"/>
				
					<rect x="1139.4" y="-103.5" transform="matrix(0.9101 0.4145 -0.4145 0.9101 65.0511 -489.718)" class="st10" width="43" height="17"/>
				
					<rect x="1182.7" y="-143.1" transform="matrix(0.91 0.4145 -0.4145 0.91 51.4623 -506.298)" class="st10" width="19" height="17"/>
				
					<rect x="1183.2" y="-116.4" transform="matrix(0.91 0.4145 -0.4145 0.91 63.0007 -504.0264)" class="st10" width="19" height="19"/>
				
					<rect x="1185" y="-88.1" transform="matrix(0.91 0.4145 -0.4145 0.91 74.4533 -502.3014)" class="st10" width="19" height="17"/>
				
					<rect x="1207" y="-78.4" transform="matrix(0.91 0.4145 -0.4145 0.91 80.4349 -510.3369)" class="st10" width="18" height="17"/>
				
					<rect x="1229.7" y="-68.1" transform="matrix(0.9101 0.4145 -0.4145 0.9101 86.7273 -518.7938)" class="st10" width="18" height="17"/>
				
					<rect x="1251.6" y="-58" transform="matrix(0.91 0.4145 -0.4145 0.91 92.8758 -527.0024)" class="st10" width="18" height="17"/>
				
					<rect x="1274.3" y="-47.8" transform="matrix(0.9101 0.4145 -0.4145 0.9101 99.1451 -535.4545)" class="st10" width="18" height="17"/>
				
					<rect x="1295.2" y="-38.1" transform="matrix(0.9101 0.4145 -0.4145 0.9101 105.0751 -543.426)" class="st10" width="19" height="17"/>
				
					<rect x="1316.9" y="-22.7" transform="matrix(0.91 0.4145 -0.4145 0.91 114.5345 -556.0824)" class="st10" width="43" height="17"/>
				
					<rect x="1206" y="-106.1" transform="matrix(0.91 0.4145 -0.4145 0.91 69.2434 -512.3115)" class="st10" width="18" height="19"/>
				
					<rect x="1227.8" y="-95.9" transform="matrix(0.91 0.4145 -0.4145 0.91 75.48 -520.6514)" class="st10" width="19" height="19"/>
				
					<rect x="1250.6" y="-86" transform="matrix(0.9101 0.4144 -0.4144 0.9101 81.5466 -528.8592)" class="st10" width="18" height="19"/>
				
					<rect x="1272.4" y="-75.8" transform="matrix(0.91 0.4145 -0.4145 0.91 87.8553 -537.3505)" class="st10" width="19" height="19"/>
				
					<rect x="1295.2" y="-65.5" transform="matrix(0.91 0.4145 -0.4145 0.91 94.0926 -545.663)" class="st10" width="18" height="19"/>
				
					<rect x="1317" y="-55.4" transform="matrix(0.91 0.4145 -0.4145 0.91 100.2857 -553.9837)" class="st10" width="19" height="19"/>
				
					<rect x="1339.2" y="-42.8" transform="matrix(0.9101 0.4145 -0.4145 0.9101 108.0023 -564.2885)" class="st10" width="30" height="19"/>
				
					<rect x="1205.3" y="-132.6" transform="matrix(0.91 0.4145 -0.4145 0.91 57.8481 -514.7404)" class="st10" width="19" height="17"/>
				
					<rect x="1227.4" y="-122.8" transform="matrix(0.91 0.4145 -0.4145 0.91 63.8393 -522.7762)" class="st10" width="18" height="17"/>
				
					<rect x="1250" y="-112.7" transform="matrix(0.9101 0.4145 -0.4145 0.9101 70.058 -531.2225)" class="st10" width="18" height="17"/>
				
					<rect x="1272" y="-102.7" transform="matrix(0.9101 0.4145 -0.4145 0.9101 76.1792 -539.4018)" class="st10" width="18" height="17"/>
				
					<rect x="1294.5" y="-92.2" transform="matrix(0.9101 0.4144 -0.4144 0.9101 82.488 -547.713)" class="st10" width="18" height="17"/>
				
					<rect x="1315.5" y="-82.7" transform="matrix(0.9101 0.4145 -0.4145 0.9101 88.4224 -555.8456)" class="st10" width="19" height="17"/>
				
					<rect x="1337.2" y="-67.2" transform="matrix(0.9101 0.4145 -0.4145 0.9101 97.8621 -568.4516)" class="st10" width="43" height="17"/>
				
					<rect x="1130.6" y="-87.8" transform="matrix(0.9101 0.4145 -0.4145 0.9101 70.057 -479.3711)" class="st10" width="18" height="19"/>
				
					<rect x="1152.4" y="-77.5" transform="matrix(0.91 0.4145 -0.4145 0.91 76.3291 -487.7369)" class="st10" width="19" height="19"/>
				
					<rect id="spacebar" x="1170.8" y="-47.1" transform="matrix(0.91 0.4145 -0.4145 0.91 94.9403 -512.7166)" class="st10" width="115.9" height="19"/>
				
					<rect x="1285.2" y="-17.2" transform="matrix(0.9101 0.4145 -0.4145 0.9101 113.2628 -537.3132)" class="st10" width="19" height="19"/>
				
					<rect x="1308" y="-6.8" transform="matrix(0.9101 0.4145 -0.4145 0.9101 119.5988 -545.8427)" class="st10" width="19" height="19"/>
				
					<rect x="1330.7" y="3.4" transform="matrix(0.9101 0.4145 -0.4145 0.9101 125.84 -554.1287)" class="st10" width="18" height="19"/>
				
					<rect x="1191.6" y="-160.1" transform="matrix(0.91 0.4145 -0.4145 0.91 44.1561 -511.746)" class="st10" width="19" height="12"/>
				
					<rect x="1214.3" y="-149.8" transform="matrix(0.9101 0.4145 -0.4145 0.9101 50.4499 -520.1832)" class="st10" width="19" height="12"/>
				
					<rect x="1236.2" y="-140" transform="matrix(0.91 0.4145 -0.4145 0.91 56.471 -528.2073)" class="st10" width="18" height="12"/>
				
					<rect x="1258.9" y="-129.6" transform="matrix(0.91 0.4145 -0.4145 0.91 62.8194 -536.6874)" class="st10" width="18" height="12"/>
				
					<rect x="1280.8" y="-119.8" transform="matrix(0.9101 0.4145 -0.4145 0.9101 68.8618 -544.8388)" class="st10" width="18" height="12"/>
				
					<rect x="1303.5" y="-109.4" transform="matrix(0.9101 0.4145 -0.4145 0.9101 75.2087 -553.316)" class="st10" width="18" height="12"/>
				
					<rect x="1324.5" y="-99.6" transform="matrix(0.9101 0.4145 -0.4145 0.9101 81.1667 -561.3351)" class="st10" width="19" height="12"/>
				
					<rect x="1347.2" y="-89.2" transform="matrix(0.91 0.4145 -0.4145 0.91 87.5615 -569.8475)" class="st10" width="19" height="12"/>
				
					<rect x="1369.8" y="-79" transform="matrix(0.91 0.4146 -0.4146 0.91 93.8414 -578.2339)" class="st10" width="18" height="12"/>
			</g>
		</g>
	</g>
	<g id="bevanda">
		<circle class="st3" cx="917.7" cy="-232.8" r="50.6"/>
		<circle class="st4" cx="922.7" cy="-234.8" r="50.6"/>
		<path class="st11" d="M922.7-276.5c23,0,41.7,18.7,41.7,41.7s-18.7,41.7-41.7,41.7c-10.4,0-19.9-3.8-27.2-10.1
			c-8.9-7.6-14.5-19-14.5-31.6C881-257.8,899.7-276.5,922.7-276.5z"/>
		<path id="linecover1" class="st4" d="M922.7-277.5c23.6,0,42.7,19.1,42.7,42.7s-19.1,42.7-42.7,42.7c-10.6,0-20.3-3.9-27.8-10.3
			c-9.1-7.8-14.9-19.4-14.9-32.4C880-258.4,899.1-277.5,922.7-277.5z"/>
		
			<ellipse transform="matrix(0.1184 -0.993 0.993 0.1184 1002.5197 723.7401)" class="st12" cx="908.8" cy="-202.7" rx="7.7" ry="11.6"/>
		<polygon class="st8" points="859.5,-212.6 900.4,-205.6 899.9,-202.1 858.6,-204.9 		"/>
		
			<ellipse transform="matrix(0.1184 -0.993 0.993 0.1184 1002.5208 723.7422)" class="st13" cx="908.8" cy="-202.7" rx="6.4" ry="9.6"/>
		<path class="st14" d="M895.4-277.7l9.7,12.5c1.6,2.1,1.2,5-0.8,6.7c-2.1,1.6-5,1.2-6.6-0.8l-9.7-12.5c-1.6-2.1-1.2-5,0.8-6.7
			C890.8-280.1,893.8-279.7,895.4-277.7z"/>
		<circle class="st14" cx="922.7" cy="-234.8" r="34.8"/>
		<circle class="st15" cx="922.7" cy="-234.8" r="31.3"/>
		<circle class="st16" cx="922.7" cy="-234.8" r="29.6"/>
		<path class="st17" d="M901.5-218.3c9.1,11.7,26,13.8,37.7,4.7c0.7-0.5,0.8-1.5,0.3-2.2s-1.5-0.8-2.2-0.3c-0.3,0.2-0.6,0.4-0.9,0.6
			c-0.1,0.1-0.1,0.1-0.2,0.2c-0.3,0.2-0.6,0.4-0.8,0.5c-0.1,0.1-0.2,0.1-0.3,0.2c-0.2,0.1-0.4,0.2-0.6,0.3c-0.1,0.1-0.3,0.1-0.4,0.2
			c-0.2,0.1-0.5,0.2-0.7,0.4c-0.2,0.1-0.4,0.2-0.5,0.3s-0.3,0.1-0.4,0.2c-0.2,0.1-0.3,0.2-0.5,0.2c-0.2,0.1-0.5,0.2-0.7,0.3
			c-0.2,0.1-0.3,0.1-0.5,0.2c-0.2,0.1-0.3,0.1-0.5,0.2c-0.1,0.1-0.3,0.1-0.4,0.1c-0.3,0.1-0.6,0.2-0.9,0.2c-0.1,0-0.2,0.1-0.3,0.1
			c-0.2,0.1-0.5,0.1-0.8,0.2c-0.1,0-0.2,0-0.2,0.1c-0.3,0.1-0.7,0.1-1,0.2c0,0,0,0-0.1,0c-0.2,0-0.4,0.1-0.6,0.1
			c-0.1,0-0.3,0-0.4,0.1h-0.1c-0.7,0.1-1.5,0.1-2.2,0.1l0,0c-0.7,0-1.5,0-2.2-0.1H921c-0.3,0-0.7-0.1-1-0.1c0,0,0,0-0.1,0
			c-0.3,0-0.6-0.1-0.9-0.1c-0.1,0-0.3,0-0.4-0.1c-0.2,0-0.4-0.1-0.5-0.1c-0.6-0.1-1.3-0.3-1.9-0.5l0,0c-3.4-1-6.6-2.8-9.2-5.2
			c0,0,0,0-0.1,0c-0.1-0.1-0.3-0.3-0.4-0.4c-0.1-0.1-0.2-0.2-0.4-0.4c-0.1-0.1-0.2-0.2-0.4-0.4c-0.2-0.2-0.4-0.4-0.6-0.7
			c-0.1-0.1-0.1-0.2-0.2-0.2c-0.2-0.3-0.5-0.5-0.7-0.8c-0.2-0.3-0.4-0.6-0.6-0.9c-0.1-0.1-0.1-0.2-0.2-0.3c-0.2-0.2-0.3-0.5-0.5-0.7
			c-0.1-0.1-0.2-0.3-0.3-0.4c-0.1-0.1-0.2-0.3-0.3-0.4c-0.1-0.2-0.2-0.4-0.3-0.5c0,0,0,0,0-0.1c-1.7-3.2-2.6-6.7-2.8-10.3l0,0
			c0-0.7,0-1.3,0-2c0-0.2,0-0.4,0-0.5s0-0.3,0-0.4c0-0.3,0.1-0.6,0.1-1c0,0,0,0,0-0.1c0-0.3,0.1-0.7,0.1-1v-0.1
			c0.1-0.7,0.3-1.4,0.5-2.2l0,0c0.2-0.7,0.4-1.4,0.7-2.1c0,0,0,0,0-0.1c0.1-0.1,0.1-0.3,0.2-0.4c0.1-0.2,0.2-0.4,0.2-0.6
			c0,0,0,0,0-0.1c0.1-0.3,0.3-0.6,0.4-0.9c0-0.1,0.1-0.1,0.1-0.2c0.1-0.2,0.2-0.5,0.4-0.7c0.1-0.1,0.1-0.2,0.2-0.3
			c0.1-0.3,0.3-0.5,0.4-0.8c0.1-0.1,0.2-0.3,0.3-0.4c0.1-0.1,0.2-0.3,0.3-0.4c0.1-0.1,0.2-0.3,0.3-0.4c0.2-0.2,0.3-0.4,0.5-0.6
			c0.1-0.1,0.2-0.3,0.3-0.4c0.1-0.1,0.2-0.2,0.3-0.3c0.1-0.2,0.3-0.3,0.4-0.5c0.2-0.2,0.3-0.4,0.5-0.6c0.1-0.1,0.2-0.2,0.3-0.3
			c0.2-0.2,0.3-0.3,0.5-0.5c0.1-0.1,0.1-0.2,0.2-0.2c0.2-0.2,0.5-0.4,0.7-0.7c0.1-0.1,0.1-0.1,0.2-0.2c0.3-0.2,0.5-0.5,0.8-0.7
			c0.7-0.5,0.8-1.5,0.3-2.2s-1.5-0.8-2.2-0.3C894.5-246.9,892.4-230,901.5-218.3z"/>
		<path class="st17" d="M911.4-257.5c0.3,0.8,1.3,1.2,2.1,0.8c0.2-0.1,0.4-0.2,0.6-0.3h0.1l0,0c0.2-0.1,0.4-0.1,0.6-0.2l0,0
			c0.1,0,0.1,0,0.2-0.1l0,0c0.2-0.1,0.4-0.1,0.6-0.2l0,0l0,0l0,0c0.4-0.1,0.9-0.3,1.4-0.4c0.1,0,0.1,0,0.2,0
			c0.4-0.1,0.9-0.2,1.3-0.3c0.1,0,0.2,0,0.3-0.1c-0.1,0-0.1,0-0.2,0c0.1,0,0.1,0,0.2,0l0,0c0.1,0,0.3,0,0.4-0.1l0,0
			c0.1,0,0.1,0,0.1,0l0,0c-0.1,0-0.1,0-0.1,0c0.1,0,0.1,0,0.2,0c0.6-0.1,1.1,0.2,1.4,0.6c0.2,0.2,0.3,0.5,0.3,0.8
			c0.1,0.9-0.5,1.7-1.3,1.8l0,0l0,0c-1.3,0.2-2.6,0.5-3.9,0.9l0,0c0,0,0,0-0.1,0l0,0c-0.4,0.1-0.8,0.3-1.2,0.5
			c-0.8,0.3-1.1,1.3-0.8,2.1c0.3,0.8,1.3,1.2,2.1,0.8c2.2-0.9,4.5-1.4,6.9-1.4c0.1,0,0.1,0,0.2,0c0.2,0,0.3,0,0.5,0
			c0.1,0,0.2,0,0.3,0s0.3,0,0.5,0c0.1,0,0.2,0,0.3,0s0.2,0,0.3,0l0,0c0,0,0,0,0.1,0c0.4,0.1,0.7,0.3,0.9,0.6
			c0.2,0.3,0.4,0.7,0.3,1.2c-0.1,0.9-0.9,1.5-1.8,1.4c-2.5-0.3-5,0-7.2,1h-0.1c-0.8,0.3-1.2,1.3-0.8,2.1c0.3,0.8,1.3,1.2,2.1,0.8
			c4.6-1.9,10-0.5,13,3.4c3.1,4,3.1,9.5,0.1,13.5c-0.5,0.7-0.4,1.7,0.3,2.2c0.7,0.5,1.7,0.4,2.2-0.3l0.2-0.2
			c1.4-1.9,2.3-4.2,2.6-6.6c0.1-0.9,0.9-1.5,1.8-1.4c0.4,0.1,0.8,0.3,1.1,0.6c0.2,0.3,0.4,0.7,0.3,1.1c0,0,0,0,0,0.1l0,0
			c0,0.1,0,0.2-0.1,0.3c0,0.1,0,0.2,0,0.3s-0.1,0.3-0.1,0.4c0,0.1,0,0.2-0.1,0.3c0,0.2-0.1,0.3-0.1,0.5c0,0.1,0,0.1,0,0.2
			c-0.6,2.3-1.6,4.4-3,6.3c-0.5,0.7-0.4,1.7,0.3,2.2c0.7,0.5,1.7,0.4,2.2-0.3c0.3-0.4,0.5-0.7,0.8-1.1l0,0c0,0,0,0,0-0.1l0,0
			c0.7-1.1,1.4-2.3,1.9-3.5l0,0l0,0c0.3-0.8,1.2-1.2,2.1-0.9c0.3,0.1,0.5,0.3,0.6,0.5c0.3,0.4,0.4,1,0.2,1.5c0,0.1,0,0.1-0.1,0.2
			c-0.1,0.2-0.2,0.4-0.2,0.6c0,0.1-0.1,0.2-0.1,0.3c-0.1,0.2-0.2,0.4-0.3,0.6c0,0.1-0.1,0.2-0.1,0.2c-0.1,0.2-0.2,0.4-0.3,0.6
			c0,0.1-0.1,0.1-0.1,0.2c-0.1,0.3-0.3,0.5-0.5,0.8c0,0,0,0,0,0.1l0,0c-0.1,0.2-0.2,0.4-0.4,0.6l-0.1,0.1l0,0
			c-0.1,0.1-0.1,0.2-0.2,0.3s-0.1,0.1-0.1,0.2c0,0,0,0-0.1,0.1c-0.1,0.2-0.3,0.4-0.4,0.6c-0.5,0.7-0.4,1.7,0.3,2.2
			c0.7,0.5,1.7,0.4,2.2-0.3c7.3-9.7,7.3-23.1-0.2-32.7c-7.4-9.6-20.5-13-31.6-8.3C911.5-259.2,911.1-258.3,911.4-257.5z
			 M944.4-225.1c0,0.1-0.1,0.2-0.1,0.2C944.3-225,944.3-225.1,944.4-225.1z M944-224.3c0,0.1-0.1,0.1-0.1,0.2
			C943.9-224.1,943.9-224.2,944-224.3z M943.5-223.4l-0.1,0.1C943.4-223.3,943.5-223.3,943.5-223.4z M944.6-225.8c0,0,0-0.1,0.1-0.1
			C944.7-225.9,944.7-225.9,944.6-225.8C944.7-225.8,944.6-225.8,944.6-225.8z"/>
		<path class="st17" d="M941.6-220.4C941.6-220.5,941.6-220.5,941.6-220.4c0.2-0.2,0.3-0.4,0.4-0.6
			C941.9-220.8,941.7-220.6,941.6-220.4z"/>
	</g>
	<g id="mouse">
		<path class="st3" d="M1473.9,114.6C1473.9,114.6,1473.9,114.5,1473.9,114.6c-9.8-7.2-23.6-5.2-30.9,4.6l-0.1,0.1l-0.1,0.2
			l-24.6,33.3c-0.1,0.1-0.2,0.3-0.2,0.4l-1.3,1.8l0,0c-7.2,9.9-5,23.5,4.7,30.7c9.8,7.3,23.7,5.1,30.9-4.6l26.2-35.5
			C1485.8,135.7,1483.7,121.8,1473.9,114.6z"/>
		<g>
			<g>
				<path class="st8" d="M1448.8,118.4L1448.8,118.4l-0.2,0.3L1424,152c-0.1,0.1-0.1,0.2-0.2,0.3l-1.2,1.6l0,0
					c-7.3,10.1-5.1,23.6,4.7,30.9l52.4-70.9C1469.9,106.6,1456.1,108.7,1448.8,118.4z"/>
				<path class="st4" d="M1479.7,113.9L1479.7,113.9l-52.5,70.9c9.8,7.3,23.7,5.2,30.9-4.6l-0.1-0.1l0,0l0,0l0.1,0.1l26.2-35.4
					C1491.6,135,1489.5,121.1,1479.7,113.9z"/>
			</g>
		</g>
	</g>
	<g id="iphone">
		<path class="st3" d="M1458.9-186.2l38.5-44.1c3-3.5,2.7-8.8-0.8-11.8l-88.1-77c-3.5-3-8.8-2.7-11.8,0.8l-38.5,44.1
			c-3,3.5-2.7,8.8,0.8,11.8l88.1,77C1450.5-182.4,1455.8-182.8,1458.9-186.2z"/>
		<path class="st18" d="M1402.2-319.4l-38.5,44.1c-3,3.5-2.7,8.8,0.8,11.8l88.1,77c3.5,3,8.8,2.7,11.8-0.8l38.5-44.1
			c3-3.5,2.7-8.8-0.8-11.8l-88.1-77C1410.5-323.2,1405.2-322.9,1402.2-319.4z"/>
		<path class="st2" d="M1490.3-242.4l-38.5,44.1l-81.8-71.5l0,0l38.5-44l0,0L1490.3-242.4z"/>
		
			<rect x="1471.3" y="-216.8" transform="matrix(0.658 -0.753 0.753 0.658 666.9521 1039.2181)" class="st18" width="12.5" height="4.2"/>
		<path class="st19" d="M1370-269.8L1370-269.8l81.8,71.5l38.5-44.1l-81.8-71.5l0,0L1370-269.8z"/>
		<path class="st20" d="M1433.9-275.4l-5.5-2.6c-0.6-0.3-1.5-0.3-2.1,0l-9.2,4.3l0,0l-1.3-1.1c-0.4-2.2-1.7-4.6-3.9-6.4l-1.7-1.5
			c-3-2.6-7.5-2.5-10,0.4l0,0l0,0l0,0c-2.5,2.9-2.1,7.3,0.9,10l1.7,1.5c2.1,1.9,4.6,2.9,6.9,3l1.3,1.1l0,0l-3.1,9.7
			c-0.2,0.6,0,1.5,0.3,2.1l3.3,5.1c0.3,0.5,1,0.6,1.4,0.1l10.6-12.1l0,0l10.6-12.1C1434.6-274.5,1434.4-275.1,1433.9-275.4z"/>
		
			<rect x="1417.1" y="-256.2" transform="matrix(0.6579 -0.7531 0.7531 0.6579 680.5161 994.6385)" class="st6" width="35.9" height="9"/>
		
			<rect x="1427.4" y="-247.3" transform="matrix(0.658 -0.753 0.753 0.658 677.1325 1005.3128)" class="st6" width="35.9" height="9"/>
		
			<rect x="1446.2" y="-238.4" transform="matrix(0.658 -0.753 0.753 0.658 673.7511 1015.7346)" class="st6" width="17.9" height="9"/>
		<circle class="st2" cx="1436.2" cy="-232.7" r="1.7"/>
		<circle class="st2" cx="1442.1" cy="-239.4" r="1.7"/>
		<circle class="st2" cx="1439.2" cy="-236" r="1.7"/>
		<path class="st2" d="M1446.2-244.1c0.7,0.6,0.8,1.7,0.1,2.4c-0.6,0.7-1.7,0.8-2.4,0.2c-0.7-0.6-0.8-1.7-0.1-2.4
			C1444.4-244.6,1445.5-244.7,1446.2-244.1z"/>
		<circle class="st2" cx="1426.1" cy="-241.5" r="1.7"/>
		<circle class="st2" cx="1437.9" cy="-255" r="1.7"/>
		<circle class="st2" cx="1432" cy="-248.3" r="1.7"/>
		<circle class="st2" cx="1429.1" cy="-244.9" r="1.7"/>
		<circle class="st2" cx="1435" cy="-251.6" r="1.7"/>
		
			<rect x="1450.8" y="-235.1" transform="matrix(0.6578 -0.7532 0.7532 0.6578 674.0475 1016.1848)" class="st11" width="9" height="2.7"/>
		<path class="st21" d="M1402.2-319.4l-29.9,34.2l113.6,73.3l17.1-19.5c3-3.5,2.7-8.8-0.8-11.8l-88.1-77
			C1410.5-323.2,1405.2-322.9,1402.2-319.4z"/>
	</g>
	<g id="matita1">
		<polygon class="st3" points="1616.1,-50.4 1554.1,-178.4 1548.8,-175.8 1543.4,-173.3 1605.5,-45.2 1610.8,-47.8 		"/>
		<polygon class="st22" points="1619.9,-32.4 1616.1,-50.4 1605.5,-45.2 1617.2,-31.1 1621.2,-26.5 		"/>
		<g>
			<g>
				<polygon class="st23" points="1614.9,-48.9 1555.5,-171.6 1552.9,-176.9 1547.5,-174.4 1609.6,-46.3 				"/>
				<polygon class="st23" points="1614.9,-48.9 1620.2,-51.5 1558.2,-179.5 1552.9,-176.9 1555.5,-171.6 				"/>
			</g>
			<g>
				<polygon class="st24" points="1625.2,-27.5 1624,-33.5 1621.3,-32.2 				"/>
				<polygon class="st25" points="1624,-33.5 1620.2,-51.5 1609.6,-46.3 1621.3,-32.2 				"/>
			</g>
			<g>
				
					<rect x="1554.5" y="-163" transform="matrix(-0.8998 0.4362 -0.4362 -0.8998 2894.522 -986.2979)" class="st26" width="11.9" height="4.4"/>
			</g>
		</g>
	</g>
	<g id="foglio2">
		<g>
			<g class="st27">
				<g>
					<polygon class="st22" points="663.7,-361.7 639.6,-173.2 790.4,-153.9 814.5,-342.5 816.1,-355 665.4,-374.3 					"/>
				</g>
			</g>
			<g>
				<g>
					
						<rect x="654.5" y="-355.5" transform="matrix(0.9919 0.1268 -0.1268 0.9919 -27.1383 -94.7309)" class="st28" width="151.9" height="190"/>
				</g>
			</g>
			<g>
				<g>
					
						<rect x="667.4" y="-367.5" transform="matrix(0.9919 0.1268 -0.1268 0.9919 -39.7948 -97.1804)" class="st20" width="151.9" height="12.7"/>
				</g>
			</g>
			<g>
				<g>
					
						<rect x="701.5" y="-289.1" transform="matrix(-0.9919 -0.1268 0.1268 -0.9919 1445.809 -473.4566)" class="st21" width="12.7" height="12.7"/>
				</g>
			</g>
			<g>
				<g>
					
						<rect x="724" y="-286.7" transform="matrix(0.9919 0.1267 -0.1267 0.9919 -30.0653 -94.4232)" class="st21" width="6.3" height="6.3"/>
				</g>
			</g>
			<g>
				<g>
					
						<rect x="678.7" y="-303.2" transform="matrix(0.9919 0.1268 -0.1268 0.9919 -32.508 -92.5058)" class="st18" width="63.2" height="3.2"/>
				</g>
			</g>
			<g>
				<g>
					
						<rect x="747.8" y="-295.7" transform="matrix(0.9919 0.1268 -0.1268 0.9919 -31.0919 -99.806)" class="st0" width="41.1" height="3.2"/>
				</g>
			</g>
			<g>
				<g>
					
						<rect x="671.4" y="-293.9" transform="matrix(0.9919 0.1268 -0.1268 0.9919 -31.1452 -95.3218)" class="st0" width="123.4" height="3.2"/>
				</g>
			</g>
			<g>
				<g>
					
						<rect x="677.1" y="-292.7" transform="matrix(0.9919 0.1268 -0.1268 0.9919 -31.3202 -90.2171)" class="st0" width="31.6" height="3.2"/>
				</g>
			</g>
			<g>
				<g>
					
						<rect x="714.8" y="-288.9" transform="matrix(0.9919 0.1269 -0.1269 0.9919 -30.6302 -93.8407)" class="st18" width="12.7" height="3.2"/>
				</g>
			</g>
			<g>
				<g>
					
						<rect x="733.5" y="-284.1" transform="matrix(0.9919 0.1268 -0.1268 0.9919 -29.6851 -98.7076)" class="st0" width="53.8" height="3.2"/>
				</g>
			</g>
			<g>
				<g>
					
						<rect x="661.3" y="-243.5" transform="matrix(0.9919 0.1268 -0.1268 0.9919 -25.2099 -87.8131)" class="st18" width="31.6" height="3.2"/>
				</g>
			</g>
			<g>
				<g>
					
						<rect x="659.7" y="-231.9" transform="matrix(0.9919 0.1269 -0.1269 0.9919 -23.8151 -86.791)" class="st18" width="19" height="3.2"/>
				</g>
			</g>
			<g>
				<g>
					
						<rect x="684.8" y="-229" transform="matrix(0.9919 0.1269 -0.1269 0.9919 -23.271 -89.5518)" class="st18" width="12.7" height="3.2"/>
				</g>
			</g>
			<g>
				<g>
					
						<rect x="660.5" y="-237.8" transform="matrix(0.9919 0.1268 -0.1268 0.9919 -24.5171 -87.2699)" class="st18" width="25.3" height="3.2"/>
				</g>
			</g>
			<g>
				<g>
					
						<rect x="658.9" y="-224.7" transform="matrix(0.9919 0.1268 -0.1268 0.9919 -22.8449 -87.3584)" class="st18" width="31.6" height="3.2"/>
				</g>
			</g>
			<g>
				<g>
					
						<rect x="664.1" y="-279.5" transform="matrix(0.9919 0.1269 -0.1269 0.9919 -27.9365 -88.8127)" class="st8" width="38" height="31.7"/>
				</g>
			</g>
			<g>
				<g>
					
						<rect x="706.7" y="-224.7" transform="matrix(0.9919 0.1268 -0.1268 0.9919 -22.4326 -93.828)" class="st18" width="38" height="3.2"/>
				</g>
			</g>
			<g>
				<g>
					
						<rect x="706" y="-220" transform="matrix(0.9919 0.1268 -0.1268 0.9919 -21.9441 -92.0964)" class="st18" width="12.7" height="3.2"/>
				</g>
			</g>
			<g>
				<g>
					
						<rect x="725" y="-218" transform="matrix(0.9919 0.127 -0.127 0.9919 -21.5876 -94.2225)" class="st18" width="6.3" height="3.2"/>
				</g>
			</g>
			<g>
				<g>
					
						<rect x="707.6" y="-232.2" transform="matrix(0.9919 0.1268 -0.1268 0.9919 -23.4529 -92.798)" class="st18" width="19" height="3.2"/>
				</g>
			</g>
			<g>
				<g>
					
						<rect x="732.8" y="-229.2" transform="matrix(0.9919 0.1268 -0.1268 0.9919 -22.894 -95.5658)" class="st18" width="12.7" height="3.2"/>
				</g>
			</g>
			<g>
				<g>
					
						<rect x="708.4" y="-237.5" transform="matrix(0.9919 0.1268 -0.1268 0.9919 -24.0688 -93.7377)" class="st18" width="31.6" height="3.2"/>
				</g>
			</g>
			<g>
				<g>
					
						<rect x="711.1" y="-273.5" transform="matrix(0.9919 0.1268 -0.1268 0.9919 -26.7787 -94.6649)" class="st8" width="38" height="31.7"/>
				</g>
			</g>
			<g>
				<g>
					
						<rect x="755.5" y="-231.2" transform="matrix(0.9919 0.1268 -0.1268 0.9919 -22.8617 -100.0669)" class="st18" width="38" height="3.2"/>
				</g>
			</g>
			<g>
				<g>
					
						<rect x="753.9" y="-219.4" transform="matrix(0.9919 0.1269 -0.1269 0.9919 -21.4415 -99.0424)" class="st18" width="25.3" height="3.2"/>
				</g>
			</g>
			<g>
				<g>
					
						<rect x="755.8" y="-226.5" transform="matrix(0.9919 0.1268 -0.1268 0.9919 -22.3653 -98.4621)" class="st18" width="12.7" height="3.2"/>
				</g>
			</g>
			<g>
				<g>
					
						<rect x="753.1" y="-213.6" transform="matrix(0.9919 0.1268 -0.1268 0.9919 -20.7262 -98.4175)" class="st18" width="19" height="3.2"/>
				</g>
			</g>
			<g>
				<g>
					
						<rect x="778.3" y="-210.7" transform="matrix(0.9919 0.1268 -0.1268 0.9919 -20.1805 -101.187)" class="st18" width="12.7" height="3.2"/>
				</g>
			</g>
			<g>
				<g>
					
						<rect x="773.5" y="-223.6" transform="matrix(0.9919 0.1269 -0.1269 0.9919 -21.8432 -101.1634)" class="st18" width="19" height="3.2"/>
				</g>
			</g>
			<g>
				<g>
					
						<rect x="758.3" y="-267.4" transform="matrix(0.9919 0.1268 -0.1268 0.9919 -25.629 -100.6001)" class="st8" width="38" height="31.6"/>
				</g>
			</g>
			<g>
				<g>
					
						<rect x="671.3" y="-323.5" transform="matrix(0.9919 0.1268 -0.1268 0.9919 -34.2604 -96.1139)" class="st8" width="132.9" height="12.7"/>
				</g>
			</g>
			<g>
				<g>
					<g>
						
							<rect x="678.3" y="-325.5" transform="matrix(0.9919 0.1268 -0.1268 0.9919 -35.5431 -89.4739)" class="st29" width="13.3" height="3.2"/>
					</g>
				</g>
			</g>
			<g>
				<g>
					<g>
						
							<rect x="698" y="-326.9" transform="matrix(0.9919 0.1268 -0.1268 0.9919 -34.9065 -92.789)" class="st18" width="26.6" height="12.7"/>
					</g>
				</g>
				<g>
					<g>
						
							<rect x="704.8" y="-322.1" transform="matrix(0.9919 0.1268 -0.1268 0.9919 -34.8962 -92.8051)" class="st29" width="13.3" height="3.2"/>
					</g>
				</g>
			</g>
			<g>
				<g>
					<g>
						
							<rect x="731.1" y="-318.7" transform="matrix(0.9919 0.1269 -0.1269 0.9919 -34.2753 -96.191)" class="st29" width="13.3" height="3.2"/>
					</g>
				</g>
			</g>
			<g>
				<g>
					<g>
						
							<rect x="757.5" y="-315.4" transform="matrix(0.9919 0.1268 -0.1268 0.9919 -33.6212 -99.4353)" class="st29" width="13.3" height="3.2"/>
					</g>
				</g>
			</g>
			<g>
				<g>
					<g>
						
							<rect x="783.9" y="-312" transform="matrix(0.9919 0.1268 -0.1268 0.9919 -32.9782 -102.7546)" class="st29" width="13.3" height="3.2"/>
					</g>
				</g>
			</g>
			<g>
				<g>
					<g>
						
							<rect x="677.1" y="-340.8" transform="matrix(0.9919 0.1268 -0.1268 0.9919 -37.2388 -93.4197)" class="st8" width="76" height="3.2"/>
					</g>
				</g>
				<g>
					<g>
						
							<rect x="678.1" y="-350.7" transform="matrix(0.9919 0.1268 -0.1268 0.9919 -38.7157 -90.0129)" class="st8" width="19" height="3.2"/>
					</g>
				</g>
			</g>
			<g>
				<g>
					
						<rect x="655.2" y="-204.1" transform="matrix(0.9919 0.1268 -0.1268 0.9919 -18.4523 -93.0589)" class="st8" width="132.9" height="25.3"/>
				</g>
			</g>
		</g>
	</g>
	<g id="foglio1">
		
			<rect x="491.6" y="-375.5" transform="matrix(0.9495 -0.3137 0.3137 0.9495 111.7465 165.6222)" class="st22" width="157.9" height="222.2"/>
		<g>
			<g>
				<g>
					<g>
						
							<rect x="461.5" y="-342.7" transform="matrix(0.3137 0.9495 -0.9495 0.3137 142.5005 -724.75)" class="st19" width="222.2" height="157.9"/>
					</g>
				</g>
			</g>
			<g>
				
					<rect x="567.1" y="-320.9" transform="matrix(0.9495 -0.3137 0.3137 0.9495 129.7976 170.7953)" class="st30" width="57" height="6"/>
				
					<rect x="570.1" y="-311.4" transform="matrix(0.9495 -0.3137 0.3137 0.9495 126.9531 172.2242)" class="st6" width="57" height="6"/>
				
					<rect x="573.3" y="-301.8" transform="matrix(0.9495 -0.3137 0.3137 0.9495 124.1176 173.7169)" class="st6" width="57" height="6"/>
				
					<rect x="576.4" y="-292.4" transform="matrix(0.9495 -0.3137 0.3137 0.9495 121.317 175.1583)" class="st6" width="57" height="6"/>
			</g>
			
				<rect x="486.1" y="-326.8" transform="matrix(0.9495 -0.3137 0.3137 0.9495 129.4864 157.1354)" class="st6" width="133.9" height="6"/>
			
				<rect x="479.8" y="-355.8" transform="matrix(0.9495 -0.3137 0.3137 0.9495 135.1225 154.2007)" class="st30" width="133.9" height="26"/>
			<g>
				
					<rect x="507.3" y="-262.2" transform="matrix(0.9495 -0.3137 0.3137 0.9495 110.3159 167.0639)" class="st6" width="133.9" height="6"/>
				
					<rect x="510.6" y="-252.8" transform="matrix(0.9495 -0.3137 0.3137 0.9495 107.5232 168.5709)" class="st6" width="133.9" height="6"/>
				
					<rect x="513.6" y="-243.3" transform="matrix(0.9495 -0.3137 0.3137 0.9495 104.6783 169.9989)" class="st6" width="133.9" height="6"/>
			</g>
			<g>
				
					<rect x="531.8" y="-188.2" transform="matrix(0.9495 -0.3137 0.3137 0.9495 88.3163 178.4938)" class="st6" width="133.9" height="6"/>
				
					<rect x="535.8" y="-173.9" transform="matrix(0.9495 -0.3137 0.3137 0.9495 83.2855 175.7545)" class="st6" width="104" height="6"/>
			</g>
			<g>
				
					<rect x="520.7" y="-218.1" transform="matrix(0.9495 -0.3137 0.3137 0.9495 96.0127 166.46)" class="st30" width="89" height="6"/>
				
					<rect x="523.8" y="-208.7" transform="matrix(0.9495 -0.3137 0.3137 0.9495 93.211 167.9012)" class="st6" width="89" height="6"/>
				
					<rect x="527" y="-199.1" transform="matrix(0.9495 -0.3137 0.3137 0.9495 90.3737 169.3953)" class="st6" width="89" height="6"/>
				
					<rect x="619.1" y="-241.3" transform="matrix(0.9496 -0.3136 0.3136 0.9496 103.695 188.1253)" class="st20" width="35" height="26"/>
			</g>
			<g>
				
					<rect x="499.8" y="-289.6" transform="matrix(0.9495 -0.3137 0.3137 0.9495 110.5996 144.1939)" class="st6" width="7" height="36"/>
				
					<rect x="509.3" y="-292.8" transform="matrix(0.9495 -0.3138 0.3138 0.9495 112.1256 147.0431)" class="st6" width="7" height="36"/>
				
					<rect x="518.8" y="-295.9" transform="matrix(0.9495 -0.3138 0.3138 0.9495 113.5833 149.8755)" class="st6" width="7" height="36"/>
				
					<rect x="528.4" y="-299" transform="matrix(0.9495 -0.3138 0.3138 0.9495 115.0386 152.7064)" class="st6" width="7" height="36"/>
				
					<rect x="537.8" y="-302.2" transform="matrix(0.9495 -0.3137 0.3137 0.9495 116.4729 155.4678)" class="st6" width="7" height="36"/>
				
					<rect x="547.3" y="-305.3" transform="matrix(0.9496 -0.3134 0.3134 0.9496 117.7896 158.16)" class="st6" width="7" height="36"/>
				
					<rect x="556.9" y="-308.3" transform="matrix(0.9495 -0.3138 0.3138 0.9495 119.4028 161.1904)" class="st6" width="7" height="36"/>
				
					<rect x="503" y="-270.1" transform="matrix(0.9496 -0.3134 0.3134 0.9496 107.6607 145.5488)" class="st11" width="7" height="16"/>
				
					<rect x="512" y="-276.2" transform="matrix(0.9495 -0.3137 0.3137 0.9495 109.6834 148.2646)" class="st11" width="7" height="19"/>
				
					<rect x="522.7" y="-272.4" transform="matrix(0.9495 -0.3138 0.3138 0.9495 110.1774 151.6511)" class="st11" width="7" height="12"/>
				
					<rect x="530.5" y="-285.4" transform="matrix(0.9495 -0.3137 0.3137 0.9495 113.0294 153.6779)" class="st11" width="7" height="22"/>
				
					<rect x="539.4" y="-292.4" transform="matrix(0.9495 -0.3137 0.3137 0.9495 115.0566 156.22)" class="st11" width="7" height="26"/>
				
					<rect x="552.1" y="-276" transform="matrix(0.9495 -0.3138 0.3138 0.9495 113.7252 160.5432)" class="st11" width="7" height="6"/>
				
					<rect x="560" y="-288.9" transform="matrix(0.9496 -0.3134 0.3134 0.9496 116.4157 162.4395)" class="st11" width="7" height="16"/>
			</g>
		</g>
	</g>
	<g id="occhiali">
		<g>
			<g>
				<path class="st2" d="M633.2-245.2c-1.3-0.2-2.2-1.5-2-2.8c1.6-9.2-4.6-18.1-13.8-19.7l-86.3-15.2c-1.3-0.2-2.2-1.5-2-2.8
					c0.2-1.3,1.5-2.2,2.8-2l86.3,15.2c11.9,2.1,19.9,13.5,17.8,25.4C635.8-245.9,634.5-245,633.2-245.2z"/>
			</g>
		</g>
		<g>
			<g>
				<g>
					<path class="st2" d="M633.2-245.2c-1.3-0.2-2.2-1.5-2-2.8c1.6-9.2-4.6-18.1-13.8-19.7l-86.3-15.2c-1.3-0.2-2.2-1.5-2-2.8
						c0.2-1.3,1.5-2.2,2.8-2l86.3,15.2c11.9,2.1,19.9,13.5,17.8,25.4C635.8-245.9,634.5-245,633.2-245.2z"/>
				</g>
			</g>
			<g>
				<g>
					<path class="st2" d="M537.4-262.1c-1.3-0.2-2.2-1.5-2-2.8c2.1-11.9,13.5-19.9,25.4-17.8l86.3,15.2c1.3,0.2,2.2,1.5,2,2.8
						c-0.2,1.3-1.5,2.2-2.8,2L560-277.9c-9.2-1.6-18.1,4.6-19.7,13.8C539.9-262.7,538.7-261.9,537.4-262.1z"/>
				</g>
			</g>
		</g>
		<g class="st31">
			<g>
				<g>
					<path class="st32" d="M576.1-257.7c-0.9,5.3-6,8.8-11.3,7.9l-28.8-5.1c-5.3-0.9-8.8-6-7.9-11.3l3.4-19.2
						c0.9-5.3,6-8.8,11.3-7.9l28.8,5.1c5.3,0.9,8.8,6,7.9,11.3L576.1-257.7z"/>
				</g>
			</g>
		</g>
		<g class="st31">
			<g>
				<g>
					<path class="st32" d="M643.2-245.9c-0.9,5.3-6,8.8-11.3,7.9l-28.8-5.1c-5.3-0.9-8.8-6-7.9-11.3l3.4-19.2
						c0.9-5.3,6-8.8,11.3-7.9l28.8,5.1c5.3,0.9,8.8,6,7.9,11.3L643.2-245.9z"/>
				</g>
			</g>
		</g>
		<g>
			<g>
				<path class="st2" d="M595.7-256.8c-1.3-0.2-2.2-1.5-2-2.8c0.7-4-2-7.8-5.9-8.5c-4-0.7-7.8,2-8.5,5.9c-0.2,1.3-1.5,2.2-2.8,2
					c-1.3-0.2-2.2-1.5-2-2.8c1.2-6.6,7.5-11,14.1-9.9c6.6,1.2,11,7.5,9.9,14.1C598.3-257.4,597-256.5,595.7-256.8z"/>
			</g>
		</g>
		<g class="st31">
			<path class="st32" d="M542.8-292.9c-5.3-0.9-10.2,2.3-11.1,7.6l-3.4,19.2c-0.9,5.3,2.5,10.8,7.8,11.7l14.1,2.5l6.8-38.4
				L542.8-292.9z"/>
		</g>
		<g class="st31">
			<path class="st32" d="M609.9-281.1c-5.3-0.9-9.4,2.4-10.3,7.7l-3.4,19.2c-0.9,5.3,1.6,10.6,6.9,11.5l14,2.5l6.8-38.4L609.9-281.1
				z"/>
		</g>
		<g>
			<g>
				<path class="st21" d="M638.3-274l-28.8-5.1c-4-0.7-7.8,2-8.5,5.9l-3.4,19.2c-0.7,4,2,7.8,5.9,8.5l28.8,5.1c4,0.7,7.8-2,8.5-5.9
					l3.4-19.2C644.9-269.5,642.2-273.3,638.3-274z"/>
			</g>
			<g>
				<path class="st21" d="M571.2-285.8l-28.8-5.1c-4-0.7-7.8,2-8.5,5.9l-3.4,19.2c-0.7,4,2,7.8,5.9,8.5l28.8,5.1
					c4,0.7,7.8-2,8.5-5.9l3.4-19.2C577.8-281.3,575.1-285.1,571.2-285.8z"/>
			</g>
			<g>
				<path class="st2" d="M572-290.6l-28.8-5.1c-6.6-1.2-12.9,3.3-14.1,9.9l-3.4,19.2c-1.2,6.6,3.3,12.9,9.9,14.1l28.8,5.1
					c6.6,1.2,12.9-3.3,14.1-9.9l3.4-19.2C583-283.1,578.6-289.4,572-290.6z M573.7-258.2c-0.7,4-4.5,6.6-8.5,5.9l-28.8-5.1
					c-4-0.7-6.6-4.5-5.9-8.5l3.4-19.2c0.7-4,4.5-6.6,8.5-5.9l28.8,5.1c4,0.7,6.6,4.5,5.9,8.5L573.7-258.2z"/>
			</g>
			<g>
				<path class="st2" d="M639.1-278.8l-28.8-5.1c-6.6-1.2-12.9,3.3-14.1,9.9l-3.4,19.2c-1.2,6.6,3.3,12.9,9.9,14.1l28.8,5.1
					c6.6,1.2,12.9-3.3,14.1-9.9l3.4-19.2C650.1-271.3,645.7-277.6,639.1-278.8z M640.8-246.3c-0.7,4-4.5,6.6-8.5,5.9l-28.8-5.1
					c-4-0.7-6.6-4.5-5.9-8.5l3.4-19.2c0.7-4,4.5-6.6,8.5-5.9l28.8,5.1c4,0.7,6.6,4.5,5.9,8.5L640.8-246.3z"/>
			</g>
		</g>
	</g>
	<g id="calcolatrice">
		<path class="st3" d="M1684.2-332.3l-33.9-36.1c-2.6-2.8-7.1-2.9-9.9-0.3l-53.9,50.6c-2.8,2.6-2.9,7.1-0.3,9.9l33.9,36.1
			c2.6,2.8,7.1,2.9,9.9,0.3l53.9-50.6C1686.7-325,1686.9-329.5,1684.2-332.3z"/>
		<g>
			<path class="st19" d="M1590.5-318.1c-2.8,2.6-2.9,7.1-0.3,9.9l33.9,36.1c2.6,2.8,7.1,2.9,9.9,0.3l53.9-50.6
				c2.8-2.6,2.9-7.1,0.3-9.9l-33.9-36.1c-2.6-2.8-7.1-2.9-9.9-0.3L1590.5-318.1z"/>
			<g>
				
					<rect x="1627" y="-346.6" transform="matrix(0.6844 0.7291 -0.7291 0.6844 265.6164 -1297.5798)" class="st11" width="9.3" height="9.3"/>
				
					<rect x="1636.5" y="-336.4" transform="matrix(0.6844 0.7291 -0.7291 0.6844 276.0834 -1301.2721)" class="st11" width="9.3" height="9.3"/>
				
					<rect x="1646.2" y="-326.1" transform="matrix(0.6844 0.7291 -0.7291 0.6844 286.5908 -1305.0847)" class="st11" width="9.3" height="9.3"/>
				
					<rect x="1655.7" y="-315.9" transform="matrix(0.6844 0.7291 -0.7291 0.6844 297.0519 -1308.7994)" class="st11" width="9.3" height="9.3"/>
				
					<rect x="1616.7" y="-337.1" transform="matrix(0.6845 0.729 -0.729 0.6845 269.2019 -1286.8502)" class="st11" width="9.3" height="9.3"/>
				
					<rect x="1626.4" y="-326.9" transform="matrix(0.6844 0.7291 -0.7291 0.6844 279.8211 -1290.9225)" class="st11" width="9.3" height="9.3"/>
				
					<rect x="1635.9" y="-316.5" transform="matrix(0.6843 0.7292 -0.7292 0.6843 290.4796 -1294.7228)" class="st11" width="9.3" height="9.3"/>
				
					<rect x="1645.6" y="-306.3" transform="matrix(0.6844 0.7291 -0.7291 0.6844 300.87 -1298.402)" class="st11" width="9.3" height="9.3"/>
				
					<rect x="1606.4" y="-327.4" transform="matrix(0.6843 0.7292 -0.7292 0.6843 273.2866 -1276.6631)" class="st11" width="9.3" height="9.3"/>
				
					<rect x="1616.2" y="-317.1" transform="matrix(0.6844 0.7291 -0.7291 0.6844 283.688 -1280.3665)" class="st11" width="9.3" height="9.3"/>
				
					<rect x="1625.7" y="-307" transform="matrix(0.6844 0.7291 -0.7291 0.6844 294.105 -1284.1053)" class="st11" width="9.3" height="9.3"/>
				
					<rect x="1635.3" y="-296.7" transform="matrix(0.6844 0.7291 -0.7291 0.6844 304.6275 -1287.8229)" class="st11" width="9.3" height="9.3"/>
				
					<rect x="1596.3" y="-317.8" transform="matrix(0.6845 0.729 -0.729 0.6845 276.7966 -1265.9287)" class="st11" width="9.3" height="9.3"/>
				
					<rect x="1605.9" y="-307.6" transform="matrix(0.6846 0.729 -0.729 0.6846 287.1746 -1269.5752)" class="st11" width="9.3" height="9.3"/>
				
					<rect x="1613.2" y="-292.1" transform="matrix(0.6844 0.7291 -0.7291 0.6844 303.2296 -1275.4084)" class="st33" width="23.4" height="9.3"/>
			</g>
			
				<rect x="1634" y="-348.7" transform="matrix(0.6844 0.7291 -0.7291 0.6844 276.3445 -1317.2013)" class="st34" width="51.4" height="18.7"/>
			
				<rect x="1663.8" y="-337.3" transform="matrix(0.6843 0.7292 -0.7292 0.6843 283.449 -1319.9467)" class="st35" width="4.7" height="9.3"/>
			
				<rect x="1670" y="-330.5" transform="matrix(0.6848 0.7288 -0.7288 0.6848 289.7857 -1321.455)" class="st35" width="4.7" height="9.4"/>
			
				<rect x="1651" y="-350.8" transform="matrix(0.6842 0.7293 -0.7293 0.6842 269.6646 -1315.0773)" class="st35" width="4.7" height="9.3"/>
			
				<rect x="1657.3" y="-344" transform="matrix(0.6843 0.7292 -0.7292 0.6843 276.5208 -1317.3064)" class="st35" width="4.7" height="9.3"/>
		</g>
	</g>
	<g id="hellocontainer">
		<text id="hello" transform="matrix(1 0 0 1 528.9884 19.5552)" class="st35 st36 st37">hello</text>
	</g>
	<g id="subtitle">
		<text id="scrolldown" transform="matrix(1 0 0 1 907.8571 19.5552)" class="st38 st39 st40">scroll down</text>
		<text id="viewresume" transform="matrix(1 0 0 1 982.4572 19.5552)" class="st41 st39 st40">or just view my resume.</text>
	</g>
</g>
<g id="scrollthing">
	<rect x="1468" y="-576.4" class="st42" width="14.7" height="170.5"/>
	<g id="moving">
		<rect id="scrollertop" x="1469.6" y="-574.1" class="st0" width="11.5" height="81.6"/>
		<g id="cursor">
			<g>
				<polygon class="st42" points="1447.3,-538 1447.3,-537 1443.2,-537 1443.2,-535.1 1443.2,-535.1 1442.2,-535.1 1442.2,-538 
					1442.2,-538 1443.2,-538 1445.2,-538 1445.2,-538.9 1446.2,-538.9 1446.2,-538 				"/>
				<polygon class="st42" points="1446.2,-531.2 1446.2,-529.3 1445.1,-529.3 1445.1,-529.3 1445.1,-531.2 1445.2,-531.2 				"/>
				<rect x="1444.2" y="-539.8" class="st42" width="1" height="1"/>
				<polygon class="st42" points="1445.2,-533.2 1445.2,-531.2 1445.1,-531.2 1444.2,-531.2 1444.2,-533.2 1444.2,-533.2 				"/>
				<polygon class="st42" points="1445.1,-529.3 1445.1,-528.3 1443.2,-528.3 1443.2,-529.3 1443.2,-529.3 				"/>
				<rect x="1443.2" y="-540.8" class="st42" width="1" height="1"/>
				<polygon class="st42" points="1444.2,-535.1 1444.2,-533.2 1444.2,-533.2 1443.2,-533.2 1443.2,-535.1 1443.2,-535.1 				"/>
				<polygon class="st42" points="1443.2,-531.2 1443.2,-529.3 1443.2,-529.3 1442.2,-529.3 1442.2,-531.2 				"/>
				<rect x="1442.2" y="-541.8" class="st42" width="1" height="1"/>
				<polygon class="st42" points="1442.2,-531.2 1442.2,-531.2 1441.2,-531.2 1441.2,-533.1 1441.2,-533.1 1442.2,-533.1 				"/>
				<rect x="1441.2" y="-542.8" class="st42" width="1" height="1"/>
				<polygon class="st42" points="1441.2,-535.1 1441.2,-533.1 1441.2,-533.1 1440.2,-533.1 1440.2,-535.1 1440.2,-535.1 				"/>
				<rect x="1440.2" y="-543.8" class="st42" width="1" height="1"/>
				<rect x="1439.2" y="-544.8" class="st42" width="1" height="1"/>
				<polygon class="st42" points="1440.2,-535.1 1440.2,-535.1 1439.2,-535.1 1439.2,-535.1 1439.2,-537 1440.2,-537 				"/>
				<rect x="1438.2" y="-545.8" class="st42" width="1" height="1"/>
				<polygon class="st42" points="1439.2,-535.1 1439.2,-534.1 1438.2,-534.1 1438.2,-535.1 				"/>
				<rect x="1437.2" y="-534.1" class="st42" width="1" height="1"/>
				<rect x="1437.2" y="-546.8" class="st42" width="1" height="1"/>
				<polygon class="st42" points="1437.2,-533.1 1437.2,-532.1 1436.2,-532.1 1436.2,-531.3 1435.2,-531.3 1435.2,-548.8 
					1436.2,-548.8 1436.2,-547.8 1437.2,-547.8 1437.2,-546.8 1436.2,-546.8 1436.2,-533.1 				"/>
			</g>
		</g>
	</g>
</g>
<g id="intro3">
	<text transform="matrix(1 0 0 1 533.3232 282.395)" class="st43 st44 st45">a design and technology hybrid .</text>
	<text transform="matrix(1 0 0 1 531.4353 222.795)" class="st43 st44 st45">   - Participate in the design process: Discover, Ideate, Design &amp; Def ine </text>
	<text transform="matrix(1 0 0 1 531.4353 244.395)" class="st43 st44 st45">   - Leads the UI development efforts across all web applications, ensuring best practices are followed at all times. </text>
	<text transform="matrix(1 0 0 1 531.4353 200.595)" class="st43 st44 st45">* An engineer who has the technical knowhow and edge to create production code and:  </text>
</g>
<g id="intro2">
	<text id="h" transform="matrix(1 0 0 1 528.9753 144.395)" class="st46 st44 st47">I’m Lead Product Design Engineer* @ Workshare.com, London</text>
</g>
<g id="intro1">
	<text transform="matrix(1 0 0 1 529.4753 58.9486)" class="st35 st44 st47">I’m Albino Tonnina,</text>
	<text transform="matrix(1 0 0 1 529.4753 94.9486)" class="st35 st44 st47">a self-taught developer.</text>
</g>
</svg>
