<svg id="svg5" xmlns="http://www.w3.org/2000/svg" viewBox="496 -368 1024 768"><rect x="-5387" y="-5505.5" width="12784.6" height="11218" fill="#f5ecd9" id="bg5"/><rect x="-7157.5" y="-7466" width="15687.9" height="14889" fill="#2bacb5" stroke="#000" stroke-miterlimit="10" id="sky"/><g id="june" fill="#e84d5b" font-family="Roboto-Thin"><text transform="translate(526 43.632)" font-size="36">London, June 2014,</text><text transform="translate(526 101.231)" font-size="48">Good news, everyone!</text><text transform="translate(526 144.432)" font-size="36">I’m a senior frontend developer at Workshare,</text><text transform="translate(526 187.632)" font-size="36">a provider of secure enterprise file sharing</text><text transform="translate(526 230.832)" font-size="36">and collaboration applications. And it’s great!</text></g><g id="london"><title>Layer 1</title><g id="svg_2"><g id="layer17"><path id="path4607" d="M2089.9 629.4l-.5-56.5h-20.5v53.8h-11.2v-66.4h-19.3v49.6h-15.6v-39.1H2006v37h-15.5v-49.6s-13.1-39.1-23.6 0v49.6h-3.1v-83.1l-20.9 13.6v74.1h-8.9v-73.7h-5v-12.6h-15.2v10.5h-7.5v74h-8.1v-58.3l-4.4-.3-4.7-36.7-5 37h-6.2v58.3l-6.5-.7v-77.5l-12.5-24.3-11.4.2-13.6 26.5V612h-14.7v-90.8h-22.1v90.5h-5.3v-82.8h-17.4v79.3h-2.5v-69.8l-16.3 4.9v65.3h-18.2v-80l-5.7-11.1-6 11.6v78.5h-16.9v-82.8h-18.7v81.4h-3.8V516h-30.1v88.4h-12.1v-49.6H1627v47.1h-2.5v-88h-20.2v88.7h-5.6v-81.4h-24.6V604h-11.5v-82h-7.3v-22.2h-13V522h-9.5v82.5h-12.3v-55.3h-20.9v55.6H1480V529s-11.4-15.8-25.9-1.7c.2 7.7 0 78.3 0 78.3h-4.9V539h-14.9l-15.1 63.3h-7.7V575l-3.3-9.1-2.9 9.1H1389l-1.9-8.3-2.9 8.3v27.1h-10.9v-41.9h-13.6v41h-6.3v-71.1h-19.3v70.1h-13.6v-80.5H1299V537h-7.9v-19.8h-19.3v82.5h-5.3v-50.4h-12.7v48.9h-8.8v-64.7h-14.5v63.7H1216v-78.5h-16.7l.9 110.1 889.7.6z" fill="#e84d5b"/><path id="path4611" d="M803.8 640.4l.4-56.5h20.5v53.8H836v-66.4h19.3v49.6h15.6v-39.1h16.8v37h15.5v-49.6s13.1-39.1 23.6 0v49.6h3.1v-83.1l20.9 13.6v74.1h8.9v-73.7h5v-12.6H980v10.5h7.5v74h8.1v-58.3l4.3-.4 4.7-36.7 5 37h6.2v58.3l6.5-.7v-77.5l12.5-24.3 11.4.2 13.6 26.5V623h14.7v-90.8h22.1v90.5h5.3v-82.8h17.4v79.3h2.5v-69.8l16.3 4.9v65.3h18.2v-80l5.7-11.1 6 11.6v78.5h16.9v-82.8h18.7v81.4h3.8V527h30.1v88.4h12.1v-49.6h17.1v47.1h2.5v-88h20.2v88.7h5.6v-81.4h24.6V615h11.5v-82h7.3v-22.2h13V533h9.5v82.5h12.3v-55.3h20.9v55.6h19.6V540s11.4-15.8 25.9-1.7c-.2 7.7 0 78.3 0 78.3h4.8V550h15l15.1 63.3h7.7V586l3.3-9.1 2.9 9.1h16.3l1.9-8.3 2.9 8.3v27.1h10.9v-41.9h13.6v41h6.3v-71.1h19.3v70.1h13.6v-80.5h21.6V548h7.9v-19.8h19.3v82.5h5.3v-50.4h12.7v48.9h8.8v-64.7h14.5v63.7h14.5v-78.5h16.7l-.9 110.1-889.8.6z" fill="#e84d5b"/><path id="path6551" d="M365.3 646.3l.4-56.5h20.5v53.8h11.2v-66.4h19.3v49.6h15.6v-39.1h16.8v37h15.5v-49.6s13.1-39.1 23.6 0v49.6h3.1v-83.1l20.9 13.6v74.1h8.9v-73.7h5V543h15.2v10.5h7.5v74h8.1v-58.3l4.4-.3 4.7-36.7 5 37h6.2v58.3l6.5-.7 6.8-87 8.6-14.9 8.6.2 9.9 14.7 3.7 89H636V538h22.1v90.5h5.3v-82.8h17.4V625h2.5v-69.9l16.3 4.9v65.3h18.2v-80l5.7-11.1 6 11.6v78.5h16.9v-82.8H765v81.4h3.7v-90.1h30.2v88.4H811v-49.6h17.1v47.2h2.5v-88h20.2v88.7h5.6v-81.4H881v82.8h11.5v-82h7.3v-22.2h13v22.2h9.5v82.5h12.3V566h20.9v55.6h19.6v-75.8s11.4-15.8 25.9-1.7c-.2 7.7 0 78.3 0 78.3h4.8V556h15l15.1 63.3h7.8V592l3.3-9.1 2.9 9.1h16.3l1.9-8.3 2.9 8.3v27h11v-41.9h13.6v41h6.2V547h19.4v70.1h13.6v-80.5h21.6v17.3h7.9v-19.8h19.4v82.5h5.3v-50.4h12.7v48.9h8.8v-64.7h14.5v63.7h14.5v-78.5h16.7l-.9 110.1-890 .6z" fill="#00adef"/><path id="path2709" d="M1466.6 625.2h5.1v-90.8h22.1v90.5h5.3v-82.8h17.4v79.3h2.5v-69.8l16.3 4.9v65.3h18.2v-80l5.7-11.1 6 11.6v78.5h16.9V538h18.7v81.4h3.8v-90.1h30.1v88.4h12.1V568h17.1v47.1h2.5v-88h20.2v88.7h5.6v-81.4h24.6v82.8h11.5v-82h7.3V513h13v22.2h9.5v82.5h12.3v-55.3h20.9V618h19.6v-75.8s11.4-15.8 25.9-1.7c-.2 7.7 0 78.3 0 78.3h4.8v-66.4h15l15.1 63.3h7.7v-27.3l3.3-9.1 2.9 9.1h16.3l1.9-8.3 2.9 8.3v27.1h10.9v-41.9h13.6v41h6.3v-71.1h19.3v70.1h13.6V533h21.6v17.3h7.9v-19.8h19.3V613h5.3v-50.4h12.7v48.9h8.8v-64.7h14.5v63.7h14.5V532h16.7l-.9 110.1-624.3.4" fill="#f7f7f7"/></g><g id="layer14"><path id="path4146" d="M87.5 610.6V477c0-6.3 7.6-21.3 17.2-21.6 10-.3 17.9 15.7 18.1 21.6v132.8l-35.3.8z" fill="#999"/><path id="path4153" d="M410.2 399.8l10.4 36.3V615l-45.3.5V434.1l10-33.3 12.7-23.1 12.2 22.1z" fill="#e84d5b"/><path id="path4155" d="M436.4 586.9V428.8h9.4V439h22.3v-10.2h8.8v158.1h-40.5z" fill="#00adef"/><path id="path4602" d="M1952.7 610.4l.3-180-36 25.4v154.6h35.7z" fill="#ececec"/><path id="path4604" d="M1999.8 488l5.9 20.6v101.5l-25.7.3v-103l5.7-18.9 7.2-13.1 6.9 12.6z" fill="#f2f2f2"/></g><g id="layer11"><g id="g3909" fill="#e84d5b" stroke="#000"><path id="path3094" d="M1887.2 673.4l-.1-47.6s3.6-.5 5.6-3.1V496.6h-38.4v126.1c2 2.5 5.6 3.1 5.6 3.1v46.9c6.3 6.2 21 4.7 27.3.7z" stroke-width=".13"/><path id="path3096" d="M1865.9 496.8l-.1-66.1h15.3v66.1h-15.2z" stroke-width=".13"/><path id="path3098" d="M1855.9 485.3v4.7h35.2v-4.7h-35.2z" stroke-width=".13"/><path id="path3100" d="M1856.1 472v4.7h35.2V472h-35.2z" stroke-width=".13"/><path id="path3102" d="M1855.9 458.7v4.7h35.2v-4.7h-35.2z" stroke-width=".13"/><path id="path3104" d="M1856.2 445.4v4.7h35.3v-4.7h-35.3z" stroke-width=".13"/><path id="path3106" d="M1855.9 431.8v4.7h35.2v-4.7h-35.2z" stroke-width=".13"/><path id="path3108" d="M1881.3 430.6s9.6-.4 11.4-1.8c-.1-3.3-.1-3.4-.1-3.4s-.6-.6-2.3-1c-.1.1-.1-.8-.1-.8h1.6l.7-.8v-13.6h1s.6-.4.8-1v-17.6s-.8-1.1-1.9-1.5c.1-.1 0-12 0-12-1.2-2.2-6.7-3-10.4-3.6v-.9s3.2-.2 3.8-1c.1 0 1.2-1.1 1.2-1.6v-8.3c-.4-.8-3.7-2.3-6.7-2.5h-13.9c-3 .2-6.3 1.7-6.7 2.5 0 0-.1 8.2 0 8.2.1.5 1.1 1.6 1.2 1.6.6.8 3.7 1 3.7 1v.9c-3.7.6-9.1 1.4-10.3 3.6 0 0-.1 11.9 0 12-1.1.4-1.9 1.5-1.9 1.5v17.6c.2.7.9 1 .9 1h1v13.6l.7.8h1.6s0 .9-.1.8c-1.7.3-2.3 1-2.3 1s0 .1-.1 3.4c1.8 1.4 11.4 1.8 11.4 1.8l15.8.1z" stroke-width=".13"/><path id="path3110" d="M1857 485.2v-.9h-2.1l-.4 1.4h-2.4l-.5-2.5v-2.6l.4-1.7 2.5-.1.6.9v3.8l2.8.1v1.5l-.9.1z" stroke-width=".13"/><path id="path3112" d="M1856.3 471.8v-.9h-2.1l-.4 1.4h-2.4l-.5-2.5v-2.6l.5-1.7 2.5-.1.6.9v3.8l2.8.1v1.5l-1 .1z" stroke-width=".13"/><path id="path3114" d="M1856.8 458.7v-.9h-2.1l-.4 1.4h-2.4l-.5-2.5V454l.4-1.7 2.5-.1.6.9v3.8l2.7.1v1.5l-.8.2z" stroke-width=".13"/><path id="path3116" d="M1860.4 445.3v-.9h-2.1l-.4 1.4h-2.4l-.5-2.5v-2.6l.4-1.7 2.5-.1.6.9v3.8l2.7.1.1 1.5-.9.1z" stroke-width=".13"/><path id="path3118" d="M1888.7 464.9h-2.9s-3.5 2.9-.1 6.8c.1-.1 3.8.2 3.8.2s3.2-4.2-.8-7z" stroke-width=".13"/><path id="path3120" d="M1888.9 478.8h-2.9s-3.5 2.9-.1 6.8c.1-.1 3.8.2 3.8.2s3.2-4.3-.8-7z" stroke-width=".13"/><path id="path3122" d="M1888.9 452.3h-2.3s-2.8 2.9-.1 6.8c.1-.1 3.1.2 3.1.2s2.5-4.3-.7-7z" stroke-width=".117"/><path id="path3124" d="M1885.4 441.1h-2.1s-2.5 2.9-.1 6.8c.1-.1 2.7.2 2.7.2s2.4-4.2-.5-7z" stroke-width=".11"/><path id="path3126" d="M1862.4 453.4h-2.5s-3.1 2.9-.1 6.8c.1-.1 3.3.2 3.3.2s2.8-4.3-.7-7z" stroke-width=".122"/><path id="path3128" d="M1863.3 466.2h-2.9s-3.5 3.1-.1 7.3c.1-.1 3.8.2 3.8.2s3.1-4.5-.8-7.5z" stroke-width=".134"/><path id="path3130" d="M1862.7 479.2h-2.7s-3.3 2.9-.1 6.8c.1-.1 3.6.2 3.6.2s3-4.2-.8-7z" stroke-width=".126"/><path id="path3132" d="M1868 325.6l11.1.2-.4 4.6h-10.8l.1-4.8z" stroke-width=".143"/><path id="path3134" d="M1878.3 335.1h-9.2v4.6h9.1l.1-4.6z" stroke-width=".187"/><path id="path3136" d="M1869.6 344.9h7.8v5h-7.7l-.1-5z" stroke-width=".201"/><path id="path3138" d="M1870.8 354h5.6v2.8h-5.6V354z" stroke-width=".2"/><path id="path3140" d="M1870.4 359.4l-2.6-33.6 11.4.2-2.7 33.5-6.1-.1z" stroke-width=".324"/><path id="path3142" d="M1873.8 325.4v-23.1" stroke-width=".311"/></g></g><g id="layer10"><path id="path3090" d="M1774.9 671.7c-.5 2-2.7 4.8-2.9 5-15.1 13.5-55 15.8-76.7-1.7-.9-.7-4.7-6.1-4.7-6.3-3.9-37.5-27.4-266.8 38-355.6-.5-.5 7-.5 7-.5 68.9 78 42.6 358.7 39.3 359.1z" fill="#00adef" stroke="#000" stroke-width=".164"/></g><g id="layer9"><path id="path3293" d="M1334.7 671.8V664l.8-.9v-25.3s-1.1-1.6-.9-1.8c-.1-.3-.1-1.9-.1-1.9h1.1v-23.6l-1-.8v-.7h1l-1-1.4v-1.3l-1.4-.9v-1.1l1.3-1v-1.5l.9-.7v-5.5h-.8l-.4-.9v-.8l.5-.5h4.1v4.1h.8v.7h1.7v-.7h2.3v.9h1.3v.8h1.1v.5l.8.2v-3.1l.6-1.3.5-.6h5.4v.7h6.4v-.9h6v.9h15.5v-1h5.9v1h15.7v-1.2h5.8v1.2h15.1v-1.1h6.9v1h5.5v-.9h-.9v-1.7h-.6v-1.4h1.7v-10.9h-1.1v-3.1h.5v-26l-1.4-1.5v-1.3l1.8-.8v-3.4l-.5-.1v-.9l2.1-1.5 3.1-1.1h3.4V531l-1.3-1.1v-1.8h1.3v-.6h.6l-.1-.4h-.4l-.5-.6v-.7l1.5-1v-2.2h.7c1.1-10 6.4-29.4 22.3-35.7v-1.4h.7v-.9s-1.2.1-1.4-.8c0-.2-.1-1 .8-1.4h.5v-2.9h.4v-1.6h.5v1.4h1v-2.5h-.5v-1.5h1.1v-11l-1.2-1.1v-.9h1.3V459l1.2 1.4v1.7h1v-6.2h-1.3v-1.1h.7v-3.4s1.6-2.8 2.6-2.8v-1l-.8-.5v-.5h.9V444h.7s-.6-.5-.7-.9v-1s.3-.5.5-.5h.4v-.6c-2.8-1.5-.6-4.4 0-4.1l.1-5.4.5-2.9.4 2.9.1 5.4c.6-.3 2.8 2.6 0 4.1v.6h.4c.3 0 .5.5.5.5v1c-.1.4-.7.9-.7.9h.7v2.6h.9v.5l-.8.5v1c1 0 2.6 2.8 2.6 2.8v3.4h.7v1.1h-1.3v6.2h1v-1.7l1.2-1.4v3.4h1.3v.9l-1.2 1.1v11h1.1v1.5h-.5v2.5h1V478h.5v1.6h.4v2.9h.5c.8.4.8 1.1.8 1.4-.2.9-1.4.8-1.4.8v.9h.7v1.4c15.9 6.3 21.2 25.7 22.3 35.7h.6v2.2l1.5 1v.7l-.5.6h-.4l-.1.5h.6v.6h1.3v1.8l-1.3 1.1v9.9h3.4l3.2 1.1 2.2 1.5v.9l-.5.1v3.4l1.8.8v1.3l-1.3 1.5v26h.5v3.1h-1.1v10.9h1.7v1.4h-.6v1.7h-.8v.7h7.6v-1.3h6.9v1.3h15.3v-1.1h5.9v1.2h15.9v-1.2h6v1.1h14v-1.1h7.6v1h30.4v-6.2l-.9-.8v-4l.9-.5v-1.6h-.9V577h2.7v-2h1.3l-.8-1.3-.4-.6-.1-1.3h1v-1.6h.4v-13.9l-.8-.5-1.1-.6v-2h1.8v-3h.5V548h1.3v-2.6h-.6v-.9h.6v-1.1h.8v1.1h.5v.9h-.5v1.5h.7l.8-1.5v-4.6h-.6v-1.5h.9v-1.5h.7v-1.1h-.7v-1.2h.6v-1.1h.4l-.1-.4h.6l-.1-2 .9-1.3v-2.5l1.6-2.8h.3s.1-1.5.8-1.7c0-.1.1-1.1.1-1.1-.6-.1-.9-1.3-.1-1.7v-1.1c-1-.3-1-2.2.4-2.2 1.4.1 1.4 1.9.4 2.2v1.1c.9.4.6 1.6 0 1.7l.1 1.1c.7.1.8 1.7.8 1.7h.3l1.6 2.8v2.5l.8 1.3v2h.6l-.1.4h.4v1.1h.6v1.2h-.7v1.1h.7v1.5h.9v1.5h-.6v4.6l.8 1.4h.7v-1.5h-.5v-.9h.5v-1.1h.9v1.1h.5v.9h-.5v2.6h1.3v2.1h.5v3h1.8v2l-1.1.6-.7.5V570h.4v1.6h1l-.1 1.3-.4.6-.8 1.3h1.4v2.1h2.7v5.2h-.9v1.6l.9.5v4l-.9.8v5h3.7v-1.2s-.7-.6-.6-1.1v-2s.1-.7.5-.8c-.1 0 0-4.3 0-4.3l.4-.4s-.2-.9.5-.9c0 0 .8 0 .5 1l.7.5v1.2h-.3v.5h.5v4h-.4v10l.9.6v3.4h-.4v2h-.5V625h1.4v3.1h1v2.1h-.5v.9h-1.4v3.1h.5v2.2h-.5v1.9h-.5v23.9h.9v1h.5v.6h.5v8.1l-327.2-.1z" fill="#00adef"/></g><g id="layer8"><g id="g3281"><g id="g3293" fill="#00adef"><path id="path3295" d="M1206.5 504.8c0 1.2-1 2.2-2.3 2.2-1.3 0-2.3-1-2.3-2.2 0-1.2 1-2.2 2.3-2.2s2.3 1 2.3 2.2z"/><path id="path3297" d="M1203.9 503.2l.2-6.9.2 6.9h-.4z"/><path id="path3299" d="M1204.9 506.3c-.2 1.2.5 8.4.5 8.4 7.9 2.2 8.9 10 8.9 10h2.1v4.4h-2.2l-.1 33.4h-19.9v-33.1h-2.1v-4.7h2s.5-8.2 8.4-9.7c.1 0 1-7.3.8-8.5l1.6-.2z"/></g><g id="g3301" fill="#00adef"><path id="path3303" d="M1173.9 492.7c0 1.2-1 2.2-2.3 2.2-1.3 0-2.3-1-2.3-2.2 0-1.2 1-2.2 2.3-2.2 1.3 0 2.3 1 2.3 2.2z"/><path id="path3305" d="M1171.4 491.1l.1-6.9.2 6.9h-.3z"/><path id="path3307" d="M1172.4 494.2c-.2 1.2.4 8.4.5 8.4 7.9 2.2 8.9 10 8.9 10h2.1v4.4h-2.2l-.1 33.4h-19.9v-33.1h-2.1v-4.7h2s.5-8.2 8.4-9.7c.1 0 1-7.3.8-8.5l1.6-.2z"/></g><path id="path3310" d="M1294.8 492.5c0 1.2-1 2.2-2.3 2.2-1.3 0-2.3-1-2.3-2.2 0-1.2 1-2.2 2.3-2.2 1.2 0 2.3 1 2.3 2.2z" fill="#00adef"/><path id="path3312" d="M1292.2 490.9l.1-6.9.2 6.9h-.3z" fill="#00adef"/><g id="g3314" fill="#00adef"><path id="path3316" d="M1266.2 504c0 1.1-1 2-2.2 2-1.2 0-2.2-.9-2.2-2s1-2 2.2-2c1.2.1 2.2.9 2.2 2z"/><path id="path3318" d="M1263.7 502.6l.1-6.3.2 6.3h-.3z"/><path id="path3321" d="M1264.7 505.4c-.2 1.1.4 7.7.5 7.7 7.6 2.1 8.6 9.2 8.6 9.2h2v4h-2.2l-.1 30.6h-19.2l.1-30.4h-2.1v-4.3h1.9s.5-7.6 8.1-8.9c.1 0 1-6.7.8-7.8l1.6-.1z"/></g><path id="path3323" d="M1293.3 494.4c-.3 1.2.4 8.4.5 8.4 7.9 2.2 8.9 10 8.9 10h2.1v4.4h-2.2l-.2 33.4h-19.9v-33.1h-2.1v-4.7h2s.5-8.2 8.4-9.7c.1 0 1.1-7.3.8-8.5l1.7-.2z" fill="#00adef" stroke="#000" stroke-width=".071"/><path id="path3325" d="M1322.6 551.6v-4.8c-.6-.4-3.7-.7-3.7-.7v6l-3.3-.5v-5.7c-2-.4-2.9-.5-4.8-.6v5.4l-3.5-.5v-5.1c-2.6-.1-4.5-.1-4.5-.1l.1 5.1h-9.8v-5.4h-7.1l.1 5.5h-4.5v-5.4h-7v5.5h-4.5v-5.4h-7.1v5.5h-4.5V545h-7.1l.1 5.5h-4.5V545h-7.1l.1 5.5h-4.5v-5.4h-7.1v5.5h-4.5v-5.4h-7.1v5.5h-4.5v-5.4h-7.1l.1 5.5h-4.5v-5.4h-7.1v5.4h-4.5v-5.2h-27.1l.2 89.2c-.2.1 131.8-.5 132-.5 0 0 27.1-.4 28.6-4.1-.2-1.9-.3-78.5-.3-78.6z" fill="#00adef" stroke="#000" stroke-width=".07"/><path id="path3056" d="M1153 651.6V642s-1.7-.3-1.6-1c.1-.7 1.1-.2 1.4-1.1.9-2.8-.4-4.9-2.9-4.9-2.7 0-3.9 2.1-3 4.9.3.9 1.2.4 1.3 1.1.1.7-1.6 1-1.6 1l-.1 9.1v.5h6.5z" fill="#002f5b" stroke="#000" stroke-width=".24"/></g></g><g id="layer7"><g id="g12775" fill="#e84d5b" stroke="#e84d5b" stroke-miterlimit="10"><path id="path2236" d="M713.1 519.7h1.5l1.3-8.3.6-3-.9-.1-.1-.6h1.1l.9-6 .4-3.3.4 3.4.9 5.9h.9l.1.7-.9-.1 2.5 17.2.2 119.6h-33V525.7l2.5-17.5-.8.1.1-.6.8-.1.8-4.7.5-3.9.3 4 .8 4.5.8.1v.5l-.7.1.8 3.6 2.4 8.2h1.5l6.9-27.7 7.4 27.4z"/><path id="path7339" d="M917.3 519.6h2.1l1.3-8.4.6-3-.9-.1-.1-.6h1.1l.9-6 .4-3.3.4 3.4.9 5.9h.9l.1.7-.9-.1 2.5 17.2.2 119.6h-33V525.4l2.5-17.5-.8.1.1-.6.8-.1.8-4.7.5-3.9.3 4 .8 4.5.8.1v.5l-.7.1.8 3.6 2.1 8.6h1.9l6.8-28.1 6.8 27.6z"/><path id="path7342" d="M893.7 545.2h-78.3v-1.7s.5-3.4-1.4-3.2c.1 0-1.7-.3-1.5 2.8l-3.8-.1v-2.6s2.6-3.4-.9-4.7c-1.8.8-1.8 2.7-.7 4.4.5.8.2 2.1.2 2.9h-3.9s.1-2.8-1-2.8c0 0-2.4-.7-1.8 4h-79v13.1h176V545l-3.9.2z"/><g id="g13443"><path id="path8345" d="M691.5 558.4c-50.3 56.5-75.5 82.6-139.9 84.9 0 0-50.4 3.2-78.7-20.9v.1"/><path id="path8336" d="M690.8 555.4s-71.7 74.8-139.4 83.4c0 0-35.2 3.4-79.5-21.6"/><path id="path11254" d="M672.3 573.1l-5.4 12.7"/><path id="path11256" d="M664.2 579l10.9-.8"/><path id="path11258" d="M665.6 579.4l-4 11.1.4-.3"/><path id="path11262" d="M645.2 596l11.3-.9"/><path id="path11264" d="M642.8 597.5l-10.5 18.7"/><path id="path11266" d="M630.4 606.7l15.3.9"/><path id="path11268" d="M628.4 607.3l-10.2 19.3"/><path id="path11270" d="M617.2 613.9l13.4 5.7"/><path id="path11272" d="M614.8 615.8l-10.7 17.7"/><path id="path11274" d="M603.4 621.5l13.6 6.8"/><path id="path11276" d="M602.2 622.6L590.5 638"/><path id="path11278" d="M590.1 628.1l12.2 6"/><path id="path11280" d="M585.9 630.2l-9 11.2"/><path id="path11282" d="M575.8 633.6l10.5 5.2"/><path id="path11284" d="M572 635.2c-.4 0-8.4 7.4-8.4 7.4"/><path id="path11286" d="M563.1 636.9l8.9 4.8"/><path id="path11288" d="M560.5 638.3l-6.6 5.3"/><path id="path11290" d="M553 639.3l9.3 4.4"/><path id="path12267" d="M671.4 580.4v71.8"/><path id="path12269" d="M657.7 584.9v67.7"/><path id="path12271" d="M644.1 594.5v58"/><path id="path12273" d="M630 605.1v47.1"/><path id="path12275" d="M615.8 613.9v38.3"/><path id="path12277" d="M602.7 620.5V652l.4-.2"/><path id="path12279" d="M588.9 627v25.2"/><path id="path12281" d="M575.6 632.3v20.3"/><path id="path12283" d="M561.7 636.6v16.2"/><path id="path12376" d="M658.5 585.2l10.2-.7"/><path id="path12378" d="M654.6 588.1l-8.4 17.1"/><path id="path7591" d="M535.4 651.9v-14"/><path id="path7593" d="M520.9 651.9v-16.1"/><path id="path7595" d="M507.3 651.6v-19.3"/><path id="path7597" d="M493.5 651.1v-23.4h.4"/><path id="path7599" d="M480.2 650.5v-28.9"/><path id="path8572" d="M535.9 642.1l10.8-2.8"/><path id="path8574" d="M536 637.7l11.5 5.6"/><path id="path8576" d="M521.5 640.8l14.9-2.2"/><path id="path8578" d="M521.6 635.7l14 7.8v-.1"/><path id="path8580" d="M507.4 638.6l13.1-2.5"/><path id="path8582" d="M507.6 632.5l12.6 9.2"/><path id="path8584" d="M493.8 635l13.3-2.9"/><path id="path8586" d="M493.9 627.4l13.1 11.3"/><path id="path8588" d="M480.4 628.8l12.8-1.2"/><path id="path8590" d="M480.7 621.4l12.2 12.9"/></g><g id="g12056"><g id="g11860"><path id="path11866" d="M942.6 573.4l5.4 12.7"/><path id="path11868" d="M950.7 579.3l-10.9-.8"/><path id="path11870" d="M949.2 579.7l4 11.1-.4-.3"/><path id="path11872" d="M969.7 596.4l-11.3-.9"/><path id="path11874" d="M972 597.8l10.5 18.7"/><path id="path11876" d="M984.4 607l-15.3.9"/><path id="path11878" d="M986.4 607.6l10.2 19.3"/><path id="path11880" d="M997.6 614.3l-13.4 5.7"/><path id="path11882" d="M1000 616.1l10.6 17.7"/><path id="path11884" d="M1011.4 621.8l-13.6 6.8"/><path id="path11886" d="M1012.7 623l11.7 15.4"/><path id="path11888" d="M1024.8 628.5l-12.2 6"/><path id="path11890" d="M1029 630.5l9 11.1"/><path id="path11892" d="M1039 633.9l-10.5 5.2"/><path id="path11894" d="M1042.8 635.5c.4 0 8.4 7.4 8.4 7.4"/><path id="path11896" d="M1051.7 637.3l-8.9 4.8"/><path id="path11898" d="M1054.4 638.6l6.5 5.3"/><path id="path11900" d="M1061.8 639.6l-9.3 4.4"/><path id="path11902" d="M943.4 580.7v71.8"/><path id="path11904" d="M957.1 585.2v67.7"/><path id="path11906" d="M970.8 594.8v58"/><path id="path11908" d="M984.8 605.5v47.1"/><path id="path11910" d="M999 614.3v38.3"/><path id="path11912" d="M1012.1 620.8v31.5l-.4-.2"/><path id="path11914" d="M1025.9 627.4v25.2"/><path id="path11916" d="M1039.3 632.7V653"/><path id="path11918" d="M1053.1 637v16.2"/><path id="path11920" d="M956.3 585.6l-10.2-.7"/><path id="path11922" d="M960.2 588.4l8.4 17.1"/><path id="path11924" d="M1079.4 652.2v-14"/><path id="path11926" d="M1093.9 652.2v-16.1"/><path id="path11928" d="M1107.6 651.9v-19.3"/><path id="path11930" d="M1121.3 651.4V628h-.4"/><path id="path11932" d="M1134.6 650.8v-28.9"/><path id="path11934" d="M1079 642.4l-10.8-2.8"/><path id="path11936" d="M1078.9 638l-11.5 5.6"/><path id="path11938" d="M1093.4 641.2l-14.9-2.2"/><path id="path11940" d="M1093.2 636.1l-14 7.8v-.1"/><path id="path11942" d="M1107.4 638.9l-13.1-2.5"/><path id="path11944" d="M1107.2 632.8l-12.6 9.2"/><path id="path11946" d="M1121.1 635.4l-13.3-2.9"/><path id="path11948" d="M1121 627.8l-13.1 11.3"/><path id="path11950" d="M1134.4 629.1l-12.7-1.2"/><path id="path11952" d="M1134.1 621.7l-12.2 12.9"/></g><path id="path11954" d="M1162 617.7l46 31.2"/><path id="path11956" d="M1160.1 619.4l43.6 30.2"/></g><path id="path2241" d="M553 653.5v-9.8s-1.7-.3-1.6-1c.1-.7 1.1-.2 1.4-1.1.9-2.8-.5-4.9-2.9-5-2.7 0-3.9 2.1-3 5 .3.9 1.3.4 1.4 1.1.1.7-1.6 1-1.6 1l-.1 9.2v.5l6.4.1z"/><path id="path2249" d="M1068.1 653.5v-9.8s-1.7-.3-1.6-1.1c.1-.7 1.1-.2 1.4-1.1.9-2.8-.4-4.9-2.9-5-2.7 0-4 2.1-3 5 .3.9 1.3.4 1.4 1.1.1.7-1.6 1.1-1.6 1.1l-.1 9.2v.5l6.4.1z"/><path id="path10593" d="M451.2 653.6h228.5v-1.5s-203.2-.5-228.5-.5v2z"/><path id="path2253" d="M451.2 644.8H680v4.9H451.2v-4.9z"/><g id="g2268"><path id="path2264" d="M935.6 645.1h408.3v5.1H935.2l.4-5.1z"/><path id="path2266" d="M1343.2 652.3l-409.2-.2v1.7h409.1l.1-1.5z"/></g><path id="path2276" d="M883.7 644.8h53.5v34h-53.7l.2-34z"/><path id="path2280" d="M678.9 644.8h53.5v34h-53.7l.2-34z"/><g id="g4241"><path id="path2291" d="M727.7 647.6l68.8-38.5 2 4.6-68.8 38.5-2-4.6z"/><path id="path2296" d="M728.1 670.7c.1 0 41.8-38.8 69.5-54.7l1.9-1.1"/><path id="path3270" d="M735.4 663.6l-6.7-13 12.5 5.5-4.1-9.4 11.9 3.2-4-9 11 3.1-3.3-7.7 10.4 2.2-2.8-6.2 8.6 1.3-2.5-4.8 7.9.9-2-4.1 6.8.5-1.6-3.5 6.2.2-2.3-5"/></g><g id="g4247"><path id="path4249" d="M887.3 646.9l-68.8-38.5-2 4.6 68.8 38.5 2-4.6z"/><path id="path4251" d="M886.9 670c-.1 0-41.8-38.8-69.5-54.7l-1.9-1.1"/><path id="path4253" d="M879.6 662.9l6.7-13-12.5 5.5 4.1-9.4-11.9 3.2 4-9.1-11 3.1 3.3-7.7-10.4 2.2 2.8-6.2-8.6 1.3 2.5-4.8-7.9.9 2-4.1-6.8.5 1.6-3.5-6.2.2 2.3-5"/></g><path id="path12772" d="M461.8 577.3c.2-.1.4-.5.4-.8 0-.5-.3-.8-.7-.8-.4 0-.7.4-.7.8s.2.7.5.8l-.1 4.6H460v.9h.4s.1 1.3-.1 2.3c-3 8.8-5.8 9.9-5.8 9.9h-3.4l-1.6 3.5v12.1h-1.7v2.7h1.8v28.2l-2 5.8.1 29h27.4l-.1-29.4-2.1-5.8v-27.9h1.8v-2.7H473v-12.1l-1.4-3.4-3-.1s-2.4-1.7-5.8-10c-.1-1.5 0-2.2 0-2.2h.4v-.9H462l-.2-4.5z"/><path id="path12108" d="M1152.6 577.3c.3-.1.5-.5.5-.8 0-.5-.3-.8-.7-.8-.4 0-.7.4-.7.8s.2.7.5.8l-.1 4.6h-1.2v.9h.4s.1 1.3-.2 2.3c-3 8.8-5.8 9.9-5.8 9.9h-3.4l-1.7 3.5v12.1h-1.7v2.7h1.8v28.2l-2 5.8.1 29h27.4l-.1-29.4-2.1-5.8v-27.9h1.8v-2.7h-1.7v-12.1l-1.4-3.4-3-.1s-2.4-1.7-5.8-10c-.1-1.5 0-2.2 0-2.2h.4v-.9h-1.2l-.1-4.5z"/></g></g><g id="layer4" stroke="#000" stroke-width=".072"><path id="path2912" d="M307.8 611.2h33v-5.3h-3.3v-4.3h-3.8v-9.9l-2.3-1.5v-14.4l2.2-1.7v-1.7l-2.4-1.6v-2.6s0-.9-.7-1c0 0 .5-1.5-.6-2.1.1 0-.7-99.8-.7-99.8s-.6-.5-1-.6c.2-.1 1-8.3 3.1-10.2v-.4h-.4v-.6l.5-.2v-.5s-2-.2-2.4-1.1c0-.1-.8-4.6-2.9-5.1h-3.2c-1.7.3-2.9 5-2.9 5.1-.4.9-2.4 1.1-2.4 1.1v.5l.5.2v.6h-.4v.4c2.1 1.9 2.9 10.1 3.1 10.2-.4.1-1 .6-1 .6s-.8 99.7-.7 99.7c-1.1.5-.6 2-.6 2.1-.8 0-.7 1-.7 1v2.6l-2.4 1.6v1.7l2.2 1.7v14.4l-2.3 1.5v9.9h-3.8v4.4h-3.3v5.3h33" fill="#00adef"/><path id="path2914" d="M321.8 447.1h-3s.9-1.3 1-2.1c.2-.8 1.1-.9 1.2-1.5 0 .2.8-5.7 1.2-5.9.4-.2-.3-.3-.3-.3s-.2.6-.6.7c-.3 0-.6-1.8-.6-1.8v-2l.2-.2.1-.6.9-.2s.4.1.6.4c0 0 .4-.5.7-.4.3 0 .1-1.2.1-1.2l-.9-.1s.6-3.1 2-3.3c0 0 0-.4.1-.5.2-.1.4 0 .5 0l.1.6s.5.4.8.9c0-.2.5.8.5.8s.3 0 .3.1c.1.1 0 .6 0 .7l-.7.2-.4.2-.2.1-.1 1.5.6.4.1.2s.6-.1 1 0c.1 0 .4.7.3 1.3-.1.6.2 1.6.2 1.6l.4 1 .2 1.2.6.2.2.5v.4l-.6.3-1.4 6.8-.4-.2 1.6-6.8s-.4 0-.5-.1c-.2-.2-.9-2-.8-2.4-.1-.1-.3-.1-.3-.1v.8l.2.1v3.8l-.4 2-.8.1s-.2.7-.1.8c0 .1 1.1.1 1.1 1.4-.5 0-4.7.7-4.7.6z" fill="#e84d5b"/></g><g id="layer3"><g id="g3766" stroke="#d21c23"><path id="path2898" d="M283.9 523.1c0 61.7-44.6 111.8-99.5 111.8-55 0-99.5-50-99.5-111.8 0-61.7 44.6-111.8 99.5-111.8 55 0 99.5 50.1 99.5 111.8z" fill="none" stroke-width=".9"/><path id="path2900" d="M300.1 523.9c0 70.8-51.1 128.2-114.2 128.2-63 0-114.2-57.4-114.2-128.2 0-70.8 51.1-128.2 114.2-128.2s114.2 57.4 114.2 128.2z" fill="none" stroke-width="2.828"/><path id="path2902" d="M148.3 418.8l-10.3-9.9.8 15-10-9.2.8 14.4-9.3-8.7 1.9 14.5-10-6.6 3.3 12.8-12.6-3.7 5.5 11.7-11.8-2.7 5.9 12-13-2.1 7.8 11.3H85.2l8 7.7-12 2.4 8.2 7.6-12.4 4.2 9 8.1-10.5 6 9.7 5.4-12.4 7.4 9.6 2.1-10.1 9.9 11.2 1.5-10.1 10.8 12.4.6-10.6 10.9 12.4-.3-9.6 10.5 13.6.3-9 10.5 12.4-1.5-8.5 13.9 13.5-4.9-7.8 15.9 13-6.4-4.8 18.6 12.9-8.5-3.8 18.8 13.4-9.4-2.4 18.5 11.8-10.5-1 19.4L143 624l2.2 18.9 10.8-13.4 3.1 18.9 9.3-15.3 4.7 17.7 7-16.7 7.6 17.7 4.8-17.6 7.7 16.4 4.4-18.6 9.8 15.4 2.1-18.4 11.2 14 .5-18.9 11.9 12.8-.9-20 12.5 11.3-2.6-18.4 11.7 10-3.2-19.4 13.5 7.5-4.8-18.9 13.8 6.2-7.3-17 14.5 5.1-9.8-16.7 15.2 1.5-11.1-13.1 13.6-.8-11.4-11.6 14.4-4.2-12.9-9.9 13.7-4-12.6-7.3 12.7-4-14.1-5.5 12.5-8.7-15.3-1.4 11.6-9.6h-12.7l12.5-9.8-16 .5 10.3-12.3-14.9 4.1 10.1-12.7-14.5 1.5 6.6-14.8-13.7 6 5.3-16.8-12 8.1 3.4-17.2-11.9 10 .8-18.8-10.1 11.4-1.9-18.9-11.8 10.4-2.4-16.9-9.1 12.9-1.9-15.8-8.4 14-4.4-16-5 13.8-6.3-15.4-4.2 15.4-8.4-13.6-1.1 14.5-10.8-12.2-.6 15.3-10-11.1-2.4 15.2z" fill="none" stroke-width=".305"/><g fill="#00adef"><path id="path2836" d="M183.8 388.2c0 4.3-3.1 7.7-6.9 7.7-3.8 0-6.9-3.5-6.9-7.7 0-4.3 3.1-7.7 6.9-7.7 3.8-.1 6.9 3.4 6.9 7.7z" stroke-miterlimit="10"/><path id="path2838" d="M157.4 393.9c0 4.3-3.1 7.7-6.9 7.7-3.8 0-6.9-3.5-6.9-7.7 0-4.3 3.1-7.7 6.9-7.7 3.8 0 6.9 3.4 6.9 7.7z" stroke-miterlimit="10"/><path id="path2840" d="M136.2 403.2c0 4.3-3.1 7.7-6.9 7.7-3.8 0-6.9-3.5-6.9-7.7 0-4.3 3.1-7.7 6.9-7.7 3.8 0 6.9 3.4 6.9 7.7z" stroke-miterlimit="10"/><path id="path2842" d="M116.5 417.4c0 4.3-3.1 7.7-6.9 7.7-3.8 0-6.9-3.5-6.9-7.7 0-4.3 3.1-7.7 6.9-7.7 3.8-.1 6.9 3.4 6.9 7.7z" stroke-miterlimit="10"/><path id="path2844" d="M100.3 435c0 4.3-3.1 7.7-6.9 7.7-3.8 0-6.9-3.5-6.9-7.7 0-4.3 3.1-7.7 6.9-7.7 3.8 0 6.9 3.4 6.9 7.7z" stroke-miterlimit="10"/><path id="path2846" d="M87.2 455.9c0 4.3-3.1 7.7-6.9 7.7-3.8 0-6.9-3.5-6.9-7.7 0-4.3 3.1-7.7 6.9-7.7 3.8 0 6.9 3.4 6.9 7.7z" stroke-miterlimit="10"/><path id="path2848" d="M77.5 479.9c0 4.3-3.1 7.7-6.9 7.7-3.8 0-6.9-3.5-6.9-7.7s3.1-7.7 6.9-7.7c3.8-.1 6.9 3.4 6.9 7.7z" stroke-miterlimit="10"/><path id="path2850" d="M72.3 505.3c0 4.3-3.1 7.7-6.9 7.7-3.8 0-6.9-3.5-6.9-7.7 0-4.3 3.1-7.7 6.9-7.7 3.8 0 6.9 3.4 6.9 7.7z" stroke-miterlimit="10"/><path id="path2852" d="M70.7 531.1c0 4.3-3.1 7.7-6.9 7.7-3.8 0-6.9-3.5-6.9-7.7 0-4.3 3.1-7.7 6.9-7.7 3.8 0 6.9 3.4 6.9 7.7z" stroke-miterlimit="10"/><path id="path2854" d="M74.6 557.6c0 4.3-3.1 7.7-6.9 7.7-3.8 0-6.9-3.5-6.9-7.7s3.1-7.7 6.9-7.7c3.8 0 6.9 3.5 6.9 7.7z" stroke-miterlimit="10"/><path id="path2856" d="M82 582.3c0 4.3-3.1 7.7-6.9 7.7-3.8 0-6.9-3.5-6.9-7.7 0-4.3 3.1-7.7 6.9-7.7 3.8 0 6.9 3.5 6.9 7.7z" stroke-miterlimit="10"/><path id="path2858" d="M94.5 606.7c0 4.3-3.1 7.7-6.9 7.7-3.8 0-6.9-3.5-6.9-7.7 0-4.3 3.1-7.7 6.9-7.7 3.8 0 6.9 3.4 6.9 7.7z" stroke-miterlimit="10"/><path id="path2860" d="M113.1 628.5c0 4.3-3.1 7.7-6.9 7.7-3.8 0-6.9-3.5-6.9-7.7 0-4.3 3.1-7.7 6.9-7.7s6.9 3.4 6.9 7.7z" stroke-miterlimit="10"/><path id="path2862" d="M133.9 645c0 4.3-3.1 7.7-6.9 7.7-3.8 0-6.9-3.5-6.9-7.7 0-4.3 3.1-7.7 6.9-7.7s6.9 3.5 6.9 7.7z" stroke-miterlimit="10"/><path id="path2864" d="M161.2 656.9c0 4.3-3.1 7.7-6.9 7.7-3.8 0-6.9-3.5-6.9-7.7 0-4.3 3.1-7.7 6.9-7.7 3.8-.1 6.9 3.4 6.9 7.7z" stroke-miterlimit="10"/><path id="path2866" d="M192.4 659.7c0 4.3-3.1 7.7-6.9 7.7-3.8 0-6.9-3.5-6.9-7.7 0-4.3 3.1-7.7 6.9-7.7 3.9 0 6.9 3.5 6.9 7.7z" stroke-miterlimit="10"/><path id="path2868" d="M219.6 658c0 4.3-3.1 7.7-6.9 7.7-3.8 0-6.9-3.5-6.9-7.7 0-4.3 3.1-7.7 6.9-7.7 3.8 0 6.9 3.5 6.9 7.7z" stroke-miterlimit="10"/><path id="path2870" d="M248.2 647.4c0 4.3-3.1 7.7-6.9 7.7-3.8 0-6.9-3.5-6.9-7.7s3.1-7.7 6.9-7.7c3.8 0 6.9 3.4 6.9 7.7z" stroke-miterlimit="10"/><path id="path2872" d="M272 629.8c0 4.3-3.1 7.7-6.9 7.7-3.8 0-6.9-3.5-6.9-7.7 0-4.3 3.1-7.7 6.9-7.7 3.8 0 6.9 3.4 6.9 7.7z" stroke-miterlimit="10"/><path id="path2874" d="M289.8 608.5c0 4.3-3.1 7.7-6.9 7.7-3.8 0-6.9-3.5-6.9-7.7 0-4.3 3.1-7.7 6.9-7.7 3.8 0 6.9 3.5 6.9 7.7z" stroke-miterlimit="10"/><path id="path2876" d="M302.9 585.1c0 4.3-3.1 7.7-6.9 7.7-3.8 0-6.9-3.5-6.9-7.7 0-4.3 3.1-7.7 6.9-7.7 3.8 0 6.9 3.4 6.9 7.7z" stroke-miterlimit="10"/><path id="path2878" d="M311.1 559.3c0 4.3-3.1 7.7-6.9 7.7-3.8 0-6.9-3.5-6.9-7.7 0-4.3 3.1-7.7 6.9-7.7 3.8 0 6.9 3.4 6.9 7.7z" stroke-miterlimit="10"/><path id="path2880" d="M315.2 533.5c0 4.3-3.1 7.7-6.9 7.7-3.8 0-6.9-3.5-6.9-7.7 0-4.3 3.1-7.7 6.9-7.7 3.8-.1 6.9 3.4 6.9 7.7z" stroke-miterlimit="10"/><path id="path2882" d="M314.7 506.8c0 4.3-3.1 7.7-6.9 7.7-3.8 0-6.9-3.5-6.9-7.7s3.1-7.7 6.9-7.7c3.8-.1 6.9 3.4 6.9 7.7z" stroke-miterlimit="10"/><path id="path2884" d="M309 479.9c0 4.3-3.1 7.7-6.9 7.7-3.8 0-6.9-3.5-6.9-7.7s3.1-7.7 6.9-7.7c3.8-.1 6.9 3.4 6.9 7.7z" stroke-miterlimit="10"/><path id="path2886" d="M300 457.3c0 4.3-3.1 7.7-6.9 7.7-3.8 0-6.9-3.5-6.9-7.7s3.1-7.7 6.9-7.7c3.8 0 6.9 3.5 6.9 7.7z" stroke-miterlimit="10"/><path id="path2888" d="M285.9 435.2c0 4.3-3.1 7.7-6.9 7.7-3.8 0-6.9-3.5-6.9-7.7 0-4.3 3.1-7.7 6.9-7.7 3.8-.1 6.9 3.4 6.9 7.7z" stroke-miterlimit="10"/><path id="path2890" d="M270 417.7c0 4.3-3.1 7.7-6.9 7.7-3.8 0-6.9-3.5-6.9-7.7 0-4.3 3.1-7.7 6.9-7.7 3.8 0 6.9 3.5 6.9 7.7z" stroke-miterlimit="10"/><path id="path2892" d="M250.3 403.4c0 4.3-3.1 7.7-6.9 7.7-3.8 0-6.9-3.5-6.9-7.7s3.1-7.7 6.9-7.7c3.8-.1 6.9 3.4 6.9 7.7z" stroke-miterlimit="10"/><path id="path2894" d="M228.9 393.5c0 4.3-3.1 7.7-6.9 7.7-3.8 0-6.9-3.5-6.9-7.7 0-4.3 3.1-7.7 6.9-7.7 3.8 0 6.9 3.5 6.9 7.7z" stroke-miterlimit="10"/><path id="path2896" d="M207.2 388.6c0 4.3-3.1 7.7-6.9 7.7-3.8 0-6.9-3.5-6.9-7.7 0-4.3 3.1-7.7 6.9-7.7 3.9 0 6.9 3.5 6.9 7.7z" stroke-miterlimit="10"/><path id="path2904" d="M193.4 520.3c0 4.8-3.4 8.6-7.7 8.6-4.2 0-7.7-3.9-7.7-8.6 0-4.8 3.4-8.6 7.7-8.6 4.3 0 7.7 3.8 7.7 8.6z" stroke-width=".9"/></g><path id="path2906" d="M182.4 527.7h2.4s-3.6 38.6-14.2 148.1l-12.5-.3" fill="#e84d5b" stroke-width=".349"/><path id="path2908" d="M187.4 527.5h-2.5s5.1 46.4 15.9 148.6l11.5-.8" fill="#e84d5b" stroke-width=".353"/></g></g></g></g><g id="mountains"><polygon points="286.7,142.5 458.2,321.2 302.8,337.4" fill="#14757b"/><polygon points="93.4,299.5 150.9,236.7 174.7,274.2 97.8,491.8" fill="#ace8ea"/><polygon points="-358.1,727.2 -239.2,210.2 -92.4,739.6" fill="#ace8ea"/><polygon points="-239.2,210.2 -153.1,161.3 -92.4,739.6" fill="#f5ecd9"/><polygon points="-150.7,185.4 -153.1,161.3 -71,5.9 24,341.2" fill="#fff"/><polygon points="-92.4,739.6 24,341.2 -130.1,184.6 -150.7,185.4" fill="#229098"/><polygon points="150.9,779.4 -92.4,739.6 24,341.2 93.4,299.5" fill="#f5ecd9"/><polygon points="-71,5.9 93.4,299.5 24,341.2" fill="#c1e8e7"/><polygon points="150.9,236.7 286.7,142.5 316,496.4" fill="#fff"/><polygon points="97.8,491.8 165.6,858.9 316,496.4 174.7,274.2" fill="#14757b"/><polygon points="138.3,710.9 165.6,858.9 97.8,491.8 -92.4,739.6" fill="#ace8ea"/><polygon points="286.7,142.5 302.8,337.4 316,496.4" fill="#229098"/><polygon points="304.2,825.4 316,496.4 165.6,858.9" fill="#14757b"/><polygon points="567.5,836.3 304.2,825.4 316,496.4" fill="#229098"/><polygon points="567.5,836.3 458.2,321.2 316,496.4" fill="#ace8ea"/><polygon points="567.5,836.3 724,836.1 458.2,321.2" fill="#f5ecd9"/><polygon points="458.2,321.2 667.1,529.8 724,836.1" fill="#14757b"/><polygon points="724,836.1 922.5,821.6 667.1,529.8" fill="#63d3d6"/><polygon points="458.2,321.2 379.8,47.2 584.3,355.9" fill="#ace8ea"/><polygon points="667.1,529.8 584.3,355.9 458.2,321.2" fill="#63d3d6"/><polygon points="458.2,321.2 379.8,47.2 286.7,142.5" fill="#fff"/><polygon points="93.4,299.5 150.9,236.7 -71,5.9" fill="#229098"/><polygon points="922.5,821.6 986.7,770.9 769.8,566" fill="#63d3d6"/><polygon points="986.7,770.9 1197.2,733 950.4,561.8 769.8,566" fill="#ace8ea"/><polygon points="751.4,576.8 644.1,427.9 644.1,323.6 746.1,237.9 950.4,561.8" fill="#c1e8e7"/><polygon points="1197.2,733 746.1,237.9 950.4,561.8" fill="#1c8389"/><polygon points="664.1,452 751.4,576.8 746.1,237.9 584.3,355.9" fill="#fff"/><polygon points="984.2,499.5 1095.4,515.8 1257.6,674.6 1197.2,733" fill="#63d3d6"/><polygon points="950.4,561.8 986.7,770.9 751.4,576.8" fill="#c1e8e7"/><polygon points="1095.4,515.8 1197.2,733 1257.6,674.6" fill="#c1e8e7"/></g><g id="clouds"><path d="M684.4 244.6c0-10.2-8.3-18.4-18.4-18.4s-18.4 8.3-18.4 18.4h36.8zM769.7 244.6c0-10.2-8.3-18.4-18.4-18.4-10.2 0-18.4 8.3-18.4 18.4h36.8z" fill="#f5ecd9"/><path d="M727 244.6c0-15.7-12.7-28.4-28.4-28.4s-28.4 12.7-28.4 28.4H727z" fill="#f5ecd9"/><g fill="#f5ecd9"><path d="M749.9-25.3c0-4.6-3.7-8.2-8.2-8.2s-8.2 3.7-8.2 8.2h16.4zM775.4-25.3c0-3.5-2.9-6.4-6.4-6.4-3.5 0-6.4 2.8-6.4 6.4h12.8z"/><path d="M769-25.3c0-7-5.7-12.7-12.7-12.7-7 0-12.7 5.7-12.7 12.7H769z"/></g><g fill="#f5ecd9"><path d="M956.6 166.4c0-6.6 5.4-12 12-12s12 5.4 12 12h-24zM872.7 166.4c0-9.9 8.1-18 18-18s18 8.1 18 18h-36z"/><path d="M896.6 166.4c0-19.9 16.1-36 36-36s36 16.1 36 36h-72z"/></g><g fill="#f5ecd9"><path d="M978.6 186.2c0-5.3 4.3-9.6 9.5-9.6 5.3 0 9.6 4.3 9.6 9.6h-19.1z"/><path d="M993.3 186.2c0-4.1 3.3-7.4 7.4-7.4 4.1 0 7.4 3.3 7.4 7.4h-14.8z"/></g><g fill="#f5ecd9"><path d="M1299.9 12.5c0-19.7-16-35.6-35.6-35.6-19.7 0-35.6 16-35.6 35.6h71.2z"/><path d="M1326.5 12.5c0-14.7-11.9-26.6-26.6-26.6-14.7 0-26.6 11.9-26.6 26.6h53.2zM1240.9 12.5c0-8.8-7.1-15.9-15.9-15.9s-15.9 7.1-15.9 15.9h31.8z"/><g><path d="M914.4 145.6c0-18.1-14.6-32.7-32.7-32.7S849 127.5 849 145.6h65.4z"/><path d="M873.4 145.6c0-13.5-10.9-24.4-24.4-24.4-13.4 0-24.4 10.9-24.4 24.4h48.8zM933.9 145.6c0-10.8-8.7-19.5-19.5-19.5s-19.5 8.7-19.5 19.5h39z"/><path d="M834.4 145.6c0-8.1-6.5-14.6-14.6-14.6s-14.6 6.6-14.6 14.6h29.2z"/></g><g><path d="M1163.1 188.8c0-9-7.3-16.2-16.2-16.2s-16.2 7.3-16.2 16.2h32.4zM1213.1 188.8c0-6.9-5.6-12.5-12.5-12.5s-12.5 5.6-12.5 12.5h25z"/><path d="M1200.6 188.8c0-13.8-11.2-25-25-25s-25 11.2-25 25h50zM800.8 166.9c0-7.7-6.2-13.9-13.9-13.9s-13.9 6.2-13.9 13.9h27.8z"/><path d="M811.1 166.9c0-5.7-4.6-10.4-10.4-10.4-5.7 0-10.4 4.6-10.4 10.4h20.8zM777.7 166.9c0-3.4-2.8-6.2-6.2-6.2-3.4 0-6.2 2.8-6.2 6.2h12.4zM858.8 8.4c0-8.3-6.7-15-15-15s-15 6.7-15 15h30zM963.5 8.4C963.5-4 953.4-14 941-14S918.6-4 918.6 8.4h44.9z"/><path d="M933.6 8.4c0-24.8-20.1-44.9-44.9-44.9s-44.9 20.1-44.9 44.9h89.8z"/><g><path d="M1007.9 232.9c0-5.3-4.3-9.5-9.5-9.5-5.3 0-9.6 4.3-9.6 9.5h19.1z"/><path d="M993.2 232.9c0-4.1-3.3-7.4-7.4-7.4-4.1 0-7.4 3.3-7.4 7.4h14.8z"/></g><g><path d="M1114.6-260.5c0-5.3-4.3-9.5-9.5-9.5-5.3 0-9.5 4.3-9.5 9.5h19z"/><path d="M1099.9-260.5c0-4.1-3.3-7.4-7.4-7.4-4.1 0-7.4 3.3-7.4 7.4h14.8z"/></g><g><path d="M1352.7-320.6c0-4.6-3.7-8.2-8.2-8.2-4.6 0-8.2 3.7-8.2 8.2h16.4zM1378.1-320.6c0-3.5-2.8-6.4-6.4-6.4-3.5 0-6.4 2.8-6.4 6.4h12.8z"/><path d="M1371.7-320.6c0-7-5.7-12.7-12.7-12.7-7 0-12.7 5.7-12.7 12.7h25.4z"/></g><g><path d="M562 27.9c0-5.3 4.3-9.5 9.5-9.5 5.3 0 9.5 4.3 9.5 9.5h-19z"/><path d="M576.7 27.9c0-4.1 3.3-7.4 7.4-7.4 4.1 0 7.4 3.3 7.4 7.4h-14.8z"/></g></g></g><path d="M560.2 172.5h-8v-1h8v1zm-16 0h-8v-1h8v1zm-16 0h-8v-1h8v1zm-16 0h-8v-1h8v1zm-16 0h-8v-1h8v1zm-16 0h-8v-1h8v1zm-16 0h-8v-1h8v1zm-16 0h-8v-1h8v1zm-16 0h-8v-1h8v1zm-16 0h-8v-1h8v1zm-16 0h-8v-1h8v1zm-16 0h-5.4v-1h5.4v1zM1647.3-274.9h-8v-1h8v1zm-16 0h-8v-1h8v1zm-16 0h-8v-1h8v1zm-16 0h-8v-1h8v1zm-16 0h-8v-1h8v1zm-16 0h-8v-1h8v1zm-16 0h-8v-1h8v1zM1217.1-50.3h-8v-1h8v1zm-16 0h-8v-1h8v1zm-16 0h-8v-1h8v1zm-16 0h-8v-1h8v1zm-16 0h-8v-1h8v1zm-16 0h-8v-1h8v1zm-16 0h-8v-1h8v1zm-16 0h-8v-1h8v1zm-16 0h-8v-1h8v1zm-16 0h-8v-1h8v1z" fill="#f5ecd9"/></g><g id="Layer_1_1_"><g id="plane"><path d="M1609.3 295.9c2.2 0 5.4.4 5.4.4s-3.1.4-5.4.4c-2.2 0-4.1-.4-4.1-.4s1.9-.4 4.1-.4z" fill="#fffef0"/><path d="M1605.2 296.4l21.6 15.7s1.2.3 3.2.7l-23-16.4h-1.8z" fill="#c8c6bc"/><path d="M1629.9 312.8c3 .6 7.7 1.4 11.9 1.4 5.5 0 17.9-1.8 17.9-1.8l-45.2-16h-7.6l23 16.4z" fill="#fffef0"/><path d="M1605.2 296.4s1.9-.5 4.1-.4c2.2 0 5.4.4 5.4.4h-.1l45.2 16s-12.4 1.8-17.9 1.8c-4.2 0-8.9-.8-11.9-1.4-1.9-.4-3.2-.7-3.2-.7l-21.6-15.7z" opacity=".4" fill="#bcbad0"/><path d="M1761.2 308.9l35.2 25.6s2 .5 5.2 1.2l-37.5-26.8h-2.9z" fill="#c8c6bc"/><path d="M1801.6 335.7c4.9 1 12.6 2.3 19.5 2.3 9 0 29.3-3 29.3-3l-73.9-26.2h-12.4l37.5 26.9z" fill="#fffef0"/><polygon points="1814.9,322.5 1773.7,318 1779.7,322.5" opacity=".4" fill="#bcbad0"/><path id="carlinga" d="M1638.9 292.3l13.3 18.2 48 12h176s39.5-2.2 51.7 6l4.3 4s12 4.5 13.6 9c.1.3.2.7.2 1-.1 4.9-12.7 16-69.9 16h-144c-10.7 0-25.6-3-41.9-7.2-38.2-9.9-81.9-26.4-81.9-26.4v-8.6l8.6-2.1-5.7-21.9h27.7z" fill="#fffef0"/><polygon points="1603.6,262.5 1617.1,262.5 1630.4,280.7 1608.3,280.7" fill="#fffef0"/><polygon points="1615.3,292.3 1611.4,292.3 1608.3,280.7 1611.7,280.7" fill="#fffef0"/><polygon points="1630.4,280.7 1638.9,292.3 1615.3,292.3 1611.7,280.7" fill="#8cc152"/><polygon points="1646.3,319.6 1632.6,333.6 1619.8,329.1" fill="#c8c6bc"/><path d="M1595 334.7l20.3-14.8s1.2-.3 3-.7l-21.6 15.4-1.7.1z" fill="#c8c6bc"/><path d="M1618.2 319.3c2.9-.6 7.3-1.3 11.2-1.3 5.2 0 16.9 1.7 16.9 1.7l-38.5 15.1h-11.1l21.5-15.5z" fill="#fffef0"/><rect x="1613.6" y="261.4" transform="scale(-1) rotate(-17.319 -1881.31 10598.091)" width="1" height="50.3" fill="#8cc152"/><g><path d="M1721.2 340.8h161l5 5h-166c-24.7 0-42.6-.6-55.3-1.3-7.5-2.3-14.8-4.6-21.5-6.9 8.4 1.1 30.9 3.2 76.8 3.2zM1721.2 347.5h133.2l-2.5 2.5h-130.7c-15.1 0-27.7-.2-38.1-.6-3.4-.9-6.9-1.9-10.3-2.9 12 .6 27.9 1 48.4 1z" fill="#da4453"/></g><path d="M1945.9 341.5c.1.3.2.7.2 1-.1 4.9-12.7 16-69.9 16h-144c-27 0-87.8-20.9-87.8-20.9s28.4 12.1 114.8 12.1c179.2.1 186.4-8.1 186.7-8.2z" fill="#e4e2d6"/><g><path d="M1840.3 362.4c-24 3.4-34.6-.3-41.2-2v-12c6.5-1.7 17.2-5.4 41.2-2v16z" fill="#edede6"/><polygon points="1842.9,348.4 1842.9,350.4 1842.9,360.4 1840.3,362.4 1840.3,350.4 1840.3,346.4" fill="#c8c6bc"/><polygon points="1799.1,359.5 1796.6,358.9 1796.6,350 1799.1,349.4" fill="#edede6"/><polygon points="1796.6,357.6 1788.8,355.7 1788.8,353.2 1796.6,351.3" fill="#edede6"/><g><path d="M1798.5 348.4c5.7-1.5 14.6-4.5 32.6-3l-17.9 17.9c-6.8-.7-11.3-2.1-14.7-3v-11.9z" fill="#c8c6bc"/></g><g><path d="M1742 371.5l35.2-25.6s2-.5 5.1-1.2l-37.5 26.8h-2.8z" fill="#c8c6bc"/><path d="M1782.3 344.7c4.9-1 12.6-2.3 19.5-2.3 9 0 29.3 3 29.3 3l-66.9 26.2h-19.4l37.5-26.9z" fill="#fffef0"/></g></g><g><path d="M1927.9 328.5h-11.7s-.8 4 16.1 4l-4.4-4z" fill="#3bafda"/><path d="M1698.7 332.5c0 .6.5 1 1 1h1c.6 0 1-.4 1-1v-2c0-.6-.4-1-1-1h-1c-.5 0-1 .4-1 1v2zM1706.7 332.5c0 .6.5 1 1 1h1c.6 0 1-.4 1-1v-2c0-.6-.4-1-1-1h-1c-.5 0-1 .4-1 1v2zM1714.7 332.5c0 .6.5 1 1 1h1c.6 0 1-.4 1-1v-2c0-.6-.4-1-1-1h-1c-.5 0-1 .4-1 1v2zM1722.7 332.5c0 .6.5 1 1 1h1c.6 0 1-.4 1-1v-2c0-.6-.4-1-1-1h-1c-.5 0-1 .4-1 1v2zM1730.7 332.5c0 .6.5 1 1 1h1c.6 0 1-.4 1-1v-2c0-.6-.4-1-1-1h-1c-.5 0-1 .4-1 1v2zM1738.7 332.5c0 .6.5 1 1 1h1c.6 0 1-.4 1-1v-2c0-.6-.4-1-1-1h-1c-.5 0-1 .4-1 1v2zM1746.7 332.5c0 .6.5 1 1 1h1c.6 0 1-.4 1-1v-2c0-.6-.4-1-1-1h-1c-.5 0-1 .4-1 1v2zM1754.7 332.5c0 .6.5 1 1 1h1c.6 0 1-.4 1-1v-2c0-.6-.4-1-1-1h-1c-.5 0-1 .4-1 1v2zM1762.7 332.5c0 .6.5 1 1 1h1c.6 0 1-.4 1-1v-2c0-.6-.4-1-1-1h-1c-.5 0-1 .4-1 1v2zM1770.7 332.5c0 .6.5 1 1 1h1c.6 0 1-.4 1-1v-2c0-.6-.4-1-1-1h-1c-.5 0-1 .4-1 1v2zM1778.7 332.5c0 .6.5 1 1 1h1c.6 0 1-.4 1-1v-2c0-.6-.4-1-1-1h-1c-.5 0-1 .4-1 1v2zM1786.7 332.5c0 .6.5 1 1 1h1c.6 0 1-.4 1-1v-2c0-.6-.4-1-1-1h-1c-.5 0-1 .4-1 1v2zM1794.7 332.5c0 .6.5 1 1 1h1c.6 0 1-.4 1-1v-2c0-.6-.4-1-1-1h-1c-.5 0-1 .4-1 1v2zM1802.7 332.5c0 .6.5 1 1 1h1c.6 0 1-.4 1-1v-2c0-.6-.4-1-1-1h-1c-.5 0-1 .4-1 1v2zM1810.7 332.5c0 .6.5 1 1 1h1c.6 0 1-.4 1-1v-2c0-.6-.4-1-1-1h-1c-.5 0-1 .4-1 1v2zM1818.7 332.5c0 .6.5 1 1 1h1c.6 0 1-.4 1-1v-2c0-.6-.4-1-1-1h-1c-.5 0-1 .4-1 1v2zM1826.7 332.5c0 .6.5 1 1 1h1c.6 0 1-.4 1-1v-2c0-.6-.4-1-1-1h-1c-.5 0-1 .4-1 1v2zM1834.7 332.5c0 .6.5 1 1 1h1c.6 0 1-.4 1-1v-2c0-.6-.4-1-1-1h-1c-.5 0-1 .4-1 1v2zM1842.7 332.5c0 .6.5 1 1 1h1c.6 0 1-.4 1-1v-2c0-.6-.4-1-1-1h-1c-.5 0-1 .4-1 1v2zM1850.7 332.5c0 .6.5 1 1 1h1c.6 0 1-.4 1-1v-2c0-.6-.4-1-1-1h-1c-.5 0-1 .4-1 1v2zM1858.7 332.5c0 .6.5 1 1 1h1c.6 0 1-.4 1-1v-2c0-.6-.4-1-1-1h-1c-.5 0-1 .4-1 1v2zM1866.7 332.5c0 .6.5 1 1 1h1c.6 0 1-.4 1-1v-2c0-.6-.4-1-1-1h-1c-.5 0-1 .4-1 1v2zM1874.7 332.5c0 .6.5 1 1 1h1c.6 0 1-.4 1-1v-2c0-.6-.4-1-1-1h-1c-.5 0-1 .4-1 1v2zM1882.7 332.5c0 .6.5 1 1 1h1c.6 0 1-.4 1-1v-2c0-.6-.4-1-1-1h-1c-.5 0-1 .4-1 1v2z" fill="#54a2bd"/></g><path d="M1751.6 370.5c5.2.1 12.6 1 12.6 1s-7.4.9-12.6 1c-5.2.1-9.6-1-9.6-1s4.3-1.1 9.6-1zM1600.5 334.1c3 0 7.3.6 7.3.6s-4.3.5-7.3.6c-3 0-5.6-.6-5.6-.6s2.6-.6 5.6-.6z" fill="#fffef0"/><rect x="1923.4" y="329.9" transform="rotate(63.237 1926.02 330.46)" width="5.3" height="1" fill="#ede3eb"/><rect x="1919.2" y="329.5" transform="rotate(81.721 1921.332 330.002)" width="4.2" height="1" fill="#ede3eb"/><circle cx="1905.5" cy="336.9" r=".5" fill="#e4e2d6"/><circle cx="1688.6" cy="336.9" r=".5" fill="#e4e2d6"/></g><g id="torre"><rect x="-93.1" y="113.5" width="362.5" height="2900" fill="#fffef0"/><rect x="-455.6" y="113.5" width="362.5" height="2900" fill="#fffef0"/><rect x="-368.5" y="113.5" width="543.8" height="2900" fill="#e4e2d6"/><polygon points="-274.3,294.8 88.2,294.8 269.4,249.4 269.4,272.1 88.2,317.4 -274.3,317.4 -455.6,272.1 -455.6,249.4" opacity=".4" fill="#c8c6bc"/><polygon points="273,249.4 -456.6,979 -456.6,198.3 269.4,198.3" opacity=".4" fill="#c8c6bc"/><g><rect x="-274.3" y="-67.7" width="362.5" height="362.5" fill="#fffef0"/><rect x="-104.4" y="-974" width="22.7" height="453.1" fill="#da4453"/><rect x="-274.3" y="-452.9" width="362.5" height="45.3" fill="#e4e2d6"/><polygon points="-636.8,-317 -274.3,-407.6 -274.3,-452.9 -636.8,-362.3 -682.1,-351 -682.1,-305.6" fill="#fffef0"/><polygon points="450.7,-317 496,-305.6 496,-351 450.7,-362.3 88.2,-452.9 88.2,-407.6" fill="#fffef0"/><polygon points="88.2,294.8 450.7,204.1 450.7,-158.4 88.2,-67.7" fill="#e4e2d6"/><polygon points="-636.8,204.1 -274.3,294.8 -274.3,-67.7 -636.8,-158.4" fill="#e4e2d6"/><polygon points="88.2,-67.7 450.7,-158.4 450.7,-249 88.2,-158.4" fill="#e4e2d6"/><rect x="-274.3" y="-158.4" width="362.5" height="90.6" fill="#fffef0"/><polygon points="-636.8,-158.4 -274.3,-67.7 -274.3,-158.4 -636.8,-249" fill="#e4e2d6"/><polygon points="-274.3,-407.6 -636.8,-317 -636.8,-271.7 -274.3,-362.3" fill="#fffef0"/><rect x="-274.3" y="-407.6" width="362.5" height="45.3" fill="#fffef0"/><polygon points="450.7,-317 88.2,-407.6 88.2,-362.3 450.7,-271.7" fill="#fffef0"/><polygon points="-636.8,-271.7 -682.1,-260.3 -682.1,-305.6 -636.8,-317" fill="#fffef0"/><polygon points="496,-305.6 -682.1,-305.6 -274.3,-203.7 88.2,-203.7" fill="#e4e2d6"/><polygon points="-682.1,-305.6 496,-305.6 88.2,-407.6 -274.3,-407.6" fill="#fffef0"/><polygon points="360.1,-305.6 88.2,-249 54.2,-611.5" fill="#e4e2d6"/><polygon points="54.2,-611.5 88.2,-249 -274.3,-249 -240.3,-611.5" fill="#fffef0"/><polygon points="-240.3,-611.5 -274.3,-249 -546.2,-305.6" fill="#e4e2d6"/><g><rect x="-274.3" y="-249" width="362.5" height="45.3" fill="#da4453"/><polygon points="-636.8,-339.6 -274.3,-249 -274.3,-203.7 -274.3,-158.4 -636.8,-249 -682.1,-260.3 -682.1,-305.6 -682.1,-351" fill="#ba3548"/><polygon points="450.7,-339.6 496,-351 496,-305.6 496,-260.3 450.7,-249 88.2,-158.4 88.2,-203.7 88.2,-249" fill="#ed5565"/></g><rect x="-274.3" y="-203.7" width="362.5" height="45.3" fill="#da4453"/><polygon points="88.2,-158.4 450.7,-249 450.7,-203.7 88.2,-113.1 -274.3,-113.1 -636.8,-203.7 -636.8,-249 -274.3,-158.4" opacity=".4" fill="#c8c6bc"/></g><path d="M-115.7-974c0 12.5 10.1 22.7 22.7 22.7 12.5 0 22.7-10.1 22.7-22.7 0-12.5-10.1-22.7-22.7-22.7s-22.7 10.2-22.7 22.7z" fill="#fffef0"/></g></g><g id="contacts"><rect x="-2270.5" y="-25.5" width="6910.6" height="445.5" fill="#e84d5b"/><g id="email" fill="#f5ecd9"><text transform="translate(562 76.232)" font-family="Roboto-Thin" font-size="18">albinotonnina@gmail.com</text><path d="M543.7 77v-7.5c-.2.2-.4.4-.7.6-1.7 1.3-3.1 2.4-4.1 3.3-.3.3-.6.5-.8.6-.2.2-.5.3-.8.5-.4.2-.7.2-1 .2-.3 0-.6-.1-1-.2-.4-.2-.6-.3-.8-.5-.2-.2-.5-.4-.8-.6-1-.9-2.4-1.9-4.1-3.3-.2-.2-.5-.4-.7-.6V77c0 .1 0 .2.1.2.1.1.1.1.2.1h14.3c.1 0 .2 0 .2-.1V77zm0-10.2v-.2-.1-.1l-.1-.1c0-.1 0-.1-.1-.1h-14.4c-.1 0-.2 0-.2.1-.1.1-.1.1-.1.2 0 1.1.5 2 1.4 2.8 1.2 1 2.5 2 3.9 3.1l.3.3.4.4c.1.1.3.2.4.3.2.1.3.2.5.3.1.1.3.1.4.1.1 0 .3 0 .4-.1.1-.1.3-.1.5-.3.2-.1.3-.2.4-.3.1-.1.3-.2.4-.4.2-.2.3-.2.3-.3 1.4-1.1 2.6-2.1 3.9-3.1.4-.3.7-.7 1-1.1.5-.6.7-1 .7-1.4zm1.2-.3V77c0 .4-.2.8-.5 1.1-.3.3-.7.5-1.1.5H529c-.4 0-.8-.1-1.1-.5-.3-.3-.5-.7-.5-1.1V66.5c0-.4.2-.8.5-1.1.3-.3.7-.5 1.1-.5h14.3c.4 0 .8.2 1.1.5.4.3.5.6.5 1.1z"/></g><g id="linkedin" fill="#f5ecd9"><text transform="translate(560.821 113.17)" font-family="Roboto-Thin" font-size="18">LinkedIn profile</text><path d="M530.4 113.4h2.8V105h-2.8v8.4zm3-11c0-.4-.2-.8-.4-1-.3-.3-.7-.4-1.1-.4s-.9.1-1.1.4c-.3.3-.4.6-.4 1s.1.8.4 1c.3.3.7.4 1.1.4.5 0 .9-.1 1.2-.4.2-.3.3-.6.3-1zm7.1 11h2.8v-4.8c0-1.2-.3-2.2-.9-2.8-.6-.6-1.4-1-2.3-1-1.1 0-1.9.5-2.5 1.4V105h-2.8v8.4h2.8v-4.7c0-.3 0-.5.1-.7.1-.3.3-.5.6-.7.2-.2.5-.3.9-.3.9 0 1.4.6 1.4 1.9l-.1 4.5zm5.7-12.1V113c0 1-.3 1.8-1 2.5s-1.5 1-2.5 1H531c-1 0-1.8-.3-2.5-1s-1-1.5-1-2.5v-11.7c0-1 .3-1.8 1-2.5s1.5-1 2.5-1h11.7c1 0 1.8.3 2.5 1s1 1.5 1 2.5z"/></g><g id="l500px" fill="#f5ecd9"><text transform="translate(560.037 186.981)" font-family="Roboto-Thin" font-size="18">Instagram</text><path d="M535.4 178.2c.8 0 1.4.3 2 .8.5.5.8 1.2.8 2s-.3 1.4-.8 2c-.5.5-1.2.8-2 .8s-1.4-.3-2-.8c-.5-.5-.8-1.2-.8-2s.3-1.4.8-2c.6-.5 1.3-.8 2-.8zm8.6-4c.7 0 1.3.2 1.7.7.5.5.7 1.1.7 1.8v8.7c0 .7-.2 1.3-.7 1.8-.5.5-1.1.7-1.7.7h-13.6c-.7 0-1.3-.2-1.8-.7-.5-.5-.7-1.1-.7-1.8v-8.7c0-.7.2-1.3.7-1.8.5-.5 1.1-.7 1.8-.7h2.2l.5-1.3c.1-.3.3-.6.7-.8.3-.2.7-.3 1-.3h4.9c.3 0 .7.1 1 .3.3.2.6.5.7.8l.5 1.3h2.1zm-8.6 11.1c1.2 0 2.2-.4 3.1-1.3.9-.9 1.3-1.9 1.3-3.1 0-1.2-.4-2.2-1.3-3.1-.8-.9-1.9-1.3-3.1-1.3-1.2 0-2.2.4-3.1 1.3-.9.8-1.3 1.9-1.3 3.1 0 1.2.4 2.2 1.3 3.1.9.9 1.9 1.3 3.1 1.3z"/></g><g id="contactresume"><path d="M541.7 145.6v.9c0 .1 0 .2-.1.3-.1.1-.2.1-.3.1h-9.6c-.1 0-.2 0-.3-.1-.1-.1-.1-.2-.1-.3v-.9c0-.1 0-.2.1-.3.1-.1.2-.1.3-.1h9.6c.1 0 .2 0 .3.1.1.1.1.2.1.3zm0-3.5v.9c0 .1 0 .2-.1.3-.1.1-.2.1-.3.1h-9.6c-.1 0-.2 0-.3-.1-.1-.1-.1-.2-.1-.3v-.9c0-.1 0-.2.1-.3.1-.1.2-.1.3-.1h9.6c.1 0 .2 0 .3.1.1.1.1.2.1.3zm-12.1 8.3h13.9V140h-5.7c-.4 0-.7-.1-.9-.4-.3-.3-.4-.6-.4-.9V133h-7l.1 17.4zm8.7-12.2h5.1c-.1-.3-.2-.4-.3-.6l-4.3-4.3c-.1-.1-.3-.2-.6-.3l.1 5.2zm6.9.4v12.2c0 .4-.1.7-.4.9-.3.3-.6.4-.9.4h-14.8c-.4 0-.7-.1-.9-.4-.3-.3-.4-.6-.4-.9v-18.3c0-.4.1-.7.4-.9.3-.3.6-.4.9-.4h8.7c.4 0 .8.1 1.2.3.4.2.8.4 1 .7l4.2 4.2c.3.3.5.6.7 1 .2.5.3.9.3 1.2z" fill="#f5ecd9"/><text transform="translate(561.608 150.044)" fill="#f5ecd9" font-family="Roboto-Thin" font-size="18">View resume</text></g><text transform="translate(522.604 34.719)" fill="#f5ecd9" font-family="Roboto-Thin" font-size="36">To stay connected:</text><g id="rightside"><text transform="translate(1106.229 314.813)" fill="#f5ecd9" font-family="Roboto-Thin" font-size="18">copyright 2017 Albino Tonnina</text><text transform="translate(1102.604 34.719)" fill="#f5ecd9" font-family="Roboto-Thin" font-size="36">This website:</text><g id="githubsite"><path d="M1118.6 270c-.1.1-.3.1-.5-.1s-.3-.3-.1-.5c.1-.1.3-.1.5.1s.3.4.1.5zm-1-1.5c.2.2.2.4 0 .5-.1.1-.3 0-.4-.2-.1-.2-.1-.4 0-.5.1-.1.2-.1.4.2zm-1.6-1.6c-.1.1-.2.1-.3 0-.2-.1-.2-.2-.2-.3 0-.1.2-.1.3 0 .2.1.3.2.2.3zm.8.9c-.1.1-.2.1-.4-.1-.1-.2-.2-.3 0-.4.1-.1.2-.1.4.1.1.2.1.3 0 .4zm3.3 2.8c-.1.2-.2.3-.5.2-.3-.1-.4-.2-.3-.4.1-.2.2-.2.5-.2.2.1.3.2.3.4zm1.6.2c0 .2-.1.3-.4.3-.3 0-.4-.1-.4-.3 0-.2.1-.3.4-.3.2 0 .4 0 .4.3zm1.4-.3c0 .2-.1.3-.4.4-.3.1-.4 0-.5-.2 0-.2.1-.3.4-.4.3-.1.5 0 .5.2zm24.5-24.2v24.2c0 2-.7 3.7-2.1 5.1-1.4 1.4-3.1 2.1-5.1 2.1h-6.3c-.1 0-.3-.1-.5-.1-.2-.1-.3-.2-.4-.4-.1-.2-.1-.4-.1-.7v-6c0-1.6-.4-2.8-1.3-3.6 1-.1 1.8-.3 2.6-.4.8-.2 1.6-.5 2.4-1 .8-.5 1.5-1 2-1.7s1-1.6 1.3-2.7c.3-1.1.5-2.4.5-3.8 0-2-.7-3.8-2-5.2.6-1.5.6-3.3-.2-5.2-.5-.1-1.2-.1-2 .3-.9.3-1.7.7-2.3 1.1l-1 .6c-1.6-.4-3.2-.7-4.8-.7-1.7 0-3.3.2-4.8.7-.3-.2-.6-.4-1.1-.7-.4-.3-1.1-.6-2.1-1s-1.7-.5-2.2-.3c-.7 1.9-.8 3.6-.2 5.2-1.3 1.4-2 3.2-2 5.2 0 1.4.2 2.7.5 3.8.3 1.1.8 2 1.3 2.7.5.7 1.2 1.2 2 1.7s1.6.8 2.4 1c.8.2 1.6.4 2.6.4-.7.6-1.1 1.5-1.2 2.6-.4.2-.7.3-1.1.4-.4.1-.9.1-1.4.1-.6 0-1.1-.2-1.7-.6-.6-.4-1-.9-1.4-1.6-.3-.5-.7-1-1.2-1.3-.5-.3-.9-.5-1.2-.6l-.5-.1c-.4 0-.6 0-.7.1-.1.1-.2.2-.1.3 0 .1.1.2.2.4l.3.3.2.1c.4.2.7.5 1.1 1 .4.5.6.9.8 1.3l.3.6c.2.6.6 1.2 1.1 1.6.5.4 1.1.6 1.7.8.6.1 1.2.2 1.8.2.6 0 1 0 1.4-.1l.6-.1v4.3c0 .4-.1.6-.3.8-.2.2-.4.3-.6.3h-6.5c-2 0-3.7-.7-5.1-2.1-1.4-1.4-2.1-3.1-2.1-5.1v-24.2c0-2 .7-3.7 2.1-5.1 1.4-1.4 3.1-2.1 5.1-2.1h24.2c2 0 3.7.7 5.1 2.1 1.3 1.4 2 3.1 2 5.1z" fill="#f5ecd9"/><text transform="translate(1162.055 265.482)" fill="#f5ecd9" font-family="Roboto-Thin" font-size="18">has a public repository on GitHub.</text></g><g fill="#f5ecd9"><path d="M1128 107c0-.4-.2-.7-.5-.9l-8.8-5.1c-.1-.1-.3-.1-.5-.1h-.1c-.2 0-.3.1-.5.1l-8.8 5.1c-.3.2-.5.5-.5.9v13.7c0 .2.1.4.3.5.2.1.4.1.5 0l5.2-3c.3-.2.5-.5.5-.9v-6.4c0-.4.2-.7.5-.9l2.2-1.3c.2-.1.3-.1.5-.1s.4 0 .5.1l2.2 1.3c.3.2.5.5.5.9v6.4c0 .4.2.7.5.9l5.2 3c.2.1.4.1.5 0 .2-.1.3-.3.3-.5l.3-13.7zM1175.1 88.2c-.2-.1-.4-.1-.5 0-.2.1-.3.3-.3.5v13.5c0 .1-.1.3-.2.3-.1.1-.3.1-.4 0l-2.2-1.3c-.3-.2-.7-.2-1.1 0l-8.8 5.1c-.3.2-.5.5-.5.9v10.2c0 .4.2.7.5.9l8.8 5.1c.3.2.7.2 1.1 0l8.8-5.1c.3-.2.5-.5.5-.9V92.1c0-.4-.2-.7-.5-.9l-5.2-3zm-.9 25.9c0 .1-.1.2-.1.2l-3 1.7h-.3l-3-1.7c-.1 0-.1-.1-.1-.2v-3.5c0-.1.1-.2.1-.2l3-1.7c.1-.1.2-.1.3 0l3 1.7c.1.1.1.1.1.2v3.5zM1206.6 110.5c.3-.2.5-.5.5-.9v-2.5c0-.4-.2-.7-.5-.9l-8.8-5.1c-.3-.2-.7-.2-1.1 0l-8.8 5.1c-.3.2-.5.5-.5.9v10.2c0 .4.2.7.5.9l8.8 5c.3.2.7.2 1 0l5.3-2.9c.2-.1.3-.3.3-.5s-.1-.4-.3-.5l-8.9-5.1c-.2-.1-.3-.3-.3-.5v-3.2c0-.2.1-.4.3-.5l2.8-1.6c.2-.1.4-.1.5 0l2.8 1.6c.2.1.3.3.3.5v2.5c0 .2.1.4.3.5.2.1.4.1.5 0l5.3-3zM1144 101.1c.3-.2.7-.2 1.1 0l8.8 5.1c.3.2.5.5.5.9v10.2c0 .4-.2.7-.5.9l-8.8 5.1c-.3.2-.7.2-1.1 0l-8.8-5.1c-.3-.2-.5-.5-.5-.9v-10.2c0-.4.2-.7.5-.9l8.8-5.1zM1223.8 123.4c-.3 0-.6-.1-.9-.2l-2.8-1.6c-.4-.2-.2-.3-.1-.4.6-.2.7-.2 1.3-.6h.2l2.1 1.3h.3l8.3-4.8c.1 0 .1-.1.1-.2v-9.6c0-.1 0-.2-.1-.2l-8.3-4.8h-.3l-8.3 4.8c-.1 0-.1.1-.1.2v9.6c0 .1.1.2.1.2l2.3 1.3c1.2.6 2-.1 2-.8v-9.5c0-.1.1-.2.2-.2h1.1c.1 0 .2.1.2.2v9.5c0 1.6-.9 2.6-2.5 2.6-.5 0-.9 0-1.9-.5l-2.2-1.3c-.5-.3-.9-.9-.9-1.5v-9.6c0-.6.3-1.2.9-1.5l8.3-4.8c.5-.3 1.2-.3 1.7 0l8.3 4.8c.5.3.9.9.9 1.5v9.6c0 .6-.3 1.2-.9 1.5l-8.3 4.8c-.1.2-.4.2-.7.2z"/><path d="M1226.3 116.8c-3.6 0-4.4-1.7-4.4-3.1 0-.1.1-.2.2-.2h1.1c.1 0 .2.1.2.2.2 1.1.6 1.6 2.8 1.6 1.8 0 2.5-.4 2.5-1.3 0-.5-.2-.9-2.9-1.2-2.3-.2-3.7-.7-3.7-2.5 0-1.7 1.4-2.7 3.8-2.7 2.7 0 4 .9 4.2 2.9 0 .1 0 .1-.1.2 0 0-.1.1-.2.1h-1.1c-.1 0-.2-.1-.2-.2-.3-1.1-.9-1.5-2.6-1.5-1.9 0-2.1.7-2.1 1.2 0 .6.3.8 2.8 1.1 2.6.3 3.8.8 3.8 2.6.1 1.8-1.4 2.8-4.1 2.8zM1237.8 101v.2h-.7v1.8h-.3v-1.8h-.7v-.2h1.7zM1238 101h.4l.6 1.8.6-1.8h.4v2.1h-.3v-1.2-.2-.3l-.6 1.7h-.3l-.6-1.7v1.7h-.3l.1-2.1zM1197.2 110.1h.2l1.7 1c.1 0 .1.1.1.2v2c0 .1 0 .1-.1.2l-1.7 1h-.2l-1.7-1c-.1 0-.1-.1-.1-.2v-2c0-.1 0-.1.1-.2l1.7-1z"/></g><g fill="#f5ecd9"><path d="M1156 206.8v-11.7c0-.8-.6-1.2-1.3-1.2-1.4 0-3.2.4-4.8 1.1v11.8h-3.3v-21.7h3.3v7.2c1.6-.6 3.4-1.1 5.3-1.1 3 0 4.1 1.8 4.1 4.4v11.3l-3.3-.1zm9.4-7.1c.1 3.9.9 4.7 3.3 4.7 1.9 0 4-.6 5.7-1.3l.5 2.5c-1.8.8-3.9 1.6-6.5 1.6-5.5 0-6.4-3-6.4-7.8 0-2.6.2-5 .8-7.2 1.6-.6 3.9-1 6.6-1 4.5 0 5.9 2.5 5.9 6.9v1.7l-9.9-.1zm4.2-5.8c-1 0-2.6 0-3.8.3-.1.7-.3 1.6-.4 3.2h6.9c-.1-2.2-.5-3.5-2.7-3.5zm12 1.1v11.8h-3.3v-13.3c2.8-1.5 5.7-2 7.6-2.1v2.7c-1.3.2-3 .3-4.3.9zm13.1 12.2c-4.9 0-7.1-2.4-7.1-7.9 0-5.9 2.9-8.1 7.1-8.1 4.9 0 7.1 2.4 7.1 7.9 0 5.9-2.9 8.1-7.1 8.1zm0-13.3c-2.5 0-3.9 1.5-3.9 5.3 0 4.2 1.2 5.2 3.9 5.2 2.5 0 3.9-1.4 3.9-5.3 0-4.2-1.2-5.2-3.9-5.2zm23.1 12.9h-3.9c-.9-2.4-2.2-4.9-4.1-7h-1.7v7h-3.3v-21.7h3.3v12.5h1.5c1.7-1.7 3-3.9 3.9-6h3.7c-1.3 2.6-2.9 4.8-4.7 6.6 2.1 2.8 3.8 5.7 5.3 8.6zm6.1.4c-3 0-4.1-1.8-4.1-4.4v-11.3h3.3v11.7c0 .8.6 1.2 1.3 1.2 1.4 0 3.4-.4 5-1.1v-11.8h3.3v13.2c-3.9 2.3-6.9 2.5-8.8 2.5zM1135.7 214.9h-23c-2 0-3.6-1.6-3.6-3.6v-30.2c0-2 1.6-3.6 3.6-3.6h23c2 0 3.6 1.6 3.6 3.6v30.2c0 2-1.6 3.6-3.6 3.6zm2.4-33.6c0-1.4-1.1-2.5-2.5-2.5H1113c-1.4 0-2.5 1.1-2.5 2.5v29.8c0 1.4 1.1 2.5 2.5 2.5h22.6c1.4 0 2.5-1.1 2.5-2.5v-29.8z"/><path d="M1128.1 209.7v-14.8s1-3.5-11.9 1.5v-13.7h4.2v8.8s11.7-4.6 11.7 3.5v14.8l-4-.1zm2.4-21.7h-4.4c1.6-2 3-5.3 3-5.3h4.6s-.8 2.2-3.2 5.3zm-14.2 21.7v-8.4l4.2 4.2-4.2 4.2z"/></g><text transform="translate(1107.36 77.006)" fill="#f5ecd9" font-family="Roboto-Thin" font-size="18">is powered by:</text><text transform="translate(1109.219 162.518)" fill="#f5ecd9" font-family="Roboto-Thin" font-size="18">is hosted on:</text></g></g><text transform="translate(522.604 -245.7)" fill="#2bacb5" font-family="Roboto-Thin" font-size="36" id="ownership">Reliable and friendly :)</text><g id="leaving" fill="#f5ecd9" font-family="Roboto-Thin" font-size="36"><text transform="translate(522.604 -185.753)">I&apos;m leaving Italy and looking for a development position</text><text transform="translate(522.604 -145.806)">within the EU with a forward thinking IT company</text><text transform="translate(522.604 -105.858)">where I can continue to grow.</text></g><text id="passionate" transform="translate(522.604 -305.647)" fill="#e84d5b" font-family="Roboto-Thin" font-size="36">I’m passionate about my job.</text><text transform="translate(522.604 -48.655)" fill="#2bacb5" font-family="Roboto-Thin" font-size="36" id="thankyouforscrolling">Thank you for scrolling this far :)</text><g id="planebig"><path d="M-3848.4-759c24.9.3 59.8 4.7 59.8 4.7s-34.9 4.4-59.8 4.8c-24.9.3-45.6-4.8-45.6-4.8s20.7-5 45.6-4.7z" fill="#fffef0"/><path d="M-3894-754.2l239 174.1s13.7 3.6 35 8.1l-254.6-182.2h-19.4z" fill="#c8c6bc"/><path d="M-3620-572c33.5 6.9 85.7 15.9 132.3 15.9 60.8 0 198.8-20.3 198.8-20.3l-501.5-177.7h-84.2L-3620-572z" fill="#fffef0"/><path d="M-3894-754.2s20.7-5.1 45.6-4.7c24.9.3 59.8 4.7 59.8 4.7s-.5.1-1.5.2l501.2 177.6s-137.9 20.3-198.7 20.3c-46.8 0-99-8.9-132.4-15.9-21.3-4.4-35-8.1-35-8.1l-239-174.1h.2-.2z" opacity=".4" fill="#bcbad0"/><path d="M-2165.3-615.4l390.2 284.2s22.4 5.9 57.2 13.1l-415.6-297.2-31.8-.1z" fill="#c8c6bc"/><path d="M-1717.9-318.1c54.7 11.3 139.8 25.9 216.1 25.9 99.3 0 324.4-33.2 324.4-33.2l-818.8-290.1h-137.4l415.7 297.4z" fill="#fffef0"/><polygon points="-1570.4,-464.9 -2027.2,-514.8 -1960.4,-464.9" opacity=".4" fill="#bcbad0"/><path id="carlinga_1_" d="M-3520.5-799.2l147.2 201.3 532 133h1950.7s437.8-24 573.4 66.5l48 44.3s133.2 50.4 151.3 99.8c1.4 3.7 2.1 7.4 2.1 11.1-.7 53.8-140.4 177.3-774.9 177.3h-1596c-118.5 0-283.3-33.5-463.9-80.1-422.9-109.4-907.7-292.1-907.7-292.1v-95l95.8-23.3-63.5-242.7 305.5-.1z" fill="#fffef0"/><polygon points="-3912.5,-1129.9 -3762.3,-1129.9 -3615,-928.5 -3859.7,-928.5" fill="#fffef0"/><polygon points="-3782.2,-799.2 -3825.9,-799.2 -3859.7,-928.5 -3822.2,-928.5" fill="#fffef0"/><polygon points="-3615,-928.5 -3520.5,-799.2 -3782.2,-799.2 -3822.2,-928.5" fill="#8cc152"/><polygon points="-3438.6,-496.4 -3590.8,-341.7 -3732.1,-391.7" fill="#c8c6bc"/><path d="M-4007.5-329.3l224.7-163.7s12.9-3.5 32.9-7.6l-239.3 171.2-18.3.1z" fill="#c8c6bc"/><path d="M-3750-500.5c31.6-6.5 80.6-14.9 124.5-14.9 57.2 0 186.8 19.1 186.8 19.1l-427.1 167h-123.5l239.3-171.2z" fill="#fffef0"/><polygon points="-3708,-599.2 -3718.6,-595.9 -3884.2,-1127.8 -3873.7,-1131.1" fill="#8cc152"/><g id="worksharelogo"><path d="M-2608.6-261.7l1768.4-37.6 71.4 93h-1839.8c-273.7 0-472.2-6.7-612.5-14.8-83-25.2-163.8-51.3-238.6-76.1 92.7 11.8 342.5 35.5 851.1 35.5zM-2608.6-187.2h1475.9l-27.7 27.7h-1448.2c-167.6 0-306.9-2.5-421.9-6.3-38.1-10.4-76.3-21.3-114.3-32.4 133.2 6.3 308.9 11 536.2 11z" fill="#00adef"/><g id="workshare" fill="#fff"><path d="M-1134.4-260.6v-12.5c0-5.2 4-9.3 9.3-9.2 3.3.1 6.6.5 9.9.9 7.5.8 14.9 1.7 22.4 2.4 5.3.4 8.3 4.5 8 8.5-.1.7 0 1.4 0 2.1 0 1.6-1 2.7-2.4 2.7-1.4.1-2.7-1-2.8-2.5-.1-.9 0-1.8-.1-2.7 0-1.2-.5-1.8-1.8-2-3.2-.3-6.4-.5-9.6-.7-7.2-.5-14.3-1-21.5-1.5-2.5-.2-3.3.6-3.3 3.1 0 7.8 0 15.7.1 23.5 0 2 .9 2.9 3 2.7 8.8-.7 17.6-1.4 26.4-2 1.5-.1 2.9-.2 4.4-.3 1.9-.1 2.4-.6 2.4-2.5v-1.9c.1-1.6 1.2-2.9 2.7-2.9 1.4 0 2.6 1 2.6 2.8 0 1.7.1 3.5-.4 5.1-1 3.2-3.3 5-6.7 5.4l-26.4 3c-2 .2-3.9.5-5.9.6-5.2.2-9.5-3.1-10.1-8-.2-1.7-.1-3.4-.1-5.2-.1-3-.1-6-.1-8.9z"/><path d="M-1067.2-243.2c0 4.1-.1 8.2 0 12.3.2 6.5-5.6 10.1-11.1 9.5-8.7-1-17.4-1.9-26.1-2.8-2-.2-4-.4-5.9-.6-3.5-.5-6.4-3.6-6.6-7-.1-1.1-.1-2.3 0-3.4 0-1.5 1.1-2.7 2.5-2.7 1.3-.1 2.6 1 2.8 2.5.1.9.1 1.9.1 2.8 0 1.2.6 1.9 1.8 2 4.8.4 9.6.7 14.4 1l16.2 1.2c.5 0 .9.1 1.4.1 1.4 0 2.4-1 2.4-2.3 0-8.3 0-16.5-.1-24.8 0-1.5-1.2-2.5-2.7-2.4-8.2.6-16.3 1.3-24.5 1.9-2.3.2-4.5.4-6.8.5-1.5.1-2.1.7-2.1 2.2v2.2c-.1 1.6-1.2 2.8-2.6 2.9-1.5.1-2.6-.9-2.7-2.7-.2-2.6-.2-5.2 1.6-7.5s4.3-3 7-3.3c9-1 18.1-2 27.1-3 2.5-.3 5-.7 7.5.1 4 1.3 6.5 4.6 6.5 8.8-.2 4.1-.2 8.3-.1 12.5-.1 0 0 0 0 0zM-1043.7-244.7c1.7-6.2 3.3-12.1 4.9-18 .2-.8.4-1.5.7-2.3.8-2.2 2.3-3.4 4.3-3.4 2.1 0 3.6 1.1 4.3 3.4.8 2.6 1.5 5.2 2.2 7.7 1.1 4.1 2.2 8.1 3.5 12.2.5-2.1 1-4.2 1.5-6.2 1.1-4.6 2.1-9.2 3.2-13.9.3-1.2.6-2.4 2-3 2.3-1 4.8.6 4.5 3.1-.4 2.6-1.1 5.2-1.7 7.8-1.5 6-3 11.9-4.5 17.9l-.6 2.1c-.8 2.1-1.9 3-3.9 3-1.9 0-3.3-.8-4-2.9-.8-2.4-1.5-4.9-2.2-7.3-1.3-4.7-2.6-9.3-3.8-14-.1-.3-.2-.5-.4-1.1-.7 2.6-1.4 4.9-2 7.3-1.2 4.4-2.4 8.8-3.7 13.2-.2.6-.3 1.2-.6 1.8-.8 2.1-2.1 3.1-4.1 3-2 0-3.3-.9-3.9-3.1-1.1-3.9-2.1-7.8-3-11.7-1.2-4.5-2.3-9.1-3.4-13.6-.2-.8-.3-1.5-.4-2.3-.2-1.7.8-3.1 2.5-3.4 1.6-.4 3.1.3 3.6 2 .7 2.3 1.2 4.6 1.7 6.9 1.1 4.6 2.1 9.1 3.2 13.7-.2.4-.1.6.1 1.1zM-916.4-255.6c.4-.4.7-.6.9-.8 2.8-2.8 6.1-3.4 9.8-2.3 3.3 1 5.2 3.6 5.3 7.6.1 4.5.1 9 0 13.5 0 2.6-1.6 3.8-3.9 3.4-1.5-.3-2.3-1.3-2.3-3.1-.1-3.8 0-7.6-.1-11.4 0-.5 0-1-.1-1.5-.3-2.5-1.3-3.7-3.2-4.1-2.1-.4-4.6.6-5.5 2.5-.6 1.3-.9 2.8-.9 4.3-.1 3.1-.1 6.2-.1 9.3 0 .5 0 1-.1 1.5-.4 1.7-1.4 2.6-3 2.5-1.7 0-2.6-.8-3-2.6-.1-.5-.1-1.1-.1-1.6v-26c0-.5 0-1 .1-1.5.3-1.5 1.3-2.4 2.9-2.4 1.6 0 2.7.9 3 2.4.1.6.2 1.3.2 1.9.1 2.8.1 5.5.1 8.4zM-962.6-250.2c2.8-2.6 5.6-5.1 8.3-7.7.9-.8 1.8-1.4 3.1-1.2 1.9.3 2.9 2.2 1.8 3.7-.9 1.3-2.1 2.3-3.2 3.4-.7.7-1.4 1.3-2.2 2 .2.3.4.7.6 1 2 3.1 4 6.1 5.9 9.2l.9 1.5c.6 1.4.2 2.9-1 3.7-1.2.8-2.9.6-3.9-.5-.5-.5-.8-1.1-1.2-1.7-1.8-3-3.7-5.9-5.6-9-1.1 1-2.2 2-3.2 3-.2.2-.2.6-.2.9 0 1.6.1 3.2-.1 4.8-.2 2.5-2.7 3.7-4.9 2.4-.9-.5-1.2-1.3-1.3-2.2-.1-.6-.1-1.2-.1-1.8v-25.8c0-2.3.8-3.4 2.6-3.8 1.7-.4 3.1.5 3.4 2.2.1.7.2 1.4.2 2.1v14c.2 0 .1-.1.1-.2zM-881.1-237.4c-.9.5-1.7 1.2-2.7 1.7-3 1.7-6.2 2.1-9.6 1.1-2.9-.9-4.7-3.2-4.9-6.1-.2-2.8 1.2-5.2 4.1-6.3 2.3-.9 4.7-1.3 7.1-1.9l5.4-1.2c.4-2.9-1-4.7-3.9-4.8-.8 0-1.6.1-2.4.2-1.7.3-3.1 1.1-3.9 2.7-.6 1.2-1.4 2-2.9 1.8-1.6-.1-2.5-1.3-2.4-2.8.2-1.4.9-2.6 2-3.5 1.3-1.2 2.8-2 4.5-2.3 3.1-.6 6.2-.6 9.3.1 4 .9 5.9 3.1 6 7.2.1 2.7 0 5.4-.1 8 0 1.7.3 3.4.8 5.1.3.9.4 2 .1 2.8-.6 1.6-2.9 2-4.3.8-.7-.8-1.4-1.7-2.2-2.6zm-.4-8.9c-2 .4-3.9.9-5.8 1.3-.8.2-1.7.5-2.5.8-1.5.6-2.1 1.5-2.1 2.8.1 1.4 1.1 2.6 2.4 3 3.6 1.1 7.5-1.4 7.9-5.1.2-.9.1-1.8.1-2.8zM-849.2-245.1c.1 2.5.8 4.6 2.9 5.9 2.2 1.4 4.6 1.3 6.8 0 1-.5 1.7-1.4 2.6-2 .7-.5 1.4-1.1 2.2-1.3 1.8-.5 3 .9 2.4 2.7-.6 1.7-1.8 2.9-3.2 3.8-3.1 2-6.6 2.2-10.2 1.7-7.1-1-9.6-6.2-9.9-11.2-.2-3.7.5-7.2 3.1-10.1 2.9-3.1 6.6-3.8 10.6-3.4 5.3.5 9 3.8 9.9 8.9.6 3.4-.7 5-4.2 5.1H-848c-.3-.1-.7-.1-1.2-.1zm11.3-3.7c0-3.7-2.4-6.2-5.7-6.1-3.1.1-5.6 2.9-5.4 6.1h11.1zM-1001.1-234.1c-7.9.1-12.8-4.6-13-12.2-.2-6.6 3.6-12.3 11.5-12.8 7.5-.5 13 4 13.5 11.1.6 7.7-3.9 13.7-12 13.9zm6-12.6c-.4-1.6-.7-3.2-1.3-4.7-.9-2.1-2.7-3.1-5-3.1s-4.1 1-5.1 3c-1.6 3.2-1.6 6.5 0 9.8 1 2.2 2.9 3.1 5.4 3 2.3-.1 4-1.2 4.9-3.3.4-1.5.7-3.1 1.1-4.7zM-936.3-234.1c-2.2 0-5.3-.3-7.9-2.4-1.2-.9-2-2.1-2.3-3.6-.3-1.3.3-2.4 1.4-2.9 1.1-.5 2.4-.2 3.2.8.3.3.5.7.7 1 1.7 2.6 4.6 3.6 7.5 2.7 1.4-.4 2.3-1.3 2.4-2.5.1-1.2-.5-2.1-2-2.7-1.3-.5-2.7-.8-4.1-1.2-1.8-.6-3.7-1.1-5.4-1.9-5.2-2.6-4-8.4-.4-10.8 2.5-1.6 5.3-1.8 8.1-1.7 2.3.1 4.4.6 6.3 2 .8.6 1.6 1.5 2.1 2.4.7 1.2.4 2.5-.5 3.2-.9.7-2.4.8-3.4.1-.7-.5-1.2-1.1-1.8-1.7-1.6-1.9-4.7-2.6-6.9-1.2-.6.3-1 1.1-1.2 1.8-.2.8.4 1.5 1.2 1.8 1.6.6 3.3 1.1 4.9 1.6 1.8.6 3.7 1.1 5.5 1.9 2.1 1 3.7 2.5 3.8 5 .1 2.8-.9 5.1-3.4 6.6-2.1 1.2-4.5 1.6-7.8 1.7zM-980.6-255.6c.2-.3.3-.5.4-.6 2.2-3.3 6.1-4 9.4-1.6 1.2.9 1.6 2.1 1 3.3-.6 1.2-1.7 1.7-3.3 1.3-1.1-.3-2.3-.6-3.5-.6-1.5 0-2.6 1-2.9 2.4-.5 2.1-.9 4.3-1 6.5-.2 2.5 0 5-.1 7.4 0 2.4-1.9 3.8-4 3.2-1.3-.4-2.1-1.3-2.2-2.8-.1-1 0-1.9 0-2.9v-15c0-.5 0-1 .1-1.5.3-1.9 1.3-2.7 3.1-2.7 1.7 0 2.6.9 2.9 2.8.1.2.1.4.1.8zM-865.8-255.7l.3-.3c2.3-3.4 6-4.1 9.4-1.9 1.3.9 1.7 2.2 1.1 3.4-.6 1.2-1.8 1.7-3.3 1.3-.7-.2-1.5-.4-2.2-.5-1.9-.3-3.4.4-4.1 2.2-.5 1.5-.9 3.2-1 4.8-.2 3.2-.1 6.4-.2 9.6-.1 1.8-1.4 3-3 3-1.7 0-3-1.1-3.1-3-.1-2.2-.1-4.3-.1-6.5v-11.6c0-.5 0-1 .1-1.5.3-1.6 1.3-2.4 2.9-2.5 1.7 0 2.6.7 3 2.4.1.3.1.6.2 1.1zM-825.2-256.7c0 1.6-1.2 2.7-2.8 2.7-1.6 0-2.9-1.2-2.9-2.8 0-1.6 1.3-2.8 2.9-2.8 1.6 0 2.8 1.3 2.8 2.9zm-.6-.1c0-1.2-.9-2.2-2.2-2.2-1.2 0-2.2 1-2.2 2.1 0 1.2 1 2.2 2.2 2.2 1.2.1 2.2-.9 2.2-2.1z"/><path d="M-828.5-256.7c.6.6 1.1 1.1 1.6 1.5.1-.1.2-.1.3-.2l-.6-1.2h.3c0-.4.2-1.2 0-1.3-.7-.3-1.5-.4-2.2-.5v3.2h.3c.2-.4.2-.9.3-1.5z"/><path d="M-828.5-256.7c-.1.6-.2 1.1-.3 1.5h-.3v-3.2c.7.1 1.5.2 2.2.5.1.1 0 .8 0 1.3h-.3l.6 1.2c-.1.1-.2.1-.3.2-.5-.5-1-1-1.6-1.5z"/></g></g><path d="M-117.8-254.3c1.4 3.7 2.1 7.4 2.1 11.1-.7 53.8-140.4 177.3-774.9 177.3h-1596c-299.3 0-973-231.3-973-231.3s314.8 134.6 1272.3 134.6c1985.6 0 2065.8-90.8 2069.5-91.7z" fill="#e4e2d6"/><g><path d="M-1288.8-22.1c-265.6 37.4-383.6-3-456.2-22.2v-133c72.5-19.2 190.6-59.6 456.2-22.2v177.4z" fill="#edede6"/><polygon points="-1260.2,-177.3 -1260.2,-155.1 -1260.2,-44.3 -1288.8,-22.1 -1288.8,-155.1 -1288.8,-199.4" fill="#c8c6bc"/><polygon points="-1744.9,-54.4 -1773.5,-61.5 -1773.5,-160.1 -1744.9,-167.1" fill="#edede6"/><polygon points="-1773.5,-75.6 -1859,-96.7 -1859,-124.9 -1773.5,-146" fill="#edede6"/><g><path d="M-1752-177.3c63.3-16.7 161.4-49.6 361.6-32.9l-198.8 198.9c-75.7-7.6-125.3-23.1-162.7-33v-133h-.1z" fill="#c8c6bc"/></g><g><path d="M-2378.2 78.2l390.2-284.3s22.4-5.9 57-13.1l-415.6 297.4h-31.6z" fill="#c8c6bc"/><path d="M-1930.9-219.2c54.7-11.3 139.9-25.9 216.1-25.9 99.3 0 324.4 33.1 324.4 33.1L-2132 78.2h-214.5l415.6-297.4z" fill="#fffef0"/></g></g><g><path d="M-317.3-398.4h-130.1s-9.4 44.3 178.1 44.3l-48-44.3zM-2858-354.1c0 6.1 5 11.1 11.1 11.1h11.1c6.1 0 11.1-5 11.1-11.1v-22.2c0-6.2-4.9-11.1-11.1-11.1h-11.1c-6.1 0-11.1 4.9-11.1 11.1v22.2zM-2769.3-354.1c0 6.1 5 11.1 11.1 11.1h11.1c6.1 0 11.1-5 11.1-11.1v-22.2c0-6.2-4.9-11.1-11.1-11.1h-11.1c-6.1 0-11.1 4.9-11.1 11.1v22.2zM-2680.6-354.1c0 6.1 5 11.1 11.1 11.1h11.1c6.1 0 11.1-5 11.1-11.1v-22.2c0-6.2-4.9-11.1-11.1-11.1h-11.1c-6.1 0-11.1 4.9-11.1 11.1v22.2zM-2592-354.1c0 6.1 5 11.1 11.1 11.1h11.1c6.1 0 11.1-5 11.1-11.1v-22.2c0-6.2-4.9-11.1-11.1-11.1h-11.1c-6.1 0-11.1 4.9-11.1 11.1v22.2zM-2503.3-354.1c0 6.1 5 11.1 11.1 11.1h11.1c6.1 0 11.1-5 11.1-11.1v-22.2c0-6.2-4.9-11.1-11.1-11.1h-11.1c-6.1 0-11.1 4.9-11.1 11.1v22.2zM-2414.6-354.1c0 6.1 5 11.1 11.1 11.1h11.1c6.1 0 11.1-5 11.1-11.1v-22.2c0-6.2-4.9-11.1-11.1-11.1h-11.1c-6.1 0-11.1 4.9-11.1 11.1v22.2zM-2326-354.1c0 6.1 5 11.1 11.1 11.1h11.1c6.1 0 11.1-5 11.1-11.1v-22.2c0-6.2-4.9-11.1-11.1-11.1h-11.1c-6.1 0-11.1 4.9-11.1 11.1v22.2zM-2237.3-354.1c0 6.1 5 11.1 11.1 11.1h11.1c6.1 0 11.1-5 11.1-11.1v-22.2c0-6.2-4.9-11.1-11.1-11.1h-11.1c-6.1 0-11.1 4.9-11.1 11.1v22.2zM-2148.6-354.1c0 6.1 5 11.1 11.1 11.1h11.1c6.1 0 11.1-5 11.1-11.1v-22.2c0-6.2-4.9-11.1-11.1-11.1h-11.1c-6.1 0-11.1 4.9-11.1 11.1v22.2zM-2060-354.1c0 6.1 5 11.1 11.1 11.1h11.1c6.1 0 11.1-5 11.1-11.1v-22.2c0-6.2-4.9-11.1-11.1-11.1h-11.1c-6.1 0-11.1 4.9-11.1 11.1v22.2zM-1971.3-354.1c0 6.1 5 11.1 11.1 11.1h11.1c6.1 0 11.1-5 11.1-11.1v-22.2c0-6.2-4.9-11.1-11.1-11.1h-11.1c-6.1 0-11.1 4.9-11.1 11.1v22.2zM-1882.6-354.1c0 6.1 5 11.1 11.1 11.1h11.1c6.1 0 11.1-5 11.1-11.1v-22.2c0-6.2-4.9-11.1-11.1-11.1h-11.1c-6.1 0-11.1 4.9-11.1 11.1v22.2zM-1794-354.1c0 6.1 5 11.1 11.1 11.1h11.1c6.1 0 11.1-5 11.1-11.1v-22.2c0-6.2-4.9-11.1-11.1-11.1h-11.1c-6.1 0-11.1 4.9-11.1 11.1v22.2zM-1705.3-354.1c0 6.1 5 11.1 11.1 11.1h11.1c6.2 0 11.1-5 11.1-11.1v-22.2c0-6.2-4.9-11.1-11.1-11.1h-11.1c-6.1 0-11.1 4.9-11.1 11.1v22.2zM-1616.6-354.1c0 6.1 5 11.1 11.1 11.1h11.1c6.1 0 11.1-5 11.1-11.1v-22.2c0-6.2-4.9-11.1-11.1-11.1h-11.1c-6.1 0-11.1 4.9-11.1 11.1v22.2zM-1528-354.1c0 6.1 5 11.1 11.1 11.1h11.1c6.1 0 11.1-5 11.1-11.1v-22.2c0-6.2-4.9-11.1-11.1-11.1h-11.1c-6.1 0-11.1 4.9-11.1 11.1v22.2zM-1439.3-354.1c0 6.1 5 11.1 11.1 11.1h11.1c6.1 0 11.1-5 11.1-11.1v-22.2c0-6.2-4.9-11.1-11.1-11.1h-11.1c-6.1 0-11.1 4.9-11.1 11.1v22.2zM-1350.6-354.1c0 6.1 5 11.1 11.1 11.1h11.1c6.1 0 11.1-5 11.1-11.1v-22.2c0-6.2-4.9-11.1-11.1-11.1h-11.1c-6.1 0-11.1 4.9-11.1 11.1v22.2zM-1262-354.1c0 6.1 5 11.1 11.1 11.1h11.1c6.1 0 11.1-5 11.1-11.1v-22.2c0-6.2-4.9-11.1-11.1-11.1h-11.1c-6.1 0-11.1 4.9-11.1 11.1v22.2zM-1173.3-354.1c0 6.1 5 11.1 11.1 11.1h11.1c6.1 0 11.1-5 11.1-11.1v-22.2c0-6.2-4.9-11.1-11.1-11.1h-11.1c-6.1 0-11.1 4.9-11.1 11.1v22.2zM-1084.6-354.1c0 6.1 5 11.1 11.1 11.1h11.1c6.1 0 11.1-5 11.1-11.1v-22.2c0-6.2-4.9-11.1-11.1-11.1h-11.1c-6.1 0-11.1 4.9-11.1 11.1v22.2zM-996-354.1c0 6.1 5 11.1 11.1 11.1h11.1c6.1 0 11.1-5 11.1-11.1v-22.2c0-6.2-4.9-11.1-11.1-11.1h-11.1c-6.1 0-11.1 4.9-11.1 11.1v22.2zM-907.3-354.1c0 6.1 5 11.1 11.1 11.1h11.1c6.1 0 11.1-5 11.1-11.1v-22.2c0-6.2-4.9-11.1-11.1-11.1h-11.1c-6.1 0-11.1 4.9-11.1 11.1v22.2zM-818.6-354.1c0 6.1 5 11.1 11.1 11.1h11.1c6.1 0 11.1-5 11.1-11.1v-22.2c0-6.2-4.9-11.1-11.1-11.1h-11.1c-6.1 0-11.1 4.9-11.1 11.1v22.2z" fill="#00adef"/></g><path d="M-2271.7 67.1c58.2.7 139.7 11.1 139.7 11.1s-81.5 10.3-139.7 11.1c-58.2.7-106.5-11.1-106.5-11.1s48.3-11.9 106.5-11.1zM-3946-335.8c33.6.5 80.8 6.4 80.8 6.4s-47.2 5.9-80.8 6.4c-33.6.5-61.6-6.4-61.6-6.4s28-6.9 61.6-6.4z" fill="#fffef0"/><polygon points="-346.7,-405.2 -320.2,-352.7 -330.2,-347.7 -356.7,-400.2" fill="#fffef0"/><polygon points="-388.9,-405.6 -382.2,-359.3 -393.2,-357.7 -399.9,-404" fill="#fffef0"/><path d="M-565.8-310.4c3.1 0 5.5 2.5 5.5 5.5 0 3.1-2.5 5.5-5.5 5.5-3.1 0-5.5-2.5-5.5-5.5s2.5-5.5 5.5-5.5zM-2969.8-310.4c3.1 0 5.5 2.5 5.5 5.5 0 3.1-2.5 5.5-5.5 5.5s-5.5-2.5-5.5-5.5c-.1-3 2.4-5.5 5.5-5.5z" fill="#e4e2d6"/></g></svg>