<?xml version="1.0" encoding="utf-8"?>
<!-- Generator: Adobe Illustrator 19.0.0, SVG Export Plug-In . SVG Version: 6.00 Build 0)  -->
<svg version="1.1" id="svg1" xmlns="http://www.w3.org/2000/svg" xmlns:xlink="http://www.w3.org/1999/xlink" x="0px" y="0px"
	 viewBox="496 -368 1024 768" style="enable-background:new 496 -368 1024 768;" xml:space="preserve">
<style type="text/css">
	.st0{fill:#3498DB;}
	.st1{opacity:0.6;fill:none;stroke:#EFEFEF;stroke-miterlimit:10;enable-background:new    ;}
	.st2{fill:#586273;}
	.st3{opacity:0.8;fill:#2980B9;enable-background:new    ;}
	.st4{fill:#E6E9ED;}
	.st5{opacity:0.3;fill:#B7BFC7;enable-background:new    ;}
	.st6{fill:#DCE4E8;}
	.st7{display:none;fill:url(#mbplight_1_);}
	.st8{fill:#CCD1D9;}
	.st9{display:none;fill:#F5F7FA;stroke:#CCD1D9;stroke-miterlimit:10;}
	.st10{fill:#3B3B3B;stroke:#C1C1C1;stroke-miterlimit:10;}
	.st11{fill:#E74C3C;}
	.st12{fill:#D8D8DA;}
	.st13{fill:#AAB2BD;}
	.st14{fill:#FFFFFF;}
	.st15{fill:#E6E7E8;}
	.st16{fill:#49433C;}
	.st17{fill:#363532;}
	.st18{fill:#434A54;}
	.st19{fill:#F7F9F8;}
	.st20{fill:#44C650;}
	.st21{fill:none;}
	.st22{fill:#2980B9;}
	.st23{fill:#58585C;}
	.st24{fill:#464E5C;}
	.st25{fill:#F7D39A;}
	.st26{fill:#DA4453;}
	.st27{opacity:0.8;}
	.st28{fill:#EBF4FF;}
	.st29{fill:#E5E5E5;}
	.st30{fill:#B7BFC7;}
	.st31{opacity:0.3;}
	.st32{fill:#EFEEEE;}
	.st33{fill:#656D78;}
	.st34{fill:#2C3E50;}
	.st35{fill:#ECF0F1;}
	.st36{font-family:'Roboto-Black';}
	.st37{font-size:120px;}
	.st38{fill:#F5ECD9;}
	.st39{font-family:'Roboto-Regular';}
	.st40{font-size:14px;}
	.st41{fill:#DED6C7;}
	.st42{fill:#4CAEE5;}
	.st43{fill:#01050A;}
	.st44{font-family:'Roboto-Thin';}
	.st45{font-size:18px;}
	.st46{fill:#F5F7FA;}
	.st47{font-size:30px;}
</style>
<g id="bg">
	<rect x="-6584.4" y="-7625.8" class="st0" width="16291.8" height="14784"/>
</g>
<path id="wire1" class="st1" d="M521.3-410.2c45.9,59.7,97.6,127.8,180.5,125.9c65.6-1.5,127.1-41.7,193.4-31.3
	c67.3,10.6,116.7,71.3,167.2,111.7c53.2,42.6,112.2,66.4,172,97.3c46,23.8,69.2,58.5,77.5,109.3c5.8,35.4-0.1,84.2,22.4,114.6
	c29.1,39.5,157,60,101,134.8c-53,70.9-150.8,81.9-210.6,115.8c-16.1,9.1-38.5,26.3-51.5,34.8l-2,1.3"/>
<g id="introduction" xmlns:dc="http://purl.org/dc/elements/1.1/" xmlns:inkscape="http://www.inkscape.org/namespaces/inkscape" xmlns:rdf="http://www.w3.org/1999/02/22-rdf-syntax-ns#" xmlns:cc="http://creativecommons.org/ns#" xmlns:svg="http://www.w3.org/2000/svg" xmlns:sodipodi="http://sodipodi.sourceforge.net/DTD/sodipodi-0.dtd" sodipodi:docname="drawing.svg" inkscape:version="0.48.4 r9939">
	<g id="macbook">
		<path class="st2" d="M1441.6-58.9L1441.6-58.9C1441.6-58.8,1441.6-58.9,1441.6-58.9z"/>
		<path class="st3" d="M1472.5-86.3l-342.2-155.9c0,0-8.2-3.7-11.9,4.5c-3.7,8.2,4.5,11.9,4.5,11.9l24.6,11.2c0,0-8.2-3.7-11.9,4.5
			c-4.7,10.3-4.7,10.2-77.5,170.2c-3.9,8.5,0.8,19,9.3,22.9L1345,109.4c8.5,3.9,18.6,0.1,22.5-8.4c0,0,59.1-129.8,74.2-162.9l0,0
			c0.1-0.2,0.6-1.3,3.3-7.3c3.7-8.2-4.5-11.9-4.5-11.9l24.6,11.2c0,0,8.2,3.7,11.9-4.5C1480.7-82.6,1472.5-86.3,1472.5-86.3z"/>
		<g>
			<path class="st4" d="M1374.4,99c-3.9,8.5-14,12.3-22.5,8.4L1074.3-19c-8.5-3.9-13.2-14.4-9.3-22.9c0,0,73.8-162,77.5-170.2
				c3.7-8.2,11.9-4.5,11.9-4.5l293,133.5c0,0,8.2,3.7,4.5,11.9C1448.2-63,1374.4,99,1374.4,99z"/>
			<path class="st5" d="M1447.6-63.9l-364.2-20.6c0,0,54.4-119.4,58.1-127.6c3.7-8.2,11.9-4.5,11.9-4.5l293,133.5
				c0,0,8.2,3.7,4.5,11.9C1447.2-63,1447.6-63.9,1447.6-63.9z"/>
			
				<rect x="1217" y="-150.2" transform="matrix(-0.91 -0.4145 0.4145 -0.91 2539.5186 259.7862)" class="st6" width="161.9" height="9"/>
			
				<radialGradient id="mbplight_1_" cx="1708.7166" cy="9640.0859" r="163.2177" gradientTransform="matrix(0.9118 0.4011 -9.550000e-02 0.1842 652.5674 -2608.5879)" gradientUnits="userSpaceOnUse">
				<stop  offset="0.103" style="stop-color:#3498DB;stop-opacity:0.4"/>
				<stop  offset="0.7955" style="stop-color:#3498DB;stop-opacity:5.650000e-02"/>
				<stop  offset="0.9095" style="stop-color:#3498DB;stop-opacity:0"/>
			</radialGradient>
			<polygon id="mbplight" class="st7" points="1463.4,-37.1 1128.7,-187.6 1172.8,-227.4 1471.9,-91 			"/>
			<path class="st8" d="M1471-71.9l-342.2-155.9c0,0-8.2-3.7-4.5-11.9s11.9-4.5,11.9-4.5l342.3,155.9c0,0,8.2,3.7,4.5,11.9
				C1479.2-68.2,1471-71.9,1471-71.9z"/>
			
				<rect x="1180.4" y="-13.8" transform="matrix(-0.91 -0.4145 0.4145 -0.91 2339.5515 526.2095)" class="st9" width="92.9" height="46"/>
			<g>
				
					<rect x="1174.6" y="-165.9" transform="matrix(-0.9101 -0.4145 0.4145 -0.9101 2327.0828 185.0948)" class="st10" width="18" height="12"/>
				
					<rect x="1165.6" y="-148.9" transform="matrix(-0.91 -0.4145 0.4145 -0.91 2301.7397 218.8073)" class="st10" width="18" height="17"/>
				
					<rect x="1154.8" y="-124.6" transform="matrix(-0.91 -0.4145 0.4145 -0.91 2282.0454 265.1483)" class="st10" width="30" height="19"/>
				
					<rect x="1144.3" y="-99" transform="matrix(-0.9101 -0.4145 0.4145 -0.9101 2264.3083 310.2916)" class="st10" width="43" height="17"/>
				
					<rect x="1187.5" y="-138.8" transform="matrix(-0.91 -0.4145 0.4145 -0.91 2340.3728 247.4025)" class="st10" width="19" height="17"/>
				
					<rect x="1188" y="-111.9" transform="matrix(-0.91 -0.4145 0.4145 -0.91 2329.7988 300.7181)" class="st10" width="19" height="19"/>
				
					<rect x="1189.8" y="-83.8" transform="matrix(-0.91 -0.4145 0.4145 -0.91 2321.9558 353.3738)" class="st10" width="19" height="17"/>
				
					<rect x="1211.8" y="-74" transform="matrix(-0.91 -0.4145 0.4145 -0.91 2358.9629 380.9669)" class="st10" width="18" height="17"/>
				
					<rect x="1234.6" y="-63.6" transform="matrix(-0.9101 -0.4145 0.4145 -0.9101 2398.2739 410.1648)" class="st10" width="18" height="17"/>
				
					<rect x="1256.4" y="-53.7" transform="matrix(-0.91 -0.4145 0.4145 -0.91 2435.751 438.2567)" class="st10" width="18" height="17"/>
				
					<rect x="1279.2" y="-43.3" transform="matrix(-0.9101 -0.4145 0.4145 -0.9101 2475.0479 467.4085)" class="st10" width="18" height="17"/>
				
					<rect x="1300.2" y="-33.6" transform="matrix(-0.9101 -0.4145 0.4145 -0.9101 2511.927 494.8261)" class="st10" width="19" height="17"/>
				
					<rect x="1321.7" y="-18.2" transform="matrix(-0.91 -0.4145 0.4145 -0.91 2569.6616 538.1699)" class="st10" width="43" height="17"/>
				
					<rect x="1210.8" y="-101.8" transform="matrix(-0.91 -0.4145 0.4145 -0.91 2368.115 329.3927)" class="st10" width="18" height="19"/>
				
					<rect x="1232.6" y="-91.6" transform="matrix(-0.91 -0.4145 0.4145 -0.91 2406.5129 358.1168)" class="st10" width="19" height="19"/>
				
					<rect x="1255.5" y="-81.5" transform="matrix(-0.9101 -0.4144 0.4144 -0.9101 2445.1624 386.3921)" class="st10" width="18" height="19"/>
				
					<rect x="1277.2" y="-71.3" transform="matrix(-0.91 -0.4145 0.4145 -0.91 2483.3457 415.2387)" class="st10" width="19" height="19"/>
				
					<rect x="1300" y="-61.2" transform="matrix(-0.91 -0.4145 0.4145 -0.91 2521.7222 443.8871)" class="st10" width="18" height="19"/>
				
					<rect x="1321.8" y="-51.1" transform="matrix(-0.91 -0.4145 0.4145 -0.91 2560.0957 472.4295)" class="st10" width="19" height="19"/>
				
					<rect x="1344.1" y="-38.3" transform="matrix(-0.9101 -0.4145 0.4145 -0.9101 2607.9536 508.2486)" class="st10" width="30" height="19"/>
				
					<rect x="1210.2" y="-128.3" transform="matrix(-0.91 -0.4145 0.4145 -0.91 2379.3208 276.8578)" class="st10" width="19" height="17"/>
				
					<rect x="1232.2" y="-118.5" transform="matrix(-0.91 -0.4145 0.4145 -0.91 2416.3333 304.4729)" class="st10" width="18" height="17"/>
				
					<rect x="1254.9" y="-108.2" transform="matrix(-0.9101 -0.4145 0.4145 -0.9101 2455.5388 333.3656)" class="st10" width="18" height="17"/>
				
					<rect x="1276.8" y="-98.2" transform="matrix(-0.9101 -0.4145 0.4145 -0.9101 2493.2319 361.5586)" class="st10" width="18" height="17"/>
				
					<rect x="1299.5" y="-87.9" transform="matrix(-0.9101 -0.4144 0.4144 -0.9101 2532.1958 390.6335)" class="st10" width="18" height="17"/>
				
					<rect x="1320.3" y="-78.2" transform="matrix(-0.9101 -0.4145 0.4145 -0.9101 2568.9971 417.9869)" class="st10" width="19" height="17"/>
				
					<rect x="1342.1" y="-62.8" transform="matrix(-0.9101 -0.4145 0.4145 -0.9101 2627.1411 461.4601)" class="st10" width="43" height="17"/>
				
					<rect x="1135.5" y="-83.3" transform="matrix(-0.9101 -0.4145 0.4145 -0.9101 2216.6631 333.3693)" class="st10" width="18" height="19"/>
				
					<rect x="1157.2" y="-73.2" transform="matrix(-0.91 -0.4145 0.4145 -0.91 2254.864 362.0209)" class="st10" width="19" height="19"/>
				
					<rect id="spacebar" x="1175.6" y="-42.8" transform="matrix(-0.91 -0.4145 0.4145 -0.91 2369.9536 447.7833)" class="st10" width="115.9" height="19"/>
				
					<rect x="1290.1" y="-12.7" transform="matrix(-0.9101 -0.4145 0.4145 -0.9101 2483.6663 532.4932)" class="st10" width="19" height="19"/>
				
					<rect x="1312.9" y="-2.4" transform="matrix(-0.9101 -0.4145 0.4145 -0.9101 2522.9685 561.6522)" class="st10" width="19" height="19"/>
				
					<rect x="1335.6" y="7.9" transform="matrix(-0.9101 -0.4145 0.4145 -0.9101 2561.1162 590.4659)" class="st10" width="18" height="19"/>
				
					<rect x="1196.4" y="-155.8" transform="matrix(-0.91 -0.4145 0.4145 -0.91 2365.4531 213.7896)" class="st10" width="19" height="12"/>
				
					<rect x="1219.2" y="-145.4" transform="matrix(-0.9101 -0.4145 0.4145 -0.9101 2404.7185 242.9836)" class="st10" width="19" height="12"/>
				
					<rect x="1241" y="-135.7" transform="matrix(-0.91 -0.4145 0.4145 -0.91 2441.3357 270.502)" class="st10" width="18" height="12"/>
				
					<rect x="1263.7" y="-125.3" transform="matrix(-0.91 -0.4145 0.4145 -0.91 2480.3936 299.7612)" class="st10" width="18" height="12"/>
				
					<rect x="1285.7" y="-115.3" transform="matrix(-0.9101 -0.4145 0.4145 -0.9101 2518.325 327.8308)" class="st10" width="18" height="12"/>
				
					<rect x="1308.4" y="-104.9" transform="matrix(-0.9101 -0.4145 0.4145 -0.9101 2557.3799 357.0907)" class="st10" width="18" height="12"/>
				
					<rect x="1329.4" y="-95.2" transform="matrix(-0.9101 -0.4145 0.4145 -0.9101 2594.3826 384.5489)" class="st10" width="19" height="12"/>
				
					<rect x="1352" y="-84.9" transform="matrix(-0.91 -0.4145 0.4145 -0.91 2633.2253 413.7569)" class="st10" width="19" height="12"/>
				
					<rect x="1374.8" y="-74.6" transform="matrix(-0.91 -0.4146 0.4146 -0.91 2671.425 442.7395)" class="st10" width="18" height="12"/>
			</g>
		</g>
	</g>
	<g id="bevanda">
		<circle class="st3" cx="922.6" cy="-228.4" r="50.6"/>
		<circle class="st4" cx="927.6" cy="-230.4" r="50.6"/>
		<path class="st11" d="M927.6-272.1c23,0,41.7,18.7,41.7,41.7s-18.7,41.7-41.7,41.7c-10.4,0-19.9-3.8-27.2-10.1
			c-8.9-7.6-14.5-19-14.5-31.6C885.9-253.4,904.6-272.1,927.6-272.1z"/>
		<path id="linecover1" class="st4" d="M927.6-273.1c23.6,0,42.7,19.1,42.7,42.7s-19.1,42.7-42.7,42.7c-10.6,0-20.3-3.9-27.8-10.3
			c-9.1-7.8-14.9-19.4-14.9-32.4C884.9-254,904-273.1,927.6-273.1z"/>
		
			<ellipse transform="matrix(0.993 0.1184 -0.1184 0.993 -17.0535 -109.5755)" class="st12" cx="913.7" cy="-198.3" rx="11.6" ry="7.7"/>
		<polygon class="st8" points="864.4,-208.2 905.3,-201.2 904.8,-197.7 863.5,-200.5 		"/>
		
			<ellipse transform="matrix(0.993 0.1184 -0.1184 0.993 -17.0518 -109.5751)" class="st13" cx="913.7" cy="-198.3" rx="9.6" ry="6.4"/>
		<path class="st14" d="M900.3-273.3l9.7,12.5c1.6,2.1,1.2,5-0.8,6.7c-2.1,1.6-5,1.2-6.6-0.8l-9.7-12.5c-1.6-2.1-1.2-5,0.8-6.7
			C895.7-275.7,898.7-275.3,900.3-273.3z"/>
		<circle class="st14" cx="927.6" cy="-230.4" r="34.8"/>
		<circle class="st15" cx="927.6" cy="-230.4" r="31.3"/>
		<circle class="st16" cx="927.6" cy="-230.4" r="29.6"/>
		<path class="st17" d="M906.4-213.9c9.1,11.7,26,13.8,37.7,4.7c0.7-0.5,0.8-1.5,0.3-2.2s-1.5-0.8-2.2-0.3c-0.3,0.2-0.6,0.4-0.9,0.6
			c-0.1,0.1-0.1,0.1-0.2,0.2c-0.3,0.2-0.6,0.4-0.8,0.5c-0.1,0.1-0.2,0.1-0.3,0.2c-0.2,0.1-0.4,0.2-0.6,0.3c-0.1,0.1-0.3,0.1-0.4,0.2
			c-0.2,0.1-0.5,0.2-0.7,0.4c-0.2,0.1-0.4,0.2-0.5,0.3s-0.3,0.1-0.4,0.2c-0.2,0.1-0.3,0.2-0.5,0.2c-0.2,0.1-0.5,0.2-0.7,0.3
			s-0.3,0.1-0.5,0.2c-0.2,0.1-0.3,0.1-0.5,0.2c-0.1,0.1-0.3,0.1-0.4,0.1c-0.3,0.1-0.6,0.2-0.9,0.2c-0.1,0-0.2,0.1-0.3,0.1
			c-0.2,0.1-0.5,0.1-0.8,0.2c-0.1,0-0.2,0-0.2,0.1c-0.3,0.1-0.7,0.1-1,0.2c0,0,0,0-0.1,0c-0.2,0-0.4,0.1-0.6,0.1
			c-0.1,0-0.3,0-0.4,0.1h-0.1c-0.7,0.1-1.5,0.1-2.2,0.1l0,0c-0.7,0-1.5,0-2.2-0.1h-0.1c-0.3,0-0.7-0.1-1-0.1c0,0,0,0-0.1,0
			c-0.3,0-0.6-0.1-0.9-0.1c-0.1,0-0.3,0-0.4-0.1c-0.2,0-0.4-0.1-0.5-0.1c-0.6-0.1-1.3-0.3-1.9-0.5l0,0c-3.4-1-6.6-2.8-9.2-5.2
			c0,0,0,0-0.1,0c-0.1-0.1-0.3-0.3-0.4-0.4c-0.1-0.1-0.2-0.2-0.4-0.4c-0.1-0.1-0.2-0.2-0.4-0.4s-0.4-0.4-0.6-0.7
			c-0.1-0.1-0.1-0.2-0.2-0.2c-0.2-0.3-0.5-0.5-0.7-0.8s-0.4-0.6-0.6-0.9c-0.1-0.1-0.1-0.2-0.2-0.3c-0.2-0.2-0.3-0.5-0.5-0.7
			c-0.1-0.1-0.2-0.3-0.3-0.4c-0.1-0.1-0.2-0.3-0.3-0.4c-0.1-0.2-0.2-0.4-0.3-0.5c0,0,0,0,0-0.1c-1.7-3.2-2.6-6.7-2.8-10.3l0,0
			c0-0.7,0-1.3,0-2c0-0.2,0-0.4,0-0.5s0-0.3,0-0.4c0-0.3,0.1-0.6,0.1-1c0,0,0,0,0-0.1c0-0.3,0.1-0.7,0.1-1v-0.1
			c0.1-0.7,0.3-1.4,0.5-2.2l0,0c0.2-0.7,0.4-1.4,0.7-2.1c0,0,0,0,0-0.1c0.1-0.1,0.1-0.3,0.2-0.4c0.1-0.2,0.2-0.4,0.2-0.6
			c0,0,0,0,0-0.1c0.1-0.3,0.3-0.6,0.4-0.9c0-0.1,0.1-0.1,0.1-0.2c0.1-0.2,0.2-0.5,0.4-0.7c0.1-0.1,0.1-0.2,0.2-0.3
			c0.1-0.3,0.3-0.5,0.4-0.8c0.1-0.1,0.2-0.3,0.3-0.4c0.1-0.1,0.2-0.3,0.3-0.4c0.1-0.1,0.2-0.3,0.3-0.4c0.2-0.2,0.3-0.4,0.5-0.6
			c0.1-0.1,0.2-0.3,0.3-0.4c0.1-0.1,0.2-0.2,0.3-0.3c0.1-0.2,0.3-0.3,0.4-0.5c0.2-0.2,0.3-0.4,0.5-0.6c0.1-0.1,0.2-0.2,0.3-0.3
			c0.2-0.2,0.3-0.3,0.5-0.5c0.1-0.1,0.1-0.2,0.2-0.2c0.2-0.2,0.5-0.4,0.7-0.7c0.1-0.1,0.1-0.1,0.2-0.2c0.3-0.2,0.5-0.5,0.8-0.7
			c0.7-0.5,0.8-1.5,0.3-2.2s-1.5-0.8-2.2-0.3C899.4-242.5,897.3-225.6,906.4-213.9z"/>
		<path class="st17" d="M916.3-253.1c0.3,0.8,1.3,1.2,2.1,0.8c0.2-0.1,0.4-0.2,0.6-0.3h0.1l0,0c0.2-0.1,0.4-0.1,0.6-0.2l0,0
			c0.1,0,0.1,0,0.2-0.1l0,0c0.2-0.1,0.4-0.1,0.6-0.2l0,0l0,0l0,0c0.4-0.1,0.9-0.3,1.4-0.4c0.1,0,0.1,0,0.2,0
			c0.4-0.1,0.9-0.2,1.3-0.3c0.1,0,0.2,0,0.3-0.1c-0.1,0-0.1,0-0.2,0c0.1,0,0.1,0,0.2,0l0,0c0.1,0,0.3,0,0.4-0.1l0,0
			c0.1,0,0.1,0,0.1,0l0,0c-0.1,0-0.1,0-0.1,0c0.1,0,0.1,0,0.2,0c0.6-0.1,1.1,0.2,1.4,0.6c0.2,0.2,0.3,0.5,0.3,0.8
			c0.1,0.9-0.5,1.7-1.3,1.8l0,0l0,0c-1.3,0.2-2.6,0.5-3.9,0.9l0,0c0,0,0,0-0.1,0l0,0c-0.4,0.1-0.8,0.3-1.2,0.5
			c-0.8,0.3-1.1,1.3-0.8,2.1s1.3,1.2,2.1,0.8c2.2-0.9,4.5-1.4,6.9-1.4c0.1,0,0.1,0,0.2,0c0.2,0,0.3,0,0.5,0c0.1,0,0.2,0,0.3,0
			s0.3,0,0.5,0c0.1,0,0.2,0,0.3,0s0.2,0,0.3,0l0,0c0,0,0,0,0.1,0c0.4,0.1,0.7,0.3,0.9,0.6s0.4,0.7,0.3,1.2c-0.1,0.9-0.9,1.5-1.8,1.4
			c-2.5-0.3-5,0-7.2,1H922c-0.8,0.3-1.2,1.3-0.8,2.1c0.3,0.8,1.3,1.2,2.1,0.8c4.6-1.9,10-0.5,13,3.4c3.1,4,3.1,9.5,0.1,13.5
			c-0.5,0.7-0.4,1.7,0.3,2.2s1.7,0.4,2.2-0.3l0.2-0.2c1.4-1.9,2.3-4.2,2.6-6.6c0.1-0.9,0.9-1.5,1.8-1.4c0.4,0.1,0.8,0.3,1.1,0.6
			c0.2,0.3,0.4,0.7,0.3,1.1c0,0,0,0,0,0.1l0,0c0,0.1,0,0.2-0.1,0.3c0,0.1,0,0.2,0,0.3s-0.1,0.3-0.1,0.4c0,0.1,0,0.2-0.1,0.3
			c0,0.2-0.1,0.3-0.1,0.5c0,0.1,0,0.1,0,0.2c-0.6,2.3-1.6,4.4-3,6.3c-0.5,0.7-0.4,1.7,0.3,2.2s1.7,0.4,2.2-0.3
			c0.3-0.4,0.5-0.7,0.8-1.1l0,0c0,0,0,0,0-0.1l0,0c0.7-1.1,1.4-2.3,1.9-3.5l0,0l0,0c0.3-0.8,1.2-1.2,2.1-0.9
			c0.3,0.1,0.5,0.3,0.6,0.5c0.3,0.4,0.4,1,0.2,1.5c0,0.1,0,0.1-0.1,0.2c-0.1,0.2-0.2,0.4-0.2,0.6c0,0.1-0.1,0.2-0.1,0.3
			c-0.1,0.2-0.2,0.4-0.3,0.6c0,0.1-0.1,0.2-0.1,0.2c-0.1,0.2-0.2,0.4-0.3,0.6c0,0.1-0.1,0.1-0.1,0.2c-0.1,0.3-0.3,0.5-0.5,0.8
			c0,0,0,0,0,0.1l0,0c-0.1,0.2-0.2,0.4-0.4,0.6l-0.1,0.1l0,0c-0.1,0.1-0.1,0.2-0.2,0.3c-0.1,0.1-0.1,0.1-0.1,0.2c0,0,0,0-0.1,0.1
			c-0.1,0.2-0.3,0.4-0.4,0.6c-0.5,0.7-0.4,1.7,0.3,2.2s1.7,0.4,2.2-0.3c7.3-9.7,7.3-23.1-0.2-32.7c-7.4-9.6-20.5-13-31.6-8.3
			C916.4-254.8,916-253.9,916.3-253.1z M949.3-220.7c0,0.1-0.1,0.2-0.1,0.2C949.2-220.6,949.2-220.7,949.3-220.7z M948.9-219.9
			c0,0.1-0.1,0.1-0.1,0.2C948.8-219.7,948.8-219.8,948.9-219.9z M948.4-219l-0.1,0.1C948.3-218.9,948.4-218.9,948.4-219z
			 M949.5-221.4c0,0,0-0.1,0.1-0.1C949.6-221.5,949.6-221.5,949.5-221.4C949.6-221.4,949.5-221.4,949.5-221.4z"/>
		<path class="st17" d="M946.5-216C946.5-216.1,946.5-216.1,946.5-216c0.2-0.2,0.3-0.4,0.4-0.6C946.8-216.4,946.6-216.2,946.5-216z"
			/>
	</g>
	<g id="mouse">
		<path class="st3" d="M1478.8,119C1478.8,119,1478.8,118.9,1478.8,119c-9.8-7.2-23.6-5.2-30.9,4.6l-0.1,0.1l-0.1,0.2l-24.6,33.3
			c-0.1,0.1-0.2,0.3-0.2,0.4l-1.3,1.8l0,0c-7.2,9.9-5,23.5,4.7,30.7c9.8,7.3,23.7,5.1,30.9-4.6l26.2-35.5
			C1490.7,140.1,1488.6,126.2,1478.8,119z"/>
		<g>
			<g>
				<path class="st8" d="M1453.7,122.8l-0.1,0.1l-0.1,0.2l-24.6,33.3c-0.1,0.1-0.1,0.2-0.2,0.3l-1.2,1.6l0,0
					c-7.3,10.1-5.1,23.6,4.7,30.9l52.4-70.9C1474.8,111,1461,113.1,1453.7,122.8z"/>
				<path class="st4" d="M1484.6,118.3L1484.6,118.3l-52.5,70.9c9.8,7.3,23.7,5.2,30.9-4.6l-0.1-0.1l0,0l0,0l0.1,0.1l26.2-35.4
					C1496.5,139.4,1494.4,125.5,1484.6,118.3z"/>
			</g>
		</g>
	</g>
	<g id="iphone">
		<path class="st3" d="M1463.8-181.8l38.5-44.1c3-3.5,2.7-8.8-0.8-11.8l-88.1-77c-3.5-3-8.8-2.7-11.8,0.8l-38.5,44.1
			c-3,3.5-2.7,8.8,0.8,11.8l88.1,77C1455.4-178,1460.7-178.4,1463.8-181.8z"/>
		<path class="st18" d="M1407.1-315l-38.5,44.1c-3,3.5-2.7,8.8,0.8,11.8l88.1,77c3.5,3,8.8,2.7,11.8-0.8l38.5-44.1
			c3-3.5,2.7-8.8-0.8-11.8l-88.1-77C1415.4-318.8,1410.1-318.5,1407.1-315z"/>
		<path class="st2" d="M1495.2-238l-38.5,44.1l-81.8-71.5l0,0l38.5-44l0,0L1495.2-238z"/>
		
			<rect x="1476.2" y="-212.4" transform="matrix(-0.658 0.753 -0.753 -0.658 2299.5576 -1464.912)" class="st18" width="12.5" height="4.2"/>
		<path class="st19" d="M1374.9-265.4L1374.9-265.4l81.8,71.5l38.5-44.1l-81.8-71.5l0,0L1374.9-265.4z"/>
		<path class="st20" d="M1438.8-271l-5.5-2.6c-0.6-0.3-1.5-0.3-2.1,0l-9.2,4.3l0,0l-1.3-1.1c-0.4-2.2-1.7-4.6-3.9-6.4l-1.7-1.5
			c-3-2.6-7.5-2.5-10,0.4l0,0l0,0l0,0c-2.5,2.9-2.1,7.3,0.9,10l1.7,1.5c2.1,1.9,4.6,2.9,6.9,3l1.3,1.1l0,0l-3.1,9.7
			c-0.2,0.6,0,1.5,0.3,2.1l3.3,5.1c0.3,0.5,1,0.6,1.4,0.1l10.6-12.1l0,0l10.6-12.1C1439.5-270.1,1439.3-270.7,1438.8-271z"/>
		
			<rect x="1422" y="-251.9" transform="matrix(-0.6579 0.7531 -0.7531 -0.6579 2200.9858 -1494.5227)" class="st6" width="35.9" height="9"/>
		
			<rect x="1432.3" y="-242.9" transform="matrix(-0.658 0.753 -0.753 -0.658 2224.9739 -1487.3157)" class="st6" width="35.9" height="9"/>
		
			<rect x="1451.1" y="-234" transform="matrix(-0.658 0.753 -0.753 -0.658 2247.9067 -1479.9053)" class="st6" width="17.9" height="9"/>
		<circle class="st2" cx="1441.1" cy="-228.3" r="1.7"/>
		<circle class="st2" cx="1447" cy="-235" r="1.7"/>
		<circle class="st2" cx="1444.1" cy="-231.6" r="1.7"/>
		<path class="st2" d="M1451.1-239.7c0.7,0.6,0.8,1.7,0.1,2.4c-0.6,0.7-1.7,0.8-2.4,0.2c-0.7-0.6-0.8-1.7-0.1-2.4
			C1449.3-240.2,1450.4-240.3,1451.1-239.7z"/>
		<circle class="st2" cx="1431" cy="-237.1" r="1.7"/>
		<circle class="st2" cx="1442.8" cy="-250.6" r="1.7"/>
		<circle class="st2" cx="1436.9" cy="-243.9" r="1.7"/>
		<circle class="st2" cx="1434" cy="-240.5" r="1.7"/>
		<circle class="st2" cx="1439.9" cy="-247.2" r="1.7"/>
		
			<rect x="1455.8" y="-230.6" transform="matrix(-0.6578 0.7532 -0.7532 -0.6578 2248.1465 -1479.9984)" class="st11" width="9" height="2.7"/>
		<path class="st21" d="M1407.1-315l-29.9,34.2l113.6,73.3l17.1-19.5c3-3.5,2.7-8.8-0.8-11.8l-88.1-77
			C1415.4-318.8,1410.1-318.5,1407.1-315z"/>
	</g>
	<g id="matita1">
		<polygon class="st3" points="1621,-46 1559,-174 1553.7,-171.4 1548.3,-168.9 1610.4,-40.8 1615.7,-43.4 		"/>
		<polygon class="st22" points="1624.8,-28 1621,-46 1610.4,-40.8 1622.1,-26.7 1626.1,-22.1 		"/>
		<g>
			<g>
				<polygon class="st23" points="1619.8,-44.5 1560.4,-167.2 1557.8,-172.5 1552.4,-170 1614.5,-41.9 				"/>
				<polygon class="st23" points="1619.8,-44.5 1625.1,-47.1 1563.1,-175.1 1557.8,-172.5 1560.4,-167.2 				"/>
			</g>
			<g>
				<polygon class="st24" points="1630.1,-23.1 1628.9,-29.1 1626.2,-27.8 				"/>
				<polygon class="st25" points="1628.9,-29.1 1625.1,-47.1 1614.5,-41.9 1626.2,-27.8 				"/>
			</g>
			<g>
				
					<rect x="1559.5" y="-158.7" transform="matrix(0.8998 -0.4362 0.4362 0.8998 225.0543 667.2251)" class="st26" width="11.9" height="4.4"/>
			</g>
		</g>
	</g>
	<g id="foglio2">
		<g>
			<g class="st27">
				<g>
					<polygon class="st22" points="668.6,-357.3 644.5,-168.8 795.3,-149.5 819.4,-338.1 821,-350.6 670.3,-369.9 					"/>
				</g>
			</g>
			<g>
				<g>
					
						<rect x="659.5" y="-351.2" transform="matrix(-0.9919 -0.1268 0.1268 -0.9919 1497.3517 -416.9869)" class="st28" width="151.9" height="190"/>
				</g>
			</g>
			<g>
				<g>
					
						<rect x="672.4" y="-363" transform="matrix(-0.9919 -0.1268 0.1268 -0.9919 1535.7954 -615.6215)" class="st20" width="151.9" height="12.7"/>
				</g>
			</g>
			<g>
				<g>
					
						<rect x="706.4" y="-284.7" transform="matrix(0.9919 0.1268 -0.1268 0.9919 -29.5482 -92.6262)" class="st21" width="12.7" height="12.7"/>
				</g>
			</g>
			<g>
				<g>
					
						<rect x="728.8" y="-282.2" transform="matrix(-0.9919 -0.1267 0.1267 -0.9919 1493.45 -463.1899)" class="st21" width="6.3" height="6.3"/>
				</g>
			</g>
			<g>
				<g>
					
						<rect x="683.5" y="-298.7" transform="matrix(-0.9919 -0.1268 0.1268 -0.9919 1462.1906 -501.1994)" class="st18" width="63.2" height="3.2"/>
				</g>
			</g>
			<g>
				<g>
					
						<rect x="752.6" y="-291.4" transform="matrix(-0.9919 -0.1268 0.1268 -0.9919 1576.8916 -479.1253)" class="st0" width="41.1" height="3.2"/>
				</g>
			</g>
			<g>
				<g>
					
						<rect x="676.2" y="-289.4" transform="matrix(-0.9919 -0.1268 0.1268 -0.9919 1506.4259 -479.7881)" class="st0" width="123.4" height="3.2"/>
				</g>
			</g>
			<g>
				<g>
					
						<rect x="682.1" y="-288.2" transform="matrix(-0.9919 -0.1268 0.1268 -0.9919 1426.4166 -482.4917)" class="st0" width="31.6" height="3.2"/>
				</g>
			</g>
			<g>
				<g>
					
						<rect x="719.8" y="-284.6" transform="matrix(-0.9919 -0.1269 0.1269 -0.9919 1482.2396 -471.47)" class="st18" width="12.7" height="3.2"/>
				</g>
			</g>
			<g>
				<g>
					
						<rect x="738.5" y="-279.6" transform="matrix(-0.9919 -0.1268 0.1268 -0.9919 1559.7845 -456.805)" class="st0" width="53.8" height="3.2"/>
				</g>
			</g>
			<g>
				<g>
					
						<rect x="666.1" y="-239.2" transform="matrix(-0.9919 -0.1268 0.1268 -0.9919 1388.5062 -386.7229)" class="st18" width="31.6" height="3.2"/>
				</g>
			</g>
			<g>
				<g>
					
						<rect x="664.7" y="-227.4" transform="matrix(-0.9919 -0.1269 0.1269 -0.9919 1371.5311 -364.3147)" class="st18" width="19" height="3.2"/>
				</g>
			</g>
			<g>
				<g>
					
						<rect x="689.8" y="-224.7" transform="matrix(-0.9919 -0.1269 0.1269 -0.9919 1414.8999 -355.961)" class="st18" width="12.7" height="3.2"/>
				</g>
			</g>
			<g>
				<g>
					
						<rect x="665.5" y="-233.3" transform="matrix(-0.9919 -0.1268 0.1268 -0.9919 1380.1182 -375.6331)" class="st18" width="25.3" height="3.2"/>
				</g>
			</g>
			<g>
				<g>
					
						<rect x="663.7" y="-220.4" transform="matrix(-0.9919 -0.1268 0.1268 -0.9919 1381.3523 -349.5766)" class="st18" width="31.6" height="3.2"/>
				</g>
			</g>
			<g>
				<g>
					
						<rect x="669" y="-275" transform="matrix(-0.9919 -0.1269 0.1269 -0.9919 1403.2579 -429.0001)" class="st8" width="38" height="31.7"/>
				</g>
			</g>
			<g>
				<g>
					
						<rect x="711.7" y="-220.2" transform="matrix(-0.9919 -0.1268 0.1268 -0.9919 1483.1334 -342.8821)" class="st18" width="38" height="3.2"/>
				</g>
			</g>
			<g>
				<g>
					
						<rect x="711" y="-215.5" transform="matrix(-0.9919 -0.1268 0.1268 -0.9919 1455.9392 -335.2108)" class="st18" width="12.7" height="3.2"/>
				</g>
			</g>
			<g>
				<g>
					
						<rect x="729.9" y="-213.5" transform="matrix(-0.9919 -0.127 0.127 -0.9919 1487.022 -329.0877)" class="st18" width="6.3" height="3.2"/>
				</g>
			</g>
			<g>
				<g>
					
						<rect x="712.6" y="-227.7" transform="matrix(-0.9919 -0.1268 0.1268 -0.9919 1466.9542 -358.9106)" class="st18" width="19" height="3.2"/>
				</g>
			</g>
			<g>
				<g>
					
						<rect x="737.6" y="-224.9" transform="matrix(-0.9919 -0.1268 0.1268 -0.9919 1510.2903 -350.3573)" class="st18" width="12.7" height="3.2"/>
				</g>
			</g>
			<g>
				<g>
					
						<rect x="713.2" y="-233.2" transform="matrix(-0.9919 -0.1268 0.1268 -0.9919 1481.5686 -368.7986)" class="st18" width="31.6" height="3.2"/>
				</g>
			</g>
			<g>
				<g>
					
						<rect x="716.1" y="-269" transform="matrix(-0.9919 -0.1268 0.1268 -0.9919 1496.2788 -411.1486)" class="st8" width="38" height="31.7"/>
				</g>
			</g>
			<g>
				<g>
					
						<rect x="760.3" y="-226.7" transform="matrix(-0.9919 -0.1268 0.1268 -0.9919 1580.9524 -349.6571)" class="st18" width="38" height="3.2"/>
				</g>
			</g>
			<g>
				<g>
					
						<rect x="758.9" y="-214.9" transform="matrix(-0.9919 -0.1269 0.1269 -0.9919 1563.8451 -327.0593)" class="st18" width="25.3" height="3.2"/>
				</g>
			</g>
			<g>
				<g>
					
						<rect x="760.6" y="-222" transform="matrix(-0.9919 -0.1268 0.1268 -0.9919 1555.7494 -341.8596)" class="st18" width="12.7" height="3.2"/>
				</g>
			</g>
			<g>
				<g>
					
						<rect x="758.1" y="-209.1" transform="matrix(-0.9919 -0.1268 0.1268 -0.9919 1555.2281 -316.0853)" class="st18" width="19" height="3.2"/>
				</g>
			</g>
			<g>
				<g>
					
						<rect x="783.1" y="-206.2" transform="matrix(-0.9919 -0.1268 0.1268 -0.9919 1598.5588 -307.5372)" class="st18" width="12.7" height="3.2"/>
				</g>
			</g>
			<g>
				<g>
					
						<rect x="778.5" y="-219.3" transform="matrix(-0.9919 -0.1269 0.1269 -0.9919 1597.1655 -333.5494)" class="st18" width="19" height="3.2"/>
				</g>
			</g>
			<g>
				<g>
					
						<rect x="763.1" y="-262.9" transform="matrix(-0.9919 -0.1268 0.1268 -0.9919 1589.3236 -393.1259)" class="st8" width="38" height="31.6"/>
				</g>
			</g>
			<g>
				<g>
					
						<rect x="676.3" y="-319" transform="matrix(-0.9919 -0.1268 0.1268 -0.9919 1519.0521 -528.6857)" class="st8" width="132.9" height="12.7"/>
				</g>
			</g>
			<g>
				<g>
					<g>
						
							<rect x="683.3" y="-321" transform="matrix(-0.9919 -0.1268 0.1268 -0.9919 1414.7411 -548.8309)" class="st29" width="13.3" height="3.2"/>
					</g>
				</g>
			</g>
			<g>
				<g>
					<g>
						
							<rect x="703" y="-322.4" transform="matrix(-0.9919 -0.1268 0.1268 -0.9919 1466.8091 -538.8245)" class="st18" width="26.6" height="12.7"/>
					</g>
				</g>
				<g>
					<g>
						
							<rect x="709.6" y="-317.6" transform="matrix(-0.9919 -0.1268 0.1268 -0.9919 1466.885 -538.7084)" class="st29" width="13.3" height="3.2"/>
					</g>
				</g>
			</g>
			<g>
				<g>
					<g>
						
							<rect x="736.1" y="-314.2" transform="matrix(-0.9919 -0.1269 0.1269 -0.9919 1519.0845 -528.5067)" class="st29" width="13.3" height="3.2"/>
					</g>
				</g>
			</g>
			<g>
				<g>
					<g>
						
							<rect x="762.5" y="-310.9" transform="matrix(-0.9919 -0.1268 0.1268 -0.9919 1571.22 -518.6556)" class="st29" width="13.3" height="3.2"/>
					</g>
				</g>
			</g>
			<g>
				<g>
					<g>
						
							<rect x="788.7" y="-307.5" transform="matrix(-0.9919 -0.1268 0.1268 -0.9919 1623.1697 -508.5703)" class="st29" width="13.3" height="3.2"/>
					</g>
				</g>
			</g>
			<g>
				<g>
					<g>
						
							<rect x="681.9" y="-336.3" transform="matrix(-0.9919 -0.1268 0.1268 -0.9919 1476.5327 -575.5007)" class="st8" width="76" height="3.2"/>
					</g>
				</g>
				<g>
					<g>
						
							<rect x="683.1" y="-346.2" transform="matrix(-0.9919 -0.1268 0.1268 -0.9919 1423.212 -598.6788)" class="st8" width="19" height="3.2"/>
					</g>
				</g>
			</g>
			<g>
				<g>
					
						<rect x="660.2" y="-199.6" transform="matrix(-0.9919 -0.1268 0.1268 -0.9919 1471.0525 -280.355)" class="st8" width="132.9" height="25.3"/>
				</g>
			</g>
		</g>
	</g>
	<g id="foglio1">
		
			<rect x="496.5" y="-371.2" transform="matrix(-0.9495 0.3137 -0.3137 -0.9495 1040.1855 -687.4926)" class="st22" width="157.9" height="222.2"/>
		<g>
			<g>
				<g>
					<g>
						
							<rect x="466.4" y="-338.4" transform="matrix(-0.3137 -0.9495 0.9495 -0.3137 1005.0117 207.5525)" class="st19" width="222.2" height="157.9"/>
					</g>
				</g>
			</g>
			<g>
				
					<rect x="571.9" y="-316.4" transform="matrix(-0.9495 0.3137 -0.3137 -0.9495 1072.2548 -799.4301)" class="st30" width="57" height="6"/>
				
					<rect x="575.1" y="-306.9" transform="matrix(-0.9495 0.3137 -0.3137 -0.9495 1081.2911 -781.8608)" class="st6" width="57" height="6"/>
				
					<rect x="578.3" y="-297.5" transform="matrix(-0.9495 0.3137 -0.3137 -0.9495 1090.4985 -764.3824)" class="st6" width="57" height="6"/>
				
					<rect x="581.4" y="-287.9" transform="matrix(-0.9495 0.3137 -0.3137 -0.9495 1099.532 -746.8167)" class="st6" width="57" height="6"/>
			</g>
			
				<rect x="491" y="-322.3" transform="matrix(-0.9495 0.3137 -0.3137 -0.9495 987.4976 -797.5786)" class="st6" width="133.9" height="6"/>
			
				<rect x="484.7" y="-351.3" transform="matrix(-0.9495 0.3137 -0.3137 -0.9495 969.2546 -832.623)" class="st30" width="133.9" height="26"/>
			<g>
				
					<rect x="512.3" y="-257.8" transform="matrix(-0.9495 0.3137 -0.3137 -0.9495 1049.2206 -678.4861)" class="st6" width="133.9" height="6"/>
				
					<rect x="515.4" y="-248.3" transform="matrix(-0.9495 0.3137 -0.3137 -0.9495 1058.4304 -661.0072)" class="st6" width="133.9" height="6"/>
				
					<rect x="518.6" y="-238.8" transform="matrix(-0.9495 0.3137 -0.3137 -0.9495 1067.4637 -643.4371)" class="st6" width="133.9" height="6"/>
			</g>
			<g>
				
					<rect x="536.8" y="-183.7" transform="matrix(-0.9495 0.3137 -0.3137 -0.9495 1120.244 -541.7411)" class="st6" width="133.9" height="6"/>
				
					<rect x="540.7" y="-169.6" transform="matrix(-0.9495 0.3137 -0.3137 -0.9495 1103.1483 -510.6243)" class="st6" width="104" height="6"/>
			</g>
			<g>
				
					<rect x="525.7" y="-213.8" transform="matrix(-0.9495 0.3137 -0.3137 -0.9495 1045.4022 -589.7278)" class="st30" width="89" height="6"/>
				
					<rect x="528.8" y="-204.2" transform="matrix(-0.9495 0.3137 -0.3137 -0.9495 1054.4346 -572.1588)" class="st6" width="89" height="6"/>
				
					<rect x="532" y="-194.8" transform="matrix(-0.9495 0.3137 -0.3137 -0.9495 1063.6455 -554.6744)" class="st6" width="89" height="6"/>
				
					<rect x="624.1" y="-236.8" transform="matrix(-0.9496 0.3136 -0.3136 -0.9496 1180.6007 -637.5956)" class="st20" width="35" height="26"/>
			</g>
			<g>
				
					<rect x="504.8" y="-285.1" transform="matrix(-0.9495 0.3137 -0.3137 -0.9495 907.0743 -680.2245)" class="st6" width="7" height="36"/>
				
					<rect x="514.3" y="-288.3" transform="matrix(-0.9495 0.3138 -0.3138 -0.9495 924.5415 -689.5065)" class="st6" width="7" height="36"/>
				
					<rect x="523.8" y="-291.4" transform="matrix(-0.9495 0.3138 -0.3138 -0.9495 942.1163 -698.5427)" class="st6" width="7" height="36"/>
				
					<rect x="533.3" y="-294.5" transform="matrix(-0.9495 0.3138 -0.3138 -0.9495 959.6848 -707.5726)" class="st6" width="7" height="36"/>
				
					<rect x="542.8" y="-297.7" transform="matrix(-0.9495 0.3137 -0.3137 -0.9495 977.1699 -716.7217)" class="st6" width="7" height="36"/>
				
					<rect x="552.3" y="-300.8" transform="matrix(-0.9496 0.3134 -0.3134 -0.9496 994.8779 -725.6213)" class="st6" width="7" height="36"/>
				
					<rect x="561.8" y="-304" transform="matrix(-0.9495 0.3138 -0.3138 -0.9495 1012.3005 -734.8507)" class="st6" width="7" height="36"/>
				
					<rect x="508" y="-265.6" transform="matrix(-0.9496 0.3134 -0.3134 -0.9496 916.418 -662.6086)" class="st11" width="7" height="16"/>
				
					<rect x="517" y="-271.7" transform="matrix(-0.9495 0.3137 -0.3137 -0.9495 932.386 -674.5171)" class="st11" width="7" height="19"/>
				
					<rect x="527.6" y="-268.1" transform="matrix(-0.9495 0.3138 -0.3138 -0.9495 953.0829 -677.5386)" class="st11" width="7" height="12"/>
				
					<rect x="535.5" y="-280.9" transform="matrix(-0.9495 0.3137 -0.3137 -0.9495 966.0295 -695.3217)" class="st11" width="7" height="22"/>
				
					<rect x="544.4" y="-287.9" transform="matrix(-0.9495 0.3137 -0.3137 -0.9495 981.8242 -707.8891)" class="st11" width="7" height="26"/>
				
					<rect x="557" y="-271.7" transform="matrix(-0.9495 0.3138 -0.3138 -0.9495 1008.3226 -699.6052)" class="st11" width="7" height="6"/>
				
					<rect x="564.9" y="-284.4" transform="matrix(-0.9496 0.3134 -0.3134 -0.9496 1021.4723 -717.0797)" class="st11" width="7" height="16"/>
			</g>
		</g>
	</g>
	<g id="occhiali">
		<g>
			<g>
				<path class="st2" d="M638.1-240.8c-1.3-0.2-2.2-1.5-2-2.8c1.6-9.2-4.6-18.1-13.8-19.7L536-278.5c-1.3-0.2-2.2-1.5-2-2.8
					s1.5-2.2,2.8-2l86.3,15.2c11.9,2.1,19.9,13.5,17.8,25.4C640.7-241.5,639.4-240.6,638.1-240.8z"/>
			</g>
		</g>
		<g>
			<g>
				<g>
					<path class="st2" d="M638.1-240.8c-1.3-0.2-2.2-1.5-2-2.8c1.6-9.2-4.6-18.1-13.8-19.7L536-278.5c-1.3-0.2-2.2-1.5-2-2.8
						s1.5-2.2,2.8-2l86.3,15.2c11.9,2.1,19.9,13.5,17.8,25.4C640.7-241.5,639.4-240.6,638.1-240.8z"/>
				</g>
			</g>
			<g>
				<g>
					<path class="st2" d="M542.3-257.7c-1.3-0.2-2.2-1.5-2-2.8c2.1-11.9,13.5-19.9,25.4-17.8l86.3,15.2c1.3,0.2,2.2,1.5,2,2.8
						s-1.5,2.2-2.8,2l-86.3-15.2c-9.2-1.6-18.1,4.6-19.7,13.8C544.8-258.3,543.6-257.5,542.3-257.7z"/>
				</g>
			</g>
		</g>
		<g class="st31">
			<g>
				<g>
					<path class="st32" d="M581-253.3c-0.9,5.3-6,8.8-11.3,7.9l-28.8-5.1c-5.3-0.9-8.8-6-7.9-11.3l3.4-19.2c0.9-5.3,6-8.8,11.3-7.9
						l28.8,5.1c5.3,0.9,8.8,6,7.9,11.3L581-253.3z"/>
				</g>
			</g>
		</g>
		<g class="st31">
			<g>
				<g>
					<path class="st32" d="M648.1-241.5c-0.9,5.3-6,8.8-11.3,7.9l-28.8-5.1c-5.3-0.9-8.8-6-7.9-11.3l3.4-19.2
						c0.9-5.3,6-8.8,11.3-7.9l28.8,5.1c5.3,0.9,8.8,6,7.9,11.3L648.1-241.5z"/>
				</g>
			</g>
		</g>
		<g>
			<g>
				<path class="st2" d="M600.6-252.4c-1.3-0.2-2.2-1.5-2-2.8c0.7-4-2-7.8-5.9-8.5c-4-0.7-7.8,2-8.5,5.9c-0.2,1.3-1.5,2.2-2.8,2
					s-2.2-1.5-2-2.8c1.2-6.6,7.5-11,14.1-9.9c6.6,1.2,11,7.5,9.9,14.1C603.2-253,601.9-252.1,600.6-252.4z"/>
			</g>
		</g>
		<g class="st31">
			<path class="st32" d="M547.7-288.5c-5.3-0.9-10.2,2.3-11.1,7.6l-3.4,19.2c-0.9,5.3,2.5,10.8,7.8,11.7l14.1,2.5l6.8-38.4
				L547.7-288.5z"/>
		</g>
		<g class="st31">
			<path class="st32" d="M614.8-276.7c-5.3-0.9-9.4,2.4-10.3,7.7l-3.4,19.2c-0.9,5.3,1.6,10.6,6.9,11.5l14,2.5l6.8-38.4L614.8-276.7
				z"/>
		</g>
		<g>
			<g>
				<path class="st21" d="M643.2-269.6l-28.8-5.1c-4-0.7-7.8,2-8.5,5.9l-3.4,19.2c-0.7,4,2,7.8,5.9,8.5l28.8,5.1
					c4,0.7,7.8-2,8.5-5.9l3.4-19.2C649.8-265.1,647.1-268.9,643.2-269.6z"/>
			</g>
			<g>
				<path class="st21" d="M576.1-281.4l-28.8-5.1c-4-0.7-7.8,2-8.5,5.9l-3.4,19.2c-0.7,4,2,7.8,5.9,8.5l28.8,5.1
					c4,0.7,7.8-2,8.5-5.9l3.4-19.2C582.7-276.9,580-280.7,576.1-281.4z"/>
			</g>
			<g>
				<path class="st2" d="M576.9-286.2l-28.8-5.1c-6.6-1.2-12.9,3.3-14.1,9.9l-3.4,19.2c-1.2,6.6,3.3,12.9,9.9,14.1l28.8,5.1
					c6.6,1.2,12.9-3.3,14.1-9.9l3.4-19.2C587.9-278.7,583.5-285,576.9-286.2z M578.6-253.8c-0.7,4-4.5,6.6-8.5,5.9l-28.8-5.1
					c-4-0.7-6.6-4.5-5.9-8.5l3.4-19.2c0.7-4,4.5-6.6,8.5-5.9l28.8,5.1c4,0.7,6.6,4.5,5.9,8.5L578.6-253.8z"/>
			</g>
			<g>
				<path class="st2" d="M644-274.4l-28.8-5.1c-6.6-1.2-12.9,3.3-14.1,9.9l-3.4,19.2c-1.2,6.6,3.3,12.9,9.9,14.1l28.8,5.1
					c6.6,1.2,12.9-3.3,14.1-9.9l3.4-19.2C655-266.9,650.6-273.2,644-274.4z M645.7-241.9c-0.7,4-4.5,6.6-8.5,5.9l-28.8-5.1
					c-4-0.7-6.6-4.5-5.9-8.5l3.4-19.2c0.7-4,4.5-6.6,8.5-5.9l28.8,5.1c4,0.7,6.6,4.5,5.9,8.5L645.7-241.9z"/>
			</g>
		</g>
	</g>
	<g id="calcolatrice">
		<path class="st3" d="M1689.1-327.9l-33.9-36.1c-2.6-2.8-7.1-2.9-9.9-0.3l-53.9,50.6c-2.8,2.6-2.9,7.1-0.3,9.9l33.9,36.1
			c2.6,2.8,7.1,2.9,9.9,0.3l53.9-50.6C1691.6-320.6,1691.8-325.1,1689.1-327.9z"/>
		<g>
			<path class="st19" d="M1595.4-313.7c-2.8,2.6-2.9,7.1-0.3,9.9l33.9,36.1c2.6,2.8,7.1,2.9,9.9,0.3l53.9-50.6
				c2.8-2.6,2.9-7.1,0.3-9.9l-33.9-36.1c-2.6-2.8-7.1-2.9-9.9-0.3L1595.4-313.7z"/>
			<g>
				
					<rect x="1631.9" y="-342.3" transform="matrix(-0.6844 -0.7291 0.7291 -0.6844 3002.792 624.5523)" class="st11" width="9.3" height="9.3"/>
				
					<rect x="1641.4" y="-332" transform="matrix(-0.6844 -0.7291 0.7291 -0.6844 3011.2827 648.7726)" class="st11" width="9.3" height="9.3"/>
				
					<rect x="1651" y="-321.8" transform="matrix(-0.6844 -0.7291 0.7291 -0.6844 3020.0737 672.9838)" class="st11" width="9.3" height="9.3"/>
				
					<rect x="1660.6" y="-311.5" transform="matrix(-0.6844 -0.7291 0.7291 -0.6844 3028.6558 697.2589)" class="st11" width="9.3" height="9.3"/>
				
					<rect x="1621.6" y="-332.7" transform="matrix(-0.6845 -0.729 0.729 -0.6845 2978.5601 632.9841)" class="st11" width="9.3" height="9.3"/>
				
					<rect x="1631.3" y="-322.5" transform="matrix(-0.6844 -0.7291 0.7291 -0.6844 2987.3577 657.4028)" class="st11" width="9.3" height="9.3"/>
				
					<rect x="1640.8" y="-312.2" transform="matrix(-0.6843 -0.7292 0.7292 -0.6843 2995.645 681.9205)" class="st11" width="9.3" height="9.3"/>
				
					<rect x="1650.5" y="-302" transform="matrix(-0.6844 -0.7291 0.7291 -0.6844 3004.7156 706.0059)" class="st11" width="9.3" height="9.3"/>
				
					<rect x="1611.3" y="-323" transform="matrix(-0.6843 -0.7292 0.7292 -0.6843 2953.8799 642.1924)" class="st11" width="9.3" height="9.3"/>
				
					<rect x="1621" y="-312.7" transform="matrix(-0.6844 -0.7291 0.7291 -0.6844 2962.9031 666.3448)" class="st11" width="9.3" height="9.3"/>
				
					<rect x="1630.6" y="-302.6" transform="matrix(-0.6844 -0.7291 0.7291 -0.6844 2971.6367 690.4201)" class="st11" width="9.3" height="9.3"/>
				
					<rect x="1640.2" y="-292.3" transform="matrix(-0.6844 -0.7291 0.7291 -0.6844 2980.2527 714.7648)" class="st11" width="9.3" height="9.3"/>
				
					<rect x="1601.2" y="-313.5" transform="matrix(-0.6845 -0.729 0.729 -0.6845 2930.2253 650.4901)" class="st11" width="9.3" height="9.3"/>
				
					<rect x="1610.9" y="-303.1" transform="matrix(-0.6846 -0.729 0.729 -0.6846 2938.9937 674.8505)" class="st11" width="9.3" height="9.3"/>
				
					<rect x="1618" y="-287.8" transform="matrix(-0.6844 -0.7291 0.7291 -0.6844 2951.564 711.3912)" class="st33" width="23.4" height="9.3"/>
			</g>
			
				<rect x="1638.9" y="-344.3" transform="matrix(-0.6844 -0.7291 0.7291 -0.6844 3048.05 649.433)" class="st34" width="51.4" height="18.7"/>
			
				<rect x="1668.7" y="-332.8" transform="matrix(-0.6843 -0.7292 0.7292 -0.6843 3053.8 665.7598)" class="st35" width="4.7" height="9.3"/>
			
				<rect x="1675" y="-326" transform="matrix(-0.6848 -0.7288 0.7288 -0.6848 3060.0735 681.0669)" class="st35" width="4.7" height="9.4"/>
			
				<rect x="1655.9" y="-346.4" transform="matrix(-0.6842 -0.7293 0.7293 -0.6842 3042.0164 633.7745)" class="st35" width="4.7" height="9.3"/>
			
				<rect x="1662.1" y="-339.5" transform="matrix(-0.6843 -0.7292 0.7292 -0.6843 3047.656 649.681)" class="st35" width="4.7" height="9.3"/>
		</g>
	</g>
	<g id="hellocontainer">
		<text id="hello" transform="matrix(1 0 0 1 533.8771 23.9578)" class="st35 st36 st37">hello</text>
	</g>
	<g id="subtitle">
		<text id="scrolldown" transform="matrix(1 0 0 1 912.7458 23.9578)" class="st38 st39 st40">scroll down</text>
		<text id="viewresume" transform="matrix(1 0 0 1 987.3459 23.9578)" class="st41 st39 st40">or just view my resume.</text>
	</g>
</g>
<g id="scrollthing">
	<rect x="1472.9" y="-572" class="st42" width="14.7" height="170.5"/>
	<g id="moving">
		<rect id="scrollertop" x="1474.5" y="-569.7" class="st0" width="11.5" height="81.6"/>
		<g id="cursor">
			<g>
				<polygon class="st42" points="1452.2,-533.6 1452.2,-532.6 1448.1,-532.6 1448.1,-530.7 1448.1,-530.7 1447.1,-530.7 
					1447.1,-533.6 1447.1,-533.6 1448.1,-533.6 1450.1,-533.6 1450.1,-534.5 1451.1,-534.5 1451.1,-533.6 				"/>
				<polygon class="st42" points="1451.1,-526.8 1451.1,-524.9 1450,-524.9 1450,-524.9 1450,-526.8 1450.1,-526.8 				"/>
				<rect x="1449.1" y="-535.4" class="st42" width="1" height="1"/>
				<polygon class="st42" points="1450.1,-528.8 1450.1,-526.8 1450,-526.8 1449.1,-526.8 1449.1,-528.8 1449.1,-528.8 				"/>
				<polygon class="st42" points="1450,-524.9 1450,-523.9 1448.1,-523.9 1448.1,-524.9 1448.1,-524.9 				"/>
				<rect x="1448.1" y="-536.4" class="st42" width="1" height="1"/>
				<polygon class="st42" points="1449.1,-530.7 1449.1,-528.8 1449.1,-528.8 1448.1,-528.8 1448.1,-530.7 1448.1,-530.7 				"/>
				<polygon class="st42" points="1448.1,-526.8 1448.1,-524.9 1448.1,-524.9 1447.1,-524.9 1447.1,-526.8 				"/>
				<rect x="1447.1" y="-537.4" class="st42" width="1" height="1"/>
				<polygon class="st42" points="1447.1,-526.8 1447.1,-526.8 1446.1,-526.8 1446.1,-528.7 1446.1,-528.7 1447.1,-528.7 				"/>
				<rect x="1446.1" y="-538.4" class="st42" width="1" height="1"/>
				<polygon class="st42" points="1446.1,-530.7 1446.1,-528.7 1446.1,-528.7 1445.1,-528.7 1445.1,-530.7 1445.1,-530.7 				"/>
				<rect x="1445.1" y="-539.4" class="st42" width="1" height="1"/>
				<rect x="1444.1" y="-540.4" class="st42" width="1" height="1"/>
				<polygon class="st42" points="1445.1,-530.7 1445.1,-530.7 1444.1,-530.7 1444.1,-530.7 1444.1,-532.6 1445.1,-532.6 				"/>
				<rect x="1443.1" y="-541.4" class="st42" width="1" height="1"/>
				<polygon class="st42" points="1444.1,-530.7 1444.1,-529.7 1443.1,-529.7 1443.1,-530.7 				"/>
				<rect x="1442.1" y="-529.7" class="st42" width="1" height="1"/>
				<rect x="1442.1" y="-542.4" class="st42" width="1" height="1"/>
				<polygon class="st42" points="1442.1,-528.7 1442.1,-527.7 1441.1,-527.7 1441.1,-526.9 1440.1,-526.9 1440.1,-544.4 
					1441.1,-544.4 1441.1,-543.4 1442.1,-543.4 1442.1,-542.4 1441.1,-542.4 1441.1,-528.7 				"/>
			</g>
		</g>
	</g>
</g>
<g id="intro3">
	<text transform="matrix(1 0 0 1 538.2119 286.7976)" class="st43 st44 st45">a design and technology hybrid .</text>
	<text transform="matrix(1 0 0 1 536.324 227.1976)" class="st43 st44 st45">   - Participate in the design process: Discover, Ideate, Design &amp; Def ine </text>
	<text transform="matrix(1 0 0 1 536.324 248.7976)" class="st43 st44 st45">   - Leads the UI development efforts across all web applications, ensuring best practices are followed at all times. </text>
	<text transform="matrix(1 0 0 1 536.324 204.9976)" class="st43 st44 st45">* An engineer who has the technical knowhow and edge to create production code and:  </text>
</g>
<g id="intro2">
	<text id="h" transform="matrix(1 0 0 1 533.864 148.7976)" class="st46 st44 st47">I’m Lead Product Design Engineer* @ Workshare.com, London</text>
</g>
<g id="intro1">
	<text transform="matrix(1 0 0 1 534.364 63.3512)" class="st35 st44 st47">I’m Albino Tonnina,</text>
	<text transform="matrix(1 0 0 1 534.364 99.3512)" class="st35 st44 st47">a self-taught developer.</text>
</g>
</svg>
