<?xml version="1.0" encoding="utf-8"?>
<!-- Generator: Adobe Illustrator 19.0.0, SVG Export Plug-In . SVG Version: 6.00 Build 0)  -->
<svg version="1.1" id="svg5" xmlns="http://www.w3.org/2000/svg" xmlns:xlink="http://www.w3.org/1999/xlink" x="0px" y="0px"
	 viewBox="496 -368 1024 768" style="enable-background:new 496 -368 1024 768;" xml:space="preserve">
<g id="bg5">
	<rect x="-5387" y="-5505.5" style="fill:#F5ECD9;" width="12784.6" height="11218"/>
</g>
<g id="sky">
	<rect x="-7157.5" y="-7466" style="fill:#2BACB5;stroke:#000000;stroke-miterlimit:10;" width="15687.9" height="14889"/>
</g>
<g id="june">
	<text transform="matrix(1 0 0 1 525.9998 43.6318)" style="fill:#E84D5B; font-family:'Roboto-Thin'; font-size:36px;">London, June 2014,</text>
	<text transform="matrix(1 0 0 1 525.9998 101.2314)" style="fill:#E84D5B; font-family:'Roboto-Thin'; font-size:48px;">Good news, everyone!</text>
	<text transform="matrix(1 0 0 1 525.9998 144.4316)" style="fill:#E84D5B; font-family:'Roboto-Thin'; font-size:36px;">I’m a senior frontend developer at Workshare,</text>
	<text transform="matrix(1 0 0 1 525.9998 187.6318)" style="fill:#E84D5B; font-family:'Roboto-Thin'; font-size:36px;">a provider of secure enterprise file sharing </text>
	<text transform="matrix(1 0 0 1 525.9998 230.832)" style="fill:#E84D5B; font-family:'Roboto-Thin'; font-size:36px;">and collaboration applications. And it’s great!</text>
</g>
<g id="london">
	<title>Layer 1</title>
	<g id="svg_2">
		<g id="layer17">
			<path id="path4607" style="fill:#E84D5B;" d="M2089.9,629.4l-0.5-56.5h-20.5v53.8h-11.2v-66.4h-19.3v49.6h-15.6v-39.1h-16.8v37
				h-15.5v-49.6c0,0-13.1-39.1-23.6,0c0,14.7,0,49.6,0,49.6h-3.1v-83.1l-20.9,13.6v74.1h-8.9v-73.7h-5v-12.6h-15.2v10.5h-7.5v74
				h-8.1v-58.3l-4.4-0.3l-4.7-36.7l-5,37h-6.2v58.3l-6.5-0.7v-77.5l-12.5-24.3l-11.4,0.2l-13.6,26.5V612h-14.7v-90.8h-22.1v90.5
				h-5.3v-82.8h-17.4v79.3h-2.5v-69.8l-16.3,4.9v65.3h-18.2v-80l-5.7-11.1l-6,11.6v78.5h-16.9v-82.8h-18.7v81.4h-3.8V516h-30.1v88.4
				h-12.1v-49.6H1627v47.1h-2.5v-88h-20.2v88.7h-5.6v-81.4h-24.6V604h-11.5v-82h-7.3v-22.2h-13V522h-9.5v82.5h-12.3v-55.3h-20.9
				v55.6h-19.6v-75.8c0,0-11.4-15.8-25.9-1.7c0.2,7.7,0,78.3,0,78.3h-4.9V539h-14.9l-15.1,63.3h-7.7v-27.3l-3.3-9.1l-2.9,9.1h-16.3
				l-1.9-8.3l-2.9,8.3v27.1h-10.9v-41.9h-13.6v41h-6.3v-71.1h-19.3v70.1h-13.6v-80.5h-21.5V537h-7.9v-19.8h-19.3v82.5h-5.3v-50.4
				h-12.7v48.9h-8.8v-64.7h-14.5v63.7h-14.5v-78.5h-16.7l0.9,110.1L2089.9,629.4z"/>
			<path id="path4611" style="fill:#E84D5B;" d="M803.8,640.4l0.4-56.5h20.5v53.8H836v-66.4h19.3v49.6h15.6v-39.1h16.8v37h15.5
				v-49.6c0,0,13.1-39.1,23.6,0c0,14.7,0,49.6,0,49.6h3.1v-83.1l20.9,13.6v74.1h8.9v-73.7h5v-12.6H980v10.5h7.5v74h8.1v-58.3
				l4.3-0.4l4.7-36.7l5,37h6.2v58.3l6.5-0.7v-77.5l12.5-24.3l11.4,0.2l13.6,26.5V623h14.7v-90.8h22.1v90.5h5.3v-82.8h17.4v79.3h2.5
				v-69.8l16.3,4.9v65.3h18.2v-80l5.7-11.1l6,11.6v78.5h16.9v-82.8h18.7v81.4h3.8V527h30.1v88.4h12.1v-49.6h17.1v47.1h2.5v-88h20.2
				v88.7h5.6v-81.4h24.6V615h11.5v-82h7.3v-22.2h13V533h9.5v82.5h12.3v-55.3h20.9v55.6h19.6v-75.8c0,0,11.4-15.8,25.9-1.7
				c-0.2,7.7,0,78.3,0,78.3h4.8V550h15l15.1,63.3h7.7v-27.3l3.3-9.1l2.9,9.1h16.3l1.9-8.3l2.9,8.3v27.1h10.9v-41.9h13.6v41h6.3
				v-71.1h19.3v70.1h13.6v-80.5h21.6V548h7.9v-19.8h19.3v82.5h5.3v-50.4h12.7v48.9h8.8v-64.7h14.5v63.7h14.5v-78.5h16.7l-0.9,110.1
				L803.8,640.4z"/>
			<path id="path6551" style="fill:#00ADEF;" d="M365.3,646.3l0.4-56.5h20.5v53.8h11.2v-66.4h19.3v49.6h15.6v-39.1h16.8v37h15.5
				v-49.6c0,0,13.1-39.1,23.6,0c0,14.7,0,49.6,0,49.6h3.1v-83.1l20.9,13.6v74.1h8.9v-73.7h5V543h15.2v10.5h7.5v74h8.1v-58.3l4.4-0.3
				l4.7-36.7l5,37h6.2v58.3l6.5-0.7l6.8-87l8.6-14.9l8.6,0.2l9.9,14.7l3.7,89H636v-90.8h22.1v90.5h5.3v-82.8h17.4V625h2.5v-69.9
				l16.3,4.9v65.3h18.2v-80l5.7-11.1l6,11.6v78.5h16.9v-82.8H765v81.4h3.7v-90.1h30.2v88.4h12.1v-49.6h17.1v47.2h2.5v-88h20.2v88.7
				h5.6v-81.4H881v82.8h11.5v-82h7.3v-22.2h13v22.2h9.5v82.5h12.3V566h20.9v55.6h19.6v-75.8c0,0,11.4-15.8,25.9-1.7
				c-0.2,7.7,0,78.3,0,78.3h4.8v-66.4h15l15.1,63.3h7.8v-27.3l3.3-9.1l2.9,9.1h16.3l1.9-8.3l2.9,8.3V619h11v-41.9h13.6v41h6.2V547
				h19.4v70.1h13.6v-80.5h21.6v17.3h7.9v-19.8h19.4v82.5h5.3v-50.4h12.7v48.9h8.8v-64.7h14.5v63.7h14.5v-78.5h16.7l-0.9,110.1
				L365.3,646.3z"/>
			<path id="path2709" style="fill:#F7F7F7;" d="M1466.6,625.2h5.1v-90.8h22.1v90.5h5.3v-82.8h17.4v79.3h2.5v-69.8l16.3,4.9v65.3
				h18.2v-80l5.7-11.1l6,11.6v78.5h16.9v-82.8h18.7v81.4h3.8v-90.1h30.1v88.4h12.1V568h17.1v47.1h2.5v-88h20.2v88.7h5.6v-81.4h24.6
				v82.8h11.5v-82h7.3V513h13v22.2h9.5v82.5h12.3v-55.3h20.9v55.6h19.6v-75.8c0,0,11.4-15.8,25.9-1.7c-0.2,7.7,0,78.3,0,78.3h4.8
				v-66.4h15l15.1,63.3h7.7v-27.3l3.3-9.1l2.9,9.1h16.3l1.9-8.3l2.9,8.3v27.1h10.9v-41.9h13.6v41h6.3v-71.1h19.3v70.1h13.6V533h21.6
				v17.3h7.9v-19.8h19.3V613h5.3v-50.4h12.7v48.9h8.8v-64.7h14.5v63.7h14.5V532h16.7l-0.9,110.1l-624.3,0.4"/>
		</g>
		<g id="layer14">
			<path id="path4146" style="fill:#999999;" d="M87.5,610.6V477c0-6.3,7.6-21.3,17.2-21.6c10-0.3,17.9,15.7,18.1,21.6
				c0,0.6,0,132.8,0,132.8L87.5,610.6z"/>
			<path id="path4153" style="fill:#E84D5B;" d="M410.2,399.8l10.4,36.3V615l-45.3,0.5l0,0V434.1l10-33.3l12.7-23.1L410.2,399.8z"/>
			<path id="path4155" style="fill:#00ADEF;" d="M436.4,586.9V428.8h9.4V439h22.3v-10.2h8.8v158.1L436.4,586.9L436.4,586.9z"/>
			<path id="path4602" style="fill:#ECECEC;" d="M1952.7,610.4l0.3-180l-36,25.4v154.6L1952.7,610.4L1952.7,610.4z"/>
			<path id="path4604" style="fill:#F2F2F2;" d="M1999.8,488l5.9,20.6v101.5l-25.7,0.3l0,0V507.4l5.7-18.9l7.2-13.1L1999.8,488
				L1999.8,488z"/>
		</g>
		<g id="layer11">
			<g id="g3228">
			</g>
			<g id="g3909">
				<path id="path3094" style="fill:#E84D5B;stroke:#000000;stroke-width:0.1296;" d="M1887.2,673.4l-0.1-47.6c0,0,3.6-0.5,5.6-3.1
					c0-0.4,0-126.1,0-126.1h-38.4c0,0,0,125.7,0,126.1c2,2.5,5.6,3.1,5.6,3.1v46.9C1866.2,678.9,1880.9,677.4,1887.2,673.4z"/>
				<path id="path3096" style="fill:#E84D5B;stroke:#000000;stroke-width:0.1296;" d="M1865.9,496.8l-0.1-66.1h15.3l0,66.1
					L1865.9,496.8L1865.9,496.8z"/>
				<path id="path3098" style="fill:#E84D5B;stroke:#000000;stroke-width:0.1296;" d="M1855.9,485.3v4.7h35.2v-4.7L1855.9,485.3z"/>
				<path id="path3100" style="fill:#E84D5B;stroke:#000000;stroke-width:0.1296;" d="M1856.1,472v4.7h35.2V472L1856.1,472z"/>
				<path id="path3102" style="fill:#E84D5B;stroke:#000000;stroke-width:0.1296;" d="M1855.9,458.7v4.7h35.2v-4.7L1855.9,458.7z"/>
				<path id="path3104" style="fill:#E84D5B;stroke:#000000;stroke-width:0.1296;" d="M1856.2,445.4v4.7h10h25.3v-4.7L1856.2,445.4z
					"/>
				<path id="path3106" style="fill:#E84D5B;stroke:#000000;stroke-width:0.1296;" d="M1855.9,431.8v4.7h35.2v-4.7L1855.9,431.8z"/>
				<path id="path3108" style="fill:#E84D5B;stroke:#000000;stroke-width:0.1296;" d="M1881.3,430.6c0,0,9.6-0.4,11.4-1.8
					c-0.1-3.3-0.1-3.4-0.1-3.4s-0.6-0.6-2.3-1c-0.1,0.1-0.1-0.8-0.1-0.8h1.6l0.7-0.8v-13.6h1c0,0,0.6-0.4,0.8-1c0-0.7,0-17.6,0-17.6
					s-0.8-1.1-1.9-1.5c0.1-0.1,0-12,0-12c-1.2-2.2-6.7-3-10.4-3.6l0-0.9c0,0,3.2-0.2,3.8-1c0.1,0,1.2-1.1,1.2-1.6c0-0.1,0-8.3,0-8.3
					c-0.4-0.8-3.7-2.3-6.7-2.5l-13.9,0c-3,0.2-6.3,1.7-6.7,2.5c0,0-0.1,8.2,0,8.2c0.1,0.5,1.1,1.6,1.2,1.6c0.6,0.8,3.7,1,3.7,1
					l0,0.9c-3.7,0.6-9.1,1.4-10.3,3.6c0,0-0.1,11.9,0,12c-1.1,0.4-1.9,1.5-1.9,1.5s0,16.9,0,17.6c0.2,0.7,0.9,1,0.9,1h1v13.6
					l0.7,0.8h1.6c0,0,0,0.9-0.1,0.8c-1.7,0.3-2.3,1-2.3,1s0,0.1-0.1,3.4c1.8,1.4,11.4,1.8,11.4,1.8L1881.3,430.6L1881.3,430.6z"/>
				<path id="path3110" style="fill:#E84D5B;stroke:#000000;stroke-width:0.1296;" d="M1857,485.2v-0.9h-2.1l-0.4,1.4l-2.4,0
					l-0.5-2.5v-2.6l0.4-1.7l2.5-0.1l0.6,0.9v3.8l2.8,0.1l0,1.5L1857,485.2z"/>
				<path id="path3112" style="fill:#E84D5B;stroke:#000000;stroke-width:0.1296;" d="M1856.3,471.8v-0.9h-2.1l-0.4,1.4l-2.4,0
					l-0.5-2.5v-2.6l0.5-1.7l2.5-0.1l0.6,0.9v3.8l2.8,0.1l0,1.5L1856.3,471.8z"/>
				<path id="path3114" style="fill:#E84D5B;stroke:#000000;stroke-width:0.1296;" d="M1856.8,458.7v-0.9h-2.1l-0.4,1.4l-2.4,0
					l-0.5-2.5V454l0.4-1.7l2.5-0.1l0.6,0.9v3.8l2.7,0.1l0,1.5L1856.8,458.7z"/>
				<path id="path3116" style="fill:#E84D5B;stroke:#000000;stroke-width:0.1296;" d="M1860.4,445.3v-0.9h-2.1l-0.4,1.4l-2.4,0
					l-0.5-2.5v-2.6l0.4-1.7l2.5-0.1l0.6,0.9v3.8l2.7,0.1l0.1,1.5L1860.4,445.3z"/>
				<path id="path3118" style="fill:#E84D5B;stroke:#000000;stroke-width:0.1296;" d="M1888.7,464.9h-2.9c0,0-3.5,2.9-0.1,6.8
					c0.1-0.1,3.8,0.2,3.8,0.2S1892.7,467.7,1888.7,464.9z"/>
				<path id="path3120" style="fill:#E84D5B;stroke:#000000;stroke-width:0.1296;" d="M1888.9,478.8h-2.9c0,0-3.5,2.9-0.1,6.8
					c0.1-0.1,3.8,0.2,3.8,0.2S1892.9,481.5,1888.9,478.8L1888.9,478.8z"/>
				<path id="path3122" style="fill:#E84D5B;stroke:#000000;stroke-width:0.1166;" d="M1888.9,452.3h-2.3c0,0-2.8,2.9-0.1,6.8
					c0.1-0.1,3.1,0.2,3.1,0.2S1892.1,455,1888.9,452.3z"/>
				<path id="path3124" style="fill:#E84D5B;stroke:#000000;stroke-width:0.1104;" d="M1885.4,441.1h-2.1c0,0-2.5,2.9-0.1,6.8
					c0.1-0.1,2.7,0.2,2.7,0.2S1888.3,443.9,1885.4,441.1L1885.4,441.1z"/>
				<path id="path3126" style="fill:#E84D5B;stroke:#000000;stroke-width:0.1218;" d="M1862.4,453.4h-2.5c0,0-3.1,2.9-0.1,6.8
					c0.1-0.1,3.3,0.2,3.3,0.2S1865.9,456.1,1862.4,453.4L1862.4,453.4z"/>
				<path id="path3128" style="fill:#E84D5B;stroke:#000000;stroke-width:0.134;" d="M1863.3,466.2h-2.9c0,0-3.5,3.1-0.1,7.3
					c0.1-0.1,3.8,0.2,3.8,0.2S1867.2,469.2,1863.3,466.2z"/>
				<path id="path3130" style="fill:#E84D5B;stroke:#000000;stroke-width:0.1263;" d="M1862.7,479.2h-2.7c0,0-3.3,2.9-0.1,6.8
					c0.1-0.1,3.6,0.2,3.6,0.2S1866.5,482,1862.7,479.2z"/>
				<path id="path3132" style="fill:#E84D5B;stroke:#000000;stroke-width:0.1429;" d="M1868,325.6l11.1,0.2l-0.4,4.6h-10.8
					L1868,325.6L1868,325.6L1868,325.6z"/>
				<path id="path3134" style="fill:#E84D5B;stroke:#000000;stroke-width:0.1869;" d="M1878.3,335.1h-9.2v4.6h9.1L1878.3,335.1
					L1878.3,335.1z"/>
				<path id="path3136" style="fill:#E84D5B;stroke:#000000;stroke-width:0.2013;" d="M1869.6,344.9h7.8v5h-7.7L1869.6,344.9z"/>
				<path id="path3138" style="fill:#E84D5B;stroke:#000000;stroke-width:0.2;" d="M1870.8,354h5.6v2.8h-5.6L1870.8,354L1870.8,354z
					"/>
				<path id="path3140" style="fill:#E84D5B;stroke:#000000;stroke-width:0.324;" d="M1870.4,359.4l-2.6-33.6l11.4,0.2l-2.7,33.5
					L1870.4,359.4z"/>
				<path id="path3142" style="fill:#E84D5B;stroke:#000000;stroke-width:0.311;" d="M1873.8,325.4v-23.1"/>
			</g>
		</g>
		<g id="layer10">
			<path id="path3090" style="fill:#00ADEF;stroke:#000000;stroke-width:0.1635;" d="M1774.9,671.7c-0.5,2-2.7,4.8-2.9,5
				c-15.1,13.5-55,15.8-76.7-1.7c-0.9-0.7-4.7-6.1-4.7-6.3c-3.9-37.5-27.4-266.8,38-355.6c-0.5-0.5,7-0.5,7-0.5
				C1804.5,390.6,1778.2,671.3,1774.9,671.7L1774.9,671.7z"/>
		</g>
		<g id="layer9">
			<path id="path3293" style="fill:#00ADEF;" d="M1334.7,671.8v-7.8l0.8-0.9l0-25.3c0,0-1.1-1.6-0.9-1.8c-0.1-0.3-0.1-1.9-0.1-1.9
				h1.1v-23.6l-1-0.8V609l1,0l-1-1.4v-1.3l-1.4-0.9v-1.1l1.3-1v-1.5l0.9-0.7v-5.5h-0.8l-0.4-0.9v-0.8l0.5-0.5h4.1v4.1h0.8v0.7h1.7
				v-0.7h2.3v0.9h1.3v0.8h1.1v0.5l0.8,0.2v-3.1l0.6-1.3l0.5-0.6h5.4v0.7h6.4v-0.9h6v0.9h15.5v-1h5.9v1h15.7v-1.2h5.8v1.2h15.1v-1.1
				h6.9v1h5.5v-0.9h-0.9v-1.7h-0.6v-1.4h1.7v-10.9h-1.1v-3.1h0.5v-21.6v-4.4l-1.4-1.5v-1.3l1.8-0.8v-3.4l-0.5-0.1v-0.9l2.1-1.5
				l3.1-1.1h3.4V531l-1.3-1.1v-1.8h1.3v-0.6h0.6l-0.1-0.4h-0.4l-0.5-0.6v-0.7l1.5-1v-2.2h0.7c1.1-10,6.4-29.4,22.3-35.7v-1.4h0.7
				v-0.9c0,0-1.2,0.1-1.4-0.8c0-0.2-0.1-1,0.8-1.4l0.5,0v-2.9h0.4v-1.6h0.5v1.4h1v-2.5h-0.5v-1.5h1.1v-11l-1.2-1.1v-0.9h1.3V459
				l1.2,1.4v1.7h1v-6.2h-1.3v-1.1h0.7v-3.4c0,0,1.6-2.8,2.6-2.8v-1l-0.8-0.5v-0.5h0.9v-2.6h0.7c0,0-0.6-0.5-0.7-0.9l0-1
				c0,0,0.3-0.5,0.5-0.5c0.3,0,0.4,0,0.4,0v-0.6c-2.8-1.5-0.6-4.4,0-4.1l0.1-5.4l0.5-2.9l0.4,2.9l0.1,5.4c0.6-0.3,2.8,2.6,0,4.1v0.6
				c0,0,0.1,0,0.4,0c0.3,0,0.5,0.5,0.5,0.5l0,1c-0.1,0.4-0.7,0.9-0.7,0.9h0.7v2.6h0.9v0.5l-0.8,0.5v1c1,0,2.6,2.8,2.6,2.8v3.4h0.7
				v1.1h-1.3v6.2h1v-1.7l1.2-1.4v3.4h1.3v0.9l-1.2,1.1v11h1.1v1.5h-0.5v2.5h1v-1.4h0.5v1.6h0.4v2.9l0.5,0c0.8,0.4,0.8,1.1,0.8,1.4
				c-0.2,0.9-1.4,0.8-1.4,0.8v0.9h0.7v1.4c15.9,6.3,21.2,25.7,22.3,35.7h0.6v2.2l1.5,1v0.7l-0.5,0.6h-0.4l-0.1,0.5h0.6v0.6h1.3v1.8
				l-1.3,1.1v9.9h3.4l3.2,1.1l2.2,1.5v0.9l-0.5,0.1v3.4l1.8,0.8v1.3l-1.3,1.5v4.4v21.6h0.5v3.1h-1.1v10.9h1.7v1.4h-0.6v1.7h-0.8v0.7
				h7.6v-1.3h6.9v1.3h15.3v-1.1h5.9v1.2h15.9v-1.2h6v1.1h14v-1.1h7.6v1h30.4v-6.2l-0.9-0.8l0-4l0.9-0.5v-1.6h-0.9V577h2.7v-2l1.3,0
				l-0.8-1.3l-0.4-0.6l-0.1-1.3l1,0v-1.6h0.4v-13.9l-0.8-0.5l-1.1-0.6v-2h1.8v-3h0.5V548h0.9h0.4v-2.6h-0.6v-0.9h0.6v-1.1h0.8v1.1
				h0.5v0.9h-0.5v1.5h0.7l0.8-1.5v-4.6h-0.6v-1.5h0.9v-1.5h0.7v-1.1h-0.7v-1.2h0.6v-1.1h0.4l-0.1-0.4h0.6l-0.1-2l0.9-1.3v-2.5
				l1.6-2.8h0.3c0,0,0.1-1.5,0.8-1.7c0-0.1,0.1-1.1,0.1-1.1c-0.6-0.1-0.9-1.3-0.1-1.7c0,0,0-1.1,0-1.1c-1-0.3-1-2.2,0.4-2.2
				c1.4,0.1,1.4,1.9,0.4,2.2c0,0,0,1.1,0,1.1c0.9,0.4,0.6,1.6,0,1.7c0,0,0.1,1.1,0.1,1.1c0.7,0.1,0.8,1.7,0.8,1.7h0.3l1.6,2.8v2.5
				l0.8,1.3l0,2h0.6l-0.1,0.4h0.4v1.1h0.6v1.2h-0.7v1.1h0.7v1.5h0.9v1.5h-0.6v4.6l0.8,1.4h0.7v-1.5h-0.5v-0.9h0.5v-1.1h0.9v1.1h0.5
				v0.9h-0.5v2.6h0.4h0.9v2.1h0.5v3h1.8v2l-1.1,0.6l-0.7,0.5v13.9h0.4v1.6l1,0l-0.1,1.3l-0.4,0.6l-0.8,1.3l1.4,0v2.1h2.7v5.2h-0.9
				v1.6l0.9,0.5l0,4l-0.9,0.8v5h3.7v-1.2c0,0-0.7-0.6-0.6-1.1c0,0.1,0-2,0-2s0.1-0.7,0.5-0.8c-0.1,0,0-4.3,0-4.3l0.4-0.4
				c0,0-0.2-0.9,0.5-0.9c0,0,0.8,0,0.5,1c0,0,0.7,0.5,0.7,0.5v1.2h-0.3v0.5h0.5l0,4h-0.4v3.7v6.3l0.9,0.6v3.4h-0.4v2h-0.5V625h1.4
				v3.1h1v2.1h-0.5v0.9h-1.4v3.1h0.5v2.2h-0.5v1.9h-0.5v23.9h0.9v1h0.5v0.6h0.5v8.1L1334.7,671.8L1334.7,671.8L1334.7,671.8z"/>
		</g>
		<g id="layer8">
			<g id="g3281">
				<g id="g3293">
					<path id="path3295" style="fill:#00ADEF;" d="M1206.5,504.8c0,1.2-1,2.2-2.3,2.2c-1.3,0-2.3-1-2.3-2.2c0-1.2,1-2.2,2.3-2.2
						S1206.5,503.6,1206.5,504.8z"/>
					<path id="path3297" style="fill:#00ADEF;" d="M1203.9,503.2l0.2-6.9l0.2,6.9L1203.9,503.2L1203.9,503.2z"/>
					<path id="path3299" style="fill:#00ADEF;" d="M1204.9,506.3c-0.2,1.2,0.5,8.4,0.5,8.4c7.9,2.2,8.9,10,8.9,10l2.1,0v4.4h-2.2
						l-0.1,33.4l-19.9,0l0-33.1h-2.1v-4.7l2,0c0,0,0.5-8.2,8.4-9.7c0.1,0,1-7.3,0.8-8.5L1204.9,506.3L1204.9,506.3L1204.9,506.3z"/>
				</g>
				<g id="g3301">
					<path id="path3303" style="fill:#00ADEF;" d="M1173.9,492.7c0,1.2-1,2.2-2.3,2.2c-1.3,0-2.3-1-2.3-2.2c0-1.2,1-2.2,2.3-2.2
						C1172.9,490.5,1173.9,491.5,1173.9,492.7z"/>
					<path id="path3305" style="fill:#00ADEF;" d="M1171.4,491.1l0.1-6.9l0.2,6.9L1171.4,491.1L1171.4,491.1z"/>
					<path id="path3307" style="fill:#00ADEF;" d="M1172.4,494.2c-0.2,1.2,0.4,8.4,0.5,8.4c7.9,2.2,8.9,10,8.9,10l2.1,0v4.4h-2.2
						l-0.1,33.4l-19.9,0l0-33.1h-2.1v-4.7l2,0c0,0,0.5-8.2,8.4-9.7c0.1,0,1-7.3,0.8-8.5L1172.4,494.2L1172.4,494.2z"/>
				</g>
				<path id="path3310" style="fill:#00ADEF;" d="M1294.8,492.5c0,1.2-1,2.2-2.3,2.2c-1.3,0-2.3-1-2.3-2.2c0-1.2,1-2.2,2.3-2.2
					C1293.7,490.3,1294.8,491.3,1294.8,492.5z"/>
				<path id="path3312" style="fill:#00ADEF;" d="M1292.2,490.9l0.1-6.9l0.2,6.9L1292.2,490.9L1292.2,490.9z"/>
				<g id="g3314">
					<path id="path3316" style="fill:#00ADEF;" d="M1266.2,504c0,1.1-1,2-2.2,2c-1.2,0-2.2-0.9-2.2-2c0-1.1,1-2,2.2-2
						C1265.2,502.1,1266.2,502.9,1266.2,504z"/>
					<path id="path3318" style="fill:#00ADEF;" d="M1263.7,502.6l0.1-6.3l0.2,6.3L1263.7,502.6L1263.7,502.6z"/>
					<path id="path3321" style="fill:#00ADEF;" d="M1264.7,505.4c-0.2,1.1,0.4,7.7,0.5,7.7c7.6,2.1,8.6,9.2,8.6,9.2l2,0v4h-2.2
						l-0.1,30.6l-19.2,0l0.1-30.4h-2.1v-4.3l1.9,0c0,0,0.5-7.6,8.1-8.9c0.1,0,1-6.7,0.8-7.8L1264.7,505.4L1264.7,505.4z"/>
				</g>
				<path id="path3323" style="fill:#00ADEF;stroke:#000000;stroke-width:7.080000e-02;" d="M1293.3,494.4c-0.3,1.2,0.4,8.4,0.5,8.4
					c7.9,2.2,8.9,10,8.9,10l2.1,0v4.4h-2.2l-0.2,33.4l-19.9,0l0-33.1h-2.1v-4.7l2,0c0,0,0.5-8.2,8.4-9.7c0.1,0,1.1-7.3,0.8-8.5
					L1293.3,494.4L1293.3,494.4z"/>
				<path id="path3325" style="fill:#00ADEF;stroke:#000000;stroke-width:6.960000e-02;" d="M1322.6,551.6c0,0,0-4.8,0-4.8
					c-0.6-0.4-3.7-0.7-3.7-0.7v6l-3.3-0.5l0-5.7c-2-0.4-2.9-0.5-4.8-0.6l0,5.4l-3.5-0.5v-5.1c-2.6-0.1-4.5-0.1-4.5-0.1l0.1,5.1
					l-5.2,0h-4.6v-5.4h-7.1l0.1,5.5l-4.5,0v-5.4l-7,0l0,5.5l-4.5,0v-5.4h-7.1l0,5.5l-4.5,0V545h-7.1l0.1,5.5l-4.5,0V545h-7.1
					l0.1,5.5l-4.5,0v-5.4h-7.1l0,5.5l-4.5,0v-5.4h-7.1l0,5.5l-4.5,0v-5.4h-7.1l0.1,5.5l-4.5,0v-5.4h-7.1v5.4h-4.5v-5.2h-27.1
					l0.2,89.2c-0.2,0.1,131.8-0.5,132-0.5c0,0,27.1-0.4,28.6-4.1C1322.7,628.3,1322.6,551.7,1322.6,551.6L1322.6,551.6z"/>
				<path id="path3056" style="fill:#002F5B;stroke:#000000;stroke-width:0.24;" d="M1153,651.6l0-9.6c0,0-1.7-0.3-1.6-1
					c0.1-0.7,1.1-0.2,1.4-1.1c0.9-2.8-0.4-4.9-2.9-4.9c-2.7,0-3.9,2.1-3,4.9c0.3,0.9,1.2,0.4,1.3,1.1c0.1,0.7-1.6,1-1.6,1l-0.1,9.1
					v0.5L1153,651.6L1153,651.6z"/>
			</g>
		</g>
		<g id="layer7">
			<g id="g12775">
				<path id="path2236" style="fill:#E84D5B;stroke:#E84D5B;stroke-miterlimit:10;" d="M713.1,519.7l1.5,0l1.3-8.3l0.6-3l-0.9-0.1
					l-0.1-0.6l1.1,0l0.9-6l0.4-3.3l0.4,3.4l0.9,5.9l0.9,0l0.1,0.7l-0.9-0.1l2.5,17.2l0.2,119.6l0,0l-33,0V525.7l2.5-17.5l-0.8,0.1
					l0.1-0.6l0.8-0.1l0.8-4.7l0.5-3.9l0.3,4l0.8,4.5l0.8,0.1l0,0.5l-0.7,0.1l0.8,3.6l2.4,8.2l1.5,0l6.9-27.7L713.1,519.7
					L713.1,519.7z"/>
				<path id="path7339" style="fill:#E84D5B;stroke:#E84D5B;stroke-miterlimit:10;" d="M917.3,519.6h2.1l1.3-8.4l0.6-3l-0.9-0.1
					l-0.1-0.6l1.1,0l0.9-6l0.4-3.3l0.4,3.4l0.9,5.9l0.9,0l0.1,0.7l-0.9-0.1l2.5,17.2l0.2,119.6l0,0l-33,0V525.4l2.5-17.5l-0.8,0.1
					l0.1-0.6l0.8-0.1l0.8-4.7l0.5-3.9l0.3,4l0.8,4.5l0.8,0.1l0,0.5l-0.7,0.1l0.8,3.6l2.1,8.6l1.9,0l6.8-28.1L917.3,519.6
					L917.3,519.6z"/>
				<path id="path7342" style="fill:#E84D5B;stroke:#E84D5B;stroke-miterlimit:10;" d="M893.7,545.2l-78.3,0v-1.7
					c0,0,0.5-3.4-1.4-3.2c0.1,0-1.7-0.3-1.5,2.8l-3.8-0.1l0-2.6c0,0,2.6-3.4-0.9-4.7c-1.8,0.8-1.8,2.7-0.7,4.4
					c0.5,0.8,0.2,2.1,0.2,2.9l-3.9,0c0,0,0.1-2.8-1-2.8c0,0-2.4-0.7-1.8,4h-79v13.1h176v-12.3L893.7,545.2L893.7,545.2z"/>
				<g id="g13443">
					<path id="path8345" style="fill:#E84D5B;stroke:#E84D5B;stroke-miterlimit:10;" d="M691.5,558.4
						c-50.3,56.5-75.5,82.6-139.9,84.9c0,0-50.4,3.2-78.7-20.9c0,0.1,0,0.1,0,0.1"/>
					<path id="path8336" style="fill:#E84D5B;stroke:#E84D5B;stroke-miterlimit:10;" d="M690.8,555.4c0,0-71.7,74.8-139.4,83.4
						c0,0-35.2,3.4-79.5-21.6"/>
					<path id="path11254" style="fill:#E84D5B;stroke:#E84D5B;stroke-miterlimit:10;" d="M672.3,573.1l-5.4,12.7"/>
					<path id="path11256" style="fill:#E84D5B;stroke:#E84D5B;stroke-miterlimit:10;" d="M664.2,579l10.9-0.8"/>
					<path id="path11258" style="fill:#E84D5B;stroke:#E84D5B;stroke-miterlimit:10;" d="M665.6,579.4l-4,11.1l0,0l0.4-0.3"/>
					<path id="path11262" style="fill:#E84D5B;stroke:#E84D5B;stroke-miterlimit:10;" d="M645.2,596l11.3-0.9"/>
					<path id="path11264" style="fill:#E84D5B;stroke:#E84D5B;stroke-miterlimit:10;" d="M642.8,597.5l-10.5,18.7"/>
					<path id="path11266" style="fill:#E84D5B;stroke:#E84D5B;stroke-miterlimit:10;" d="M630.4,606.7l15.3,0.9"/>
					<path id="path11268" style="fill:#E84D5B;stroke:#E84D5B;stroke-miterlimit:10;" d="M628.4,607.3l-10.2,19.3"/>
					<path id="path11270" style="fill:#E84D5B;stroke:#E84D5B;stroke-miterlimit:10;" d="M617.2,613.9l13.4,5.7"/>
					<path id="path11272" style="fill:#E84D5B;stroke:#E84D5B;stroke-miterlimit:10;" d="M614.8,615.8l-10.7,17.7"/>
					<path id="path11274" style="fill:#E84D5B;stroke:#E84D5B;stroke-miterlimit:10;" d="M603.4,621.5l13.6,6.8"/>
					<path id="path11276" style="fill:#E84D5B;stroke:#E84D5B;stroke-miterlimit:10;" d="M602.2,622.6l-11.7,15.4"/>
					<path id="path11278" style="fill:#E84D5B;stroke:#E84D5B;stroke-miterlimit:10;" d="M590.1,628.1l12.2,6"/>
					<path id="path11280" style="fill:#E84D5B;stroke:#E84D5B;stroke-miterlimit:10;" d="M585.9,630.2l-9,11.2"/>
					<path id="path11282" style="fill:#E84D5B;stroke:#E84D5B;stroke-miterlimit:10;" d="M575.8,633.6l10.5,5.2"/>
					<path id="path11284" style="fill:#E84D5B;stroke:#E84D5B;stroke-miterlimit:10;" d="M572,635.2c-0.4,0-8.4,7.4-8.4,7.4"/>
					<path id="path11286" style="fill:#E84D5B;stroke:#E84D5B;stroke-miterlimit:10;" d="M563.1,636.9l8.9,4.8"/>
					<path id="path11288" style="fill:#E84D5B;stroke:#E84D5B;stroke-miterlimit:10;" d="M560.5,638.3l-6.6,5.3"/>
					<path id="path11290" style="fill:#E84D5B;stroke:#E84D5B;stroke-miterlimit:10;" d="M553,639.3l9.3,4.4"/>
					<path id="path12267" style="fill:#E84D5B;stroke:#E84D5B;stroke-miterlimit:10;" d="M671.4,580.4v71.8"/>
					<path id="path12269" style="fill:#E84D5B;stroke:#E84D5B;stroke-miterlimit:10;" d="M657.7,584.9v67.7"/>
					<path id="path12271" style="fill:#E84D5B;stroke:#E84D5B;stroke-miterlimit:10;" d="M644.1,594.5v58"/>
					<path id="path12273" style="fill:#E84D5B;stroke:#E84D5B;stroke-miterlimit:10;" d="M630,605.1v47.1"/>
					<path id="path12275" style="fill:#E84D5B;stroke:#E84D5B;stroke-miterlimit:10;" d="M615.8,613.9v38.3"/>
					<path id="path12277" style="fill:#E84D5B;stroke:#E84D5B;stroke-miterlimit:10;" d="M602.7,620.5V652l0.4-0.2l0,0"/>
					<path id="path12279" style="fill:#E84D5B;stroke:#E84D5B;stroke-miterlimit:10;" d="M588.9,627v25.2"/>
					<path id="path12281" style="fill:#E84D5B;stroke:#E84D5B;stroke-miterlimit:10;" d="M575.6,632.3v20.3"/>
					<path id="path12283" style="fill:#E84D5B;stroke:#E84D5B;stroke-miterlimit:10;" d="M561.7,636.6v16.2"/>
					<path id="path12376" style="fill:#E84D5B;stroke:#E84D5B;stroke-miterlimit:10;" d="M658.5,585.2l10.2-0.7"/>
					<path id="path12378" style="fill:#E84D5B;stroke:#E84D5B;stroke-miterlimit:10;" d="M654.6,588.1l-8.4,17.1"/>
					<path id="path7591" style="fill:#E84D5B;stroke:#E84D5B;stroke-miterlimit:10;" d="M535.4,651.9v-14"/>
					<path id="path7593" style="fill:#E84D5B;stroke:#E84D5B;stroke-miterlimit:10;" d="M520.9,651.9v-16.1"/>
					<path id="path7595" style="fill:#E84D5B;stroke:#E84D5B;stroke-miterlimit:10;" d="M507.3,651.6v-19.3"/>
					<path id="path7597" style="fill:#E84D5B;stroke:#E84D5B;stroke-miterlimit:10;" d="M493.5,651.1v-23.4h0.4"/>
					<path id="path7599" style="fill:#E84D5B;stroke:#E84D5B;stroke-miterlimit:10;" d="M480.2,650.5v-28.9"/>
					<path id="path8572" style="fill:#E84D5B;stroke:#E84D5B;stroke-miterlimit:10;" d="M535.9,642.1l10.8-2.8"/>
					<path id="path8574" style="fill:#E84D5B;stroke:#E84D5B;stroke-miterlimit:10;" d="M536,637.7l11.5,5.6"/>
					<path id="path8576" style="fill:#E84D5B;stroke:#E84D5B;stroke-miterlimit:10;" d="M521.5,640.8l14.9-2.2"/>
					<path id="path8578" style="fill:#E84D5B;stroke:#E84D5B;stroke-miterlimit:10;" d="M521.6,635.7l14,7.8v-0.1l0,0"/>
					<path id="path8580" style="fill:#E84D5B;stroke:#E84D5B;stroke-miterlimit:10;" d="M507.4,638.6l13.1-2.5"/>
					<path id="path8582" style="fill:#E84D5B;stroke:#E84D5B;stroke-miterlimit:10;" d="M507.6,632.5l12.6,9.2"/>
					<path id="path8584" style="fill:#E84D5B;stroke:#E84D5B;stroke-miterlimit:10;" d="M493.8,635l13.3-2.9"/>
					<path id="path8586" style="fill:#E84D5B;stroke:#E84D5B;stroke-miterlimit:10;" d="M493.9,627.4l13.1,11.3l0,0"/>
					<path id="path8588" style="fill:#E84D5B;stroke:#E84D5B;stroke-miterlimit:10;" d="M480.4,628.8l12.8-1.2"/>
					<path id="path8590" style="fill:#E84D5B;stroke:#E84D5B;stroke-miterlimit:10;" d="M480.7,621.4l12.2,12.9"/>
				</g>
				<g id="g12056">
					<g id="g11860">
						<path id="path11866" style="fill:#E84D5B;stroke:#E84D5B;stroke-miterlimit:10;" d="M942.6,573.4l5.4,12.7"/>
						<path id="path11868" style="fill:#E84D5B;stroke:#E84D5B;stroke-miterlimit:10;" d="M950.7,579.3l-10.9-0.8"/>
						<path id="path11870" style="fill:#E84D5B;stroke:#E84D5B;stroke-miterlimit:10;" d="M949.2,579.7l4,11.1l0,0l-0.4-0.3"/>
						<path id="path11872" style="fill:#E84D5B;stroke:#E84D5B;stroke-miterlimit:10;" d="M969.7,596.4l-11.3-0.9"/>
						<path id="path11874" style="fill:#E84D5B;stroke:#E84D5B;stroke-miterlimit:10;" d="M972,597.8l10.5,18.7"/>
						<path id="path11876" style="fill:#E84D5B;stroke:#E84D5B;stroke-miterlimit:10;" d="M984.4,607l-15.3,0.9"/>
						<path id="path11878" style="fill:#E84D5B;stroke:#E84D5B;stroke-miterlimit:10;" d="M986.4,607.6l10.2,19.3"/>
						<path id="path11880" style="fill:#E84D5B;stroke:#E84D5B;stroke-miterlimit:10;" d="M997.6,614.3l-13.4,5.7"/>
						<path id="path11882" style="fill:#E84D5B;stroke:#E84D5B;stroke-miterlimit:10;" d="M1000,616.1l10.6,17.7"/>
						<path id="path11884" style="fill:#E84D5B;stroke:#E84D5B;stroke-miterlimit:10;" d="M1011.4,621.8l-13.6,6.8"/>
						<path id="path11886" style="fill:#E84D5B;stroke:#E84D5B;stroke-miterlimit:10;" d="M1012.7,623l11.7,15.4"/>
						<path id="path11888" style="fill:#E84D5B;stroke:#E84D5B;stroke-miterlimit:10;" d="M1024.8,628.5l-12.2,6"/>
						<path id="path11890" style="fill:#E84D5B;stroke:#E84D5B;stroke-miterlimit:10;" d="M1029,630.5l9,11.1"/>
						<path id="path11892" style="fill:#E84D5B;stroke:#E84D5B;stroke-miterlimit:10;" d="M1039,633.9l-10.5,5.2"/>
						<path id="path11894" style="fill:#E84D5B;stroke:#E84D5B;stroke-miterlimit:10;" d="M1042.8,635.5c0.4,0,8.4,7.4,8.4,7.4"/>
						<path id="path11896" style="fill:#E84D5B;stroke:#E84D5B;stroke-miterlimit:10;" d="M1051.7,637.3l-8.9,4.8"/>
						<path id="path11898" style="fill:#E84D5B;stroke:#E84D5B;stroke-miterlimit:10;" d="M1054.4,638.6l6.5,5.3"/>
						<path id="path11900" style="fill:#E84D5B;stroke:#E84D5B;stroke-miterlimit:10;" d="M1061.8,639.6l-9.3,4.4"/>
						<path id="path11902" style="fill:#E84D5B;stroke:#E84D5B;stroke-miterlimit:10;" d="M943.4,580.7v71.8"/>
						<path id="path11904" style="fill:#E84D5B;stroke:#E84D5B;stroke-miterlimit:10;" d="M957.1,585.2v67.7"/>
						<path id="path11906" style="fill:#E84D5B;stroke:#E84D5B;stroke-miterlimit:10;" d="M970.8,594.8v58"/>
						<path id="path11908" style="fill:#E84D5B;stroke:#E84D5B;stroke-miterlimit:10;" d="M984.8,605.5v47.1"/>
						<path id="path11910" style="fill:#E84D5B;stroke:#E84D5B;stroke-miterlimit:10;" d="M999,614.3v38.3"/>
						<path id="path11912" style="fill:#E84D5B;stroke:#E84D5B;stroke-miterlimit:10;" d="M1012.1,620.8v31.5l-0.4-0.2v0"/>
						<path id="path11914" style="fill:#E84D5B;stroke:#E84D5B;stroke-miterlimit:10;" d="M1025.9,627.4v25.2"/>
						<path id="path11916" style="fill:#E84D5B;stroke:#E84D5B;stroke-miterlimit:10;" d="M1039.3,632.7v20.3"/>
						<path id="path11918" style="fill:#E84D5B;stroke:#E84D5B;stroke-miterlimit:10;" d="M1053.1,637v16.2"/>
						<path id="path11920" style="fill:#E84D5B;stroke:#E84D5B;stroke-miterlimit:10;" d="M956.3,585.6l-10.2-0.7"/>
						<path id="path11922" style="fill:#E84D5B;stroke:#E84D5B;stroke-miterlimit:10;" d="M960.2,588.4l8.4,17.1"/>
						<path id="path11924" style="fill:#E84D5B;stroke:#E84D5B;stroke-miterlimit:10;" d="M1079.4,652.2v-14"/>
						<path id="path11926" style="fill:#E84D5B;stroke:#E84D5B;stroke-miterlimit:10;" d="M1093.9,652.2v-16.1"/>
						<path id="path11928" style="fill:#E84D5B;stroke:#E84D5B;stroke-miterlimit:10;" d="M1107.6,651.9v-19.3"/>
						<path id="path11930" style="fill:#E84D5B;stroke:#E84D5B;stroke-miterlimit:10;" d="M1121.3,651.4V628h-0.4"/>
						<path id="path11932" style="fill:#E84D5B;stroke:#E84D5B;stroke-miterlimit:10;" d="M1134.6,650.8v-28.9"/>
						<path id="path11934" style="fill:#E84D5B;stroke:#E84D5B;stroke-miterlimit:10;" d="M1079,642.4l-10.8-2.8"/>
						<path id="path11936" style="fill:#E84D5B;stroke:#E84D5B;stroke-miterlimit:10;" d="M1078.9,638l-11.5,5.6"/>
						<path id="path11938" style="fill:#E84D5B;stroke:#E84D5B;stroke-miterlimit:10;" d="M1093.4,641.2l-14.9-2.2"/>
						<path id="path11940" style="fill:#E84D5B;stroke:#E84D5B;stroke-miterlimit:10;" d="M1093.2,636.1l-14,7.8v-0.1l0,0"/>
						<path id="path11942" style="fill:#E84D5B;stroke:#E84D5B;stroke-miterlimit:10;" d="M1107.4,638.9l-13.1-2.5"/>
						<path id="path11944" style="fill:#E84D5B;stroke:#E84D5B;stroke-miterlimit:10;" d="M1107.2,632.8l-12.6,9.2"/>
						<path id="path11946" style="fill:#E84D5B;stroke:#E84D5B;stroke-miterlimit:10;" d="M1121.1,635.4l-13.3-2.9"/>
						<path id="path11948" style="fill:#E84D5B;stroke:#E84D5B;stroke-miterlimit:10;" d="M1121,627.8l-13.1,11.3l0,0"/>
						<path id="path11950" style="fill:#E84D5B;stroke:#E84D5B;stroke-miterlimit:10;" d="M1134.4,629.1l-12.7-1.2"/>
						<path id="path11952" style="fill:#E84D5B;stroke:#E84D5B;stroke-miterlimit:10;" d="M1134.1,621.7l-12.2,12.9"/>
					</g>
					<path id="path11954" style="fill:#E84D5B;stroke:#E84D5B;stroke-miterlimit:10;" d="M1162,617.7l46,31.2"/>
					<path id="path11956" style="fill:#E84D5B;stroke:#E84D5B;stroke-miterlimit:10;" d="M1160.1,619.4l43.6,30.2"/>
				</g>
				<path id="path2241" style="fill:#E84D5B;stroke:#E84D5B;stroke-miterlimit:10;" d="M553,653.5l0-9.8c0,0-1.7-0.3-1.6-1
					c0.1-0.7,1.1-0.2,1.4-1.1c0.9-2.8-0.5-4.9-2.9-5c-2.7,0-3.9,2.1-3,5c0.3,0.9,1.3,0.4,1.4,1.1c0.1,0.7-1.6,1-1.6,1l-0.1,9.2v0.5
					L553,653.5L553,653.5z"/>
				<path id="path2249" style="fill:#E84D5B;stroke:#E84D5B;stroke-miterlimit:10;" d="M1068.1,653.5l0-9.8c0,0-1.7-0.3-1.6-1.1
					c0.1-0.7,1.1-0.2,1.4-1.1c0.9-2.8-0.4-4.9-2.9-5c-2.7,0-4,2.1-3,5c0.3,0.9,1.3,0.4,1.4,1.1c0.1,0.7-1.6,1.1-1.6,1.1l-0.1,9.2
					v0.5L1068.1,653.5L1068.1,653.5z"/>
				<path id="path10593" style="fill:#E84D5B;stroke:#E84D5B;stroke-miterlimit:10;" d="M451.2,653.6l228.5,0v-1.5l0,0
					c0,0-203.2-0.5-228.5-0.5L451.2,653.6L451.2,653.6z"/>
				<path id="path2253" style="fill:#E84D5B;stroke:#E84D5B;stroke-miterlimit:10;" d="M451.2,644.8H680v4.9H451.2V644.8
					L451.2,644.8z"/>
				<g id="g2268">
					<path id="path2264" style="fill:#E84D5B;stroke:#E84D5B;stroke-miterlimit:10;" d="M935.6,645.1h408.3v5.1H935.2L935.6,645.1z"
						/>
					<path id="path2266" style="fill:#E84D5B;stroke:#E84D5B;stroke-miterlimit:10;" d="M1343.2,652.3c-0.1,0-409.2-0.2-409.2-0.2
						l0,1.7h409.1L1343.2,652.3L1343.2,652.3z"/>
				</g>
				<path id="path2276" style="fill:#E84D5B;stroke:#E84D5B;stroke-miterlimit:10;" d="M883.7,644.8h53.5v34h-53.7L883.7,644.8z"/>
				<path id="path2280" style="fill:#E84D5B;stroke:#E84D5B;stroke-miterlimit:10;" d="M678.9,644.8h53.5v34h-53.7L678.9,644.8z"/>
				<g id="g4241">
					<path id="path2291" style="fill:#E84D5B;stroke:#E84D5B;stroke-miterlimit:10;" d="M727.7,647.6l68.8-38.5l2,4.6l-68.8,38.5
						L727.7,647.6z"/>
					<path id="path2296" style="fill:#E84D5B;stroke:#E84D5B;stroke-miterlimit:10;" d="M728.1,670.7c0.1,0,41.8-38.8,69.5-54.7
						l1.9-1.1"/>
					<path id="path3270" style="fill:#E84D5B;stroke:#E84D5B;stroke-miterlimit:10;" d="M735.4,663.6l-6.7-13l12.5,5.5l-4.1-9.4
						l11.9,3.2l-4-9l11,3.1l-3.3-7.7l10.4,2.2l-2.8-6.2l8.6,1.3l-2.5-4.8l7.9,0.9l-2-4.1l6.8,0.5l-1.6-3.5l6.2,0.2l-2.3-5l0,0"/>
				</g>
				<g id="g4247">
					<path id="path4249" style="fill:#E84D5B;stroke:#E84D5B;stroke-miterlimit:10;" d="M887.3,646.9l-68.8-38.5l-2,4.6l68.8,38.5
						L887.3,646.9z"/>
					<path id="path4251" style="fill:#E84D5B;stroke:#E84D5B;stroke-miterlimit:10;" d="M886.9,670c-0.1,0-41.8-38.8-69.5-54.7
						l-1.9-1.1"/>
					<path id="path4253" style="fill:#E84D5B;stroke:#E84D5B;stroke-miterlimit:10;" d="M879.6,662.9l6.7-13l-12.5,5.5l4.1-9.4
						l-11.9,3.2l4-9.1l-11,3.1l3.3-7.7l-10.4,2.2l2.8-6.2l-8.6,1.3l2.5-4.8l-7.9,0.9l2-4.1l-6.8,0.5l1.6-3.5l-6.2,0.2l2.3-5l0,0"/>
				</g>
				<path id="path12772" style="fill:#E84D5B;stroke:#E84D5B;stroke-miterlimit:10;" d="M461.8,577.3c0.2-0.1,0.4-0.5,0.4-0.8l0,0
					c0-0.5-0.3-0.8-0.7-0.8c-0.4,0-0.7,0.4-0.7,0.8c0,0.4,0.2,0.7,0.5,0.8l-0.1,4.6l-1.2,0v0.9h0.4c0,0,0.1,1.3-0.1,2.3
					c-3,8.8-5.8,9.9-5.8,9.9l-3.4,0l-1.6,3.5l0,12.1l-1.7,0l0,2.7h1.8v28.2l-2,5.8l0.1,29l0,0h27.4l-0.1-29.4l-2.1-5.8v-27.9h1.8
					l0-2.7l-1.7,0l0-12.1l-1.4-3.4l-3-0.1c0,0-2.4-1.7-5.8-10c-0.1-1.5,0-2.2,0-2.2l0,0l0.4,0l0-0.9H462L461.8,577.3L461.8,577.3
					L461.8,577.3L461.8,577.3z"/>
				<path id="path12108" style="fill:#E84D5B;stroke:#E84D5B;stroke-miterlimit:10;" d="M1152.6,577.3c0.3-0.1,0.5-0.5,0.5-0.8l0,0
					c0-0.5-0.3-0.8-0.7-0.8c-0.4,0-0.7,0.4-0.7,0.8c0,0.4,0.2,0.7,0.5,0.8l-0.1,4.6l-1.2,0v0.9h0.4c0,0,0.1,1.3-0.2,2.3
					c-3,8.8-5.8,9.9-5.8,9.9l-3.4,0l-1.7,3.5l0,12.1l-1.7,0l0,2.7h1.8v28.2l-2,5.8l0.1,29l0,0h27.4l-0.1-29.4l-2.1-5.8v-27.9h1.8
					l0-2.7l-1.7,0l0-12.1l-1.4-3.4l-3-0.1c0,0-2.4-1.7-5.8-10c-0.1-1.5,0-2.2,0-2.2l0,0l0.4,0v-0.9h-1.2L1152.6,577.3L1152.6,577.3
					L1152.6,577.3L1152.6,577.3L1152.6,577.3z"/>
			</g>
		</g>
		<g id="layer4">
			<path id="path2912" style="fill:#00ADEF;stroke:#000000;stroke-width:7.180000e-02;" d="M307.8,611.2h33v-5.3h-3.3v-4.3h-3.8
				v-9.9l-2.3-1.5v-14.4l2.2-1.7v-1.7l-2.4-1.6v-1.5l0-1.1c0,0,0-0.9-0.7-1c0,0,0.5-1.5-0.6-2.1c0.1,0-0.7-99.8-0.7-99.8
				s-0.6-0.5-1-0.6c0.2-0.1,1-8.3,3.1-10.2c0-0.2,0-0.4,0-0.4l-0.4,0v-0.6l0.5-0.2v-0.5c0,0-2-0.2-2.4-1.1c0-0.1-0.8-4.6-2.9-5.1
				c0.1,0-1.4,0-1.6,0c-0.2,0-1.7,0-1.6,0c-1.7,0.3-2.9,5-2.9,5.1c-0.4,0.9-2.4,1.1-2.4,1.1v0.5l0.5,0.2v0.6l-0.4,0c0,0,0,0.2,0,0.4
				c2.1,1.9,2.9,10.1,3.1,10.2c-0.4,0.1-1,0.6-1,0.6S319,565,319.1,565c-1.1,0.5-0.6,2-0.6,2.1c-0.8,0-0.7,1-0.7,1l0,1.1v1.5
				l-2.4,1.6v1.7l2.2,1.7v14.4l-2.3,1.5v9.9h-3.8v4.4h-3.3v5.3h33"/>
			<path id="path2914" style="fill:#E84D5B;stroke:#000000;stroke-width:7.180000e-02;" d="M321.8,447.1l-3,0c0,0,0.9-1.3,1-2.1
				c0.2-0.8,1.1-0.9,1.2-1.5c0,0.2,0.8-5.7,1.2-5.9c0.4-0.2-0.3-0.3-0.3-0.3s-0.2,0.6-0.6,0.7c-0.3,0-0.6-1.8-0.6-1.8l0-2l0.2-0.2
				l0.1-0.6l0.9-0.2c0,0,0.4,0.1,0.6,0.4c0,0,0.4-0.5,0.7-0.4c0.3,0,0.1-1.2,0.1-1.2l-0.9-0.1c0,0,0.6-3.1,2-3.3c0,0,0-0.4,0.1-0.5
				c0.2-0.1,0.4,0,0.5,0c0,0,0.1,0.6,0.1,0.6s0.5,0.4,0.8,0.9c0-0.2,0.5,0.8,0.5,0.8s0.3,0,0.3,0.1c0.1,0.1,0,0.6,0,0.7
				c0,0-0.7,0.2-0.7,0.2l-0.4,0.2l-0.2,0.1l-0.1,1.5l0.6,0.4l0.1,0.2c0,0,0.6-0.1,1,0c0.1,0,0.4,0.7,0.3,1.3
				c-0.1,0.6,0.2,1.6,0.2,1.6l0.4,1l0.2,1.2l0.6,0.2l0.2,0.5l0,0.4l-0.6,0.3l-1.4,6.8l-0.4-0.2l1.6-6.8c0,0-0.4,0-0.5-0.1
				c-0.2-0.2-0.9-2-0.8-2.4c-0.1-0.1-0.3-0.1-0.3-0.1v0.8l0.2,0.1l0,3.8l-0.4,2l-0.8,0.1c0,0-0.2,0.7-0.1,0.8c0,0.1,1.1,0.1,1.1,1.4
				C326,446.5,321.8,447.2,321.8,447.1L321.8,447.1z"/>
		</g>
		<g id="layer3">
			<g id="g3766">
				<path id="path2898" style="fill:none;stroke:#D21C23;stroke-width:0.9;" d="M283.9,523.1c0,61.7-44.6,111.8-99.5,111.8
					c-55,0-99.5-50-99.5-111.8c0-61.7,44.6-111.8,99.5-111.8C239.4,411.3,283.9,461.4,283.9,523.1z"/>
				<path id="path2900" style="fill:none;stroke:#D21C23;stroke-width:2.8275;" d="M300.1,523.9c0,70.8-51.1,128.2-114.2,128.2
					c-63,0-114.2-57.4-114.2-128.2c0-70.8,51.1-128.2,114.2-128.2C249,395.7,300.1,453.1,300.1,523.9z"/>
				<path id="path2902" style="fill:none;stroke:#D21C23;stroke-width:0.3055;" d="M148.3,418.8l-10.3-9.9l0.8,15l-10-9.2l0.8,14.4
					l-9.3-8.7l1.9,14.5l-10-6.6l3.3,12.8l-12.6-3.7l5.5,11.7l-11.8-2.7l5.9,12l-13-2.1l7.8,11.3H85.2l8,7.7l-12,2.4l8.2,7.6
					l-12.4,4.2l9,8.1l-10.5,6l9.7,5.4l-12.4,7.4l9.6,2.1l-10.1,9.9l11.2,1.5l-10.1,10.8l12.4,0.6l-10.6,10.9l12.4-0.3L78,562.4
					l13.6,0.3l-9,10.5l12.4-1.5l-8.5,13.9l13.5-4.9l-7.8,15.9l13-6.4l-4.8,18.6l12.9-8.5l-3.8,18.8l13.4-9.4l-2.4,18.5l11.8-10.5
					l-1,19.4L143,624l2.2,18.9l10.8-13.4l3.1,18.9l9.3-15.3l4.7,17.7l7-16.7l7.6,17.7l4.8-17.6l7.7,16.4l4.4-18.6l9.8,15.4l2.1-18.4
					l11.2,14l0.5-18.9l11.9,12.8l-0.9-20l12.5,11.3l-2.6-18.4l11.7,10l-3.2-19.4l13.5,7.5l-4.8-18.9l13.8,6.2l-7.3-17l14.5,5.1
					l-9.8-16.7l15.2,1.5l-11.1-13.1l13.6-0.8l-11.4-11.6l14.4-4.2l-12.9-9.9l13.7-4l-12.6-7.3l12.7-4l-14.1-5.5l12.5-8.7l-15.3-1.4
					l11.6-9.6h-12.7l12.5-9.8l-16,0.5l10.3-12.3l-14.9,4.1l10.1-12.7l-14.5,1.5l6.6-14.8l-13.7,6l5.3-16.8l-12,8.1l3.4-17.2
					l-11.9,10l0.8-18.8l-10.1,11.4l-1.9-18.9l-11.8,10.4l-2.4-16.9l-9.1,12.9l-1.9-15.8l-8.4,14l-4.4-16l-5,13.8l-6.3-15.4
					l-4.2,15.4l-8.4-13.6l-1.1,14.5l-10.8-12.2l-0.6,15.3l-10-11.1L148.3,418.8L148.3,418.8z"/>
				<g>
					<path id="path2836" style="fill:#00ADEF;stroke:#D21C23;stroke-miterlimit:10;" d="M183.8,388.2c0,4.3-3.1,7.7-6.9,7.7
						c-3.8,0-6.9-3.5-6.9-7.7c0-4.3,3.1-7.7,6.9-7.7C180.7,380.4,183.8,383.9,183.8,388.2z"/>
					<path id="path2838" style="fill:#00ADEF;stroke:#D21C23;stroke-miterlimit:10;" d="M157.4,393.9c0,4.3-3.1,7.7-6.9,7.7
						c-3.8,0-6.9-3.5-6.9-7.7c0-4.3,3.1-7.7,6.9-7.7C154.3,386.2,157.4,389.6,157.4,393.9z"/>
					<path id="path2840" style="fill:#00ADEF;stroke:#D21C23;stroke-miterlimit:10;" d="M136.2,403.2c0,4.3-3.1,7.7-6.9,7.7
						c-3.8,0-6.9-3.5-6.9-7.7c0-4.3,3.1-7.7,6.9-7.7C133.1,395.5,136.2,398.9,136.2,403.2z"/>
					<path id="path2842" style="fill:#00ADEF;stroke:#D21C23;stroke-miterlimit:10;" d="M116.5,417.4c0,4.3-3.1,7.7-6.9,7.7
						c-3.8,0-6.9-3.5-6.9-7.7c0-4.3,3.1-7.7,6.9-7.7C113.4,409.6,116.5,413.1,116.5,417.4z"/>
					<path id="path2844" style="fill:#00ADEF;stroke:#D21C23;stroke-miterlimit:10;" d="M100.3,435c0,4.3-3.1,7.7-6.9,7.7
						c-3.8,0-6.9-3.5-6.9-7.7c0-4.3,3.1-7.7,6.9-7.7C97.2,427.3,100.3,430.7,100.3,435z"/>
					<path id="path2846" style="fill:#00ADEF;stroke:#D21C23;stroke-miterlimit:10;" d="M87.2,455.9c0,4.3-3.1,7.7-6.9,7.7
						c-3.8,0-6.9-3.5-6.9-7.7c0-4.3,3.1-7.7,6.9-7.7C84.1,448.2,87.2,451.6,87.2,455.9z"/>
					<path id="path2848" style="fill:#00ADEF;stroke:#D21C23;stroke-miterlimit:10;" d="M77.5,479.9c0,4.3-3.1,7.7-6.9,7.7
						c-3.8,0-6.9-3.5-6.9-7.7s3.1-7.7,6.9-7.7C74.4,472.1,77.5,475.6,77.5,479.9z"/>
					<path id="path2850" style="fill:#00ADEF;stroke:#D21C23;stroke-miterlimit:10;" d="M72.3,505.3c0,4.3-3.1,7.7-6.9,7.7
						c-3.8,0-6.9-3.5-6.9-7.7c0-4.3,3.1-7.7,6.9-7.7C69.2,497.6,72.3,501,72.3,505.3z"/>
					<path id="path2852" style="fill:#00ADEF;stroke:#D21C23;stroke-miterlimit:10;" d="M70.7,531.1c0,4.3-3.1,7.7-6.9,7.7
						c-3.8,0-6.9-3.5-6.9-7.7c0-4.3,3.1-7.7,6.9-7.7C67.6,523.4,70.7,526.8,70.7,531.1z"/>
					<path id="path2854" style="fill:#00ADEF;stroke:#D21C23;stroke-miterlimit:10;" d="M74.6,557.6c0,4.3-3.1,7.7-6.9,7.7
						c-3.8,0-6.9-3.5-6.9-7.7s3.1-7.7,6.9-7.7C71.5,549.9,74.6,553.4,74.6,557.6z"/>
					<path id="path2856" style="fill:#00ADEF;stroke:#D21C23;stroke-miterlimit:10;" d="M82,582.3c0,4.3-3.1,7.7-6.9,7.7
						c-3.8,0-6.9-3.5-6.9-7.7c0-4.3,3.1-7.7,6.9-7.7C78.9,574.6,82,578.1,82,582.3z"/>
					<path id="path2858" style="fill:#00ADEF;stroke:#D21C23;stroke-miterlimit:10;" d="M94.5,606.7c0,4.3-3.1,7.7-6.9,7.7
						c-3.8,0-6.9-3.5-6.9-7.7c0-4.3,3.1-7.7,6.9-7.7C91.4,599,94.5,602.4,94.5,606.7z"/>
					<path id="path2860" style="fill:#00ADEF;stroke:#D21C23;stroke-miterlimit:10;" d="M113.1,628.5c0,4.3-3.1,7.7-6.9,7.7
						c-3.8,0-6.9-3.5-6.9-7.7c0-4.3,3.1-7.7,6.9-7.7S113.1,624.2,113.1,628.5z"/>
					<path id="path2862" style="fill:#00ADEF;stroke:#D21C23;stroke-miterlimit:10;" d="M133.9,645c0,4.3-3.1,7.7-6.9,7.7
						c-3.8,0-6.9-3.5-6.9-7.7c0-4.3,3.1-7.7,6.9-7.7S133.9,640.8,133.9,645z"/>
					<path id="path2864" style="fill:#00ADEF;stroke:#D21C23;stroke-miterlimit:10;" d="M161.2,656.9c0,4.3-3.1,7.7-6.9,7.7
						c-3.8,0-6.9-3.5-6.9-7.7c0-4.3,3.1-7.7,6.9-7.7C158.1,649.1,161.2,652.6,161.2,656.9z"/>
					<path id="path2866" style="fill:#00ADEF;stroke:#D21C23;stroke-miterlimit:10;" d="M192.4,659.7c0,4.3-3.1,7.7-6.9,7.7
						c-3.8,0-6.9-3.5-6.9-7.7c0-4.3,3.1-7.7,6.9-7.7C189.4,652,192.4,655.5,192.4,659.7z"/>
					<path id="path2868" style="fill:#00ADEF;stroke:#D21C23;stroke-miterlimit:10;" d="M219.6,658c0,4.3-3.1,7.7-6.9,7.7
						c-3.8,0-6.9-3.5-6.9-7.7c0-4.3,3.1-7.7,6.9-7.7C216.5,650.3,219.6,653.8,219.6,658z"/>
					<path id="path2870" style="fill:#00ADEF;stroke:#D21C23;stroke-miterlimit:10;" d="M248.2,647.4c0,4.3-3.1,7.7-6.9,7.7
						c-3.8,0-6.9-3.5-6.9-7.7s3.1-7.7,6.9-7.7C245.1,639.7,248.2,643.1,248.2,647.4z"/>
					<path id="path2872" style="fill:#00ADEF;stroke:#D21C23;stroke-miterlimit:10;" d="M272,629.8c0,4.3-3.1,7.7-6.9,7.7
						c-3.8,0-6.9-3.5-6.9-7.7c0-4.3,3.1-7.7,6.9-7.7C268.9,622.1,272,625.5,272,629.8z"/>
					<path id="path2874" style="fill:#00ADEF;stroke:#D21C23;stroke-miterlimit:10;" d="M289.8,608.5c0,4.3-3.1,7.7-6.9,7.7
						c-3.8,0-6.9-3.5-6.9-7.7c0-4.3,3.1-7.7,6.9-7.7C286.7,600.8,289.8,604.3,289.8,608.5z"/>
					<path id="path2876" style="fill:#00ADEF;stroke:#D21C23;stroke-miterlimit:10;" d="M302.9,585.1c0,4.3-3.1,7.7-6.9,7.7
						c-3.8,0-6.9-3.5-6.9-7.7c0-4.3,3.1-7.7,6.9-7.7C299.8,577.4,302.9,580.8,302.9,585.1z"/>
					<path id="path2878" style="fill:#00ADEF;stroke:#D21C23;stroke-miterlimit:10;" d="M311.1,559.3c0,4.3-3.1,7.7-6.9,7.7
						c-3.8,0-6.9-3.5-6.9-7.7c0-4.3,3.1-7.7,6.9-7.7C308,551.6,311.1,555,311.1,559.3z"/>
					<path id="path2880" style="fill:#00ADEF;stroke:#D21C23;stroke-miterlimit:10;" d="M315.2,533.5c0,4.3-3.1,7.7-6.9,7.7
						c-3.8,0-6.9-3.5-6.9-7.7c0-4.3,3.1-7.7,6.9-7.7C312.1,525.7,315.2,529.2,315.2,533.5z"/>
					<path id="path2882" style="fill:#00ADEF;stroke:#D21C23;stroke-miterlimit:10;" d="M314.7,506.8c0,4.3-3.1,7.7-6.9,7.7
						c-3.8,0-6.9-3.5-6.9-7.7s3.1-7.7,6.9-7.7C311.6,499,314.7,502.5,314.7,506.8z"/>
					<path id="path2884" style="fill:#00ADEF;stroke:#D21C23;stroke-miterlimit:10;" d="M309,479.9c0,4.3-3.1,7.7-6.9,7.7
						c-3.8,0-6.9-3.5-6.9-7.7s3.1-7.7,6.9-7.7C305.9,472.1,309,475.6,309,479.9z"/>
					<path id="path2886" style="fill:#00ADEF;stroke:#D21C23;stroke-miterlimit:10;" d="M300,457.3c0,4.3-3.1,7.7-6.9,7.7
						c-3.8,0-6.9-3.5-6.9-7.7s3.1-7.7,6.9-7.7C296.9,449.6,300,453.1,300,457.3z"/>
					<path id="path2888" style="fill:#00ADEF;stroke:#D21C23;stroke-miterlimit:10;" d="M285.9,435.2c0,4.3-3.1,7.7-6.9,7.7
						c-3.8,0-6.9-3.5-6.9-7.7c0-4.3,3.1-7.7,6.9-7.7C282.8,427.4,285.9,430.9,285.9,435.2z"/>
					<path id="path2890" style="fill:#00ADEF;stroke:#D21C23;stroke-miterlimit:10;" d="M270,417.7c0,4.3-3.1,7.7-6.9,7.7
						c-3.8,0-6.9-3.5-6.9-7.7c0-4.3,3.1-7.7,6.9-7.7C266.9,410,270,413.5,270,417.7z"/>
					<path id="path2892" style="fill:#00ADEF;stroke:#D21C23;stroke-miterlimit:10;" d="M250.3,403.4c0,4.3-3.1,7.7-6.9,7.7
						c-3.8,0-6.9-3.5-6.9-7.7s3.1-7.7,6.9-7.7C247.2,395.6,250.3,399.1,250.3,403.4z"/>
					<path id="path2894" style="fill:#00ADEF;stroke:#D21C23;stroke-miterlimit:10;" d="M228.9,393.5c0,4.3-3.1,7.7-6.9,7.7
						c-3.8,0-6.9-3.5-6.9-7.7c0-4.3,3.1-7.7,6.9-7.7C225.8,385.8,228.9,389.3,228.9,393.5z"/>
					<path id="path2896" style="fill:#00ADEF;stroke:#D21C23;stroke-miterlimit:10;" d="M207.2,388.6c0,4.3-3.1,7.7-6.9,7.7
						c-3.8,0-6.9-3.5-6.9-7.7c0-4.3,3.1-7.7,6.9-7.7C204.2,380.9,207.2,384.4,207.2,388.6z"/>
					<path id="path2904" style="fill:#00ADEF;stroke:#D21C23;stroke-width:0.9;" d="M193.4,520.3c0,4.8-3.4,8.6-7.7,8.6
						c-4.2,0-7.7-3.9-7.7-8.6c0-4.8,3.4-8.6,7.7-8.6C190,511.7,193.4,515.5,193.4,520.3z"/>
				</g>
				<path id="path2906" style="fill:#E84D5B;stroke:#D21C23;stroke-width:0.3486;" d="M182.4,527.7l2.4,0c0,0-3.6,38.6-14.2,148.1
					l-12.5-0.3"/>
				<path id="path2908" style="fill:#E84D5B;stroke:#D21C23;stroke-width:0.3527;" d="M187.4,527.5l-2.5,0c0,0,5.1,46.4,15.9,148.6
					l11.5-0.8"/>
			</g>
		</g>
	</g>
</g>
<g id="mountains">
	<g>
		<path style="fill:#D4E5F6;" d="M-296.2,751.8"/>
		<polygon style="fill:#14757B;" points="286.7,142.5 458.2,321.2 302.8,337.4 		"/>
		<polygon style="fill:#ACE8EA;" points="93.4,299.5 150.9,236.7 174.7,274.2 97.8,491.8 		"/>
		<path style="fill:#A7C6E8;" d="M-431.4,1135.3"/>
		<path style="fill:#A7C6E8;" d="M-1081.2,1334.6"/>
		<path style="fill:#C1DDF3;" d="M-1081.2,1334.6"/>
		<path style="fill:#5984C3;" d="M-336,1022"/>
		<path style="fill:#A7C6E8;" d="M-92.4,739.6"/>
		<path style="fill:#0D72B9;" d="M-358.1,727.2"/>
		<polygon style="fill:#ACE8EA;" points="-358.1,727.2 -239.2,210.2 -92.4,739.6 		"/>
		<polygon style="fill:#F5ECD9;" points="-239.2,210.2 -153.1,161.3 -92.4,739.6 		"/>
		<polygon style="fill:#FFFFFF;" points="-150.7,185.4 -153.1,161.3 -71,5.9 24,341.2 		"/>
		<polygon style="fill:#229098;" points="-92.4,739.6 24,341.2 -130.1,184.6 -150.7,185.4 		"/>
		<polygon style="fill:#F5ECD9;" points="150.9,779.4 -92.4,739.6 24,341.2 93.4,299.5 		"/>
		<polygon style="fill:#C1E8E7;" points="-71,5.9 93.4,299.5 24,341.2 		"/>
		<path style="fill:#5984C3;" d="M-358.1,727.2"/>
		<polygon style="fill:#FFFFFF;" points="150.9,236.7 286.7,142.5 316,496.4 		"/>
		<polygon style="fill:#14757B;" points="97.8,491.8 165.6,858.9 316,496.4 174.7,274.2 		"/>
		<polygon style="fill:#ACE8EA;" points="138.3,710.9 165.6,858.9 97.8,491.8 -92.4,739.6 		"/>
		<polygon style="fill:#229098;" points="286.7,142.5 302.8,337.4 316,496.4 		"/>
		<polygon style="fill:#14757B;" points="304.2,825.4 316,496.4 165.6,858.9 		"/>
		<polygon style="fill:#229098;" points="567.5,836.3 304.2,825.4 316,496.4 		"/>
		<polygon style="fill:#ACE8EA;" points="567.5,836.3 458.2,321.2 316,496.4 		"/>
		<polygon style="fill:#F5ECD9;" points="567.5,836.3 724,836.1 458.2,321.2 		"/>
		<polygon style="fill:#14757B;" points="458.2,321.2 667.1,529.8 724,836.1 		"/>
		<polygon style="fill:#63D3D6;" points="724,836.1 922.5,821.6 667.1,529.8 		"/>
		<polygon style="fill:#ACE8EA;" points="458.2,321.2 379.8,47.2 584.3,355.9 		"/>
		<polygon style="fill:#63D3D6;" points="667.1,529.8 584.3,355.9 458.2,321.2 		"/>
		<polygon style="fill:#FFFFFF;" points="458.2,321.2 379.8,47.2 286.7,142.5 		"/>
		<polygon style="fill:#229098;" points="93.4,299.5 150.9,236.7 -71,5.9 		"/>
		<polygon style="fill:#63D3D6;" points="922.5,821.6 986.7,770.9 769.8,566 		"/>
		<polygon style="fill:#ACE8EA;" points="986.7,770.9 1197.2,733 950.4,561.8 769.8,566 		"/>
		<polygon style="fill:#C1E8E7;" points="751.4,576.8 644.1,427.9 644.1,323.6 746.1,237.9 950.4,561.8 		"/>
		<polygon style="fill:#1C8389;" points="1197.2,733 746.1,237.9 950.4,561.8 		"/>
		<polygon style="fill:#FFFFFF;" points="664.1,452 751.4,576.8 746.1,237.9 584.3,355.9 		"/>
		<polygon style="fill:#63D3D6;" points="984.2,499.5 1095.4,515.8 1257.6,674.6 1197.2,733 		"/>
		<polygon style="fill:#C1E8E7;" points="950.4,561.8 986.7,770.9 751.4,576.8 		"/>
		<polygon style="fill:#C1E8E7;" points="1095.4,515.8 1197.2,733 1257.6,674.6 		"/>
	</g>
</g>
<g id="clouds">
	<path style="fill:#F5ECD9;" d="M684.4,244.6c0-10.2-8.3-18.4-18.4-18.4s-18.4,8.3-18.4,18.4H684.4z"/>
	<path style="fill:#F5ECD9;" d="M769.7,244.6c0-10.2-8.3-18.4-18.4-18.4c-10.2,0-18.4,8.3-18.4,18.4H769.7z"/>
	<path style="fill:#F5ECD9;" d="M727,244.6c0-15.7-12.7-28.4-28.4-28.4c-15.7,0-28.4,12.7-28.4,28.4H727z"/>
	<g>
		<path style="fill:#F5ECD9;" d="M749.9-25.3c0-4.6-3.7-8.2-8.2-8.2s-8.2,3.7-8.2,8.2H749.9z"/>
		<path style="fill:#F5ECD9;" d="M775.4-25.3c0-3.5-2.9-6.4-6.4-6.4c-3.5,0-6.4,2.8-6.4,6.4H775.4z"/>
		<path style="fill:#F5ECD9;" d="M769-25.3c0-7-5.7-12.7-12.7-12.7c-7,0-12.7,5.7-12.7,12.7H769z"/>
	</g>
	<g>
		<path style="fill:#F5ECD9;" d="M956.6,166.4c0-6.6,5.4-12,12-12c6.6,0,12,5.4,12,12H956.6z"/>
		<path style="fill:#F5ECD9;" d="M872.7,166.4c0-9.9,8.1-18,18-18c9.9,0,18,8.1,18,18H872.7z"/>
		<path style="fill:#F5ECD9;" d="M896.6,166.4c0-19.9,16.1-36,36-36s36,16.1,36,36H896.6z"/>
	</g>
	<g>
		<path style="fill:#F5ECD9;" d="M978.6,186.2c0-5.3,4.3-9.6,9.5-9.6c5.3,0,9.6,4.3,9.6,9.6H978.6z"/>
		<path style="fill:#F5ECD9;" d="M993.3,186.2c0-4.1,3.3-7.4,7.4-7.4c4.1,0,7.4,3.3,7.4,7.4H993.3z"/>
	</g>
	<g>
		<g>
			<path style="fill:#F5ECD9;" d="M1299.9,12.5c0-19.7-16-35.6-35.6-35.6c-19.7,0-35.6,16-35.6,35.6H1299.9z"/>
			<path style="fill:#F5ECD9;" d="M1326.5,12.5c0-14.7-11.9-26.6-26.6-26.6c-14.7,0-26.6,11.9-26.6,26.6H1326.5z"/>
			<path style="fill:#F5ECD9;" d="M1240.9,12.5c0-8.8-7.1-15.9-15.9-15.9c-8.8,0-15.9,7.1-15.9,15.9H1240.9z"/>
		</g>
		<g>
			<path style="fill:#F5ECD9;" d="M914.4,145.6c0-18.1-14.6-32.7-32.7-32.7c-18.1,0-32.7,14.6-32.7,32.7H914.4z"/>
			<path style="fill:#F5ECD9;" d="M873.4,145.6c0-13.5-10.9-24.4-24.4-24.4c-13.4,0-24.4,10.9-24.4,24.4H873.4z"/>
			<path style="fill:#F5ECD9;" d="M933.9,145.6c0-10.8-8.7-19.5-19.5-19.5c-10.8,0-19.5,8.7-19.5,19.5H933.9z"/>
			<path style="fill:#F5ECD9;" d="M834.4,145.6c0-8.1-6.5-14.6-14.6-14.6c-8.1,0-14.6,6.6-14.6,14.6H834.4z"/>
		</g>
		<g>
			<path style="fill:#F5ECD9;" d="M862.6,74.2"/>
			<path style="fill:#F5ECD9;" d="M842.3,2.2"/>
			<g>
				<path style="fill:#F5ECD9;" d="M1163.1,188.8c0-9-7.3-16.2-16.2-16.2s-16.2,7.3-16.2,16.2H1163.1z"/>
				<path style="fill:#F5ECD9;" d="M1213.1,188.8c0-6.9-5.6-12.5-12.5-12.5c-6.9,0-12.5,5.6-12.5,12.5H1213.1z"/>
				<path style="fill:#F5ECD9;" d="M1200.6,188.8c0-13.8-11.2-25-25-25s-25,11.2-25,25H1200.6z"/>
			</g>
			<g>
				<path style="fill:#F5ECD9;" d="M800.8,166.9c0-7.7-6.2-13.9-13.9-13.9s-13.9,6.2-13.9,13.9H800.8z"/>
				<path style="fill:#F5ECD9;" d="M811.1,166.9c0-5.7-4.6-10.4-10.4-10.4c-5.7,0-10.4,4.6-10.4,10.4H811.1z"/>
				<path style="fill:#F5ECD9;" d="M777.7,166.9c0-3.4-2.8-6.2-6.2-6.2c-3.4,0-6.2,2.8-6.2,6.2H777.7z"/>
			</g>
			<g>
				<path style="fill:#F5ECD9;" d="M858.8,8.4c0-8.3-6.7-15-15-15c-8.3,0-15,6.7-15,15H858.8z"/>
				<path style="fill:#F5ECD9;" d="M963.5,8.4C963.5-4,953.4-14,941-14c-12.4,0-22.4,10-22.4,22.4H963.5z"/>
				<path style="fill:#F5ECD9;" d="M933.6,8.4c0-24.8-20.1-44.9-44.9-44.9s-44.9,20.1-44.9,44.9H933.6z"/>
			</g>
			<g>
				<path style="fill:#F5ECD9;" d="M1007.9,232.9c0-5.3-4.3-9.5-9.5-9.5c-5.3,0-9.6,4.3-9.6,9.5H1007.9z"/>
				<path style="fill:#F5ECD9;" d="M993.2,232.9c0-4.1-3.3-7.4-7.4-7.4c-4.1,0-7.4,3.3-7.4,7.4H993.2z"/>
			</g>
			<g>
				<path style="fill:#F5ECD9;" d="M1114.6-260.5c0-5.3-4.3-9.5-9.5-9.5c-5.3,0-9.5,4.3-9.5,9.5H1114.6z"/>
				<path style="fill:#F5ECD9;" d="M1099.9-260.5c0-4.1-3.3-7.4-7.4-7.4c-4.1,0-7.4,3.3-7.4,7.4H1099.9z"/>
			</g>
			<g>
				<path style="fill:#F5ECD9;" d="M1352.7-320.6c0-4.6-3.7-8.2-8.2-8.2c-4.6,0-8.2,3.7-8.2,8.2H1352.7z"/>
				<path style="fill:#F5ECD9;" d="M1378.1-320.6c0-3.5-2.8-6.4-6.4-6.4c-3.5,0-6.4,2.8-6.4,6.4H1378.1z"/>
				<path style="fill:#F5ECD9;" d="M1371.7-320.6c0-7-5.7-12.7-12.7-12.7c-7,0-12.7,5.7-12.7,12.7H1371.7z"/>
			</g>
			<g>
				<path style="fill:#F5ECD9;" d="M562,27.9c0-5.3,4.3-9.5,9.5-9.5c5.3,0,9.5,4.3,9.5,9.5H562z"/>
				<path style="fill:#F5ECD9;" d="M576.7,27.9c0-4.1,3.3-7.4,7.4-7.4c4.1,0,7.4,3.3,7.4,7.4H576.7z"/>
			</g>
		</g>
	</g>
	<g>
		<g>
			<path style="fill:#F5ECD9;" d="M560.2,172.5h-8v-1h8V172.5z M544.2,172.5h-8v-1h8V172.5z M528.2,172.5h-8v-1h8V172.5z
				 M512.2,172.5h-8v-1h8V172.5z M496.2,172.5h-8v-1h8C496.2,171.5,496.2,172.5,496.2,172.5z M480.2,172.5h-8v-1h8V172.5z
				 M464.2,172.5h-8v-1h8C464.2,171.5,464.2,172.5,464.2,172.5z M448.2,172.5h-8v-1h8V172.5z M432.2,172.5h-8v-1h8
				C432.2,171.5,432.2,172.5,432.2,172.5z M416.2,172.5h-8v-1h8V172.5z M400.2,172.5h-8v-1h8V172.5z M384.2,172.5h-5.4v-1h5.4V172.5
				z"/>
		</g>
		<g>
			<path style="fill:#F5ECD9;" d="M1647.3-274.9h-8v-1h8V-274.9z M1631.3-274.9h-8v-1h8V-274.9z M1615.3-274.9h-8v-1h8V-274.9z
				 M1599.3-274.9h-8v-1h8V-274.9z M1583.3-274.9h-8v-1h8V-274.9z M1567.3-274.9h-8v-1h8V-274.9z M1551.3-274.9h-8v-1h8V-274.9z"/>
		</g>
		<g>
			<path style="fill:#F5ECD9;" d="M1217.1-50.3h-8v-1h8V-50.3z M1201.1-50.3h-8v-1h8V-50.3z M1185.1-50.3h-8v-1h8V-50.3z
				 M1169.1-50.3h-8v-1h8V-50.3z M1153.1-50.3h-8v-1h8V-50.3z M1137.1-50.3h-8v-1h8V-50.3z M1121.1-50.3h-8v-1h8V-50.3z
				 M1105.1-50.3h-8v-1h8V-50.3z M1089.1-50.3h-8v-1h8V-50.3z M1073.1-50.3h-8v-1h8V-50.3z"/>
		</g>
	</g>
</g>
<g id="Layer_1_1_">
	<g id="plane">
		<g>
			<path style="fill:#FFFEF0;" d="M1609.3,295.9c2.2,0,5.4,0.4,5.4,0.4s-3.1,0.4-5.4,0.4c-2.2,0-4.1-0.4-4.1-0.4
				S1607.1,295.9,1609.3,295.9z"/>
			<g>
				<g>
					<g>
						<path style="fill:#C8C6BC;" d="M1605.2,296.4l21.6,15.7c0,0,1.2,0.3,3.2,0.7l-23-16.4L1605.2,296.4L1605.2,296.4z"/>
						<path style="fill:#FFFEF0;" d="M1629.9,312.8c3,0.6,7.7,1.4,11.9,1.4c5.5,0,17.9-1.8,17.9-1.8l-45.2-16h-7.6L1629.9,312.8z"/>
					</g>
				</g>
			</g>
			<path style="opacity:0.4;fill:#BCBAD0;enable-background:new    ;" d="M1605.2,296.4c0,0,1.9-0.5,4.1-0.4c2.2,0,5.4,0.4,5.4,0.4
				s0,0-0.1,0l45.2,16c0,0-12.4,1.8-17.9,1.8c-4.2,0-8.9-0.8-11.9-1.4c-1.9-0.4-3.2-0.7-3.2-0.7L1605.2,296.4L1605.2,296.4
				C1605.2,296.4,1605.2,296.4,1605.2,296.4z"/>
		</g>
		<g>
			<g>
				<g>
					<path style="fill:#C8C6BC;" d="M1761.2,308.9l35.2,25.6c0,0,2,0.5,5.2,1.2l-37.5-26.8L1761.2,308.9L1761.2,308.9z"/>
					<path style="fill:#FFFEF0;" d="M1801.6,335.7c4.9,1,12.6,2.3,19.5,2.3c9,0,29.3-3,29.3-3l-73.9-26.2h-12.4L1801.6,335.7z"/>
				</g>
			</g>
			<polygon style="opacity:0.4;fill:#BCBAD0;enable-background:new    ;" points="1814.9,322.5 1773.7,318 1779.7,322.5 			"/>
		</g>
		<g>
			<path id="carlinga" style="fill:#FFFEF0;" d="M1638.9,292.3l13.3,18.2l48,12h176c0,0,39.5-2.2,51.7,6l4.3,4c0,0,12,4.5,13.6,9
				c0.1,0.3,0.2,0.7,0.2,1c-0.1,4.9-12.7,16-69.9,16h-144c-10.7,0-25.6-3-41.9-7.2c-38.2-9.9-81.9-26.4-81.9-26.4v-8.6l8.6-2.1
				l-5.7-21.9L1638.9,292.3L1638.9,292.3z"/>
			<polygon style="fill:#FFFEF0;" points="1603.6,262.5 1617.1,262.5 1630.4,280.7 1608.3,280.7 			"/>
			<g>
				<polygon style="fill:#FFFEF0;" points="1615.3,292.3 1611.4,292.3 1608.3,280.7 1611.7,280.7 				"/>
				<polygon style="fill:#8CC152;" points="1630.4,280.7 1638.9,292.3 1615.3,292.3 1611.7,280.7 				"/>
			</g>
		</g>
		<g>
			<polygon style="fill:#C8C6BC;" points="1646.3,319.6 1632.6,333.6 1619.8,329.1 			"/>
			<g>
				<path style="fill:#C8C6BC;" d="M1595,334.7l20.3-14.8c0,0,1.2-0.3,3-0.7l-21.6,15.4L1595,334.7L1595,334.7z"/>
				<path style="fill:#FFFEF0;" d="M1618.2,319.3c2.9-0.6,7.3-1.3,11.2-1.3c5.2,0,16.9,1.7,16.9,1.7l-38.5,15.1h-11.1L1618.2,319.3z
					"/>
			</g>
		</g>
		<g>
			
				<rect x="1613.6" y="261.4" transform="matrix(-0.9547 0.2977 -0.2977 -0.9547 3240.3479 79.5626)" style="fill:#8CC152;" width="1" height="50.3"/>
		</g>
		<g>
			<path style="fill:none;stroke:#4E4B80;stroke-width:10;stroke-miterlimit:10;" d="M1721.7,348.5"/>
		</g>
		<g>
			<g>
				<path style="fill:#DA4453;" d="M1721.2,340.8h161l5,5h-166c-24.7,0-42.6-0.6-55.3-1.3c-7.5-2.3-14.8-4.6-21.5-6.9
					C1652.8,338.7,1675.3,340.8,1721.2,340.8z"/>
			</g>
			<g>
				<path style="fill:#DA4453;" d="M1721.2,347.5h133.2l-2.5,2.5h-130.7c-15.1,0-27.7-0.2-38.1-0.6c-3.4-0.9-6.9-1.9-10.3-2.9
					C1684.8,347.1,1700.7,347.5,1721.2,347.5z"/>
			</g>
		</g>
		<path style="fill:#E4E2D6;" d="M1945.9,341.5c0.1,0.3,0.2,0.7,0.2,1c-0.1,4.9-12.7,16-69.9,16h-144c-27,0-87.8-20.9-87.8-20.9
			s28.4,12.1,114.8,12.1C1938.4,349.8,1945.6,341.6,1945.9,341.5z"/>
		<g>
			<g>
				<path style="fill:#EDEDE6;" d="M1840.3,362.4c-24,3.4-34.6-0.3-41.2-2v-12c6.5-1.7,17.2-5.4,41.2-2V362.4z"/>
				<polygon style="fill:#C8C6BC;" points="1842.9,348.4 1842.9,350.4 1842.9,360.4 1840.3,362.4 1840.3,350.4 1840.3,346.4 				"/>
				<g>
					<polygon style="fill:#EDEDE6;" points="1799.1,359.5 1796.6,358.9 1796.6,350 1799.1,349.4 					"/>
					<g>
						<polygon style="fill:#EDEDE6;" points="1796.6,357.6 1788.8,355.7 1788.8,353.2 1796.6,351.3 						"/>
					</g>
				</g>
				<g>
					<path style="fill:#C8C6BC;" d="M1798.5,348.4c5.7-1.5,14.6-4.5,32.6-3l-17.9,17.9c-6.8-0.7-11.3-2.1-14.7-3L1798.5,348.4
						L1798.5,348.4z"/>
				</g>
			</g>
			<g>
				<path style="fill:#C8C6BC;" d="M1742,371.5l35.2-25.6c0,0,2-0.5,5.1-1.2l-37.5,26.8L1742,371.5L1742,371.5z"/>
				<path style="fill:#FFFEF0;" d="M1782.3,344.7c4.9-1,12.6-2.3,19.5-2.3c9,0,29.3,3,29.3,3l-66.9,26.2h-19.4L1782.3,344.7z"/>
			</g>
		</g>
		<g>
			<path style="fill:#3BAFDA;" d="M1927.9,328.5h-11.7c0,0-0.8,4,16.1,4L1927.9,328.5L1927.9,328.5z"/>
			<g>
				<g>
					<path style="fill:#54A2BD;" d="M1698.7,332.5c0,0.6,0.5,1,1,1h1c0.6,0,1-0.4,1-1v-2c0-0.6-0.4-1-1-1h-1c-0.5,0-1,0.4-1,1V332.5
						z"/>
				</g>
				<g>
					<path style="fill:#54A2BD;" d="M1706.7,332.5c0,0.6,0.5,1,1,1h1c0.6,0,1-0.4,1-1v-2c0-0.6-0.4-1-1-1h-1c-0.5,0-1,0.4-1,1V332.5
						z"/>
				</g>
				<g>
					<path style="fill:#54A2BD;" d="M1714.7,332.5c0,0.6,0.5,1,1,1h1c0.6,0,1-0.4,1-1v-2c0-0.6-0.4-1-1-1h-1c-0.5,0-1,0.4-1,1V332.5
						z"/>
				</g>
				<g>
					<path style="fill:#54A2BD;" d="M1722.7,332.5c0,0.6,0.5,1,1,1h1c0.6,0,1-0.4,1-1v-2c0-0.6-0.4-1-1-1h-1c-0.5,0-1,0.4-1,1V332.5
						z"/>
				</g>
				<g>
					<path style="fill:#54A2BD;" d="M1730.7,332.5c0,0.6,0.5,1,1,1h1c0.6,0,1-0.4,1-1v-2c0-0.6-0.4-1-1-1h-1c-0.5,0-1,0.4-1,1V332.5
						z"/>
				</g>
				<g>
					<path style="fill:#54A2BD;" d="M1738.7,332.5c0,0.6,0.5,1,1,1h1c0.6,0,1-0.4,1-1v-2c0-0.6-0.4-1-1-1h-1c-0.5,0-1,0.4-1,1V332.5
						z"/>
				</g>
				<g>
					<path style="fill:#54A2BD;" d="M1746.7,332.5c0,0.6,0.5,1,1,1h1c0.6,0,1-0.4,1-1v-2c0-0.6-0.4-1-1-1h-1c-0.5,0-1,0.4-1,1V332.5
						z"/>
				</g>
				<g>
					<path style="fill:#54A2BD;" d="M1754.7,332.5c0,0.6,0.5,1,1,1h1c0.6,0,1-0.4,1-1v-2c0-0.6-0.4-1-1-1h-1c-0.5,0-1,0.4-1,1V332.5
						z"/>
				</g>
				<g>
					<path style="fill:#54A2BD;" d="M1762.7,332.5c0,0.6,0.5,1,1,1h1c0.6,0,1-0.4,1-1v-2c0-0.6-0.4-1-1-1h-1c-0.5,0-1,0.4-1,1V332.5
						z"/>
				</g>
				<g>
					<path style="fill:#54A2BD;" d="M1770.7,332.5c0,0.6,0.5,1,1,1h1c0.6,0,1-0.4,1-1v-2c0-0.6-0.4-1-1-1h-1c-0.5,0-1,0.4-1,1V332.5
						z"/>
				</g>
				<g>
					<path style="fill:#54A2BD;" d="M1778.7,332.5c0,0.6,0.5,1,1,1h1c0.6,0,1-0.4,1-1v-2c0-0.6-0.4-1-1-1h-1c-0.5,0-1,0.4-1,1V332.5
						z"/>
				</g>
				<g>
					<path style="fill:#54A2BD;" d="M1786.7,332.5c0,0.6,0.5,1,1,1h1c0.6,0,1-0.4,1-1v-2c0-0.6-0.4-1-1-1h-1c-0.5,0-1,0.4-1,1V332.5
						z"/>
				</g>
				<g>
					<path style="fill:#54A2BD;" d="M1794.7,332.5c0,0.6,0.5,1,1,1h1c0.6,0,1-0.4,1-1v-2c0-0.6-0.4-1-1-1h-1c-0.5,0-1,0.4-1,1V332.5
						z"/>
				</g>
				<g>
					<path style="fill:#54A2BD;" d="M1802.7,332.5c0,0.6,0.5,1,1,1h1c0.6,0,1-0.4,1-1v-2c0-0.6-0.4-1-1-1h-1c-0.5,0-1,0.4-1,1V332.5
						z"/>
				</g>
				<g>
					<path style="fill:#54A2BD;" d="M1810.7,332.5c0,0.6,0.5,1,1,1h1c0.6,0,1-0.4,1-1v-2c0-0.6-0.4-1-1-1h-1c-0.5,0-1,0.4-1,1V332.5
						z"/>
				</g>
				<g>
					<path style="fill:#54A2BD;" d="M1818.7,332.5c0,0.6,0.5,1,1,1h1c0.6,0,1-0.4,1-1v-2c0-0.6-0.4-1-1-1h-1c-0.5,0-1,0.4-1,1V332.5
						z"/>
				</g>
				<g>
					<path style="fill:#54A2BD;" d="M1826.7,332.5c0,0.6,0.5,1,1,1h1c0.6,0,1-0.4,1-1v-2c0-0.6-0.4-1-1-1h-1c-0.5,0-1,0.4-1,1V332.5
						z"/>
				</g>
				<g>
					<path style="fill:#54A2BD;" d="M1834.7,332.5c0,0.6,0.5,1,1,1h1c0.6,0,1-0.4,1-1v-2c0-0.6-0.4-1-1-1h-1c-0.5,0-1,0.4-1,1V332.5
						z"/>
				</g>
				<g>
					<path style="fill:#54A2BD;" d="M1842.7,332.5c0,0.6,0.5,1,1,1h1c0.6,0,1-0.4,1-1v-2c0-0.6-0.4-1-1-1h-1c-0.5,0-1,0.4-1,1V332.5
						z"/>
				</g>
				<g>
					<path style="fill:#54A2BD;" d="M1850.7,332.5c0,0.6,0.5,1,1,1h1c0.6,0,1-0.4,1-1v-2c0-0.6-0.4-1-1-1h-1c-0.5,0-1,0.4-1,1V332.5
						z"/>
				</g>
				<g>
					<path style="fill:#54A2BD;" d="M1858.7,332.5c0,0.6,0.5,1,1,1h1c0.6,0,1-0.4,1-1v-2c0-0.6-0.4-1-1-1h-1c-0.5,0-1,0.4-1,1V332.5
						z"/>
				</g>
				<g>
					<path style="fill:#54A2BD;" d="M1866.7,332.5c0,0.6,0.5,1,1,1h1c0.6,0,1-0.4,1-1v-2c0-0.6-0.4-1-1-1h-1c-0.5,0-1,0.4-1,1V332.5
						z"/>
				</g>
				<g>
					<path style="fill:#54A2BD;" d="M1874.7,332.5c0,0.6,0.5,1,1,1h1c0.6,0,1-0.4,1-1v-2c0-0.6-0.4-1-1-1h-1c-0.5,0-1,0.4-1,1V332.5
						z"/>
				</g>
				<g>
					<path style="fill:#54A2BD;" d="M1882.7,332.5c0,0.6,0.5,1,1,1h1c0.6,0,1-0.4,1-1v-2c0-0.6-0.4-1-1-1h-1c-0.5,0-1,0.4-1,1V332.5
						z"/>
				</g>
			</g>
		</g>
		<path style="fill:#FFFEF0;" d="M1751.6,370.5c5.2,0.1,12.6,1,12.6,1s-7.4,0.9-12.6,1c-5.2,0.1-9.6-1-9.6-1
			S1746.3,370.4,1751.6,370.5z"/>
		<path style="fill:#FFFEF0;" d="M1600.5,334.1c3,0,7.3,0.6,7.3,0.6s-4.3,0.5-7.3,0.6c-3,0-5.6-0.6-5.6-0.6
			S1597.5,334.1,1600.5,334.1z"/>
		
			<rect x="1923.4" y="329.9" transform="matrix(0.4503 0.8929 -0.8929 0.4503 1353.8007 -1538.0895)" style="fill:#EDE3EB;" width="5.3" height="1"/>
		
			<rect x="1919.2" y="329.5" transform="matrix(0.144 0.9896 -0.9896 0.144 1971.2306 -1618.8685)" style="fill:#EDE3EB;" width="4.2" height="1"/>
		<circle style="fill:#E4E2D6;" cx="1905.5" cy="336.9" r="0.5"/>
		<circle style="fill:#E4E2D6;" cx="1688.6" cy="336.9" r="0.5"/>
	</g>
	<g id="torre">
		<g>
			<rect x="-93.1" y="113.5" style="fill:#FFFEF0;" width="362.5" height="2900"/>
			<rect x="-455.6" y="113.5" style="fill:#FFFEF0;" width="362.5" height="2900"/>
			<rect x="-368.5" y="113.5" style="fill:#E4E2D6;" width="543.8" height="2900"/>
		</g>
		<g>
			<polygon style="opacity:0.4;fill:#C8C6BC;enable-background:new    ;" points="-274.3,294.8 88.2,294.8 269.4,249.4 269.4,272.1 
				88.2,317.4 -274.3,317.4 -455.6,272.1 -455.6,249.4 			"/>
		</g>
		<polygon style="opacity:0.4;fill:#C8C6BC;enable-background:new    ;" points="273,249.4 -456.6,979 -456.6,198.3 269.4,198.3 		
			"/>
		<g>
			<rect x="-274.3" y="-67.7" style="fill:#FFFEF0;" width="362.5" height="362.5"/>
			<g>
				<g>
					<rect x="-104.4" y="-974" style="fill:#DA4453;" width="22.7" height="453.1"/>
				</g>
				<g>
					<rect x="-274.3" y="-452.9" style="fill:#E4E2D6;" width="362.5" height="45.3"/>
					<polygon style="fill:#FFFEF0;" points="-636.8,-317 -274.3,-407.6 -274.3,-452.9 -636.8,-362.3 -682.1,-351 -682.1,-305.6 
											"/>
					<polygon style="fill:#FFFEF0;" points="450.7,-317 496,-305.6 496,-351 450.7,-362.3 88.2,-452.9 88.2,-407.6 					"/>
				</g>
				<polygon style="fill:#E4E2D6;" points="88.2,294.8 450.7,204.1 450.7,-158.4 88.2,-67.7 				"/>
				<polygon style="fill:#E4E2D6;" points="-636.8,204.1 -274.3,294.8 -274.3,-67.7 -636.8,-158.4 				"/>
				<polygon style="fill:#E4E2D6;" points="88.2,-67.7 450.7,-158.4 450.7,-249 88.2,-158.4 				"/>
				<rect x="-274.3" y="-158.4" style="fill:#FFFEF0;" width="362.5" height="90.6"/>
				<polygon style="fill:#E4E2D6;" points="-636.8,-158.4 -274.3,-67.7 -274.3,-158.4 -636.8,-249 				"/>
				<polygon style="fill:#FFFEF0;" points="-274.3,-407.6 -636.8,-317 -636.8,-271.7 -274.3,-362.3 				"/>
				<rect x="-274.3" y="-407.6" style="fill:#FFFEF0;" width="362.5" height="45.3"/>
				<polygon style="fill:#FFFEF0;" points="450.7,-317 88.2,-407.6 88.2,-362.3 450.7,-271.7 				"/>
				<g>
					<polygon style="fill:#FFFEF0;" points="-636.8,-271.7 -682.1,-260.3 -682.1,-305.6 -636.8,-317 					"/>
				</g>
				<polygon style="fill:#E4E2D6;" points="496,-305.6 -682.1,-305.6 -274.3,-203.7 88.2,-203.7 				"/>
				<polygon style="fill:#FFFEF0;" points="-682.1,-305.6 496,-305.6 88.2,-407.6 -274.3,-407.6 				"/>
				<g>
					<polygon style="fill:#E4E2D6;" points="360.1,-305.6 88.2,-249 54.2,-611.5 					"/>
					<polygon style="fill:#FFFEF0;" points="54.2,-611.5 88.2,-249 -274.3,-249 -240.3,-611.5 					"/>
					<polygon style="fill:#E4E2D6;" points="-240.3,-611.5 -274.3,-249 -546.2,-305.6 					"/>
				</g>
				<g>
					<g>
						<rect x="-274.3" y="-249" style="fill:#DA4453;" width="362.5" height="45.3"/>
						<polygon style="fill:#BA3548;" points="-636.8,-339.6 -274.3,-249 -274.3,-203.7 -274.3,-158.4 -636.8,-249 -682.1,-260.3 
							-682.1,-305.6 -682.1,-351 						"/>
						<polygon style="fill:#ED5565;" points="450.7,-339.6 496,-351 496,-305.6 496,-260.3 450.7,-249 88.2,-158.4 88.2,-203.7 
							88.2,-249 						"/>
					</g>
				</g>
				<rect x="-274.3" y="-203.7" style="fill:#DA4453;" width="362.5" height="45.3"/>
				<polygon style="opacity:0.4;fill:#C8C6BC;enable-background:new    ;" points="88.2,-158.4 450.7,-249 450.7,-203.7 
					88.2,-113.1 -274.3,-113.1 -636.8,-203.7 -636.8,-249 -274.3,-158.4 				"/>
			</g>
		</g>
		<path style="fill:#FFFEF0;" d="M-115.7-974c0,12.5,10.1,22.7,22.7,22.7c12.5,0,22.7-10.1,22.7-22.7c0-12.5-10.1-22.7-22.7-22.7
			C-105.6-996.7-115.7-986.5-115.7-974z"/>
	</g>
</g>
<g id="contacts">
	<rect x="-2270.5" y="-25.5" style="fill:#E84D5B;" width="6910.6" height="445.5"/>
	<g id="email">
		<text transform="matrix(1 0 0 1 561.9998 76.2324)" style="fill:#F5ECD9; font-family:'Roboto-Thin'; font-size:18px;">albinotonnina@gmail.com</text>
		<path style="fill:#F5ECD9;" d="M543.7,77v-7.5c-0.2,0.2-0.4,0.4-0.7,0.6c-1.7,1.3-3.1,2.4-4.1,3.3c-0.3,0.3-0.6,0.5-0.8,0.6
			c-0.2,0.2-0.5,0.3-0.8,0.5c-0.4,0.2-0.7,0.2-1,0.2h0c-0.3,0-0.6-0.1-1-0.2c-0.4-0.2-0.6-0.3-0.8-0.5c-0.2-0.2-0.5-0.4-0.8-0.6
			c-1-0.9-2.4-1.9-4.1-3.3c-0.2-0.2-0.5-0.4-0.7-0.6V77c0,0.1,0,0.2,0.1,0.2c0.1,0.1,0.1,0.1,0.2,0.1h14.3c0.1,0,0.2,0,0.2-0.1
			C543.7,77.2,543.7,77.1,543.7,77L543.7,77z M543.7,66.8v-0.2c0,0,0,0,0-0.1c0-0.1,0-0.1,0-0.1c0,0,0,0-0.1-0.1
			c0-0.1,0-0.1-0.1-0.1c0,0-0.1,0-0.1,0h-14.3c-0.1,0-0.2,0-0.2,0.1c-0.1,0.1-0.1,0.1-0.1,0.2c0,1.1,0.5,2,1.4,2.8
			c1.2,1,2.5,2,3.9,3.1c0,0,0.1,0.1,0.3,0.3c0.2,0.2,0.3,0.3,0.4,0.4c0.1,0.1,0.3,0.2,0.4,0.3c0.2,0.1,0.3,0.2,0.5,0.3
			c0.1,0.1,0.3,0.1,0.4,0.1h0c0.1,0,0.3,0,0.4-0.1c0.1-0.1,0.3-0.1,0.5-0.3c0.2-0.1,0.3-0.2,0.4-0.3c0.1-0.1,0.3-0.2,0.4-0.4
			c0.2-0.2,0.3-0.2,0.3-0.3c1.4-1.1,2.6-2.1,3.9-3.1c0.4-0.3,0.7-0.7,1-1.1C543.5,67.6,543.7,67.2,543.7,66.8L543.7,66.8z
			 M544.9,66.5V77c0,0.4-0.2,0.8-0.5,1.1c-0.3,0.3-0.7,0.5-1.1,0.5h-14.3c-0.4,0-0.8-0.1-1.1-0.5c-0.3-0.3-0.5-0.7-0.5-1.1V66.5
			c0-0.4,0.2-0.8,0.5-1.1c0.3-0.3,0.7-0.5,1.1-0.5h14.3c0.4,0,0.8,0.2,1.1,0.5C544.8,65.7,544.9,66,544.9,66.5z"/>
	</g>
	<g id="linkedin">
		<text transform="matrix(1 0 0 1 560.821 113.1699)" style="fill:#F5ECD9; font-family:'Roboto-Thin'; font-size:18px;">LinkedIn profile</text>
		<path style="fill:#F5ECD9;" d="M530.4,113.4h2.8V105h-2.8V113.4z M533.4,102.4c0-0.4-0.2-0.8-0.4-1c-0.3-0.3-0.7-0.4-1.1-0.4
			s-0.9,0.1-1.1,0.4c-0.3,0.3-0.4,0.6-0.4,1c0,0.4,0.1,0.8,0.4,1c0.3,0.3,0.7,0.4,1.1,0.4h0c0.5,0,0.9-0.1,1.2-0.4
			C533.3,103.1,533.4,102.8,533.4,102.4L533.4,102.4z M540.5,113.4h2.8v-4.8c0-1.2-0.3-2.2-0.9-2.8c-0.6-0.6-1.4-1-2.3-1
			c-1.1,0-1.9,0.5-2.5,1.4h0V105h-2.8c0,0.5,0,3.3,0,8.4h2.8v-4.7c0-0.3,0-0.5,0.1-0.7c0.1-0.3,0.3-0.5,0.6-0.7
			c0.2-0.2,0.5-0.3,0.9-0.3c0.9,0,1.4,0.6,1.4,1.9L540.5,113.4L540.5,113.4z M546.2,101.3v11.7c0,1-0.3,1.8-1,2.5
			c-0.7,0.7-1.5,1-2.5,1H531c-1,0-1.8-0.3-2.5-1c-0.7-0.7-1-1.5-1-2.5v-11.7c0-1,0.3-1.8,1-2.5c0.7-0.7,1.5-1,2.5-1h11.7
			c1,0,1.8,0.3,2.5,1C545.9,99.5,546.2,100.3,546.2,101.3z"/>
	</g>
	<g id="l500px">
		<text transform="matrix(1 0 0 1 560.0374 186.9814)" style="fill:#F5ECD9; font-family:'Roboto-Thin'; font-size:18px;">Instagram</text>
		<path style="fill:#F5ECD9;" d="M535.4,178.2c0.8,0,1.4,0.3,2,0.8c0.5,0.5,0.8,1.2,0.8,2s-0.3,1.4-0.8,2c-0.5,0.5-1.2,0.8-2,0.8
			c-0.8,0-1.4-0.3-2-0.8c-0.5-0.5-0.8-1.2-0.8-2s0.3-1.4,0.8-2C534,178.5,534.7,178.2,535.4,178.2z M544,174.2
			c0.7,0,1.3,0.2,1.7,0.7c0.5,0.5,0.7,1.1,0.7,1.8v8.7c0,0.7-0.2,1.3-0.7,1.8c-0.5,0.5-1.1,0.7-1.7,0.7h-13.6
			c-0.7,0-1.3-0.2-1.8-0.7c-0.5-0.5-0.7-1.1-0.7-1.8v-8.7c0-0.7,0.2-1.3,0.7-1.8c0.5-0.5,1.1-0.7,1.8-0.7h2.2l0.5-1.3
			c0.1-0.3,0.3-0.6,0.7-0.8c0.3-0.2,0.7-0.3,1-0.3h4.9c0.3,0,0.7,0.1,1,0.3c0.3,0.2,0.6,0.5,0.7,0.8l0.5,1.3H544z M535.4,185.3
			c1.2,0,2.2-0.4,3.1-1.3c0.9-0.9,1.3-1.9,1.3-3.1c0-1.2-0.4-2.2-1.3-3.1c-0.8-0.9-1.9-1.3-3.1-1.3c-1.2,0-2.2,0.4-3.1,1.3
			c-0.9,0.8-1.3,1.9-1.3,3.1c0,1.2,0.4,2.2,1.3,3.1C533.2,184.9,534.2,185.3,535.4,185.3z"/>
	</g>
	<g id="contactresume">
		<path style="fill:#F5ECD9;" d="M541.7,145.6v0.9c0,0.1,0,0.2-0.1,0.3c-0.1,0.1-0.2,0.1-0.3,0.1h-9.6c-0.1,0-0.2,0-0.3-0.1
			c-0.1-0.1-0.1-0.2-0.1-0.3v-0.9c0-0.1,0-0.2,0.1-0.3c0.1-0.1,0.2-0.1,0.3-0.1h9.6c0.1,0,0.2,0,0.3,0.1
			C541.7,145.4,541.7,145.5,541.7,145.6z M541.7,142.1v0.9c0,0.1,0,0.2-0.1,0.3c-0.1,0.1-0.2,0.1-0.3,0.1h-9.6c-0.1,0-0.2,0-0.3-0.1
			c-0.1-0.1-0.1-0.2-0.1-0.3v-0.9c0-0.1,0-0.2,0.1-0.3c0.1-0.1,0.2-0.1,0.3-0.1h9.6c0.1,0,0.2,0,0.3,0.1
			C541.7,141.9,541.7,142,541.7,142.1z M529.6,150.4h13.9v-10.4h-5.7c-0.4,0-0.7-0.1-0.9-0.4c-0.3-0.3-0.4-0.6-0.4-0.9V133h-7
			L529.6,150.4L529.6,150.4z M538.3,138.2h5.1c-0.1-0.3-0.2-0.4-0.3-0.6l-4.3-4.3c-0.1-0.1-0.3-0.2-0.6-0.3L538.3,138.2L538.3,138.2
			z M545.2,138.6v12.2c0,0.4-0.1,0.7-0.4,0.9c-0.3,0.3-0.6,0.4-0.9,0.4h-14.8c-0.4,0-0.7-0.1-0.9-0.4c-0.3-0.3-0.4-0.6-0.4-0.9
			v-18.3c0-0.4,0.1-0.7,0.4-0.9c0.3-0.3,0.6-0.4,0.9-0.4h8.7c0.4,0,0.8,0.1,1.2,0.3c0.4,0.2,0.8,0.4,1,0.7l4.2,4.2
			c0.3,0.3,0.5,0.6,0.7,1C545.1,137.9,545.2,138.3,545.2,138.6L545.2,138.6z"/>
		<g>
			<text transform="matrix(1 0 0 1 561.6077 150.0439)" style="fill:#F5ECD9; font-family:'Roboto-Thin'; font-size:18px;">View resume</text>
		</g>
	</g>
	<text transform="matrix(1 0 0 1 522.6038 34.7188)" style="fill:#F5ECD9; font-family:'Roboto-Thin'; font-size:36px;">To stay connected:</text>
	<g id="rightside">
		<g>
			<text transform="matrix(1 0 0 1 1106.2288 314.8135)" style="fill:#F5ECD9; font-family:'Roboto-Thin'; font-size:18px;">copyright 2017 Albino Tonnina</text>
		</g>
		<text transform="matrix(1 0 0 1 1102.6038 34.7188)" style="fill:#F5ECD9; font-family:'Roboto-Thin'; font-size:36px;">This website:</text>
		<g id="githubsite">
			<path style="fill:#F5ECD9;" d="M1118.6,270c-0.1,0.1-0.3,0.1-0.5-0.1c-0.2-0.2-0.3-0.3-0.1-0.5c0.1-0.1,0.3-0.1,0.5,0.1
				C1118.7,269.7,1118.8,269.9,1118.6,270z M1117.6,268.5c0.2,0.2,0.2,0.4,0,0.5c-0.1,0.1-0.3,0-0.4-0.2c-0.1-0.2-0.1-0.4,0-0.5
				C1117.3,268.2,1117.4,268.2,1117.6,268.5z M1116,266.9c-0.1,0.1-0.2,0.1-0.3,0c-0.2-0.1-0.2-0.2-0.2-0.3c0-0.1,0.2-0.1,0.3,0
				C1116,266.7,1116.1,266.8,1116,266.9z M1116.8,267.8c-0.1,0.1-0.2,0.1-0.4-0.1c-0.1-0.2-0.2-0.3,0-0.4c0.1-0.1,0.2-0.1,0.4,0.1
				C1116.9,267.6,1116.9,267.7,1116.8,267.8z M1120.1,270.6c-0.1,0.2-0.2,0.3-0.5,0.2c-0.3-0.1-0.4-0.2-0.3-0.4
				c0.1-0.2,0.2-0.2,0.5-0.2C1120,270.3,1120.1,270.4,1120.1,270.6z M1121.7,270.8c0,0.2-0.1,0.3-0.4,0.3c-0.3,0-0.4-0.1-0.4-0.3
				c0-0.2,0.1-0.3,0.4-0.3C1121.5,270.5,1121.7,270.5,1121.7,270.8z M1123.1,270.5c0,0.2-0.1,0.3-0.4,0.4c-0.3,0.1-0.4,0-0.5-0.2
				c0-0.2,0.1-0.3,0.4-0.4C1122.9,270.2,1123.1,270.3,1123.1,270.5z M1147.6,246.3v24.2c0,2-0.7,3.7-2.1,5.1
				c-1.4,1.4-3.1,2.1-5.1,2.1h-5.7c-0.3,0-0.5,0-0.6,0c-0.1,0-0.3-0.1-0.5-0.1c-0.2-0.1-0.3-0.2-0.4-0.4c-0.1-0.2-0.1-0.4-0.1-0.7
				v-6c0-1.6-0.4-2.8-1.3-3.6c1-0.1,1.8-0.3,2.6-0.4c0.8-0.2,1.6-0.5,2.4-1c0.8-0.5,1.5-1,2-1.7c0.5-0.7,1-1.6,1.3-2.7
				c0.3-1.1,0.5-2.4,0.5-3.8c0-2-0.7-3.8-2-5.2c0.6-1.5,0.6-3.3-0.2-5.2c-0.5-0.1-1.2-0.1-2,0.3c-0.9,0.3-1.7,0.7-2.3,1.1l-1,0.6
				c-1.6-0.4-3.2-0.7-4.8-0.7c-1.7,0-3.3,0.2-4.8,0.7c-0.3-0.2-0.6-0.4-1.1-0.7c-0.4-0.3-1.1-0.6-2.1-1c-1-0.4-1.7-0.5-2.2-0.3
				c-0.7,1.9-0.8,3.6-0.2,5.2c-1.3,1.4-2,3.2-2,5.2c0,1.4,0.2,2.7,0.5,3.8c0.3,1.1,0.8,2,1.3,2.7c0.5,0.7,1.2,1.2,2,1.7
				c0.8,0.5,1.6,0.8,2.4,1c0.8,0.2,1.6,0.4,2.6,0.4c-0.7,0.6-1.1,1.5-1.2,2.6c-0.4,0.2-0.7,0.3-1.1,0.4c-0.4,0.1-0.9,0.1-1.4,0.1
				c-0.6,0-1.1-0.2-1.7-0.6c-0.6-0.4-1-0.9-1.4-1.6c-0.3-0.5-0.7-1-1.2-1.3c-0.5-0.3-0.9-0.5-1.2-0.6l-0.5-0.1c-0.4,0-0.6,0-0.7,0.1
				c-0.1,0.1-0.2,0.2-0.1,0.3c0,0.1,0.1,0.2,0.2,0.4c0.1,0.1,0.2,0.2,0.3,0.3l0.2,0.1c0.4,0.2,0.7,0.5,1.1,1
				c0.4,0.5,0.6,0.9,0.8,1.3l0.3,0.6c0.2,0.6,0.6,1.2,1.1,1.6c0.5,0.4,1.1,0.6,1.7,0.8c0.6,0.1,1.2,0.2,1.8,0.2c0.6,0,1,0,1.4-0.1
				l0.6-0.1c0,0.6,0,1.5,0,2.6c0,1.1,0,1.7,0,1.7c0,0.4-0.1,0.6-0.3,0.8c-0.2,0.2-0.4,0.3-0.6,0.3c-0.2,0-0.5,0-0.8,0h-5.7
				c-2,0-3.7-0.7-5.1-2.1c-1.4-1.4-2.1-3.1-2.1-5.1v-24.2c0-2,0.7-3.7,2.1-5.1c1.4-1.4,3.1-2.1,5.1-2.1h24.2c2,0,3.7,0.7,5.1,2.1
				C1146.9,242.6,1147.6,244.3,1147.6,246.3L1147.6,246.3z"/>
			<g>
				<text transform="matrix(1 0 0 1 1162.0549 265.4824)" style="fill:#F5ECD9; font-family:'Roboto-Thin'; font-size:18px;">has a public repository on GitHub.</text>
			</g>
		</g>
		<g>
			<path style="fill:#F5ECD9;" d="M1128,107c0-0.4-0.2-0.7-0.5-0.9l-8.8-5.1c-0.1-0.1-0.3-0.1-0.5-0.1c0,0-0.1,0-0.1,0
				c-0.2,0-0.3,0.1-0.5,0.1l-8.8,5.1c-0.3,0.2-0.5,0.5-0.5,0.9l0,13.7c0,0.2,0.1,0.4,0.3,0.5c0.2,0.1,0.4,0.1,0.5,0l5.2-3
				c0.3-0.2,0.5-0.5,0.5-0.9v-6.4c0-0.4,0.2-0.7,0.5-0.9l2.2-1.3c0.2-0.1,0.3-0.1,0.5-0.1c0.2,0,0.4,0,0.5,0.1l2.2,1.3
				c0.3,0.2,0.5,0.5,0.5,0.9v6.4c0,0.4,0.2,0.7,0.5,0.9l5.2,3c0.2,0.1,0.4,0.1,0.5,0c0.2-0.1,0.3-0.3,0.3-0.5L1128,107z"/>
			<path style="fill:#F5ECD9;" d="M1175.1,88.2c-0.2-0.1-0.4-0.1-0.5,0c-0.2,0.1-0.3,0.3-0.3,0.5v13.5c0,0.1-0.1,0.3-0.2,0.3
				c-0.1,0.1-0.3,0.1-0.4,0l-2.2-1.3c-0.3-0.2-0.7-0.2-1.1,0l-8.8,5.1c-0.3,0.2-0.5,0.5-0.5,0.9v10.2c0,0.4,0.2,0.7,0.5,0.9l8.8,5.1
				c0.3,0.2,0.7,0.2,1.1,0l8.8-5.1c0.3-0.2,0.5-0.5,0.5-0.9V92.1c0-0.4-0.2-0.7-0.5-0.9L1175.1,88.2z M1174.2,114.1
				c0,0.1-0.1,0.2-0.1,0.2l-3,1.7c-0.1,0-0.2,0-0.3,0l-3-1.7c-0.1,0-0.1-0.1-0.1-0.2v-3.5c0-0.1,0.1-0.2,0.1-0.2l3-1.7
				c0.1-0.1,0.2-0.1,0.3,0l3,1.7c0.1,0.1,0.1,0.1,0.1,0.2V114.1z"/>
			<path style="fill:#F5ECD9;" d="M1206.6,110.5c0.3-0.2,0.5-0.5,0.5-0.9v-2.5c0-0.4-0.2-0.7-0.5-0.9l-8.8-5.1
				c-0.3-0.2-0.7-0.2-1.1,0l-8.8,5.1c-0.3,0.2-0.5,0.5-0.5,0.9v10.2c0,0.4,0.2,0.7,0.5,0.9l8.8,5c0.3,0.2,0.7,0.2,1,0l5.3-2.9
				c0.2-0.1,0.3-0.3,0.3-0.5c0-0.2-0.1-0.4-0.3-0.5l-8.9-5.1c-0.2-0.1-0.3-0.3-0.3-0.5v-3.2c0-0.2,0.1-0.4,0.3-0.5l2.8-1.6
				c0.2-0.1,0.4-0.1,0.5,0l2.8,1.6c0.2,0.1,0.3,0.3,0.3,0.5v2.5c0,0.2,0.1,0.4,0.3,0.5c0.2,0.1,0.4,0.1,0.5,0L1206.6,110.5z"/>
			<path style="fill:#F5ECD9;" d="M1144,101.1c0.3-0.2,0.7-0.2,1.1,0l8.8,5.1c0.3,0.2,0.5,0.5,0.5,0.9v10.2c0,0.4-0.2,0.7-0.5,0.9
				l-8.8,5.1c-0.3,0.2-0.7,0.2-1.1,0l-8.8-5.1c-0.3-0.2-0.5-0.5-0.5-0.9v-10.2c0-0.4,0.2-0.7,0.5-0.9L1144,101.1z"/>
			<path style="fill:#F5ECD9;" d="M1223.8,123.4c-0.3,0-0.6-0.1-0.9-0.2l-2.8-1.6c-0.4-0.2-0.2-0.3-0.1-0.4c0.6-0.2,0.7-0.2,1.3-0.6
				c0.1,0,0.1,0,0.2,0l2.1,1.3c0.1,0,0.2,0,0.3,0l8.3-4.8c0.1,0,0.1-0.1,0.1-0.2v-9.6c0-0.1,0-0.2-0.1-0.2l-8.3-4.8
				c-0.1,0-0.2,0-0.3,0l-8.3,4.8c-0.1,0-0.1,0.1-0.1,0.2v9.6c0,0.1,0.1,0.2,0.1,0.2l2.3,1.3c1.2,0.6,2-0.1,2-0.8v-9.5
				c0-0.1,0.1-0.2,0.2-0.2h1.1c0.1,0,0.2,0.1,0.2,0.2v9.5c0,1.6-0.9,2.6-2.5,2.6c-0.5,0-0.9,0-1.9-0.5l-2.2-1.3
				c-0.5-0.3-0.9-0.9-0.9-1.5v-9.6c0-0.6,0.3-1.2,0.9-1.5l8.3-4.8c0.5-0.3,1.2-0.3,1.7,0l8.3,4.8c0.5,0.3,0.9,0.9,0.9,1.5v9.6
				c0,0.6-0.3,1.2-0.9,1.5l-8.3,4.8C1224.4,123.4,1224.1,123.4,1223.8,123.4z"/>
			<path style="fill:#F5ECD9;" d="M1226.3,116.8c-3.6,0-4.4-1.7-4.4-3.1c0-0.1,0.1-0.2,0.2-0.2h1.1c0.1,0,0.2,0.1,0.2,0.2
				c0.2,1.1,0.6,1.6,2.8,1.6c1.8,0,2.5-0.4,2.5-1.3c0-0.5-0.2-0.9-2.9-1.2c-2.3-0.2-3.7-0.7-3.7-2.5c0-1.7,1.4-2.7,3.8-2.7
				c2.7,0,4,0.9,4.2,2.9c0,0.1,0,0.1-0.1,0.2c0,0-0.1,0.1-0.2,0.1h-1.1c-0.1,0-0.2-0.1-0.2-0.2c-0.3-1.1-0.9-1.5-2.6-1.5
				c-1.9,0-2.1,0.7-2.1,1.2c0,0.6,0.3,0.8,2.8,1.1c2.6,0.3,3.8,0.8,3.8,2.6C1230.5,115.8,1229,116.8,1226.3,116.8z"/>
			<g>
				<path style="fill:#F5ECD9;" d="M1237.8,101v0.2h-0.7v1.8h-0.3v-1.8h-0.7V101H1237.8z"/>
				<path style="fill:#F5ECD9;" d="M1238,101h0.4l0.6,1.8l0.6-1.8h0.4v2.1h-0.3v-1.2c0,0,0-0.1,0-0.2c0-0.1,0-0.2,0-0.3l-0.6,1.7
					h-0.3l-0.6-1.7v0.1c0,0.1,0,0.1,0,0.2c0,0.1,0,0.2,0,0.2v1.2h-0.3L1238,101L1238,101L1238,101z"/>
			</g>
			<path style="fill:#F5ECD9;" d="M1197.2,110.1c0.1,0,0.1,0,0.2,0l1.7,1c0.1,0,0.1,0.1,0.1,0.2v2c0,0.1,0,0.1-0.1,0.2l-1.7,1
				c-0.1,0-0.1,0-0.2,0l-1.7-1c-0.1,0-0.1-0.1-0.1-0.2v-2c0-0.1,0-0.1,0.1-0.2L1197.2,110.1z"/>
		</g>
		<g>
			<path style="fill:#F5ECD9;" d="M1156,206.8v-11.7c0-0.8-0.6-1.2-1.3-1.2c-1.4,0-3.2,0.4-4.8,1.1v11.8h-3.3v-21.7h3.3v7.2
				c1.6-0.6,3.4-1.1,5.3-1.1c3,0,4.1,1.8,4.1,4.4v11.3L1156,206.8L1156,206.8z M1165.4,199.7c0.1,3.9,0.9,4.7,3.3,4.7
				c1.9,0,4-0.6,5.7-1.3l0.5,2.5c-1.8,0.8-3.9,1.6-6.5,1.6c-5.5,0-6.4-3-6.4-7.8c0-2.6,0.2-5,0.8-7.2c1.6-0.6,3.9-1,6.6-1
				c4.5,0,5.9,2.5,5.9,6.9v1.7L1165.4,199.7L1165.4,199.7z M1169.6,193.9c-1,0-2.6,0-3.8,0.3c-0.1,0.7-0.3,1.6-0.4,3.2h6.9
				C1172.2,195.2,1171.8,193.9,1169.6,193.9L1169.6,193.9z M1181.6,195v11.8h-3.3v-13.3c2.8-1.5,5.7-2,7.6-2.1v2.7
				C1184.6,194.3,1182.9,194.4,1181.6,195L1181.6,195z M1194.7,207.2c-4.9,0-7.1-2.4-7.1-7.9c0-5.9,2.9-8.1,7.1-8.1
				c4.9,0,7.1,2.4,7.1,7.9C1201.8,205,1198.9,207.2,1194.7,207.2L1194.7,207.2z M1194.7,193.9c-2.5,0-3.9,1.5-3.9,5.3
				c0,4.2,1.2,5.2,3.9,5.2c2.5,0,3.9-1.4,3.9-5.3C1198.6,194.9,1197.4,193.9,1194.7,193.9L1194.7,193.9z M1217.8,206.8h-3.9
				c-0.9-2.4-2.2-4.9-4.1-7h-1.7v7h-3.3v-21.7h3.3v12.5h1.5c1.7-1.7,3-3.9,3.9-6h3.7c-1.3,2.6-2.9,4.8-4.7,6.6
				C1214.6,201,1216.3,203.9,1217.8,206.8L1217.8,206.8z M1223.9,207.2c-3,0-4.1-1.8-4.1-4.4v-11.3h3.3v11.7c0,0.8,0.6,1.2,1.3,1.2
				c1.4,0,3.4-0.4,5-1.1v-11.8h3.3v13.2C1228.8,207,1225.8,207.2,1223.9,207.2L1223.9,207.2z"/>
			<path style="fill:#F5ECD9;" d="M1135.7,214.9h-23c-2,0-3.6-1.6-3.6-3.6v-30.2c0-2,1.6-3.6,3.6-3.6h23c2,0,3.6,1.6,3.6,3.6v30.2
				C1139.3,213.3,1137.7,214.9,1135.7,214.9L1135.7,214.9z M1138.1,181.3c0-1.4-1.1-2.5-2.5-2.5H1113c-1.4,0-2.5,1.1-2.5,2.5v29.8
				c0,1.4,1.1,2.5,2.5,2.5h22.6c1.4,0,2.5-1.1,2.5-2.5L1138.1,181.3L1138.1,181.3z"/>
			<path style="fill:#F5ECD9;" d="M1128.1,209.7v-14.8c0,0,1-3.5-11.9,1.5c0,0.1,0-13.7,0-13.7l4.2,0v8.8c0,0,11.7-4.6,11.7,3.5
				c0,8.1,0,14.8,0,14.8L1128.1,209.7L1128.1,209.7z M1130.5,188c0,0-4.4,0-4.4,0c1.6-2,3-5.3,3-5.3h4.6
				C1133.7,182.7,1132.9,184.9,1130.5,188L1130.5,188z M1116.3,209.7v-8.4l4.2,4.2L1116.3,209.7L1116.3,209.7z"/>
		</g>
		<text transform="matrix(1 0 0 1 1107.3596 77.0059)" style="fill:#F5ECD9; font-family:'Roboto-Thin'; font-size:18px;">is powered by:</text>
		<text transform="matrix(1 0 0 1 1109.219 162.5176)" style="fill:#F5ECD9; font-family:'Roboto-Thin'; font-size:18px;">is hosted on:</text>
	</g>
</g>
<g id="ownership">
	<text transform="matrix(1 0 0 1 522.6038 -245.6992)" style="fill:#2BACB5; font-family:'Roboto-Thin'; font-size:36px;">Reliable and friendly :)</text>
</g>
<g id="leaving">
	<text transform="matrix(1 0 0 1 522.6038 -185.7529)" style="fill:#F5ECD9; font-family:'Roboto-Thin'; font-size:36px;">I&apos;m leaving Italy and looking for a development position </text>
	<text transform="matrix(1 0 0 1 522.6038 -145.8057)" style="fill:#F5ECD9; font-family:'Roboto-Thin'; font-size:36px;">within the EU with a forward thinking IT company </text>
	<text transform="matrix(1 0 0 1 522.6038 -105.8584)" style="fill:#F5ECD9; font-family:'Roboto-Thin'; font-size:36px;">where I can continue to grow.</text>
</g>
<text id="passionate" transform="matrix(1 0 0 1 522.6038 -305.6465)" style="fill:#E84D5B; font-family:'Roboto-Thin'; font-size:36px;">I’m passionate about my job.</text>
<g id="thankyouforscrolling">
	<text transform="matrix(1 0 0 1 522.6038 -48.6553)" style="fill:#2BACB5; font-family:'Roboto-Thin'; font-size:36px;">Thank you for scrolling this far :)</text>
</g>
<g id="planebig">
	<g>
		<path style="fill:#FFFEF0;" d="M-3848.4-759c24.9,0.3,59.8,4.7,59.8,4.7s-34.9,4.4-59.8,4.8c-24.9,0.3-45.6-4.8-45.6-4.8
			S-3873.3-759.3-3848.4-759z"/>
		<g>
			<g>
				<g>
					<path style="fill:#C8C6BC;" d="M-3894-754.2l239,174.1c0,0,13.7,3.6,35,8.1l-254.6-182.2L-3894-754.2L-3894-754.2z"/>
					<path style="fill:#FFFEF0;" d="M-3620-572c33.5,6.9,85.7,15.9,132.3,15.9c60.8,0,198.8-20.3,198.8-20.3l-501.5-177.7h-84.2
						L-3620-572z"/>
				</g>
			</g>
		</g>
		<path style="opacity:0.4;fill:#BCBAD0;enable-background:new    ;" d="M-3894-754.2c0,0,20.7-5.1,45.6-4.7
			c24.9,0.3,59.8,4.7,59.8,4.7s-0.5,0.1-1.5,0.2l501.2,177.6c0,0-137.9,20.3-198.7,20.3c-46.8,0-99-8.9-132.4-15.9
			c-21.3-4.4-35-8.1-35-8.1L-3894-754.2l0.2,0C-3893.9-754.2-3894-754.2-3894-754.2z"/>
	</g>
	<g>
		<g>
			<g>
				<path style="fill:#C8C6BC;" d="M-2165.3-615.4l390.2,284.2c0,0,22.4,5.9,57.2,13.1l-415.6-297.2L-2165.3-615.4L-2165.3-615.4z"
					/>
				<path style="fill:#FFFEF0;" d="M-1717.9-318.1c54.7,11.3,139.8,25.9,216.1,25.9c99.3,0,324.4-33.2,324.4-33.2l-818.8-290.1
					h-137.4L-1717.9-318.1z"/>
			</g>
		</g>
		<polygon style="opacity:0.4;fill:#BCBAD0;enable-background:new    ;" points="-1570.4,-464.9 -2027.2,-514.8 -1960.4,-464.9 		
			"/>
	</g>
	<g>
		<path id="carlinga_1_" style="fill:#FFFEF0;" d="M-3520.5-799.2l147.2,201.3l532,133h1950.7c0,0,437.8-24,573.4,66.5l48,44.3
			c0,0,133.2,50.4,151.3,99.8c1.4,3.7,2.1,7.4,2.1,11.1c-0.7,53.8-140.4,177.3-774.9,177.3h-1596c-118.5,0-283.3-33.5-463.9-80.1
			c-422.9-109.4-907.7-292.1-907.7-292.1v-95l95.8-23.3l-63.5-242.7L-3520.5-799.2L-3520.5-799.2z"/>
		<polygon style="fill:#FFFEF0;" points="-3912.5,-1129.9 -3762.3,-1129.9 -3615,-928.5 -3859.7,-928.5 		"/>
		<g>
			<polygon style="fill:#FFFEF0;" points="-3782.2,-799.2 -3825.9,-799.2 -3859.7,-928.5 -3822.2,-928.5 			"/>
			<polygon style="fill:#8CC152;" points="-3615,-928.5 -3520.5,-799.2 -3782.2,-799.2 -3822.2,-928.5 			"/>
		</g>
	</g>
	<g>
		<polygon style="fill:#C8C6BC;" points="-3438.6,-496.4 -3590.8,-341.7 -3732.1,-391.7 		"/>
		<g>
			<path style="fill:#C8C6BC;" d="M-4007.5-329.3l224.7-163.7c0,0,12.9-3.5,32.9-7.6l-239.3,171.2L-4007.5-329.3L-4007.5-329.3z"/>
			<path style="fill:#FFFEF0;" d="M-3750-500.5c31.6-6.5,80.6-14.9,124.5-14.9c57.2,0,186.8,19.1,186.8,19.1l-427.1,167h-123.5
				L-3750-500.5z"/>
		</g>
	</g>
	<g>
		<polygon style="fill:#8CC152;" points="-3708,-599.2 -3718.6,-595.9 -3884.2,-1127.8 -3873.7,-1131.1 		"/>
	</g>
	<g>
		<path style="fill:none;stroke:#4E4B80;stroke-width:10;stroke-miterlimit:10;" d="M-2603.1-176.7"/>
	</g>
	<g id="worksharelogo">
		<g>
			<path style="fill:#00ADEF;" d="M-2608.6-261.7l1768.4-37.6l71.4,93h-1839.8c-273.7,0-472.2-6.7-612.5-14.8
				c-83-25.2-163.8-51.3-238.6-76.1C-3367-285.4-3117.2-261.7-2608.6-261.7z"/>
		</g>
		<g>
			<path style="fill:#00ADEF;" d="M-2608.6-187.2h1475.9l-27.7,27.7h-1448.2c-167.6,0-306.9-2.5-421.9-6.3
				c-38.1-10.4-76.3-21.3-114.3-32.4C-3011.6-191.9-2835.9-187.2-2608.6-187.2z"/>
		</g>
		<g id="workshare">
			<path style="fill:#FFFFFF;" d="M-1134.4-260.6c0-4.2,0-8.3,0-12.5c0-5.2,4-9.3,9.3-9.2c3.3,0.1,6.6,0.5,9.9,0.9
				c7.5,0.8,14.9,1.7,22.4,2.4c5.3,0.4,8.3,4.5,8,8.5c-0.1,0.7,0,1.4,0,2.1c0,1.6-1,2.7-2.4,2.7c-1.4,0.1-2.7-1-2.8-2.5
				c-0.1-0.9,0-1.8-0.1-2.7c0-1.2-0.5-1.8-1.8-2c-3.2-0.3-6.4-0.5-9.6-0.7c-7.2-0.5-14.3-1-21.5-1.5c-2.5-0.2-3.3,0.6-3.3,3.1
				c0,7.8,0,15.7,0.1,23.5c0,2,0.9,2.9,3,2.7c8.8-0.7,17.6-1.4,26.4-2c1.5-0.1,2.9-0.2,4.4-0.3c1.9-0.1,2.4-0.6,2.4-2.5
				c0-0.6,0-1.2,0-1.9c0.1-1.6,1.2-2.9,2.7-2.9c1.4,0,2.6,1,2.6,2.8c0,1.7,0.1,3.5-0.4,5.1c-1,3.2-3.3,5-6.7,5.4
				c-8.8,1-17.6,2-26.4,3c-2,0.2-3.9,0.5-5.9,0.6c-5.2,0.2-9.5-3.1-10.1-8c-0.2-1.7-0.1-3.4-0.1-5.2
				C-1134.4-254.7-1134.4-257.7-1134.4-260.6z"/>
			<path style="fill:#FFFFFF;" d="M-1067.2-243.2c0,4.1-0.1,8.2,0,12.3c0.2,6.5-5.6,10.1-11.1,9.5c-8.7-1-17.4-1.9-26.1-2.8
				c-2-0.2-4-0.4-5.9-0.6c-3.5-0.5-6.4-3.6-6.6-7c-0.1-1.1-0.1-2.3,0-3.4c0-1.5,1.1-2.7,2.5-2.7c1.3-0.1,2.6,1,2.8,2.5
				c0.1,0.9,0.1,1.9,0.1,2.8c0,1.2,0.6,1.9,1.8,2c4.8,0.4,9.6,0.7,14.4,1c5.4,0.4,10.8,0.8,16.2,1.2c0.5,0,0.9,0.1,1.4,0.1
				c1.4,0,2.4-1,2.4-2.3c0-8.3,0-16.5-0.1-24.8c0-1.5-1.2-2.5-2.7-2.4c-8.2,0.6-16.3,1.3-24.5,1.9c-2.3,0.2-4.5,0.4-6.8,0.5
				c-1.5,0.1-2.1,0.7-2.1,2.2c0,0.7,0,1.4,0,2.2c-0.1,1.6-1.2,2.8-2.6,2.9c-1.5,0.1-2.6-0.9-2.7-2.7c-0.2-2.6-0.2-5.2,1.6-7.5
				c1.8-2.3,4.3-3,7-3.3c9-1,18.1-2,27.1-3c2.5-0.3,5-0.7,7.5,0.1c4,1.3,6.5,4.6,6.5,8.8C-1067.3-251.6-1067.3-247.4-1067.2-243.2
				C-1067.3-243.2-1067.2-243.2-1067.2-243.2z"/>
			<path style="fill:#FFFFFF;" d="M-1043.7-244.7c1.7-6.2,3.3-12.1,4.9-18c0.2-0.8,0.4-1.5,0.7-2.3c0.8-2.2,2.3-3.4,4.3-3.4
				c2.1,0,3.6,1.1,4.3,3.4c0.8,2.6,1.5,5.2,2.2,7.7c1.1,4.1,2.2,8.1,3.5,12.2c0.5-2.1,1-4.2,1.5-6.2c1.1-4.6,2.1-9.2,3.2-13.9
				c0.3-1.2,0.6-2.4,2-3c2.3-1,4.8,0.6,4.5,3.1c-0.4,2.6-1.1,5.2-1.7,7.8c-1.5,6-3,11.9-4.5,17.9c-0.2,0.7-0.4,1.4-0.6,2.1
				c-0.8,2.1-1.9,3-3.9,3c-1.9,0-3.3-0.8-4-2.9c-0.8-2.4-1.5-4.9-2.2-7.3c-1.3-4.7-2.6-9.3-3.8-14c-0.1-0.3-0.2-0.5-0.4-1.1
				c-0.7,2.6-1.4,4.9-2,7.3c-1.2,4.4-2.4,8.8-3.7,13.2c-0.2,0.6-0.3,1.2-0.6,1.8c-0.8,2.1-2.1,3.1-4.1,3c-2,0-3.3-0.9-3.9-3.1
				c-1.1-3.9-2.1-7.8-3-11.7c-1.2-4.5-2.3-9.1-3.4-13.6c-0.2-0.8-0.3-1.5-0.4-2.3c-0.2-1.7,0.8-3.1,2.5-3.4c1.6-0.4,3.1,0.3,3.6,2
				c0.7,2.3,1.2,4.6,1.7,6.9c1.1,4.6,2.1,9.1,3.2,13.7C-1044-245.4-1043.9-245.2-1043.7-244.7z"/>
			<path style="fill:#FFFFFF;" d="M-916.4-255.6c0.4-0.4,0.7-0.6,0.9-0.8c2.8-2.8,6.1-3.4,9.8-2.3c3.3,1,5.2,3.6,5.3,7.6
				c0.1,4.5,0.1,9,0,13.5c0,2.6-1.6,3.8-3.9,3.4c-1.5-0.3-2.3-1.3-2.3-3.1c-0.1-3.8,0-7.6-0.1-11.4c0-0.5,0-1-0.1-1.5
				c-0.3-2.5-1.3-3.7-3.2-4.1c-2.1-0.4-4.6,0.6-5.5,2.5c-0.6,1.3-0.9,2.8-0.9,4.3c-0.1,3.1-0.1,6.2-0.1,9.3c0,0.5,0,1-0.1,1.5
				c-0.4,1.7-1.4,2.6-3,2.5c-1.7,0-2.6-0.8-3-2.6c-0.1-0.5-0.1-1.1-0.1-1.6c0-8.7,0-17.3,0-26c0-0.5,0-1,0.1-1.5
				c0.3-1.5,1.3-2.4,2.9-2.4c1.6,0,2.7,0.9,3,2.4c0.1,0.6,0.2,1.3,0.2,1.9C-916.4-261.2-916.4-258.5-916.4-255.6z"/>
			<path style="fill:#FFFFFF;" d="M-962.6-250.2c2.8-2.6,5.6-5.1,8.3-7.7c0.9-0.8,1.8-1.4,3.1-1.2c1.9,0.3,2.9,2.2,1.8,3.7
				c-0.9,1.3-2.1,2.3-3.2,3.4c-0.7,0.7-1.4,1.3-2.2,2c0.2,0.3,0.4,0.7,0.6,1c2,3.1,4,6.1,5.9,9.2c0.3,0.5,0.6,1,0.9,1.5
				c0.6,1.4,0.2,2.9-1,3.7c-1.2,0.8-2.9,0.6-3.9-0.5c-0.5-0.5-0.8-1.1-1.2-1.7c-1.8-3-3.7-5.9-5.6-9c-1.1,1-2.2,2-3.2,3
				c-0.2,0.2-0.2,0.6-0.2,0.9c0,1.6,0.1,3.2-0.1,4.8c-0.2,2.5-2.7,3.7-4.9,2.4c-0.9-0.5-1.2-1.3-1.3-2.2c-0.1-0.6-0.1-1.2-0.1-1.8
				c0-8.6,0-17.2,0-25.8c0-2.3,0.8-3.4,2.6-3.8c1.7-0.4,3.1,0.5,3.4,2.2c0.1,0.7,0.2,1.4,0.2,2.1c0,4.3,0,8.7,0,13c0,0.3,0,0.7,0,1
				C-962.5-250-962.6-250.1-962.6-250.2z"/>
			<path style="fill:#FFFFFF;" d="M-881.1-237.4c-0.9,0.5-1.7,1.2-2.7,1.7c-3,1.7-6.2,2.1-9.6,1.1c-2.9-0.9-4.7-3.2-4.9-6.1
				c-0.2-2.8,1.2-5.2,4.1-6.3c2.3-0.9,4.7-1.3,7.1-1.9c1.8-0.4,3.6-0.8,5.4-1.2c0.4-2.9-1-4.7-3.9-4.8c-0.8,0-1.6,0.1-2.4,0.2
				c-1.7,0.3-3.1,1.1-3.9,2.7c-0.6,1.2-1.4,2-2.9,1.8c-1.6-0.1-2.5-1.3-2.4-2.8c0.2-1.4,0.9-2.6,2-3.5c1.3-1.2,2.8-2,4.5-2.3
				c3.1-0.6,6.2-0.6,9.3,0.1c4,0.9,5.9,3.1,6,7.2c0.1,2.7,0,5.4-0.1,8c0,1.7,0.3,3.4,0.8,5.1c0.3,0.9,0.4,2,0.1,2.8
				c-0.6,1.6-2.9,2-4.3,0.8C-879.6-235.6-880.3-236.5-881.1-237.4z M-881.5-246.3c-2,0.4-3.9,0.9-5.8,1.3c-0.8,0.2-1.7,0.5-2.5,0.8
				c-1.5,0.6-2.1,1.5-2.1,2.8c0.1,1.4,1.1,2.6,2.4,3c3.6,1.1,7.5-1.4,7.9-5.1C-881.4-244.4-881.5-245.3-881.5-246.3z"/>
			<path style="fill:#FFFFFF;" d="M-849.2-245.1c0.1,2.5,0.8,4.6,2.9,5.9c2.2,1.4,4.6,1.3,6.8,0c1-0.5,1.7-1.4,2.6-2
				c0.7-0.5,1.4-1.1,2.2-1.3c1.8-0.5,3,0.9,2.4,2.7c-0.6,1.7-1.8,2.9-3.2,3.8c-3.1,2-6.6,2.2-10.2,1.7c-7.1-1-9.6-6.2-9.9-11.2
				c-0.2-3.7,0.5-7.2,3.1-10.1c2.9-3.1,6.6-3.8,10.6-3.4c5.3,0.5,9,3.8,9.9,8.9c0.6,3.4-0.7,5-4.2,5.1c-3.9,0-7.9,0-11.8,0
				C-848.3-245.1-848.7-245.1-849.2-245.1z M-837.9-248.8c0-3.7-2.4-6.2-5.7-6.1c-3.1,0.1-5.6,2.9-5.4,6.1
				C-845.3-248.8-841.6-248.8-837.9-248.8z"/>
			<path style="fill:#FFFFFF;" d="M-1001.1-234.1c-7.9,0.1-12.8-4.6-13-12.2c-0.2-6.6,3.6-12.3,11.5-12.8c7.5-0.5,13,4,13.5,11.1
				C-988.5-240.3-993-234.3-1001.1-234.1z M-995.1-246.7c-0.4-1.6-0.7-3.2-1.3-4.7c-0.9-2.1-2.7-3.1-5-3.1c-2.3,0-4.1,1-5.1,3
				c-1.6,3.2-1.6,6.5,0,9.8c1,2.2,2.9,3.1,5.4,3c2.3-0.1,4-1.2,4.9-3.3C-995.8-243.5-995.5-245.1-995.1-246.7z"/>
			<path style="fill:#FFFFFF;" d="M-936.3-234.1c-2.2,0-5.3-0.3-7.9-2.4c-1.2-0.9-2-2.1-2.3-3.6c-0.3-1.3,0.3-2.4,1.4-2.9
				c1.1-0.5,2.4-0.2,3.2,0.8c0.3,0.3,0.5,0.7,0.7,1c1.7,2.6,4.6,3.6,7.5,2.7c1.4-0.4,2.3-1.3,2.4-2.5c0.1-1.2-0.5-2.1-2-2.7
				c-1.3-0.5-2.7-0.8-4.1-1.2c-1.8-0.6-3.7-1.1-5.4-1.9c-5.2-2.6-4-8.4-0.4-10.8c2.5-1.6,5.3-1.8,8.1-1.7c2.3,0.1,4.4,0.6,6.3,2
				c0.8,0.6,1.6,1.5,2.1,2.4c0.7,1.2,0.4,2.5-0.5,3.2c-0.9,0.7-2.4,0.8-3.4,0.1c-0.7-0.5-1.2-1.1-1.8-1.7c-1.6-1.9-4.7-2.6-6.9-1.2
				c-0.6,0.3-1,1.1-1.2,1.8c-0.2,0.8,0.4,1.5,1.2,1.8c1.6,0.6,3.3,1.1,4.9,1.6c1.8,0.6,3.7,1.1,5.5,1.9c2.1,1,3.7,2.5,3.8,5
				c0.1,2.8-0.9,5.1-3.4,6.6C-930.6-234.6-933-234.2-936.3-234.1z"/>
			<path style="fill:#FFFFFF;" d="M-980.6-255.6c0.2-0.3,0.3-0.5,0.4-0.6c2.2-3.3,6.1-4,9.4-1.6c1.2,0.9,1.6,2.1,1,3.3
				c-0.6,1.2-1.7,1.7-3.3,1.3c-1.1-0.3-2.3-0.6-3.5-0.6c-1.5,0-2.6,1-2.9,2.4c-0.5,2.1-0.9,4.3-1,6.5c-0.2,2.5,0,5-0.1,7.4
				c0,2.4-1.9,3.8-4,3.2c-1.3-0.4-2.1-1.3-2.2-2.8c-0.1-1,0-1.9,0-2.9c0-5,0-10,0-15c0-0.5,0-1,0.1-1.5c0.3-1.9,1.3-2.7,3.1-2.7
				c1.7,0,2.6,0.9,2.9,2.8C-980.6-256.2-980.6-256-980.6-255.6z"/>
			<path style="fill:#FFFFFF;" d="M-865.8-255.7c0.2-0.2,0.2-0.2,0.3-0.3c2.3-3.4,6-4.1,9.4-1.9c1.3,0.9,1.7,2.2,1.1,3.4
				c-0.6,1.2-1.8,1.7-3.3,1.3c-0.7-0.2-1.5-0.4-2.2-0.5c-1.9-0.3-3.4,0.4-4.1,2.2c-0.5,1.5-0.9,3.2-1,4.8c-0.2,3.2-0.1,6.4-0.2,9.6
				c-0.1,1.8-1.4,3-3,3c-1.7,0-3-1.1-3.1-3c-0.1-2.2-0.1-4.3-0.1-6.5c0-3.9,0-7.7,0-11.6c0-0.5,0-1,0.1-1.5c0.3-1.6,1.3-2.4,2.9-2.5
				c1.7,0,2.6,0.7,3,2.4C-865.9-256.5-865.9-256.2-865.8-255.7z"/>
			<path style="fill:#FFFFFF;" d="M-825.2-256.7c0,1.6-1.2,2.7-2.8,2.7c-1.6,0-2.9-1.2-2.9-2.8c0-1.6,1.3-2.8,2.9-2.8
				C-826.4-259.6-825.2-258.3-825.2-256.7z M-825.8-256.8c0-1.2-0.9-2.2-2.2-2.2c-1.2,0-2.2,1-2.2,2.1c0,1.2,1,2.2,2.2,2.2
				C-826.8-254.6-825.8-255.6-825.8-256.8z"/>
			<path style="fill:#FFFFFF;" d="M-828.5-256.7c0.6,0.6,1.1,1.1,1.6,1.5c0.1-0.1,0.2-0.1,0.3-0.2c-0.2-0.4-0.4-0.8-0.6-1.2
				c0.1,0,0.2,0,0.3,0c0-0.4,0.2-1.2,0-1.3c-0.7-0.3-1.5-0.4-2.2-0.5c0,1.3,0,2.2,0,3.2c0.1,0,0.2,0,0.3,0
				C-828.6-255.6-828.6-256.1-828.5-256.7z"/>
			<path style="fill:#FFFFFF;" d="M-828.5-256.7c-0.1,0.6-0.2,1.1-0.3,1.5c-0.1,0-0.2,0-0.3,0c0-1,0-1.9,0-3.2
				c0.7,0.1,1.5,0.2,2.2,0.5c0.1,0.1,0,0.8,0,1.3c-0.1,0-0.2,0-0.3,0c0.2,0.4,0.4,0.8,0.6,1.2c-0.1,0.1-0.2,0.1-0.3,0.2
				C-827.4-255.7-827.9-256.2-828.5-256.7z"/>
		</g>
	</g>
	<path style="fill:#E4E2D6;" d="M-117.8-254.3c1.4,3.7,2.1,7.4,2.1,11.1c-0.7,53.8-140.4,177.3-774.9,177.3h-1596
		c-299.3,0-973-231.3-973-231.3s314.8,134.6,1272.3,134.6C-201.7-162.6-121.5-253.4-117.8-254.3z"/>
	<g>
		<g>
			<path style="fill:#EDEDE6;" d="M-1288.8-22.1c-265.6,37.4-383.6-3-456.2-22.2v-133c72.5-19.2,190.6-59.6,456.2-22.2V-22.1z"/>
			<polygon style="fill:#C8C6BC;" points="-1260.2,-177.3 -1260.2,-155.1 -1260.2,-44.3 -1288.8,-22.1 -1288.8,-155.1 
				-1288.8,-199.4 			"/>
			<g>
				<polygon style="fill:#EDEDE6;" points="-1744.9,-54.4 -1773.5,-61.5 -1773.5,-160.1 -1744.9,-167.1 				"/>
				<g>
					<polygon style="fill:#EDEDE6;" points="-1773.5,-75.6 -1859,-96.7 -1859,-124.9 -1773.5,-146 					"/>
				</g>
			</g>
			<g>
				<path style="fill:#C8C6BC;" d="M-1752-177.3c63.3-16.7,161.4-49.6,361.6-32.9l-198.8,198.9c-75.7-7.6-125.3-23.1-162.7-33
					V-177.3L-1752-177.3z"/>
			</g>
		</g>
		<g>
			<path style="fill:#C8C6BC;" d="M-2378.2,78.2l390.2-284.3c0,0,22.4-5.9,57-13.1l-415.6,297.4L-2378.2,78.2L-2378.2,78.2z"/>
			<path style="fill:#FFFEF0;" d="M-1930.9-219.2c54.7-11.3,139.9-25.9,216.1-25.9c99.3,0,324.4,33.1,324.4,33.1L-2132,78.2h-214.5
				L-1930.9-219.2z"/>
		</g>
	</g>
	<g>
		<path style="fill:#00ADEF;" d="M-317.3-398.4h-130.1c0,0-9.4,44.3,178.1,44.3L-317.3-398.4L-317.3-398.4z"/>
		<g>
			<g>
				<path style="fill:#00ADEF;" d="M-2858-354.1c0,6.1,5,11.1,11.1,11.1h11.1c6.1,0,11.1-5,11.1-11.1v-22.2
					c0-6.2-4.9-11.1-11.1-11.1h-11.1c-6.1,0-11.1,4.9-11.1,11.1V-354.1z"/>
			</g>
			<g>
				<path style="fill:#00ADEF;" d="M-2769.3-354.1c0,6.1,5,11.1,11.1,11.1h11.1c6.1,0,11.1-5,11.1-11.1v-22.2
					c0-6.2-4.9-11.1-11.1-11.1h-11.1c-6.1,0-11.1,4.9-11.1,11.1V-354.1z"/>
			</g>
			<g>
				<path style="fill:#00ADEF;" d="M-2680.6-354.1c0,6.1,5,11.1,11.1,11.1h11.1c6.1,0,11.1-5,11.1-11.1v-22.2
					c0-6.2-4.9-11.1-11.1-11.1h-11.1c-6.1,0-11.1,4.9-11.1,11.1V-354.1z"/>
			</g>
			<g>
				<path style="fill:#00ADEF;" d="M-2592-354.1c0,6.1,5,11.1,11.1,11.1h11.1c6.1,0,11.1-5,11.1-11.1v-22.2
					c0-6.2-4.9-11.1-11.1-11.1h-11.1c-6.1,0-11.1,4.9-11.1,11.1V-354.1z"/>
			</g>
			<g>
				<path style="fill:#00ADEF;" d="M-2503.3-354.1c0,6.1,5,11.1,11.1,11.1h11.1c6.1,0,11.1-5,11.1-11.1v-22.2
					c0-6.2-4.9-11.1-11.1-11.1h-11.1c-6.1,0-11.1,4.9-11.1,11.1V-354.1z"/>
			</g>
			<g>
				<path style="fill:#00ADEF;" d="M-2414.6-354.1c0,6.1,5,11.1,11.1,11.1h11.1c6.1,0,11.1-5,11.1-11.1v-22.2
					c0-6.2-4.9-11.1-11.1-11.1h-11.1c-6.1,0-11.1,4.9-11.1,11.1V-354.1z"/>
			</g>
			<g>
				<path style="fill:#00ADEF;" d="M-2326-354.1c0,6.1,5,11.1,11.1,11.1h11.1c6.1,0,11.1-5,11.1-11.1v-22.2
					c0-6.2-4.9-11.1-11.1-11.1h-11.1c-6.1,0-11.1,4.9-11.1,11.1V-354.1z"/>
			</g>
			<g>
				<path style="fill:#00ADEF;" d="M-2237.3-354.1c0,6.1,5,11.1,11.1,11.1h11.1c6.1,0,11.1-5,11.1-11.1v-22.2
					c0-6.2-4.9-11.1-11.1-11.1h-11.1c-6.1,0-11.1,4.9-11.1,11.1V-354.1z"/>
			</g>
			<g>
				<path style="fill:#00ADEF;" d="M-2148.6-354.1c0,6.1,5,11.1,11.1,11.1h11.1c6.1,0,11.1-5,11.1-11.1v-22.2
					c0-6.2-4.9-11.1-11.1-11.1h-11.1c-6.1,0-11.1,4.9-11.1,11.1V-354.1z"/>
			</g>
			<g>
				<path style="fill:#00ADEF;" d="M-2060-354.1c0,6.1,5,11.1,11.1,11.1h11.1c6.1,0,11.1-5,11.1-11.1v-22.2
					c0-6.2-4.9-11.1-11.1-11.1h-11.1c-6.1,0-11.1,4.9-11.1,11.1V-354.1z"/>
			</g>
			<g>
				<path style="fill:#00ADEF;" d="M-1971.3-354.1c0,6.1,5,11.1,11.1,11.1h11.1c6.1,0,11.1-5,11.1-11.1v-22.2
					c0-6.2-4.9-11.1-11.1-11.1h-11.1c-6.1,0-11.1,4.9-11.1,11.1V-354.1z"/>
			</g>
			<g>
				<path style="fill:#00ADEF;" d="M-1882.6-354.1c0,6.1,5,11.1,11.1,11.1h11.1c6.1,0,11.1-5,11.1-11.1v-22.2
					c0-6.2-4.9-11.1-11.1-11.1h-11.1c-6.1,0-11.1,4.9-11.1,11.1V-354.1z"/>
			</g>
			<g>
				<path style="fill:#00ADEF;" d="M-1794-354.1c0,6.1,5,11.1,11.1,11.1h11.1c6.1,0,11.1-5,11.1-11.1v-22.2
					c0-6.2-4.9-11.1-11.1-11.1h-11.1c-6.1,0-11.1,4.9-11.1,11.1V-354.1z"/>
			</g>
			<g>
				<path style="fill:#00ADEF;" d="M-1705.3-354.1c0,6.1,5,11.1,11.1,11.1h11.1c6.2,0,11.1-5,11.1-11.1v-22.2
					c0-6.2-4.9-11.1-11.1-11.1h-11.1c-6.1,0-11.1,4.9-11.1,11.1V-354.1z"/>
			</g>
			<g>
				<path style="fill:#00ADEF;" d="M-1616.6-354.1c0,6.1,5,11.1,11.1,11.1h11.1c6.1,0,11.1-5,11.1-11.1v-22.2
					c0-6.2-4.9-11.1-11.1-11.1h-11.1c-6.1,0-11.1,4.9-11.1,11.1V-354.1z"/>
			</g>
			<g>
				<path style="fill:#00ADEF;" d="M-1528-354.1c0,6.1,5,11.1,11.1,11.1h11.1c6.1,0,11.1-5,11.1-11.1v-22.2
					c0-6.2-4.9-11.1-11.1-11.1h-11.1c-6.1,0-11.1,4.9-11.1,11.1V-354.1z"/>
			</g>
			<g>
				<path style="fill:#00ADEF;" d="M-1439.3-354.1c0,6.1,5,11.1,11.1,11.1h11.1c6.1,0,11.1-5,11.1-11.1v-22.2
					c0-6.2-4.9-11.1-11.1-11.1h-11.1c-6.1,0-11.1,4.9-11.1,11.1V-354.1z"/>
			</g>
			<g>
				<path style="fill:#00ADEF;" d="M-1350.6-354.1c0,6.1,5,11.1,11.1,11.1h11.1c6.1,0,11.1-5,11.1-11.1v-22.2
					c0-6.2-4.9-11.1-11.1-11.1h-11.1c-6.1,0-11.1,4.9-11.1,11.1V-354.1z"/>
			</g>
			<g>
				<path style="fill:#00ADEF;" d="M-1262-354.1c0,6.1,5,11.1,11.1,11.1h11.1c6.1,0,11.1-5,11.1-11.1v-22.2
					c0-6.2-4.9-11.1-11.1-11.1h-11.1c-6.1,0-11.1,4.9-11.1,11.1V-354.1z"/>
			</g>
			<g>
				<path style="fill:#00ADEF;" d="M-1173.3-354.1c0,6.1,5,11.1,11.1,11.1h11.1c6.1,0,11.1-5,11.1-11.1v-22.2
					c0-6.2-4.9-11.1-11.1-11.1h-11.1c-6.1,0-11.1,4.9-11.1,11.1V-354.1z"/>
			</g>
			<g>
				<path style="fill:#00ADEF;" d="M-1084.6-354.1c0,6.1,5,11.1,11.1,11.1h11.1c6.1,0,11.1-5,11.1-11.1v-22.2
					c0-6.2-4.9-11.1-11.1-11.1h-11.1c-6.1,0-11.1,4.9-11.1,11.1V-354.1z"/>
			</g>
			<g>
				<path style="fill:#00ADEF;" d="M-996-354.1c0,6.1,5,11.1,11.1,11.1h11.1c6.1,0,11.1-5,11.1-11.1v-22.2c0-6.2-4.9-11.1-11.1-11.1
					h-11.1c-6.1,0-11.1,4.9-11.1,11.1V-354.1z"/>
			</g>
			<g>
				<path style="fill:#00ADEF;" d="M-907.3-354.1c0,6.1,5,11.1,11.1,11.1h11.1c6.1,0,11.1-5,11.1-11.1v-22.2
					c0-6.2-4.9-11.1-11.1-11.1h-11.1c-6.1,0-11.1,4.9-11.1,11.1V-354.1z"/>
			</g>
			<g>
				<path style="fill:#00ADEF;" d="M-818.6-354.1c0,6.1,5,11.1,11.1,11.1h11.1c6.1,0,11.1-5,11.1-11.1v-22.2
					c0-6.2-4.9-11.1-11.1-11.1h-11.1c-6.1,0-11.1,4.9-11.1,11.1V-354.1z"/>
			</g>
		</g>
	</g>
	<path style="fill:#FFFEF0;" d="M-2271.7,67.1c58.2,0.7,139.7,11.1,139.7,11.1s-81.5,10.3-139.7,11.1
		c-58.2,0.7-106.5-11.1-106.5-11.1S-2329.9,66.3-2271.7,67.1z"/>
	<path style="fill:#FFFEF0;" d="M-3946-335.8c33.6,0.5,80.8,6.4,80.8,6.4s-47.2,5.9-80.8,6.4c-33.6,0.5-61.6-6.4-61.6-6.4
		S-3979.6-336.3-3946-335.8z"/>
	<polygon style="fill:#FFFEF0;" points="-346.7,-405.2 -320.2,-352.7 -330.2,-347.7 -356.7,-400.2 	"/>
	<polygon style="fill:#FFFEF0;" points="-388.9,-405.6 -382.2,-359.3 -393.2,-357.7 -399.9,-404 	"/>
	<path style="fill:#E4E2D6;" d="M-565.8-310.4c3.1,0,5.5,2.5,5.5,5.5c0,3.1-2.5,5.5-5.5,5.5c-3.1,0-5.5-2.5-5.5-5.5
		C-571.3-307.9-568.8-310.4-565.8-310.4z"/>
	<path style="fill:#E4E2D6;" d="M-2969.8-310.4c3.1,0,5.5,2.5,5.5,5.5c0,3.1-2.5,5.5-5.5,5.5s-5.5-2.5-5.5-5.5
		C-2975.4-307.9-2972.9-310.4-2969.8-310.4z"/>
</g>
</svg>
