<svg xmlns="http://www.w3.org/2000/svg" viewBox="496 -368 1024 768" enable-background="new 496 -368 1024 768"><style type="text/css">.st0{fill:#3498DB;} .st1{opacity:0.6;fill:none;stroke:#EFEFEF;stroke-miterlimit:10;enable-background:new ;} .st2{fill:#586273;} .st3{opacity:0.8;fill:#2980B9;enable-background:new ;} .st4{fill:#E6E9ED;} .st5{opacity:0.3;fill:#B7BFC7;enable-background:new ;} .st6{fill:#DCE4E8;} .st7{display:none;fill:url(#mbplight_1_);} .st8{fill:#CCD1D9;} .st9{display:none;fill:#F5F7FA;stroke:#CCD1D9;stroke-miterlimit:10;} .st10{fill:#3B3B3B;stroke:#C1C1C1;stroke-miterlimit:10;} .st11{fill:#E74C3C;} .st12{fill:#D8D8DA;} .st13{fill:#AAB2BD;} .st14{fill:#FFFFFF;} .st15{fill:#E6E7E8;} .st16{fill:#49433C;} .st17{fill:#363532;} .st18{fill:#434A54;} .st19{fill:#F7F9F8;} .st20{fill:#44C650;} .st21{fill:none;} .st22{fill:#2980B9;} .st23{fill:#58585C;} .st24{fill:#464E5C;} .st25{fill:#F7D39A;} .st26{fill:#DA4453;} .st27{opacity:0.8;} .st28{fill:#EBF4FF;} .st29{fill:#E5E5E5;} .st30{fill:#B7BFC7;} .st31{opacity:0.3;} .st32{fill:#EFEEEE;} .st33{fill:#656D78;} .st34{fill:#2C3E50;} .st35{fill:#ECF0F1;} .st36{font-family:&apos;Roboto-Black&apos;;} .st37{font-size:120px;} .st38{fill:#F5ECD9;} .st39{font-family:&apos;Roboto-Regular&apos;;} .st40{font-size:14px;} .st41{fill:#DED6C7;} .st42{fill:#4CAEE5;} .st43{fill:#01050A;} .st44{font-family:&apos;Roboto-Thin&apos;;} .st45{font-size:18px;} .st46{fill:#F5F7FA;} .st47{font-size:30px;}</style><rect x="-7080.4" y="-7257.8" class="st0" width="16291.8" height="14784" id="bg"/><path id="wire1" class="st1" d="M514.1-412.9c45.9 59.7 97.6 127.8 180.5 125.9 65.6-1.5 127.1-41.7 193.4-31.3 67.3 10.6 116.7 71.3 167.2 111.7 53.2 42.6 112.2 66.4 172 97.3 46 23.8 69.2 58.5 77.5 109.3 5.8 35.4-.1 84.2 22.4 114.6 29.1 39.5 157 60 101 134.8-53 70.9-150.8 81.9-210.6 115.8-16.1 9.1-38.5 26.3-51.5 34.8l-2 1.3"/><g id="introduction" xmlns:dc="http://purl.org/dc/elements/1.1/" xmlns:inkscape="http://www.inkscape.org/namespaces/inkscape" xmlns:rdf="http://www.w3.org/1999/02/22-rdf-syntax-ns#" xmlns:cc="http://creativecommons.org/ns#" xmlns:svg="http://www.w3.org/2000/svg" xmlns:sodipodi="http://sodipodi.sourceforge.net/DTD/sodipodi-0.dtd" sodipodi:docname="drawing.svg" inkscape:version="0.48.4 r9939"><g id="macbook"><path class="st2" d="M1434.4-61.6z"/><path class="st3" d="M1465.3-89l-342.2-155.9s-8.2-3.7-11.9 4.5c-3.7 8.2 4.5 11.9 4.5 11.9l24.6 11.2s-8.2-3.7-11.9 4.5c-4.7 10.3-4.7 10.2-77.5 170.2-3.9 8.5.8 19 9.3 22.9l277.6 126.4c8.5 3.9 18.6.1 22.5-8.4 0 0 59.1-129.8 74.2-162.9.1-.2.6-1.3 3.3-7.3 3.7-8.2-4.5-11.9-4.5-11.9l24.6 11.2s8.2 3.7 11.9-4.5c3.7-8.2-4.5-11.9-4.5-11.9z"/><path class="st4" d="M1366.2 96.3c-3.9 8.5-14 12.3-22.5 8.4l-277.6-126.4c-8.5-3.9-13.2-14.4-9.3-22.9 0 0 73.8-162 77.5-170.2 3.7-8.2 11.9-4.5 11.9-4.5l293 133.5s8.2 3.7 4.5 11.9c-3.7 8.2-77.5 170.2-77.5 170.2z"/><path class="st5" d="M1440.4-66.6l-364.2-20.6s54.4-119.4 58.1-127.6c3.7-8.2 11.9-4.5 11.9-4.5l293 133.5s8.2 3.7 4.5 11.9c-3.7 8.2-3.3 7.3-3.3 7.3z"/><rect x="1209.9" y="-152.9" transform="matrix(.91 .414 -.414 .91 54.592 -548.433)" class="st6" width="161.9" height="9"/><radialGradient id="mbplight_1_" cx="1594.949" cy="-7680.791" r="163.218" gradientTransform="matrix(.912 .401 .096 -.184 562.017 -2204.802)" gradientUnits="userSpaceOnUse"><stop offset=".103" stop-color="#3498DB" stop-opacity=".4"/><stop offset=".795" stop-color="#3498DB" stop-opacity=".057"/><stop offset=".909" stop-color="#3498DB" stop-opacity="0"/></radialGradient><polygon id="mbplight" class="st7" points="1456.2,-39.8 1121.5,-190.3 1165.6,-230.1 1464.7,-93.7"/><path class="st8" d="M1463.8-74.6l-342.2-155.9s-8.2-3.7-4.5-11.9c3.7-8.2 11.9-4.5 11.9-4.5l342.3 155.9s8.2 3.7 4.5 11.9c-3.8 8.2-12 4.5-12 4.5z"/><rect x="1173.3" y="-16.5" transform="matrix(.91 .414 -.414 .91 112.425 -505.011)" class="st9" width="92.9" height="46"/><rect x="1167.4" y="-168.7" transform="matrix(.91 .414 -.414 .91 38.372 -502.233)" class="st10" width="18" height="12"/><rect x="1158.5" y="-151.6" transform="matrix(.91 .414 -.414 .91 45.701 -496.816)" class="st10" width="18" height="17"/><rect x="1147.7" y="-127.3" transform="matrix(.91 .414 -.414 .91 55.738 -492.541)" class="st10" width="30" height="19"/><rect x="1137.1" y="-101.8" transform="matrix(.91 .414 -.414 .91 65.535 -488.607)" class="st10" width="43" height="17"/><rect x="1180.4" y="-141.5" transform="matrix(.91 .414 -.414 .91 51.923 -505.186)" class="st10" width="19" height="17"/><rect x="1180.9" y="-114.7" transform="matrix(.91 .414 -.414 .91 63.49 -502.886)" class="st10" width="19" height="19"/><rect x="1182.7" y="-86.5" transform="matrix(.91 .414 -.414 .91 74.918 -501.205)" class="st10" width="19" height="17"/><rect x="1204.7" y="-76.7" transform="matrix(.91 .414 -.414 .91 80.913 -509.254)" class="st10" width="18" height="17"/><rect x="1227.4" y="-66.4" transform="matrix(.91 .414 -.414 .91 87.221 -517.671)" class="st10" width="18" height="17"/><rect x="1249.3" y="-56.4" transform="matrix(.91 .414 -.414 .91 93.352 -525.901)" class="st10" width="18" height="17"/><rect x="1272" y="-46.1" transform="matrix(.91 .414 -.414 .91 99.643 -534.341)" class="st10" width="18" height="17"/><rect x="1292.9" y="-36.4" transform="matrix(.91 .414 -.414 .91 105.602 -542.332)" class="st10" width="19" height="17"/><rect x="1314.6" y="-21" transform="matrix(.91 .414 -.414 .91 115.024 -554.937)" class="st10" width="43" height="17"/><rect x="1203.7" y="-104.5" transform="matrix(.91 .414 -.414 .91 69.694 -511.232)" class="st10" width="18" height="19"/><rect x="1225.5" y="-94.3" transform="matrix(.91 .414 -.414 .91 75.945 -519.562)" class="st10" width="19" height="19"/><rect x="1248.3" y="-84.3" transform="matrix(.91 .414 -.414 .91 82.058 -527.743)" class="st10" width="18" height="19"/><rect x="1270.1" y="-74.1" transform="matrix(.91 .414 -.414 .91 88.347 -536.207)" class="st10" width="19" height="19"/><rect x="1292.9" y="-63.9" transform="matrix(.91 .414 -.414 .91 94.578 -544.572)" class="st10" width="18" height="19"/><rect x="1314.7" y="-53.8" transform="matrix(.91 .414 -.414 .91 100.756 -552.899)" class="st10" width="19" height="19"/><rect x="1336.9" y="-41.1" transform="matrix(.91 .414 -.414 .91 108.488 -563.19)" class="st10" width="30" height="19"/><rect x="1203.1" y="-131" transform="matrix(.91 .414 -.414 .91 58.289 -513.649)" class="st10" width="19" height="17"/><rect x="1225.1" y="-121.2" transform="matrix(.91 .414 -.414 .91 64.289 -521.687)" class="st10" width="18" height="17"/><rect x="1247.7" y="-111" transform="matrix(.91 .414 -.414 .91 70.559 -530.108)" class="st10" width="18" height="17"/><rect x="1269.6" y="-101" transform="matrix(.91 .414 -.414 .91 76.678 -538.279)" class="st10" width="18" height="17"/><rect x="1292.3" y="-90.6" transform="matrix(.91 .414 -.414 .91 82.965 -546.653)" class="st10" width="18" height="17"/><rect x="1313.1" y="-81" transform="matrix(.91 .414 -.414 .91 88.929 -554.726)" class="st10" width="19" height="17"/><rect x="1334.9" y="-65.6" transform="matrix(.91 .414 -.414 .91 98.34 -567.323)" class="st10" width="43" height="17"/><rect x="1128.3" y="-86.1" transform="matrix(.91 .414 -.414 .91 70.523 -478.268)" class="st10" width="18" height="19"/><rect x="1150.1" y="-75.9" transform="matrix(.91 .414 -.414 .91 76.785 -486.645)" class="st10" width="19" height="19"/><rect id="spacebar" x="1168.5" y="-45.5" transform="matrix(.91 .414 -.414 .91 95.403 -511.625)" class="st10" width="115.9" height="19"/><rect x="1282.9" y="-15.5" transform="matrix(.91 .414 -.414 .91 113.737 -536.218)" class="st10" width="19" height="19"/><rect x="1305.7" y="-5.2" transform="matrix(.91 .414 -.414 .91 120.071 -544.727)" class="st10" width="19" height="19"/><rect x="1328.4" y="5.1" transform="matrix(.91 .414 -.414 .91 126.336 -553.036)" class="st10" width="18" height="19"/><rect x="1189.3" y="-158.5" transform="matrix(.91 .414 -.414 .91 44.634 -510.658)" class="st10" width="19" height="12"/><rect x="1212" y="-148.2" transform="matrix(.91 .414 -.414 .91 50.922 -519.063)" class="st10" width="19" height="12"/><rect x="1233.9" y="-138.4" transform="matrix(.91 .414 -.414 .91 56.93 -527.106)" class="st10" width="18" height="12"/><rect x="1256.6" y="-128" transform="matrix(.91 .414 -.414 .91 63.288 -535.588)" class="st10" width="18" height="12"/><rect x="1278.5" y="-118.1" transform="matrix(.91 .414 -.414 .91 69.341 -543.717)" class="st10" width="18" height="12"/><rect x="1301.2" y="-107.7" transform="matrix(.91 .414 -.414 .91 75.695 -552.199)" class="st10" width="18" height="12"/><rect x="1322.2" y="-98" transform="matrix(.91 .414 -.414 .91 81.629 -560.224)" class="st10" width="19" height="12"/><rect x="1344.9" y="-87.6" transform="matrix(.91 .414 -.414 .91 88.011 -568.745)" class="st10" width="19" height="12"/><rect x="1367.6" y="-77.3" transform="matrix(.91 .415 -.415 .91 94.327 -577.176)" class="st10" width="18" height="12"/></g><g id="bevanda"><circle class="st3" cx="915.4" cy="-231.1" r="50.6"/><circle class="st4" cx="920.4" cy="-233.1" r="50.6"/><path class="st11" d="M920.4-274.8c23 0 41.7 18.7 41.7 41.7s-18.7 41.7-41.7 41.7c-10.4 0-19.9-3.8-27.2-10.1-8.9-7.6-14.5-19-14.5-31.6 0-23 18.7-41.7 41.7-41.7z"/><path id="linecover1" class="st4" d="M920.4-275.8c23.6 0 42.7 19.1 42.7 42.7s-19.1 42.7-42.7 42.7c-10.6 0-20.3-3.9-27.8-10.3-9.1-7.8-14.9-19.4-14.9-32.4 0-23.6 19.1-42.7 42.7-42.7z"/><ellipse transform="matrix(-.118 .993 -.993 -.118 814.196 -1125.132)" class="st12" cx="906.6" cy="-201.1" rx="7.7" ry="11.6"/><polygon class="st8" points="857.2,-210.9 898.1,-203.9 897.6,-200.4 856.3,-203.2"/><ellipse transform="matrix(-.118 .993 -.993 -.118 814.194 -1125.117)" class="st13" cx="906.6" cy="-201.1" rx="6.4" ry="9.6"/><path class="st14" d="M893.1-276l9.7 12.5c1.6 2.1 1.2 5-.8 6.7-2.1 1.6-5 1.2-6.6-.8l-9.7-12.5c-1.6-2.1-1.2-5 .8-6.7 2-1.6 5-1.2 6.6.8z"/><circle class="st14" cx="920.4" cy="-233.1" r="34.8"/><circle class="st15" cx="920.4" cy="-233.1" r="31.3"/><circle class="st16" cx="920.4" cy="-233.1" r="29.6"/><path class="st17" d="M899.2-216.6c9.1 11.7 26 13.8 37.7 4.7.7-.5.8-1.5.3-2.2-.5-.7-1.5-.8-2.2-.3l-.9.6-.2.2c-.3.2-.6.4-.8.5l-.3.2-.6.3-.4.2c-.2.1-.5.2-.7.4-.2.1-.4.2-.5.3l-.4.2c-.2.1-.3.2-.5.2l-.7.3-.5.2-.5.2c-.1.1-.3.1-.4.1-.3.1-.6.2-.9.2l-.3.1c-.2.1-.5.1-.8.2-.1 0-.2 0-.2.1l-1 .2h-.1l-.6.1c-.1 0-.3 0-.4.1h-.1c-.7.1-1.5.1-2.2.1-.7 0-1.5 0-2.2-.1h-.1l-1-.1h-.1l-.9-.1c-.1 0-.3 0-.4-.1-.2 0-.4-.1-.5-.1-.6-.1-1.3-.3-1.9-.5-3.4-1-6.6-2.8-9.2-5.2h-.1l-.4-.4-.4-.4-.4-.4c-.2-.2-.4-.4-.6-.7-.1-.1-.1-.2-.2-.2l-.7-.8-.6-.9-.2-.3-.5-.7-.3-.4-.3-.4c-.1-.2-.2-.4-.3-.5v-.1c-1.7-3.2-2.6-6.7-2.8-10.3v-2.9c0-.3.1-.6.1-1v-.1l.1-1v-.1c.1-.7.3-1.4.5-2.2.2-.7.4-1.4.7-2.1v-.1l.2-.4c.1-.2.2-.4.2-.6v-.1l.4-.9.1-.2c.1-.2.2-.5.4-.7l.2-.3.4-.8.3-.4.3-.4.3-.4.5-.6.3-.4.3-.3.4-.5.5-.6.3-.3.5-.5c.1-.1.1-.2.2-.2.2-.2.5-.4.7-.7l.2-.2.8-.7c.7-.5.8-1.5.3-2.2-.5-.7-1.5-.8-2.2-.3-11.7 9.1-13.8 26-4.7 37.7z"/><path class="st17" d="M909.1-255.8c.3.8 1.3 1.2 2.1.8l.6-.3h.1l.6-.2c.1 0 .1 0 .2-.1l.6-.2c.4-.1.9-.3 1.4-.4h.2l1.3-.3c.1 0 .2 0 .3-.1h0c.1 0 .3 0 .4-.1h.2c.6-.1 1.1.2 1.4.6.2.2.3.5.3.8.1.9-.5 1.7-1.3 1.8-1.3.2-2.6.5-3.9.9h-.1c-.4.1-.8.3-1.2.5-.8.3-1.1 1.3-.8 2.1.3.8 1.3 1.2 2.1.8 2.2-.9 4.5-1.4 6.9-1.4h2.2c.4.1.7.3.9.6.2.3.4.7.3 1.2-.1.9-.9 1.5-1.8 1.4-2.5-.3-5 0-7.2 1h-.1c-.8.3-1.2 1.3-.8 2.1.3.8 1.3 1.2 2.1.8 4.6-1.9 10-.5 13 3.4 3.1 4 3.1 9.5.1 13.5-.5.7-.4 1.7.3 2.2.7.5 1.7.4 2.2-.3l.2-.2c1.4-1.9 2.3-4.2 2.6-6.6.1-.9.9-1.5 1.8-1.4.4.1.8.3 1.1.6.2.3.4.7.3 1.1v.1c0 .1 0 .2-.1.3v.3l-.1.4c0 .1 0 .2-.1.3l-.1.5v.2c-.6 2.3-1.6 4.4-3 6.3-.5.7-.4 1.7.3 2.2.7.5 1.7.4 2.2-.3l.8-1.1v-.1c.7-1.1 1.4-2.3 1.9-3.5.3-.8 1.2-1.2 2.1-.9.3.1.5.3.6.5.3.4.4 1 .2 1.5 0 .1 0 .1-.1.2-.1.2-.2.4-.2.6l-.1.3-.3.6c0 .1-.1.2-.1.2l-.3.6-.1.2c-.1.3-.3.5-.5.8v.1c-.1.2-.2.4-.4.6l-.1.1-.2.3c-.1.1-.1.1-.1.2l-.1.1-.4.6c-.5.7-.4 1.7.3 2.2.7.5 1.7.4 2.2-.3 7.3-9.7 7.3-23.1-.2-32.7-7.4-9.6-20.5-13-31.6-8.3-.9.6-1.3 1.5-1 2.3zm33 32.4c0 .1-.1.2-.1.2 0-.1 0-.2.1-.2zm-.4.8l-.1.2s0-.1.1-.2zm-.5.9l-.1.1s.1 0 .1-.1zm1.1-2.4s0-.1.1-.1l-.1.1z"/><path class="st17" d="M939.3-218.7c.2-.2.3-.4.4-.6l-.4.6z"/></g><g id="mouse"><path class="st3" d="M1471.6 116.3c-9.8-7.2-23.6-5.2-30.9 4.6l-.1.1-.1.2-24.6 33.3c-.1.1-.2.3-.2.4l-1.3 1.8c-7.2 9.9-5 23.5 4.7 30.7 9.8 7.3 23.7 5.1 30.9-4.6l26.2-35.5c7.3-9.9 5.2-23.8-4.6-31z"/><path class="st8" d="M1446.5 120.1l-.1.1-.1.2-24.6 33.3-.2.3-1.2 1.6c-7.3 10.1-5.1 23.6 4.7 30.9l52.4-70.9c-9.8-7.3-23.6-5.2-30.9 4.5z"/><path class="st4" d="M1477.4 115.6l-52.5 70.9c9.8 7.3 23.7 5.2 30.9-4.6l-.1-.1.1.1 26.2-35.4c7.3-9.8 5.2-23.7-4.6-30.9z"/></g><g id="iphone"><path class="st3" d="M1456.6-184.5l38.5-44.1c3-3.5 2.7-8.8-.8-11.8l-88.1-77c-3.5-3-8.8-2.7-11.8.8l-38.5 44.1c-3 3.5-2.7 8.8.8 11.8l88.1 77c3.4 3 8.7 2.6 11.8-.8z"/><path class="st18" d="M1399.9-317.7l-38.5 44.1c-3 3.5-2.7 8.8.8 11.8l88.1 77c3.5 3 8.8 2.7 11.8-.8l38.5-44.1c3-3.5 2.7-8.8-.8-11.8l-88.1-77c-3.5-3-8.8-2.7-11.8.8z"/><path class="st2" d="M1488-240.7l-38.5 44.1-81.8-71.5 38.5-44 81.8 71.4z"/><rect x="1469" y="-215.1" transform="matrix(.658 -.753 .753 .658 664.938 1038.002)" class="st18" width="12.5" height="4.2"/><path class="st19" d="M1367.7-268.1l81.8 71.5 38.5-44.1-81.8-71.5-38.5 44.1z"/><path class="st20" d="M1431.6-273.7l-5.5-2.6c-.6-.3-1.5-.3-2.1 0l-9.2 4.3-1.3-1.1c-.4-2.2-1.7-4.6-3.9-6.4l-1.7-1.5c-3-2.6-7.5-2.5-10 .4s-2.1 7.3.9 10l1.7 1.5c2.1 1.9 4.6 2.9 6.9 3l1.3 1.1-3.1 9.7c-.2.6 0 1.5.3 2.1l3.3 5.1c.3.5 1 .6 1.4.1l10.6-12.1 10.6-12.1c.5-.6.3-1.2-.2-1.5z"/><rect x="1414.8" y="-254.6" transform="matrix(.658 -.753 .753 .658 678.51 993.434)" class="st6" width="35.9" height="9"/><rect x="1425.1" y="-245.6" transform="matrix(.658 -.753 .753 .658 675.081 1004.107)" class="st6" width="35.9" height="9"/><rect x="1443.9" y="-236.8" transform="matrix(.658 -.753 .753 .658 671.789 1014.609)" class="st6" width="17.9" height="9"/><circle class="st2" cx="1433.9" cy="-231" r="1.7"/><circle class="st2" cx="1439.8" cy="-237.7" r="1.7"/><circle class="st2" cx="1436.9" cy="-234.3" r="1.7"/><path class="st2" d="M1443.9-242.4c.7.6.8 1.7.1 2.4-.6.7-1.7.8-2.4.2-.7-.6-.8-1.7-.1-2.4.6-.7 1.7-.8 2.4-.2z"/><circle class="st2" cx="1423.8" cy="-239.8" r="1.7"/><circle class="st2" cx="1435.6" cy="-253.3" r="1.7"/><circle class="st2" cx="1429.7" cy="-246.6" r="1.7"/><circle class="st2" cx="1426.8" cy="-243.2" r="1.7"/><circle class="st2" cx="1432.7" cy="-249.9" r="1.7"/><rect x="1448.6" y="-233.4" transform="matrix(.658 -.753 .753 .658 672.041 1015.076)" class="st11" width="9" height="2.7"/><path class="st21" d="M1399.9-317.7l-29.9 34.2 113.6 73.3 17.1-19.5c3-3.5 2.7-8.8-.8-11.8l-88.1-77c-3.6-3-8.9-2.7-11.9.8z"/></g><g id="matita1"><polygon class="st3" points="1613.8,-48.7 1551.8,-176.7 1546.5,-174.1 1541.1,-171.6 1603.2,-43.5 1608.5,-46.1"/><polygon class="st22" points="1617.6,-30.7 1613.8,-48.7 1603.2,-43.5 1614.9,-29.4 1618.9,-24.8"/><polygon class="st23" points="1612.6,-47.2 1553.2,-169.9 1550.6,-175.2 1545.2,-172.7 1607.3,-44.6"/><polygon class="st23" points="1612.6,-47.2 1617.9,-49.8 1555.9,-177.8 1550.6,-175.2 1553.2,-169.9"/><polygon class="st24" points="1622.9,-25.8 1621.7,-31.8 1619,-30.5"/><polygon class="st25" points="1621.7,-31.8 1617.9,-49.8 1607.3,-44.6 1619,-30.5"/><rect x="1552.3" y="-161.4" transform="matrix(-.9 .436 -.436 -.9 2890.988 -982.176)" class="st26" width="11.9" height="4.4"/></g><g id="foglio2"><polygon class="st22" points="661.4,-360 637.3,-171.5 788.1,-152.2 812.2,-340.8 813.8,-353.3 663.1,-372.6"/><rect x="652.3" y="-353.9" transform="matrix(.992 .127 -.127 .992 -26.948 -94.441)" class="st28" width="151.9" height="190"/><rect x="665.2" y="-365.8" transform="matrix(.992 .127 -.127 .992 -39.593 -96.882)" class="st20" width="151.9" height="12.7"/><rect x="699.3" y="-287.4" transform="matrix(-.992 -.127 .127 -.992 1441.148 -470.442)" class="st21" width="12.7" height="12.7"/><rect x="721.7" y="-285" transform="matrix(.992 .127 -.127 .992 -29.867 -94.114)" class="st21" width="6.3" height="6.3"/><rect x="676.4" y="-301.5" transform="matrix(.992 .127 -.127 .992 -32.322 -92.193)" class="st18" width="63.2" height="3.2"/><rect x="745.5" y="-294.1" transform="matrix(.992 .127 -.127 .992 -30.91 -99.507)" class="st0" width="41.1" height="3.2"/><rect x="669.1" y="-292.2" transform="matrix(.992 .127 -.127 .992 -30.958 -95.011)" class="st0" width="123.4" height="3.2"/><rect x="674.9" y="-291" transform="matrix(.992 .127 -.127 .992 -31.122 -89.921)" class="st0" width="31.6" height="3.2"/><rect x="712.6" y="-287.3" transform="matrix(.992 .127 -.127 .992 -30.452 -93.548)" class="st18" width="12.7" height="3.2"/><rect x="731.3" y="-282.4" transform="matrix(.992 .127 -.127 .992 -29.483 -98.412)" class="st0" width="53.8" height="3.2"/><rect x="659" y="-241.9" transform="matrix(.992 .127 -.127 .992 -25.032 -87.517)" class="st18" width="31.6" height="3.2"/><rect x="657.5" y="-230.2" transform="matrix(.992 .127 -.127 .992 -23.617 -86.489)" class="st18" width="19" height="3.2"/><rect x="682.6" y="-227.4" transform="matrix(.992 .127 -.127 .992 -23.084 -89.257)" class="st18" width="12.7" height="3.2"/><rect x="658.3" y="-236.1" transform="matrix(.992 .127 -.127 .992 -24.318 -86.969)" class="st18" width="25.3" height="3.2"/><rect x="656.6" y="-223.1" transform="matrix(.992 .127 -.127 .992 -22.662 -87.059)" class="st18" width="31.6" height="3.2"/><rect x="661.8" y="-277.8" transform="matrix(.992 .127 -.127 .992 -27.735 -88.514)" class="st8" width="38" height="31.7"/><rect x="704.5" y="-223" transform="matrix(.992 .127 -.127 .992 -22.232 -93.53)" class="st18" width="38" height="3.2"/><rect x="703.8" y="-218.3" transform="matrix(.992 .127 -.127 .992 -21.747 -91.798)" class="st18" width="12.7" height="3.2"/><rect x="722.7" y="-216.3" transform="matrix(.992 .127 -.127 .992 -21.389 -93.92)" class="st18" width="6.3" height="3.2"/><rect x="705.4" y="-230.5" transform="matrix(.992 .127 -.127 .992 -23.252 -92.5)" class="st18" width="19" height="3.2"/><rect x="730.5" y="-227.6" transform="matrix(.992 .127 -.127 .992 -22.716 -95.262)" class="st18" width="12.7" height="3.2"/><rect x="706.1" y="-235.9" transform="matrix(.992 .127 -.127 .992 -23.887 -93.44)" class="st18" width="31.6" height="3.2"/><rect x="708.9" y="-271.8" transform="matrix(.992 .127 -.127 .992 -26.577 -94.37)" class="st8" width="38" height="31.7"/><rect x="753.2" y="-229.5" transform="matrix(.992 .127 -.127 .992 -22.667 -99.759)" class="st18" width="38" height="3.2"/><rect x="751.7" y="-217.7" transform="matrix(.992 .127 -.127 .992 -21.249 -98.74)" class="st18" width="25.3" height="3.2"/><rect x="753.5" y="-224.8" transform="matrix(.992 .127 -.127 .992 -22.175 -98.154)" class="st18" width="12.7" height="3.2"/><rect x="750.9" y="-211.9" transform="matrix(.992 .127 -.127 .992 -20.525 -98.115)" class="st18" width="19" height="3.2"/><rect x="776" y="-209" transform="matrix(.992 .127 -.127 .992 -19.992 -100.88)" class="st18" width="12.7" height="3.2"/><rect x="771.3" y="-222" transform="matrix(.992 .127 -.127 .992 -21.658 -100.869)" class="st18" width="19" height="3.2"/><rect x="756" y="-265.7" transform="matrix(.992 .127 -.127 .992 -25.432 -100.293)" class="st8" width="38" height="31.6"/><rect x="669.1" y="-321.8" transform="matrix(.992 .127 -.127 .992 -34.064 -95.815)" class="st8" width="132.9" height="12.7"/><rect x="676.1" y="-323.8" transform="matrix(.992 .127 -.127 .992 -35.344 -89.177)" class="st29" width="13.3" height="3.2"/><rect x="695.8" y="-325.2" transform="matrix(.992 .127 -.127 .992 -34.704 -92.495)" class="st18" width="26.6" height="12.7"/><rect x="702.5" y="-320.4" transform="matrix(.992 .127 -.127 .992 -34.705 -92.496)" class="st29" width="13.3" height="3.2"/><rect x="728.9" y="-317" transform="matrix(.992 .127 -.127 .992 -34.081 -95.888)" class="st29" width="13.3" height="3.2"/><rect x="755.3" y="-313.7" transform="matrix(.992 .127 -.127 .992 -33.422 -99.131)" class="st29" width="13.3" height="3.2"/><rect x="781.6" y="-310.3" transform="matrix(.992 .127 -.127 .992 -32.782 -102.449)" class="st29" width="13.3" height="3.2"/><rect x="674.8" y="-339.1" transform="matrix(.992 .127 -.127 .992 -37.044 -93.113)" class="st8" width="76" height="3.2"/><rect x="675.9" y="-349" transform="matrix(.992 .127 -.127 .992 -38.52 -89.711)" class="st8" width="19" height="3.2"/><rect x="653" y="-202.4" transform="matrix(.992 .127 -.127 .992 -18.251 -92.762)" class="st8" width="132.9" height="25.3"/></g><g id="foglio1"><rect x="489.3" y="-373.9" transform="matrix(.95 -.314 .314 .95 111.122 164.984)" class="st22" width="157.9" height="222.2"/><rect x="459.2" y="-341.1" transform="matrix(.314 .95 -.95 .314 142.527 -721.437)" class="st19" width="222.2" height="157.9"/><rect x="564.8" y="-319.2" transform="matrix(.95 -.314 .314 .95 129.13 170.157)" class="st30" width="57" height="6"/><rect x="567.9" y="-309.7" transform="matrix(.95 -.314 .314 .95 126.311 171.621)" class="st6" width="57" height="6"/><rect x="571.1" y="-300.2" transform="matrix(.95 -.314 .314 .95 123.49 173.085)" class="st6" width="57" height="6"/><rect x="574.2" y="-290.7" transform="matrix(.95 -.314 .314 .95 120.669 174.547)" class="st6" width="57" height="6"/><rect x="483.8" y="-325.1" transform="matrix(.95 -.314 .314 .95 128.854 156.518)" class="st6" width="133.9" height="6"/><rect x="477.5" y="-354.1" transform="matrix(.95 -.314 .314 .95 134.494 153.592)" class="st30" width="133.9" height="26"/><rect x="505.1" y="-260.6" transform="matrix(.95 -.314 .314 .95 109.676 166.469)" class="st6" width="133.9" height="6"/><rect x="508.3" y="-251.1" transform="matrix(.95 -.314 .314 .95 106.856 167.933)" class="st6" width="133.9" height="6"/><rect x="511.4" y="-241.6" transform="matrix(.95 -.314 .314 .95 104.035 169.397)" class="st6" width="133.9" height="6"/><rect x="529.6" y="-186.5" transform="matrix(.95 -.314 .314 .95 87.677 177.883)" class="st6" width="133.9" height="6"/><rect x="533.5" y="-172.3" transform="matrix(.95 -.314 .314 .95 82.663 175.117)" class="st6" width="104" height="6"/><rect x="518.5" y="-216.5" transform="matrix(.95 -.314 .314 .95 95.384 165.829)" class="st30" width="89" height="6"/><rect x="521.6" y="-207" transform="matrix(.95 -.314 .314 .95 92.563 167.292)" class="st6" width="89" height="6"/><rect x="524.8" y="-197.5" transform="matrix(.95 -.314 .314 .95 89.743 168.759)" class="st6" width="89" height="6"/><rect x="616.9" y="-239.6" transform="matrix(.95 -.314 .314 .95 103.043 187.53)" class="st20" width="35" height="26"/><rect x="497.6" y="-287.9" transform="matrix(.95 -.314 .314 .95 109.968 143.585)" class="st6" width="7" height="36"/><rect x="507.1" y="-291.1" transform="matrix(.95 -.314 .314 .95 111.476 146.441)" class="st6" width="7" height="36"/><rect x="516.6" y="-294.2" transform="matrix(.95 -.314 .314 .95 112.943 149.262)" class="st6" width="7" height="36"/><rect x="526.1" y="-297.3" transform="matrix(.95 -.314 .314 .95 114.407 152.086)" class="st6" width="7" height="36"/><rect x="535.6" y="-300.5" transform="matrix(.95 -.314 .314 .95 115.824 154.86)" class="st6" width="7" height="36"/><rect x="545.1" y="-303.6" transform="matrix(.95 -.313 .313 .95 117.147 157.542)" class="st6" width="7" height="36"/><rect x="554.6" y="-306.7" transform="matrix(.95 -.314 .314 .95 118.799 160.55)" class="st6" width="7" height="36"/><rect x="500.8" y="-268.4" transform="matrix(.95 -.313 .313 .95 107.022 144.929)" class="st11" width="7" height="16"/><rect x="509.8" y="-274.5" transform="matrix(.95 -.314 .314 .95 109.044 147.65)" class="st11" width="7" height="19"/><rect x="520.4" y="-270.8" transform="matrix(.95 -.314 .314 .95 109.551 151.015)" class="st11" width="7" height="12"/><rect x="528.3" y="-283.7" transform="matrix(.95 -.314 .314 .95 112.389 153.069)" class="st11" width="7" height="22"/><rect x="537.2" y="-290.7" transform="matrix(.95 -.314 .314 .95 114.415 155.595)" class="st11" width="7" height="26"/><rect x="549.8" y="-274.4" transform="matrix(.95 -.314 .314 .95 113.102 159.92)" class="st11" width="7" height="6"/><rect x="557.7" y="-287.2" transform="matrix(.95 -.313 .313 .95 115.787 161.822)" class="st11" width="7" height="16"/></g><g id="occhiali"><path class="st2" d="M630.9-243.5c-1.3-.2-2.2-1.5-2-2.8 1.6-9.2-4.6-18.1-13.8-19.7l-86.3-15.2c-1.3-.2-2.2-1.5-2-2.8.2-1.3 1.5-2.2 2.8-2l86.3 15.2c11.9 2.1 19.9 13.5 17.8 25.4-.2 1.2-1.5 2.1-2.8 1.9z"/><path class="st2" d="M630.9-243.5c-1.3-.2-2.2-1.5-2-2.8 1.6-9.2-4.6-18.1-13.8-19.7l-86.3-15.2c-1.3-.2-2.2-1.5-2-2.8.2-1.3 1.5-2.2 2.8-2l86.3 15.2c11.9 2.1 19.9 13.5 17.8 25.4-.2 1.2-1.5 2.1-2.8 1.9z"/><path class="st2" d="M535.1-260.4c-1.3-.2-2.2-1.5-2-2.8 2.1-11.9 13.5-19.9 25.4-17.8l86.3 15.2c1.3.2 2.2 1.5 2 2.8-.2 1.3-1.5 2.2-2.8 2l-86.3-15.2c-9.2-1.6-18.1 4.6-19.7 13.8-.4 1.4-1.6 2.2-2.9 2z"/><path class="st32" d="M573.8-256c-.9 5.3-6 8.8-11.3 7.9l-28.8-5.1c-5.3-.9-8.8-6-7.9-11.3l3.4-19.2c.9-5.3 6-8.8 11.3-7.9l28.8 5.1c5.3.9 8.8 6 7.9 11.3l-3.4 19.2z"/><path class="st32" d="M640.9-244.2c-.9 5.3-6 8.8-11.3 7.9l-28.8-5.1c-5.3-.9-8.8-6-7.9-11.3l3.4-19.2c.9-5.3 6-8.8 11.3-7.9l28.8 5.1c5.3.9 8.8 6 7.9 11.3l-3.4 19.2z"/><path class="st2" d="M593.4-255.1c-1.3-.2-2.2-1.5-2-2.8.7-4-2-7.8-5.9-8.5-4-.7-7.8 2-8.5 5.9-.2 1.3-1.5 2.2-2.8 2-1.3-.2-2.2-1.5-2-2.8 1.2-6.6 7.5-11 14.1-9.9 6.6 1.2 11 7.5 9.9 14.1-.2 1.4-1.5 2.3-2.8 2z"/><path class="st32" d="M540.5-291.2c-5.3-.9-10.2 2.3-11.1 7.6l-3.4 19.2c-.9 5.3 2.5 10.8 7.8 11.7l14.1 2.5 6.8-38.4-14.2-2.6z"/><path class="st32" d="M607.6-279.4c-5.3-.9-9.4 2.4-10.3 7.7l-3.4 19.2c-.9 5.3 1.6 10.6 6.9 11.5l14 2.5 6.8-38.4-14-2.5z"/><path class="st21" d="M636-272.3l-28.8-5.1c-4-.7-7.8 2-8.5 5.9l-3.4 19.2c-.7 4 2 7.8 5.9 8.5l28.8 5.1c4 .7 7.8-2 8.5-5.9l3.4-19.2c.7-4-2-7.8-5.9-8.5z"/><path class="st21" d="M568.9-284.1l-28.8-5.1c-4-.7-7.8 2-8.5 5.9l-3.4 19.2c-.7 4 2 7.8 5.9 8.5l28.8 5.1c4 .7 7.8-2 8.5-5.9l3.4-19.2c.7-4-2-7.8-5.9-8.5z"/><path class="st2" d="M569.7-288.9l-28.8-5.1c-6.6-1.2-12.9 3.3-14.1 9.9l-3.4 19.2c-1.2 6.6 3.3 12.9 9.9 14.1l28.8 5.1c6.6 1.2 12.9-3.3 14.1-9.9l3.4-19.2c1.1-6.6-3.3-12.9-9.9-14.1zm1.7 32.4c-.7 4-4.5 6.6-8.5 5.9l-28.8-5.1c-4-.7-6.6-4.5-5.9-8.5l3.4-19.2c.7-4 4.5-6.6 8.5-5.9l28.8 5.1c4 .7 6.6 4.5 5.9 8.5l-3.4 19.2z"/><path class="st2" d="M636.8-277.1l-28.8-5.1c-6.6-1.2-12.9 3.3-14.1 9.9l-3.4 19.2c-1.2 6.6 3.3 12.9 9.9 14.1l28.8 5.1c6.6 1.2 12.9-3.3 14.1-9.9l3.4-19.2c1.1-6.6-3.3-12.9-9.9-14.1zm1.7 32.5c-.7 4-4.5 6.6-8.5 5.9l-28.8-5.1c-4-.7-6.6-4.5-5.9-8.5l3.4-19.2c.7-4 4.5-6.6 8.5-5.9l28.8 5.1c4 .7 6.6 4.5 5.9 8.5l-3.4 19.2z"/></g><g id="calcolatrice"><path class="st3" d="M1681.9-330.6l-33.9-36.1c-2.6-2.8-7.1-2.9-9.9-.3l-53.9 50.6c-2.8 2.6-2.9 7.1-.3 9.9l33.9 36.1c2.6 2.8 7.1 2.9 9.9.3l53.9-50.6c2.8-2.6 3-7.1.3-9.9z"/><path class="st19" d="M1588.2-316.4c-2.8 2.6-2.9 7.1-.3 9.9l33.9 36.1c2.6 2.8 7.1 2.9 9.9.3l53.9-50.6c2.8-2.6 2.9-7.1.3-9.9l-33.9-36.1c-2.6-2.8-7.1-2.9-9.9-.3l-53.9 50.6z"/><rect x="1624.7" y="-345" transform="matrix(.684 .729 -.729 .684 266.119 -1295.384)" class="st11" width="9.3" height="9.3"/><rect x="1634.2" y="-334.7" transform="matrix(.684 .729 -.729 .684 276.614 -1299.087)" class="st11" width="9.3" height="9.3"/><rect x="1643.8" y="-324.5" transform="matrix(.684 .729 -.729 .684 287.116 -1302.864)" class="st11" width="9.3" height="9.3"/><rect x="1653.4" y="-314.2" transform="matrix(.684 .729 -.729 .684 297.6 -1306.633)" class="st11" width="9.3" height="9.3"/><rect x="1614.4" y="-335.4" transform="matrix(.684 .729 -.729 .684 269.721 -1284.664)" class="st11" width="9.3" height="9.3"/><rect x="1624.1" y="-325.2" transform="matrix(.684 .729 -.729 .684 280.358 -1288.732)" class="st11" width="9.3" height="9.3"/><rect x="1633.6" y="-314.9" transform="matrix(.684 .729 -.729 .684 290.978 -1292.563)" class="st11" width="9.3" height="9.3"/><rect x="1643.3" y="-304.7" transform="matrix(.684 .729 -.729 .684 301.362 -1296.216)" class="st11" width="9.3" height="9.3"/><rect x="1604.1" y="-325.7" transform="matrix(.684 .729 -.729 .684 273.807 -1274.484)" class="st11" width="9.3" height="9.3"/><rect x="1613.8" y="-315.5" transform="matrix(.684 .729 -.729 .684 284.188 -1278.097)" class="st11" width="9.3" height="9.3"/><rect x="1623.4" y="-305.3" transform="matrix(.684 .729 -.729 .684 294.632 -1281.93)" class="st11" width="9.3" height="9.3"/><rect x="1633" y="-295" transform="matrix(.684 .729 -.729 .684 305.148 -1285.671)" class="st11" width="9.3" height="9.3"/><rect x="1594" y="-316.2" transform="matrix(.684 .729 -.729 .684 277.302 -1263.723)" class="st11" width="9.3" height="9.3"/><rect x="1603.6" y="-305.9" transform="matrix(.685 .729 -.729 .685 287.72 -1267.395)" class="st11" width="9.3" height="9.3"/><rect x="1610.9" y="-290.5" transform="matrix(.684 .729 -.729 .684 303.655 -1273.256)" class="st33" width="23.4" height="9.3"/><rect x="1631.7" y="-347.1" transform="matrix(.684 .729 -.729 .684 276.831 -1314.969)" class="st34" width="51.4" height="18.7"/><rect x="1661.5" y="-335.6" transform="matrix(.684 .729 -.729 .684 283.944 -1317.735)" class="st35" width="4.7" height="9.3"/><rect x="1667.8" y="-328.8" transform="matrix(.685 .729 -.729 .685 290.244 -1319.311)" class="st35" width="4.7" height="9.4"/><rect x="1648.7" y="-349.2" transform="matrix(.684 .729 -.729 .684 270.128 -1312.863)" class="st35" width="4.7" height="9.3"/><rect x="1654.9" y="-342.3" transform="matrix(.684 .729 -.729 .684 277.022 -1315.047)" class="st35" width="4.7" height="9.3"/></g><text id="hello" transform="translate(526.706 21.209)" class="st35 st36 st37">hello</text><g id="subtitle"><text id="scrolldown" transform="translate(905.574 21.209)" class="st38 st39 st40">scroll down</text><text id="viewresume" transform="translate(980.175 21.209)" class="st41 st39 st40">or just view my resume.</text></g></g><g id="scrollthing"><rect x="1465.7" y="-574.7" class="st42" width="14.7" height="170.5"/><g id="moving"><rect id="scrollertop" x="1467.3" y="-572.4" class="st0" width="11.5" height="81.6"/><g id="cursor"><polygon class="st42" points="1445,-536.3 1445,-535.3 1440.9,-535.3 1440.9,-533.4 1440.9,-533.4 1439.9,-533.4 1439.9,-536.3 1439.9,-536.3 1440.9,-536.3 1442.9,-536.3 1442.9,-537.2 1443.9,-537.2 1443.9,-536.3"/><polygon class="st42" points="1443.9,-529.5 1443.9,-527.6 1442.8,-527.6 1442.8,-527.6 1442.8,-529.5 1442.9,-529.5"/><rect x="1441.9" y="-538.1" class="st42" width="1" height="1"/><polygon class="st42" points="1442.9,-531.5 1442.9,-529.5 1442.8,-529.5 1441.9,-529.5 1441.9,-531.5 1441.9,-531.5"/><polygon class="st42" points="1442.8,-527.6 1442.8,-526.6 1440.9,-526.6 1440.9,-527.6 1440.9,-527.6 1442.8,-527.6"/><rect x="1440.9" y="-539.1" class="st42" width="1" height="1"/><polygon class="st42" points="1441.9,-533.4 1441.9,-531.5 1441.9,-531.5 1440.9,-531.5 1440.9,-533.4 1440.9,-533.4"/><polygon class="st42" points="1440.9,-529.5 1440.9,-527.6 1440.9,-527.6 1439.9,-527.6 1439.9,-529.5"/><rect x="1439.9" y="-540.1" class="st42" width="1" height="1"/><polygon class="st42" points="1439.9,-529.5 1439.9,-529.5 1438.9,-529.5 1438.9,-531.4 1438.9,-531.4 1439.9,-531.4"/><rect x="1438.9" y="-541.1" class="st42" width="1" height="1"/><polygon class="st42" points="1438.9,-533.4 1438.9,-531.4 1438.9,-531.4 1437.9,-531.4 1437.9,-533.4 1437.9,-533.4"/><rect x="1437.9" y="-542.1" class="st42" width="1" height="1"/><rect x="1436.9" y="-543.1" class="st42" width="1" height="1"/><polygon class="st42" points="1437.9,-533.4 1437.9,-533.4 1436.9,-533.4 1436.9,-533.4 1436.9,-535.3 1437.9,-535.3"/><rect x="1435.9" y="-544.1" class="st42" width="1" height="1"/><polygon class="st42" points="1436.9,-533.4 1436.9,-532.4 1435.9,-532.4 1435.9,-533.4 1436.9,-533.4"/><rect x="1434.9" y="-532.4" class="st42" width="1" height="1"/><rect x="1434.9" y="-545.1" class="st42" width="1" height="1"/><polygon class="st42" points="1434.9,-531.4 1434.9,-530.4 1433.9,-530.4 1433.9,-529.6 1432.9,-529.6 1432.9,-547.1 1433.9,-547.1 1433.9,-546.1 1434.9,-546.1 1434.9,-545.1 1433.9,-545.1 1433.9,-531.4"/></g></g></g><g id="intro3"><text transform="translate(531.041 284.049)" class="st43 st44 st45">a design and technology hybrid .</text><text transform="translate(529.153 224.449)" class="st43 st44 st45">- Participate in the design process: Discover, Ideate, Design &amp; Def ine</text><text transform="translate(529.153 246.049)" class="st43 st44 st45">- Leads the UI development efforts across all web applications, ensuring best practices are followed at all times.</text><text transform="translate(529.153 202.249)" class="st43 st44 st45">* An engineer who has the technical knowhow and edge to create production code and:</text></g><text transform="translate(526.693 146.049)" class="st46 st44 st47" id="intro2">I’m Lead Product Design Engineer* @ Workshare.com, London</text><g id="intro1"><text transform="translate(527.193 60.602)" class="st35 st44 st47">I’m Albino Tonnina,</text><text transform="translate(527.193 96.602)" class="st35 st44 st47">a self-taught developer.</text></g></svg>