<svg id="svg1" xmlns="http://www.w3.org/2000/svg" viewBox="496 -368 1024 768"><style>.st0{fill:#3498db}.st1{opacity:.6;fill:none;stroke:#efefef;stroke-miterlimit:10;enable-background:new}.st2{fill:#586273}.st3{opacity:.8;fill:#2980b9;enable-background:new}.st4{fill:#e6e9ed}.st5{opacity:.3;fill:#b7bfc7;enable-background:new}.st6{fill:#dce4e8}.st7{display:none;fill:url(#mbplight_1_)}.st8{fill:#ccd1d9}.st10,.st9{stroke-miterlimit:10}.st9{display:none;fill:#f5f7fa;stroke:#ccd1d9}.st10{fill:#3b3b3b;stroke:#c1c1c1}.st11{fill:#e74c3c}.st12{fill:#d8d8da}.st13{fill:#aab2bd}.st14{fill:#fff}.st15{fill:#e6e7e8}.st16{fill:#49433c}.st17{fill:#363532}.st18{fill:#434a54}.st19{fill:#f7f9f8}.st20{fill:#44c650}.st21{fill:none}.st22{fill:#2980b9}.st23{fill:#58585c}.st24{fill:#464e5c}.st25{fill:#f7d39a}.st26{fill:#da4453}.st27{opacity:.8}.st28{fill:#ebf4ff}.st29{fill:#e5e5e5}.st30{fill:#b7bfc7}.st31{opacity:.3}.st32{fill:#efeeee}.st33{fill:#656d78}.st34{fill:#2c3e50}.st35{fill:#ecf0f1}.st36{font-family:&apos;Roboto-Black&apos;}.st37{font-size:120px}.st38{fill:#f5ecd9}.st39{font-family:&apos;Roboto-Regular&apos;}.st40{font-size:14px}.st41{fill:#ded6c7}.st42{fill:#4caee5}.st43{fill:#01050a}.st44{font-family:&apos;Roboto-Thin&apos;}.st45{font-size:18px}.st46{fill:#f5f7fa}.st47{font-size:30px}</style><rect x="-6589.3" y="-7630.2" class="st0" width="16291.8" height="14784" id="bg"/><path id="wire1" class="st1" d="M516.4-414.6c45.9 59.7 97.6 127.8 180.5 125.9 65.6-1.5 127.1-41.7 193.4-31.3 67.3 10.6 116.7 71.3 167.2 111.7 53.2 42.6 112.2 66.4 172 97.3 46 23.8 69.2 58.5 77.5 109.3 5.8 35.4-.1 84.2 22.4 114.6 29.1 39.5 157 60 101 134.8-53 70.9-150.8 81.9-210.6 115.8-16.1 9.1-38.5 26.3-51.5 34.8l-2 1.3"/><g id="introduction" xmlns:dc="http://purl.org/dc/elements/1.1/" xmlns:inkscape="http://www.inkscape.org/namespaces/inkscape" xmlns:rdf="http://www.w3.org/1999/02/22-rdf-syntax-ns#" xmlns:cc="http://creativecommons.org/ns#" xmlns:svg="http://www.w3.org/2000/svg" xmlns:sodipodi="http://sodipodi.sourceforge.net/DTD/sodipodi-0.dtd" sodipodi:docname="drawing.svg" inkscape:version="0.48.4 r9939"><g id="macbook"><path class="st2" d="M1436.7-63.3c0 .1 0 0 0 0z"/><path class="st3" d="M1467.6-90.7l-342.2-155.9s-8.2-3.7-11.9 4.5c-3.7 8.2 4.5 11.9 4.5 11.9l24.6 11.2s-8.2-3.7-11.9 4.5c-4.7 10.3-4.7 10.2-77.5 170.2-3.9 8.5.8 19 9.3 22.9L1340.1 105c8.5 3.9 18.6.1 22.5-8.4 0 0 59.1-129.8 74.2-162.9.1-.2.6-1.3 3.3-7.3 3.7-8.2-4.5-11.9-4.5-11.9l24.6 11.2s8.2 3.7 11.9-4.5c3.7-8.2-4.5-11.9-4.5-11.9z"/><path class="st4" d="M1369.5 94.6c-3.9 8.5-14 12.3-22.5 8.4L1069.4-23.4c-8.5-3.9-13.2-14.4-9.3-22.9 0 0 73.8-162 77.5-170.2 3.7-8.2 11.9-4.5 11.9-4.5l293 133.5s8.2 3.7 4.5 11.9c-3.7 8.2-77.5 170.2-77.5 170.2z"/><path class="st5" d="M1442.7-68.3l-364.2-20.6s54.4-119.4 58.1-127.6c3.7-8.2 11.9-4.5 11.9-4.5l293 133.5s8.2 3.7 4.5 11.9-3.3 7.3-3.3 7.3z"/><rect x="1212.2" y="-154.5" transform="rotate(24.489 1293.16 -150.037)" class="st6" width="161.9" height="9"/><radialGradient id="mbplight_1_" cx="1808.403" cy="-11527.22" r="163.218" gradientTransform="matrix(.9118 .4011 .0955 -.1842 737.006 -3000.585)" gradientUnits="userSpaceOnUse"><stop offset=".103" stop-color="#3498db" stop-opacity=".4"/><stop offset=".795" stop-color="#3498db" stop-opacity=".057"/><stop offset=".909" stop-color="#3498db" stop-opacity="0"/></radialGradient><polygon id="mbplight" class="st7" points="1458.5,-41.5 1123.8,-192 1167.9,-231.8 1467,-95.4"/><path class="st8" d="M1466.1-76.3l-342.2-155.9s-8.2-3.7-4.5-11.9 11.9-4.5 11.9-4.5l342.3 155.9s8.2 3.7 4.5 11.9c-3.8 8.2-12 4.5-12 4.5z"/><rect x="1175.6" y="-18.1" transform="rotate(24.489 1222.097 4.906)" class="st9" width="92.9" height="46"/><rect x="1169.7" y="-170.4" transform="rotate(24.487 1178.667 -164.377)" class="st10" width="18" height="12"/><rect x="1160.8" y="-153.2" transform="rotate(24.489 1169.822 -144.71)" class="st10" width="18" height="17"/><rect x="1149.9" y="-128.9" transform="rotate(24.489 1164.982 -119.4)" class="st10" width="30" height="19"/><rect x="1139.4" y="-103.5" transform="rotate(24.487 1160.86 -94.967)" class="st10" width="43" height="17"/><rect x="1182.7" y="-143.1" transform="rotate(24.489 1192.258 -134.59)" class="st10" width="19" height="17"/><rect x="1183.2" y="-116.4" transform="matrix(.91 .4145 -.4145 .91 63 -504.026)" class="st10" width="19" height="19"/><rect x="1185" y="-88.1" transform="rotate(24.489 1194.546 -79.62)" class="st10" width="19" height="17"/><rect x="1207" y="-78.4" transform="rotate(24.489 1216.05 -69.855)" class="st10" width="18" height="17"/><rect x="1229.7" y="-68.1" transform="rotate(24.487 1238.689 -59.56)" class="st10" width="18" height="17"/><rect x="1251.6" y="-58" transform="rotate(24.489 1260.67 -49.524)" class="st10" width="18" height="17"/><rect x="1274.3" y="-47.8" transform="rotate(24.487 1283.285 -39.28)" class="st10" width="18" height="17"/><rect x="1295.2" y="-38.1" transform="rotate(24.487 1304.616 -29.602)" class="st10" width="19" height="17"/><rect x="1316.9" y="-22.7" transform="rotate(24.489 1338.5 -14.163)" class="st10" width="43" height="17"/><rect x="1206" y="-106.1" transform="rotate(24.489 1215.004 -96.628)" class="st10" width="18" height="19"/><rect x="1227.8" y="-95.9" transform="rotate(24.489 1237.338 -86.43)" class="st10" width="19" height="19"/><rect x="1250.6" y="-86" transform="rotate(24.481 1259.613 -76.478)" class="st10" width="18" height="19"/><rect x="1272.4" y="-75.8" transform="rotate(24.489 1282.001 -66.266)" class="st10" width="19" height="19"/><rect x="1295.2" y="-65.5" transform="rotate(24.489 1304.272 -56.052)" class="st10" width="18" height="19"/><rect x="1317" y="-55.4" transform="rotate(24.489 1326.54 -45.943)" class="st10" width="19" height="19"/><rect x="1339.2" y="-42.8" transform="rotate(24.487 1354.148 -33.288)" class="st10" width="30" height="19"/><rect x="1205.3" y="-132.6" transform="rotate(24.489 1214.903 -124.098)" class="st10" width="19" height="17"/><rect x="1227.4" y="-122.8" transform="rotate(24.489 1236.413 -114.312)" class="st10" width="18" height="17"/><rect x="1250" y="-112.7" transform="rotate(24.487 1258.991 -104.182)" class="st10" width="18" height="17"/><rect x="1272" y="-102.7" transform="rotate(24.487 1280.897 -94.168)" class="st10" width="18" height="17"/><rect x="1294.5" y="-92.2" transform="rotate(24.481 1303.536 -83.735)" class="st10" width="18" height="17"/><rect x="1315.5" y="-82.7" transform="rotate(24.487 1324.906 -74.18)" class="st10" width="19" height="17"/><rect x="1337.2" y="-67.2" transform="rotate(24.487 1358.67 -58.733)" class="st10" width="43" height="17"/><rect x="1130.6" y="-87.8" transform="rotate(24.487 1139.522 -78.26)" class="st10" width="18" height="19"/><rect x="1152.4" y="-77.5" transform="rotate(24.489 1161.927 -68.015)" class="st10" width="19" height="19"/><rect id="spacebar" x="1170.8" y="-47.1" transform="rotate(24.489 1228.787 -37.625)" class="st10" width="115.9" height="19"/><rect x="1285.2" y="-17.2" transform="rotate(24.487 1294.626 -7.681)" class="st10" width="19" height="19"/><rect x="1308" y="-6.8" transform="rotate(24.487 1317.446 2.653)" class="st10" width="19" height="19"/><rect x="1330.7" y="3.4" transform="rotate(24.487 1339.658 12.89)" class="st10" width="18" height="19"/><rect x="1191.6" y="-160.1" transform="rotate(24.489 1201.157 -154.148)" class="st10" width="19" height="12"/><rect x="1214.3" y="-149.8" transform="rotate(24.487 1223.752 -143.84)" class="st10" width="19" height="12"/><rect x="1236.2" y="-140" transform="rotate(24.489 1245.242 -134.005)" class="st10" width="18" height="12"/><rect x="1258.9" y="-129.6" transform="rotate(24.489 1267.955 -123.618)" class="st10" width="18" height="12"/><rect x="1280.8" y="-119.8" transform="rotate(24.487 1289.766 -113.746)" class="st10" width="18" height="12"/><rect x="1303.5" y="-109.4" transform="rotate(24.487 1312.47 -103.36)" class="st10" width="18" height="12"/><rect x="1324.5" y="-99.6" transform="rotate(24.487 1333.926 -93.642)" class="st10" width="19" height="12"/><rect x="1347.2" y="-89.2" transform="rotate(24.489 1356.728 -83.192)" class="st10" width="19" height="12"/><rect x="1369.8" y="-79" transform="rotate(24.495 1378.839 -72.972)" class="st10" width="18" height="12"/></g><g id="bevanda"><circle class="st3" cx="917.7" cy="-232.8" r="50.6"/><circle class="st4" cx="922.7" cy="-234.8" r="50.6"/><path class="st11" d="M922.7-276.5c23 0 41.7 18.7 41.7 41.7s-18.7 41.7-41.7 41.7c-10.4 0-19.9-3.8-27.2-10.1-8.9-7.6-14.5-19-14.5-31.6 0-23 18.7-41.7 41.7-41.7z"/><path id="linecover1" class="st4" d="M922.7-277.5c23.6 0 42.7 19.1 42.7 42.7s-19.1 42.7-42.7 42.7c-10.6 0-20.3-3.9-27.8-10.3-9.1-7.8-14.9-19.4-14.9-32.4 0-23.6 19.1-42.7 42.7-42.7z"/><ellipse transform="rotate(-83.2 908.81 -202.701)" class="st12" cx="908.8" cy="-202.7" rx="7.7" ry="11.6"/><polygon class="st8" points="859.5,-212.6 900.4,-205.6 899.9,-202.1 858.6,-204.9"/><ellipse transform="rotate(-83.2 908.812 -202.7)" class="st13" cx="908.8" cy="-202.7" rx="6.4" ry="9.6"/><path class="st14" d="M895.4-277.7l9.7 12.5c1.6 2.1 1.2 5-.8 6.7-2.1 1.6-5 1.2-6.6-.8l-9.7-12.5c-1.6-2.1-1.2-5 .8-6.7 2-1.6 5-1.2 6.6.8z"/><circle class="st14" cx="922.7" cy="-234.8" r="34.8"/><circle class="st15" cx="922.7" cy="-234.8" r="31.3"/><circle class="st16" cx="922.7" cy="-234.8" r="29.6"/><path class="st17" d="M901.5-218.3c9.1 11.7 26 13.8 37.7 4.7.7-.5.8-1.5.3-2.2s-1.5-.8-2.2-.3l-.9.6-.2.2c-.3.2-.6.4-.8.5-.1.1-.2.1-.3.2l-.6.3c-.1.1-.3.1-.4.2-.2.1-.5.2-.7.4-.2.1-.4.2-.5.3s-.3.1-.4.2c-.2.1-.3.2-.5.2-.2.1-.5.2-.7.3-.2.1-.3.1-.5.2s-.3.1-.5.2c-.1.1-.3.1-.4.1-.3.1-.6.2-.9.2-.1 0-.2.1-.3.1-.2.1-.5.1-.8.2-.1 0-.2 0-.2.1-.3.1-.7.1-1 .2h-.1c-.2 0-.4.1-.6.1-.1 0-.3 0-.4.1h-.1c-.7.1-1.5.1-2.2.1-.7 0-1.5 0-2.2-.1h-.1c-.3 0-.7-.1-1-.1h-.1c-.3 0-.6-.1-.9-.1-.1 0-.3 0-.4-.1-.2 0-.4-.1-.5-.1-.6-.1-1.3-.3-1.9-.5-3.4-1-6.6-2.8-9.2-5.2h-.1l-.4-.4-.4-.4-.4-.4c-.2-.2-.4-.4-.6-.7-.1-.1-.1-.2-.2-.2-.2-.3-.5-.5-.7-.8l-.6-.9c-.1-.1-.1-.2-.2-.3-.2-.2-.3-.5-.5-.7-.1-.1-.2-.3-.3-.4-.1-.1-.2-.3-.3-.4-.1-.2-.2-.4-.3-.5v-.1c-1.7-3.2-2.6-6.7-2.8-10.3v-2-.5-.4c0-.3.1-.6.1-1v-.1c0-.3.1-.7.1-1v-.1c.1-.7.3-1.4.5-2.2.2-.7.4-1.4.7-2.1v-.1c.1-.1.1-.3.2-.4.1-.2.2-.4.2-.6v-.1c.1-.3.3-.6.4-.9 0-.1.1-.1.1-.2.1-.2.2-.5.4-.7.1-.1.1-.2.2-.3.1-.3.3-.5.4-.8.1-.1.2-.3.3-.4.1-.1.2-.3.3-.4.1-.1.2-.3.3-.4.2-.2.3-.4.5-.6.1-.1.2-.3.3-.4l.3-.3c.1-.2.3-.3.4-.5.2-.2.3-.4.5-.6l.3-.3.5-.5c.1-.1.1-.2.2-.2.2-.2.5-.4.7-.7l.2-.2c.3-.2.5-.5.8-.7.7-.5.8-1.5.3-2.2s-1.5-.8-2.2-.3c-11.7 9.1-13.8 26-4.7 37.7zM911.4-257.5c.3.8 1.3 1.2 2.1.8l.6-.3h.1c.2-.1.4-.1.6-.2.1 0 .1 0 .2-.1.2-.1.4-.1.6-.2.4-.1.9-.3 1.4-.4h.2c.4-.1.9-.2 1.3-.3.1 0 .2 0 .3-.1h-.2.2c.1 0 .3 0 .4-.1h.1-.1.2c.6-.1 1.1.2 1.4.6.2.2.3.5.3.8.1.9-.5 1.7-1.3 1.8-1.3.2-2.6.5-3.9.9h-.1c-.4.1-.8.3-1.2.5-.8.3-1.1 1.3-.8 2.1.3.8 1.3 1.2 2.1.8 2.2-.9 4.5-1.4 6.9-1.4h2.2c.4.1.7.3.9.6.2.3.4.7.3 1.2-.1.9-.9 1.5-1.8 1.4-2.5-.3-5 0-7.2 1h-.1c-.8.3-1.2 1.3-.8 2.1.3.8 1.3 1.2 2.1.8 4.6-1.9 10-.5 13 3.4 3.1 4 3.1 9.5.1 13.5-.5.7-.4 1.7.3 2.2.7.5 1.7.4 2.2-.3l.2-.2c1.4-1.9 2.3-4.2 2.6-6.6.1-.9.9-1.5 1.8-1.4.4.1.8.3 1.1.6.2.3.4.7.3 1.1v.1c0 .1 0 .2-.1.3v.3c0 .1-.1.3-.1.4 0 .1 0 .2-.1.3 0 .2-.1.3-.1.5v.2c-.6 2.3-1.6 4.4-3 6.3-.5.7-.4 1.7.3 2.2.7.5 1.7.4 2.2-.3.3-.4.5-.7.8-1.1v-.1c.7-1.1 1.4-2.3 1.9-3.5.3-.8 1.2-1.2 2.1-.9.3.1.5.3.6.5.3.4.4 1 .2 1.5 0 .1 0 .1-.1.2-.1.2-.2.4-.2.6 0 .1-.1.2-.1.3l-.3.6c0 .1-.1.2-.1.2l-.3.6c0 .1-.1.1-.1.2-.1.3-.3.5-.5.8v.1c-.1.2-.2.4-.4.6l-.1.1c-.1.1-.1.2-.2.3s-.1.1-.1.2l-.1.1c-.1.2-.3.4-.4.6-.5.7-.4 1.7.3 2.2.7.5 1.7.4 2.2-.3 7.3-9.7 7.3-23.1-.2-32.7-7.4-9.6-20.5-13-31.6-8.3-.9.6-1.3 1.5-1 2.3zm33 32.4c0 .1-.1.2-.1.2 0-.1 0-.2.1-.2zm-.4.8c0 .1-.1.1-.1.2 0 0 0-.1.1-.2zm-.5.9l-.1.1s.1 0 .1-.1zm1.1-2.4s0-.1.1-.1l-.1.1c.1 0 0 0 0 0z"/><path class="st17" d="M941.6-220.4c0-.1 0-.1 0 0 .2-.2.3-.4.4-.6-.1.2-.3.4-.4.6z"/></g><g id="mouse"><path class="st3" d="M1473.9 114.6s0-.1 0 0c-9.8-7.2-23.6-5.2-30.9 4.6l-.1.1-.1.2-24.6 33.3c-.1.1-.2.3-.2.4l-1.3 1.8c-7.2 9.9-5 23.5 4.7 30.7 9.8 7.3 23.7 5.1 30.9-4.6l26.2-35.5c7.3-9.9 5.2-23.8-4.6-31z"/><path class="st8" d="M1448.8 118.4l-.2.3L1424 152c-.1.1-.1.2-.2.3l-1.2 1.6c-7.3 10.1-5.1 23.6 4.7 30.9l52.4-70.9c-9.8-7.3-23.6-5.2-30.9 4.5z"/><path class="st4" d="M1479.7 113.9l-52.5 70.9c9.8 7.3 23.7 5.2 30.9-4.6l-.1-.1.1.1 26.2-35.4c7.3-9.8 5.2-23.7-4.6-30.9z"/></g><g id="iphone"><path class="st3" d="M1458.9-186.2l38.5-44.1c3-3.5 2.7-8.8-.8-11.8l-88.1-77c-3.5-3-8.8-2.7-11.8.8l-38.5 44.1c-3 3.5-2.7 8.8.8 11.8l88.1 77c3.4 3 8.7 2.6 11.8-.8z"/><path class="st18" d="M1402.2-319.4l-38.5 44.1c-3 3.5-2.7 8.8.8 11.8l88.1 77c3.5 3 8.8 2.7 11.8-.8l38.5-44.1c3-3.5 2.7-8.8-.8-11.8l-88.1-77c-3.5-3-8.8-2.7-11.8.8z"/><path class="st2" d="M1490.3-242.4l-38.5 44.1-81.8-71.5 38.5-44 81.8 71.4z"/><rect x="1471.3" y="-216.8" transform="rotate(-48.85 1477.586 -214.632)" class="st18" width="12.5" height="4.2"/><path class="st19" d="M1370-269.8l81.8 71.5 38.5-44.1-81.8-71.5-38.5 44.1z"/><path class="st20" d="M1433.9-275.4l-5.5-2.6c-.6-.3-1.5-.3-2.1 0l-9.2 4.3-1.3-1.1c-.4-2.2-1.7-4.6-3.9-6.4l-1.7-1.5c-3-2.6-7.5-2.5-10 .4s-2.1 7.3.9 10l1.7 1.5c2.1 1.9 4.6 2.9 6.9 3l1.3 1.1-3.1 9.7c-.2.6 0 1.5.3 2.1l3.3 5.1c.3.5 1 .6 1.4.1l10.6-12.1 10.6-12.1c.5-.6.3-1.2-.2-1.5z"/><rect x="1417.1" y="-256.2" transform="rotate(-48.86 1435.075 -251.729)" class="st6" width="35.9" height="9"/><rect x="1427.4" y="-247.3" transform="rotate(-48.85 1445.35 -242.793)" class="st6" width="35.9" height="9"/><rect x="1446.2" y="-238.4" transform="rotate(-48.85 1455.132 -233.86)" class="st6" width="17.9" height="9"/><circle class="st2" cx="1436.2" cy="-232.7" r="1.7"/><circle class="st2" cx="1442.1" cy="-239.4" r="1.7"/><circle class="st2" cx="1439.2" cy="-236" r="1.7"/><path class="st2" d="M1446.2-244.1c.7.6.8 1.7.1 2.4-.6.7-1.7.8-2.4.2-.7-.6-.8-1.7-.1-2.4.6-.7 1.7-.8 2.4-.2z"/><circle class="st2" cx="1426.1" cy="-241.5" r="1.7"/><circle class="st2" cx="1437.9" cy="-255" r="1.7"/><circle class="st2" cx="1432" cy="-248.3" r="1.7"/><circle class="st2" cx="1429.1" cy="-244.9" r="1.7"/><circle class="st2" cx="1435" cy="-251.6" r="1.7"/><rect x="1450.8" y="-235.1" transform="rotate(-48.868 1455.338 -233.71)" class="st11" width="9" height="2.7"/><path class="st21" d="M1402.2-319.4l-29.9 34.2 113.6 73.3 17.1-19.5c3-3.5 2.7-8.8-.8-11.8l-88.1-77c-3.6-3-8.9-2.7-11.9.8z"/></g><g id="matita1"><polygon class="st3" points="1616.1,-50.4 1554.1,-178.4 1548.8,-175.8 1543.4,-173.3 1605.5,-45.2 1610.8,-47.8"/><polygon class="st22" points="1619.9,-32.4 1616.1,-50.4 1605.5,-45.2 1617.2,-31.1 1621.2,-26.5"/><polygon class="st23" points="1614.9,-48.9 1555.5,-171.6 1552.9,-176.9 1547.5,-174.4 1609.6,-46.3"/><polygon class="st23" points="1614.9,-48.9 1620.2,-51.5 1558.2,-179.5 1552.9,-176.9 1555.5,-171.6"/><polygon class="st24" points="1625.2,-27.5 1624,-33.5 1621.3,-32.2"/><polygon class="st25" points="1624,-33.5 1620.2,-51.5 1609.6,-46.3 1621.3,-32.2"/><g><rect x="1554.5" y="-163" transform="scale(-1) rotate(-25.863 700.552 6796.62)" class="st26" width="11.9" height="4.4"/></g></g><g id="foglio2"><g class="st27"><polygon class="st22" points="663.7,-361.7 639.6,-173.2 790.4,-153.9 814.5,-342.5 816.1,-355 665.4,-374.3"/></g><rect x="654.5" y="-355.5" transform="rotate(7.285 730.504 -260.527)" class="st28" width="151.9" height="190"/><rect x="667.4" y="-367.5" transform="rotate(7.285 743.416 -361.164)" class="st20" width="151.9" height="12.7"/><rect x="701.5" y="-289.1" transform="scale(-1) rotate(7.285 -4441.74 -11119.524)" class="st21" width="12.7" height="12.7"/><rect x="724" y="-286.7" transform="rotate(7.279 727.214 -283.552)" class="st21" width="6.3" height="6.3"/><rect x="678.7" y="-303.2" transform="rotate(7.285 710.342 -301.592)" class="st18" width="63.2" height="3.2"/><rect x="747.8" y="-295.7" transform="rotate(7.285 768.39 -294.119)" class="st0" width="41.1" height="3.2"/><rect x="671.4" y="-293.9" transform="rotate(7.285 733.142 -292.295)" class="st0" width="123.4" height="3.2"/><rect x="677.1" y="-292.7" transform="rotate(7.285 692.96 -291.118)" class="st0" width="31.6" height="3.2"/><rect x="714.8" y="-288.9" transform="rotate(7.297 721.14 -287.403)" class="st18" width="12.7" height="3.2"/><rect x="733.5" y="-284.1" transform="rotate(7.285 760.466 -282.52)" class="st0" width="53.8" height="3.2"/><rect x="661.3" y="-243.5" transform="rotate(7.285 677.132 -241.922)" class="st18" width="31.6" height="3.2"/><rect x="659.7" y="-231.9" transform="rotate(7.297 669.227 -230.385)" class="st18" width="19" height="3.2"/><rect x="684.8" y="-229" transform="rotate(7.297 691.167 -227.498)" class="st18" width="12.7" height="3.2"/><rect x="660.5" y="-237.8" transform="rotate(7.285 673.212 -236.208)" class="st18" width="25.3" height="3.2"/><rect x="658.9" y="-224.7" transform="rotate(7.285 674.743 -223.118)" class="st18" width="31.6" height="3.2"/><rect x="664.1" y="-279.5" transform="rotate(7.297 683.029 -263.743)" class="st8" width="38" height="31.7"/><rect x="706.7" y="-224.7" transform="rotate(7.285 725.765 -223.115)" class="st18" width="38" height="3.2"/><rect x="706" y="-220" transform="rotate(7.285 712.408 -218.412)" class="st18" width="12.7" height="3.2"/><rect x="725" y="-218" transform="rotate(7.297 728.106 -216.42)" class="st18" width="6.3" height="3.2"/><rect x="707.6" y="-232.2" transform="rotate(7.285 717.165 -230.614)" class="st18" width="19" height="3.2"/><rect x="732.8" y="-229.2" transform="rotate(7.285 739.184 -227.608)" class="st18" width="12.7" height="3.2"/><rect x="708.4" y="-237.5" transform="rotate(7.285 724.238 -235.921)" class="st18" width="31.6" height="3.2"/><rect x="711.1" y="-273.5" transform="rotate(7.285 730.166 -257.67)" class="st8" width="38" height="31.7"/><rect x="755.5" y="-231.2" transform="rotate(7.285 774.555 -229.604)" class="st18" width="38" height="3.2"/><rect x="753.9" y="-219.4" transform="rotate(7.297 766.568 -217.894)" class="st18" width="25.3" height="3.2"/><rect x="755.8" y="-226.5" transform="rotate(7.285 762.198 -224.903)" class="st18" width="12.7" height="3.2"/><rect x="753.1" y="-213.6" transform="rotate(7.285 762.667 -212.006)" class="st18" width="19" height="3.2"/><rect x="778.3" y="-210.7" transform="rotate(7.285 784.693 -209.105)" class="st18" width="12.7" height="3.2"/><rect x="773.5" y="-223.6" transform="rotate(7.297 783.013 -222.109)" class="st18" width="19" height="3.2"/><rect x="758.3" y="-267.4" transform="rotate(7.285 777.36 -251.607)" class="st8" width="38" height="31.6"/><rect x="671.3" y="-323.5" transform="rotate(7.285 737.806 -317.16)" class="st8" width="132.9" height="12.7"/><rect x="678.3" y="-325.5" transform="rotate(7.285 685.01 -323.915)" class="st29" width="13.3" height="3.2"/><rect x="698" y="-326.9" transform="rotate(7.285 711.367 -320.573)" class="st18" width="26.6" height="12.7"/><rect x="704.8" y="-322.1" transform="rotate(7.285 711.499 -320.5)" class="st29" width="13.3" height="3.2"/><rect x="731.1" y="-318.7" transform="rotate(7.297 737.76 -317.188)" class="st29" width="13.3" height="3.2"/><rect x="757.5" y="-315.4" transform="rotate(7.285 764.214 -313.8)" class="st29" width="13.3" height="3.2"/><rect x="783.9" y="-312" transform="rotate(7.285 790.607 -310.41)" class="st29" width="13.3" height="3.2"/><rect x="677.1" y="-340.8" transform="rotate(7.285 715.155 -339.207)" class="st8" width="76" height="3.2"/><rect x="678.1" y="-350.7" transform="rotate(7.285 687.657 -349.104)" class="st8" width="19" height="3.2"/><g><rect x="655.2" y="-204.1" transform="rotate(7.285 721.714 -191.466)" class="st8" width="132.9" height="25.3"/></g></g><g id="foglio1"><rect x="491.6" y="-375.5" transform="rotate(-18.286 570.524 -264.377)" class="st22" width="157.9" height="222.2"/><rect x="461.5" y="-342.7" transform="rotate(71.718 572.616 -263.808)" class="st19" width="222.2" height="157.9"/><rect x="567.1" y="-320.9" transform="rotate(-18.286 595.627 -317.878)" class="st30" width="57" height="6"/><rect x="570.1" y="-311.4" transform="rotate(-18.286 598.644 -308.325)" class="st6" width="57" height="6"/><rect x="573.3" y="-301.8" transform="rotate(-18.286 601.864 -298.768)" class="st6" width="57" height="6"/><rect x="576.4" y="-292.4" transform="rotate(-18.286 604.942 -289.345)" class="st6" width="57" height="6"/><rect x="486.1" y="-326.8" transform="rotate(-18.286 553.027 -323.744)" class="st6" width="133.9" height="6"/><rect x="479.8" y="-355.8" transform="rotate(-18.286 546.727 -342.725)" class="st30" width="133.9" height="26"/><rect x="507.3" y="-262.2" transform="rotate(-18.286 574.288 -259.21)" class="st6" width="133.9" height="6"/><rect x="510.6" y="-252.8" transform="rotate(-18.286 577.573 -249.78)" class="st6" width="133.9" height="6"/><rect x="513.6" y="-243.3" transform="rotate(-18.286 580.587 -240.225)" class="st6" width="133.9" height="6"/><g><rect x="531.8" y="-188.2" transform="rotate(-18.286 598.799 -185.135)" class="st6" width="133.9" height="6"/><rect x="535.8" y="-173.9" transform="rotate(-18.286 587.77 -170.874)" class="st6" width="104" height="6"/></g><g><rect x="520.7" y="-218.1" transform="rotate(-18.286 565.257 -215.07)" class="st30" width="89" height="6"/><rect x="523.8" y="-208.7" transform="rotate(-18.286 568.333 -205.643)" class="st6" width="89" height="6"/><rect x="527" y="-199.1" transform="rotate(-18.286 571.557 -196.08)" class="st6" width="89" height="6"/><rect x="619.1" y="-241.3" transform="rotate(-18.276 636.605 -228.262)" class="st20" width="35" height="26"/></g><g><rect x="499.8" y="-289.6" transform="rotate(-18.286 503.367 -271.532)" class="st6" width="7" height="36"/><rect x="509.3" y="-292.8" transform="rotate(-18.286 512.81 -274.789)" class="st6" width="7" height="36"/><rect x="518.8" y="-295.9" transform="rotate(-18.286 522.337 -277.9)" class="st6" width="7" height="36"/><rect x="528.4" y="-299" transform="rotate(-18.286 531.859 -281.006)" class="st6" width="7" height="36"/><rect x="537.8" y="-302.2" transform="rotate(-18.286 541.336 -284.142)" class="st6" width="7" height="36"/><rect x="547.3" y="-305.3" transform="rotate(-18.268 550.854 -287.258)" class="st6" width="7" height="36"/><rect x="556.9" y="-308.3" transform="rotate(-18.286 560.394 -290.322)" class="st6" width="7" height="36"/><rect x="503" y="-270.1" transform="rotate(-18.268 506.562 -262.061)" class="st11" width="7" height="16"/><rect x="512" y="-276.2" transform="rotate(-18.286 515.557 -266.649)" class="st11" width="7" height="19"/><rect x="522.7" y="-272.4" transform="rotate(-18.286 526.15 -266.433)" class="st11" width="7" height="12"/><rect x="530.5" y="-285.4" transform="rotate(-18.286 534.052 -274.338)" class="st11" width="7" height="22"/><rect x="539.4" y="-292.4" transform="rotate(-18.286 542.964 -279.365)" class="st11" width="7" height="26"/><rect x="552.1" y="-276" transform="rotate(-18.286 555.545 -273.009)" class="st11" width="7" height="6"/><rect x="560" y="-288.9" transform="rotate(-18.268 563.478 -280.844)" class="st11" width="7" height="16"/></g></g><g id="occhiali"><path class="st2" d="M633.2-245.2c-1.3-.2-2.2-1.5-2-2.8 1.6-9.2-4.6-18.1-13.8-19.7l-86.3-15.2c-1.3-.2-2.2-1.5-2-2.8.2-1.3 1.5-2.2 2.8-2l86.3 15.2c11.9 2.1 19.9 13.5 17.8 25.4-.2 1.2-1.5 2.1-2.8 1.9z"/><path class="st2" d="M633.2-245.2c-1.3-.2-2.2-1.5-2-2.8 1.6-9.2-4.6-18.1-13.8-19.7l-86.3-15.2c-1.3-.2-2.2-1.5-2-2.8.2-1.3 1.5-2.2 2.8-2l86.3 15.2c11.9 2.1 19.9 13.5 17.8 25.4-.2 1.2-1.5 2.1-2.8 1.9z"/><path class="st2" d="M537.4-262.1c-1.3-.2-2.2-1.5-2-2.8 2.1-11.9 13.5-19.9 25.4-17.8l86.3 15.2c1.3.2 2.2 1.5 2 2.8-.2 1.3-1.5 2.2-2.8 2L560-277.9c-9.2-1.6-18.1 4.6-19.7 13.8-.4 1.4-1.6 2.2-2.9 2z"/><g class="st31"><path class="st32" d="M576.1-257.7c-.9 5.3-6 8.8-11.3 7.9l-28.8-5.1c-5.3-.9-8.8-6-7.9-11.3l3.4-19.2c.9-5.3 6-8.8 11.3-7.9l28.8 5.1c5.3.9 8.8 6 7.9 11.3l-3.4 19.2z"/></g><g class="st31"><path class="st32" d="M643.2-245.9c-.9 5.3-6 8.8-11.3 7.9l-28.8-5.1c-5.3-.9-8.8-6-7.9-11.3l3.4-19.2c.9-5.3 6-8.8 11.3-7.9l28.8 5.1c5.3.9 8.8 6 7.9 11.3l-3.4 19.2z"/></g><path class="st2" d="M595.7-256.8c-1.3-.2-2.2-1.5-2-2.8.7-4-2-7.8-5.9-8.5-4-.7-7.8 2-8.5 5.9-.2 1.3-1.5 2.2-2.8 2-1.3-.2-2.2-1.5-2-2.8 1.2-6.6 7.5-11 14.1-9.9 6.6 1.2 11 7.5 9.9 14.1-.2 1.4-1.5 2.3-2.8 2z"/><g class="st31"><path class="st32" d="M542.8-292.9c-5.3-.9-10.2 2.3-11.1 7.6l-3.4 19.2c-.9 5.3 2.5 10.8 7.8 11.7l14.1 2.5 6.8-38.4-14.2-2.6z"/></g><g class="st31"><path class="st32" d="M609.9-281.1c-5.3-.9-9.4 2.4-10.3 7.7l-3.4 19.2c-.9 5.3 1.6 10.6 6.9 11.5l14 2.5 6.8-38.4-14-2.5z"/></g><g><path class="st21" d="M638.3-274l-28.8-5.1c-4-.7-7.8 2-8.5 5.9l-3.4 19.2c-.7 4 2 7.8 5.9 8.5l28.8 5.1c4 .7 7.8-2 8.5-5.9l3.4-19.2c.7-4-2-7.8-5.9-8.5zM571.2-285.8l-28.8-5.1c-4-.7-7.8 2-8.5 5.9l-3.4 19.2c-.7 4 2 7.8 5.9 8.5l28.8 5.1c4 .7 7.8-2 8.5-5.9l3.4-19.2c.7-4-2-7.8-5.9-8.5z"/><path class="st2" d="M572-290.6l-28.8-5.1c-6.6-1.2-12.9 3.3-14.1 9.9l-3.4 19.2c-1.2 6.6 3.3 12.9 9.9 14.1l28.8 5.1c6.6 1.2 12.9-3.3 14.1-9.9l3.4-19.2c1.1-6.6-3.3-12.9-9.9-14.1zm1.7 32.4c-.7 4-4.5 6.6-8.5 5.9l-28.8-5.1c-4-.7-6.6-4.5-5.9-8.5l3.4-19.2c.7-4 4.5-6.6 8.5-5.9l28.8 5.1c4 .7 6.6 4.5 5.9 8.5l-3.4 19.2zM639.1-278.8l-28.8-5.1c-6.6-1.2-12.9 3.3-14.1 9.9l-3.4 19.2c-1.2 6.6 3.3 12.9 9.9 14.1l28.8 5.1c6.6 1.2 12.9-3.3 14.1-9.9l3.4-19.2c1.1-6.6-3.3-12.9-9.9-14.1zm1.7 32.5c-.7 4-4.5 6.6-8.5 5.9l-28.8-5.1c-4-.7-6.6-4.5-5.9-8.5l3.4-19.2c.7-4 4.5-6.6 8.5-5.9l28.8 5.1c4 .7 6.6 4.5 5.9 8.5l-3.4 19.2z"/></g></g><g id="calcolatrice"><path class="st3" d="M1684.2-332.3l-33.9-36.1c-2.6-2.8-7.1-2.9-9.9-.3l-53.9 50.6c-2.8 2.6-2.9 7.1-.3 9.9l33.9 36.1c2.6 2.8 7.1 2.9 9.9.3l53.9-50.6c2.8-2.6 3-7.1.3-9.9z"/><path class="st19" d="M1590.5-318.1c-2.8 2.6-2.9 7.1-.3 9.9l33.9 36.1c2.6 2.8 7.1 2.9 9.9.3l53.9-50.6c2.8-2.6 2.9-7.1.3-9.9l-33.9-36.1c-2.6-2.8-7.1-2.9-9.9-.3l-53.9 50.6z"/><rect x="1627" y="-346.6" transform="rotate(46.812 1631.67 -341.981)" class="st11" width="9.3" height="9.3"/><rect x="1636.5" y="-336.4" transform="rotate(46.812 1641.168 -331.737)" class="st11" width="9.3" height="9.3"/><rect x="1646.2" y="-326.1" transform="rotate(46.812 1650.826 -321.506)" class="st11" width="9.3" height="9.3"/><rect x="1655.7" y="-315.9" transform="rotate(46.812 1660.348 -311.28)" class="st11" width="9.3" height="9.3"/><rect x="1616.7" y="-337.1" transform="rotate(46.804 1621.359 -332.424)" class="st11" width="9.3" height="9.3"/><rect x="1626.4" y="-326.9" transform="rotate(46.812 1631.082 -322.245)" class="st11" width="9.3" height="9.3"/><rect x="1635.9" y="-316.5" transform="rotate(46.819 1640.51 -311.889)" class="st11" width="9.3" height="9.3"/><rect x="1645.6" y="-306.3" transform="rotate(46.812 1650.247 -301.67)" class="st11" width="9.3" height="9.3"/><rect x="1606.4" y="-327.4" transform="rotate(46.819 1611.056 -322.715)" class="st11" width="9.3" height="9.3"/><rect x="1616.2" y="-317.1" transform="rotate(46.812 1620.822 -312.5)" class="st11" width="9.3" height="9.3"/><rect x="1625.7" y="-307" transform="rotate(46.812 1630.35 -302.336)" class="st11" width="9.3" height="9.3"/><rect x="1635.3" y="-296.7" transform="rotate(46.812 1639.905 -292.04)" class="st11" width="9.3" height="9.3"/><rect x="1596.3" y="-317.8" transform="rotate(46.804 1600.985 -313.188)" class="st11" width="9.3" height="9.3"/><rect x="1605.9" y="-307.6" transform="rotate(46.799 1610.434 -302.951)" class="st11" width="9.3" height="9.3"/><rect x="1613.2" y="-292.1" transform="rotate(46.812 1624.866 -287.448)" class="st33" width="23.4" height="9.3"/><rect x="1634" y="-348.7" transform="rotate(46.812 1659.7 -339.4)" class="st34" width="51.4" height="18.7"/><rect x="1663.8" y="-337.3" transform="rotate(46.819 1666.125 -332.62)" class="st35" width="4.7" height="9.3"/><rect x="1670" y="-330.5" transform="rotate(46.783 1672.288 -325.746)" class="st35" width="4.7" height="9.4"/><rect x="1651" y="-350.8" transform="rotate(46.827 1653.313 -346.156)" class="st35" width="4.7" height="9.3"/><rect x="1657.3" y="-344" transform="rotate(46.819 1659.612 -339.301)" class="st35" width="4.7" height="9.3"/></g><g id="hellocontainer"><text id="hello" transform="translate(528.988 19.555)" class="st35 st36 st37">hello</text></g><g id="subtitle"><text id="scrolldown" transform="translate(907.857 19.555)" class="st38 st39 st40">scroll down</text><text id="viewresume" transform="translate(982.457 19.555)" class="st41 st39 st40">or just view my resume.</text></g></g><g id="scrollthing"><rect x="1468" y="-576.4" class="st42" width="14.7" height="170.5"/><g id="moving"><rect id="scrollertop" x="1469.6" y="-574.1" class="st0" width="11.5" height="81.6"/><g id="cursor"><polygon class="st42" points="1447.3,-538 1447.3,-537 1443.2,-537 1443.2,-535.1 1443.2,-535.1 1442.2,-535.1 1442.2,-538 1442.2,-538 1443.2,-538 1445.2,-538 1445.2,-538.9 1446.2,-538.9 1446.2,-538"/><polygon class="st42" points="1446.2,-531.2 1446.2,-529.3 1445.1,-529.3 1445.1,-529.3 1445.1,-531.2 1445.2,-531.2"/><rect x="1444.2" y="-539.8" class="st42" width="1" height="1"/><polygon class="st42" points="1445.2,-533.2 1445.2,-531.2 1445.1,-531.2 1444.2,-531.2 1444.2,-533.2 1444.2,-533.2"/><polygon class="st42" points="1445.1,-529.3 1445.1,-528.3 1443.2,-528.3 1443.2,-529.3 1443.2,-529.3"/><rect x="1443.2" y="-540.8" class="st42" width="1" height="1"/><polygon class="st42" points="1444.2,-535.1 1444.2,-533.2 1444.2,-533.2 1443.2,-533.2 1443.2,-535.1 1443.2,-535.1"/><polygon class="st42" points="1443.2,-531.2 1443.2,-529.3 1443.2,-529.3 1442.2,-529.3 1442.2,-531.2"/><rect x="1442.2" y="-541.8" class="st42" width="1" height="1"/><polygon class="st42" points="1442.2,-531.2 1442.2,-531.2 1441.2,-531.2 1441.2,-533.1 1441.2,-533.1 1442.2,-533.1"/><rect x="1441.2" y="-542.8" class="st42" width="1" height="1"/><polygon class="st42" points="1441.2,-535.1 1441.2,-533.1 1441.2,-533.1 1440.2,-533.1 1440.2,-535.1 1440.2,-535.1"/><rect x="1440.2" y="-543.8" class="st42" width="1" height="1"/><rect x="1439.2" y="-544.8" class="st42" width="1" height="1"/><polygon class="st42" points="1440.2,-535.1 1440.2,-535.1 1439.2,-535.1 1439.2,-535.1 1439.2,-537 1440.2,-537"/><rect x="1438.2" y="-545.8" class="st42" width="1" height="1"/><polygon class="st42" points="1439.2,-535.1 1439.2,-534.1 1438.2,-534.1 1438.2,-535.1"/><rect x="1437.2" y="-534.1" class="st42" width="1" height="1"/><rect x="1437.2" y="-546.8" class="st42" width="1" height="1"/><polygon class="st42" points="1437.2,-533.1 1437.2,-532.1 1436.2,-532.1 1436.2,-531.3 1435.2,-531.3 1435.2,-548.8 1436.2,-548.8 1436.2,-547.8 1437.2,-547.8 1437.2,-546.8 1436.2,-546.8 1436.2,-533.1"/></g></g></g><g id="intro3"><text transform="translate(533.323 282.395)" class="st43 st44 st45">a design and technology hybrid .</text><text transform="translate(531.435 222.795)" class="st43 st44 st45">- Participate in the design process: Discover, Ideate, Design &amp; Def ine</text><text transform="translate(531.435 244.395)" class="st43 st44 st45">- Leads the UI development efforts across all web applications, ensuring best practices are followed at all times.</text><text transform="translate(531.435 200.595)" class="st43 st44 st45">* An engineer who has the technical knowhow and edge to create production code and:</text></g><g id="intro2"><text id="h" transform="translate(528.975 144.395)" class="st46 st44 st47">I’m Lead Product Design Engineer* @ Workshare.com, London</text></g><g id="intro1"><text transform="translate(529.475 58.949)" class="st35 st44 st47">I’m Albino Tonnina,</text><text transform="translate(529.475 94.949)" class="st35 st44 st47">a self-taught developer.</text></g></svg>