<svg xmlns="http://www.w3.org/2000/svg" viewBox="496 -368 1024 768" enable-background="new 496 -368 1024 768"><style type="text/css">.st0{fill:#3498DB;} .st1{opacity:0.6;fill:none;stroke:#EFEFEF;stroke-miterlimit:10;enable-background:new ;} .st2{fill:#586273;} .st3{opacity:0.8;fill:#2980B9;enable-background:new ;} .st4{fill:#E6E9ED;} .st5{opacity:0.3;fill:#B7BFC7;enable-background:new ;} .st6{fill:#DCE4E8;} .st7{display:none;fill:url(#mbplight_1_);} .st8{fill:#CCD1D9;} .st9{display:none;fill:#F5F7FA;stroke:#CCD1D9;stroke-miterlimit:10;} .st10{fill:#3B3B3B;stroke:#C1C1C1;stroke-miterlimit:10;} .st11{fill:#E74C3C;} .st12{fill:#D8D8DA;} .st13{fill:#AAB2BD;} .st14{fill:#FFFFFF;} .st15{fill:#E6E7E8;} .st16{fill:#49433C;} .st17{fill:#363532;} .st18{fill:#434A54;} .st19{fill:#F7F9F8;} .st20{fill:#44C650;} .st21{fill:none;} .st22{fill:#2980B9;} .st23{fill:#58585C;} .st24{fill:#464E5C;} .st25{fill:#F7D39A;} .st26{fill:#DA4453;} .st27{opacity:0.8;} .st28{fill:#EBF4FF;} .st29{fill:#E5E5E5;} .st30{fill:#B7BFC7;} .st31{opacity:0.3;} .st32{fill:#EFEEEE;} .st33{fill:#656D78;} .st34{fill:#2C3E50;} .st35{fill:#ECF0F1;} .st36{font-family:&apos;Roboto-Black&apos;;} .st37{font-size:120px;} .st38{fill:#F5ECD9;} .st39{font-family:&apos;Roboto-Regular&apos;;} .st40{font-size:14px;} .st41{fill:#DED6C7;} .st42{fill:#4CAEE5;} .st43{fill:#01050A;} .st44{font-family:&apos;Roboto-Thin&apos;;} .st45{font-size:18px;} .st46{fill:#F5F7FA;} .st47{font-size:30px;}</style><rect x="-6584.4" y="-7625.8" class="st0" width="16291.8" height="14784" id="bg"/><path id="wire1" class="st1" d="M521.3-410.2c45.9 59.7 97.6 127.8 180.5 125.9 65.6-1.5 127.1-41.7 193.4-31.3 67.3 10.6 116.7 71.3 167.2 111.7 53.2 42.6 112.2 66.4 172 97.3 46 23.8 69.2 58.5 77.5 109.3 5.8 35.4-.1 84.2 22.4 114.6 29.1 39.5 157 60 101 134.8-53 70.9-150.8 81.9-210.6 115.8-16.1 9.1-38.5 26.3-51.5 34.8l-2 1.3"/><g id="introduction" xmlns:dc="http://purl.org/dc/elements/1.1/" xmlns:inkscape="http://www.inkscape.org/namespaces/inkscape" xmlns:rdf="http://www.w3.org/1999/02/22-rdf-syntax-ns#" xmlns:cc="http://creativecommons.org/ns#" xmlns:svg="http://www.w3.org/2000/svg" xmlns:sodipodi="http://sodipodi.sourceforge.net/DTD/sodipodi-0.dtd" sodipodi:docname="drawing.svg" inkscape:version="0.48.4 r9939"><g id="macbook"><path class="st2" d="M1441.6-58.9z"/><path class="st3" d="M1472.5-86.3l-342.2-155.9s-8.2-3.7-11.9 4.5c-3.7 8.2 4.5 11.9 4.5 11.9l24.6 11.2s-8.2-3.7-11.9 4.5c-4.7 10.3-4.7 10.2-77.5 170.2-3.9 8.5.8 19 9.3 22.9l277.6 126.4c8.5 3.9 18.6.1 22.5-8.4 0 0 59.1-129.8 74.2-162.9.1-.2.6-1.3 3.3-7.3 3.7-8.2-4.5-11.9-4.5-11.9l24.6 11.2s8.2 3.7 11.9-4.5c3.7-8.2-4.5-11.9-4.5-11.9z"/><path class="st4" d="M1373.4 99c-3.9 8.5-14 12.3-22.5 8.4l-277.6-126.4c-8.5-3.9-13.2-14.4-9.3-22.9 0 0 73.8-162 77.5-170.2 3.7-8.2 11.9-4.5 11.9-4.5l293 133.5s8.2 3.7 4.5 11.9c-3.7 8.2-77.5 170.2-77.5 170.2z"/><path class="st5" d="M1447.6-63.9l-364.2-20.6s54.4-119.4 58.1-127.6c3.7-8.2 11.9-4.5 11.9-4.5l293 133.5s8.2 3.7 4.5 11.9c-3.7 8.2-3.3 7.3-3.3 7.3z"/><rect x="1217" y="-150.2" transform="matrix(-.91 -.414 .414 -.91 2539.519 259.786)" class="st6" width="161.9" height="9"/><radialGradient id="mbplight_1_" cx="1708.717" cy="9640.086" r="163.218" gradientTransform="matrix(.912 .401 -.096 .184 652.567 -2608.588)" gradientUnits="userSpaceOnUse"><stop offset=".103" stop-color="#3498DB" stop-opacity=".4"/><stop offset=".795" stop-color="#3498DB" stop-opacity=".057"/><stop offset=".909" stop-color="#3498DB" stop-opacity="0"/></radialGradient><polygon id="mbplight" class="st7" points="1463.4,-37.1 1128.7,-187.6 1172.8,-227.4 1471.9,-91"/><path class="st8" d="M1471-71.9l-342.2-155.9s-8.2-3.7-4.5-11.9l11.9-4.5 342.3 155.9s8.2 3.7 4.5 11.9c-3.8 8.2-12 4.5-12 4.5z"/><rect x="1180.4" y="-13.8" transform="matrix(-.91 -.414 .414 -.91 2339.552 526.21)" class="st9" width="92.9" height="46"/><rect x="1174.6" y="-165.9" transform="matrix(-.91 -.414 .414 -.91 2327.083 185.095)" class="st10" width="18" height="12"/><rect x="1165.6" y="-148.9" transform="matrix(-.91 -.414 .414 -.91 2301.74 218.807)" class="st10" width="18" height="17"/><rect x="1154.8" y="-124.6" transform="matrix(-.91 -.414 .414 -.91 2282.045 265.148)" class="st10" width="30" height="19"/><rect x="1144.3" y="-99" transform="matrix(-.91 -.414 .414 -.91 2264.308 310.292)" class="st10" width="43" height="17"/><rect x="1187.5" y="-138.8" transform="matrix(-.91 -.414 .414 -.91 2340.373 247.403)" class="st10" width="19" height="17"/><rect x="1188" y="-111.9" transform="matrix(-.91 -.414 .414 -.91 2329.799 300.718)" class="st10" width="19" height="19"/><rect x="1189.8" y="-83.8" transform="matrix(-.91 -.414 .414 -.91 2321.956 353.374)" class="st10" width="19" height="17"/><rect x="1211.8" y="-74" transform="matrix(-.91 -.414 .414 -.91 2358.963 380.967)" class="st10" width="18" height="17"/><rect x="1234.6" y="-63.6" transform="matrix(-.91 -.414 .414 -.91 2398.274 410.165)" class="st10" width="18" height="17"/><rect x="1256.4" y="-53.7" transform="matrix(-.91 -.414 .414 -.91 2435.751 438.257)" class="st10" width="18" height="17"/><rect x="1279.2" y="-43.3" transform="matrix(-.91 -.414 .414 -.91 2475.048 467.409)" class="st10" width="18" height="17"/><rect x="1300.2" y="-33.6" transform="matrix(-.91 -.414 .414 -.91 2511.927 494.826)" class="st10" width="19" height="17"/><rect x="1321.7" y="-18.2" transform="matrix(-.91 -.414 .414 -.91 2569.662 538.17)" class="st10" width="43" height="17"/><rect x="1210.8" y="-101.8" transform="matrix(-.91 -.414 .414 -.91 2368.115 329.393)" class="st10" width="18" height="19"/><rect x="1232.6" y="-91.6" transform="matrix(-.91 -.414 .414 -.91 2406.513 358.117)" class="st10" width="19" height="19"/><rect x="1255.5" y="-81.5" transform="matrix(-.91 -.414 .414 -.91 2445.162 386.392)" class="st10" width="18" height="19"/><rect x="1277.2" y="-71.3" transform="matrix(-.91 -.414 .414 -.91 2483.346 415.239)" class="st10" width="19" height="19"/><rect x="1300" y="-61.2" transform="matrix(-.91 -.414 .414 -.91 2521.722 443.887)" class="st10" width="18" height="19"/><rect x="1321.8" y="-51.1" transform="matrix(-.91 -.414 .414 -.91 2560.096 472.43)" class="st10" width="19" height="19"/><rect x="1344.1" y="-38.3" transform="matrix(-.91 -.414 .414 -.91 2607.954 508.249)" class="st10" width="30" height="19"/><rect x="1210.2" y="-128.3" transform="matrix(-.91 -.414 .414 -.91 2379.321 276.858)" class="st10" width="19" height="17"/><rect x="1232.2" y="-118.5" transform="matrix(-.91 -.414 .414 -.91 2416.333 304.473)" class="st10" width="18" height="17"/><rect x="1254.9" y="-108.2" transform="matrix(-.91 -.414 .414 -.91 2455.539 333.366)" class="st10" width="18" height="17"/><rect x="1276.8" y="-98.2" transform="matrix(-.91 -.414 .414 -.91 2493.232 361.559)" class="st10" width="18" height="17"/><rect x="1299.5" y="-87.9" transform="matrix(-.91 -.414 .414 -.91 2532.196 390.634)" class="st10" width="18" height="17"/><rect x="1320.3" y="-78.2" transform="matrix(-.91 -.414 .414 -.91 2568.997 417.987)" class="st10" width="19" height="17"/><rect x="1342.1" y="-62.8" transform="matrix(-.91 -.414 .414 -.91 2627.141 461.46)" class="st10" width="43" height="17"/><rect x="1135.5" y="-83.3" transform="matrix(-.91 -.414 .414 -.91 2216.663 333.369)" class="st10" width="18" height="19"/><rect x="1157.2" y="-73.2" transform="matrix(-.91 -.414 .414 -.91 2254.864 362.021)" class="st10" width="19" height="19"/><rect id="spacebar" x="1175.6" y="-42.8" transform="matrix(-.91 -.414 .414 -.91 2369.954 447.783)" class="st10" width="115.9" height="19"/><rect x="1290.1" y="-12.7" transform="matrix(-.91 -.414 .414 -.91 2483.666 532.493)" class="st10" width="19" height="19"/><rect x="1312.9" y="-2.4" transform="matrix(-.91 -.414 .414 -.91 2522.968 561.652)" class="st10" width="19" height="19"/><rect x="1335.6" y="7.9" transform="matrix(-.91 -.414 .414 -.91 2561.116 590.466)" class="st10" width="18" height="19"/><rect x="1196.4" y="-155.8" transform="matrix(-.91 -.414 .414 -.91 2365.453 213.79)" class="st10" width="19" height="12"/><rect x="1219.2" y="-145.4" transform="matrix(-.91 -.414 .414 -.91 2404.718 242.984)" class="st10" width="19" height="12"/><rect x="1241" y="-135.7" transform="matrix(-.91 -.414 .414 -.91 2441.336 270.502)" class="st10" width="18" height="12"/><rect x="1263.7" y="-125.3" transform="matrix(-.91 -.414 .414 -.91 2480.394 299.761)" class="st10" width="18" height="12"/><rect x="1285.7" y="-115.3" transform="matrix(-.91 -.414 .414 -.91 2518.325 327.831)" class="st10" width="18" height="12"/><rect x="1308.4" y="-104.9" transform="matrix(-.91 -.414 .414 -.91 2557.38 357.091)" class="st10" width="18" height="12"/><rect x="1329.4" y="-95.2" transform="matrix(-.91 -.414 .414 -.91 2594.383 384.549)" class="st10" width="19" height="12"/><rect x="1352" y="-84.9" transform="matrix(-.91 -.414 .414 -.91 2633.225 413.757)" class="st10" width="19" height="12"/><rect x="1374.8" y="-74.6" transform="matrix(-.91 -.415 .415 -.91 2671.425 442.74)" class="st10" width="18" height="12"/></g><g id="bevanda"><circle class="st3" cx="922.6" cy="-228.4" r="50.6"/><circle class="st4" cx="927.6" cy="-230.4" r="50.6"/><path class="st11" d="M927.6-272.1c23 0 41.7 18.7 41.7 41.7s-18.7 41.7-41.7 41.7c-10.4 0-19.9-3.8-27.2-10.1-8.9-7.6-14.5-19-14.5-31.6 0-23 18.7-41.7 41.7-41.7z"/><path id="linecover1" class="st4" d="M927.6-273.1c23.6 0 42.7 19.1 42.7 42.7s-19.1 42.7-42.7 42.7c-10.6 0-20.3-3.9-27.8-10.3-9.1-7.8-14.9-19.4-14.9-32.4 0-23.6 19.1-42.7 42.7-42.7z"/><ellipse transform="matrix(.993 .118 -.118 .993 -17.053 -109.576)" class="st12" cx="913.7" cy="-198.3" rx="11.6" ry="7.7"/><polygon class="st8" points="864.4,-208.2 905.3,-201.2 904.8,-197.7 863.5,-200.5"/><ellipse transform="matrix(.993 .118 -.118 .993 -17.052 -109.575)" class="st13" cx="913.7" cy="-198.3" rx="9.6" ry="6.4"/><path class="st14" d="M900.3-273.3l9.7 12.5c1.6 2.1 1.2 5-.8 6.7-2.1 1.6-5 1.2-6.6-.8l-9.7-12.5c-1.6-2.1-1.2-5 .8-6.7 2-1.6 5-1.2 6.6.8z"/><circle class="st14" cx="927.6" cy="-230.4" r="34.8"/><circle class="st15" cx="927.6" cy="-230.4" r="31.3"/><circle class="st16" cx="927.6" cy="-230.4" r="29.6"/><path class="st17" d="M906.4-213.9c9.1 11.7 26 13.8 37.7 4.7.7-.5.8-1.5.3-2.2s-1.5-.8-2.2-.3l-.9.6-.2.2c-.3.2-.6.4-.8.5l-.3.2-.6.3-.4.2c-.2.1-.5.2-.7.4-.2.1-.4.2-.5.3s-.3.1-.4.2c-.2.1-.3.2-.5.2l-.7.3s-.3.1-.5.2l-.5.2c-.1.1-.3.1-.4.1-.3.1-.6.2-.9.2l-.3.1c-.2.1-.5.1-.8.2-.1 0-.2 0-.2.1l-1 .2h-.1l-.6.1c-.1 0-.3 0-.4.1h-.1c-.7.1-1.5.1-2.2.1-.7 0-1.5 0-2.2-.1h-.1l-1-.1h-.1l-.9-.1c-.1 0-.3 0-.4-.1-.2 0-.4-.1-.5-.1-.6-.1-1.3-.3-1.9-.5-3.4-1-6.6-2.8-9.2-5.2h-.1l-.4-.4-.4-.4-.4-.4s-.4-.4-.6-.7c-.1-.1-.1-.2-.2-.2l-.7-.8-.6-.9-.2-.3-.5-.7-.3-.4-.3-.4c-.1-.2-.2-.4-.3-.5v-.1c-1.7-3.2-2.6-6.7-2.8-10.3v-2.9c0-.3.1-.6.1-1v-.1l.1-1v-.1c.1-.7.3-1.4.5-2.2.2-.7.4-1.4.7-2.1v-.1l.2-.4c.1-.2.2-.4.2-.6v-.1l.4-.9.1-.2c.1-.2.2-.5.4-.7l.2-.3.4-.8.3-.4.3-.4.3-.4.5-.6.3-.4.3-.3.4-.5.5-.6.3-.3.5-.5c.1-.1.1-.2.2-.2.2-.2.5-.4.7-.7l.2-.2.8-.7c.7-.5.8-1.5.3-2.2s-1.5-.8-2.2-.3c-11.7 9.1-13.8 26-4.7 37.7z"/><path class="st17" d="M916.3-253.1c.3.8 1.3 1.2 2.1.8l.6-.3h.1l.6-.2c.1 0 .1 0 .2-.1l.6-.2c.4-.1.9-.3 1.4-.4h.2l1.3-.3c.1 0 .2 0 .3-.1h0c.1 0 .3 0 .4-.1h.2c.6-.1 1.1.2 1.4.6.2.2.3.5.3.8.1.9-.5 1.7-1.3 1.8-1.3.2-2.6.5-3.9.9h-.1c-.4.1-.8.3-1.2.5-.8.3-1.1 1.3-.8 2.1s1.3 1.2 2.1.8c2.2-.9 4.5-1.4 6.9-1.4h2.2c.4.1.7.3.9.6s.4.7.3 1.2c-.1.9-.9 1.5-1.8 1.4-2.5-.3-5 0-7.2 1h-.1c-.8.3-1.2 1.3-.8 2.1.3.8 1.3 1.2 2.1.8 4.6-1.9 10-.5 13 3.4 3.1 4 3.1 9.5.1 13.5-.5.7-.4 1.7.3 2.2s1.7.4 2.2-.3l.2-.2c1.4-1.9 2.3-4.2 2.6-6.6.1-.9.9-1.5 1.8-1.4.4.1.8.3 1.1.6.2.3.4.7.3 1.1v.1c0 .1 0 .2-.1.3v.3s-.1.3-.1.4c0 .1 0 .2-.1.3l-.1.5v.2c-.6 2.3-1.6 4.4-3 6.3-.5.7-.4 1.7.3 2.2s1.7.4 2.2-.3l.8-1.1v-.1c.7-1.1 1.4-2.3 1.9-3.5.3-.8 1.2-1.2 2.1-.9.3.1.5.3.6.5.3.4.4 1 .2 1.5 0 .1 0 .1-.1.2-.1.2-.2.4-.2.6l-.1.3-.3.6c0 .1-.1.2-.1.2l-.3.6-.1.2c-.1.3-.3.5-.5.8v.1c-.1.2-.2.4-.4.6l-.1.1-.2.3c-.1.1-.1.1-.1.2l-.1.1-.4.6c-.5.7-.4 1.7.3 2.2s1.7.4 2.2-.3c7.3-9.7 7.3-23.1-.2-32.7-7.4-9.6-20.5-13-31.6-8.3-.9.6-1.3 1.5-1 2.3zm33 32.4c0 .1-.1.2-.1.2 0-.1 0-.2.1-.2zm-.4.8l-.1.2s0-.1.1-.2zm-.5.9l-.1.1s.1 0 .1-.1zm1.1-2.4s0-.1.1-.1l-.1.1z"/><path class="st17" d="M946.5-216c.2-.2.3-.4.4-.6l-.4.6z"/></g><g id="mouse"><path class="st3" d="M1478.8 119c-9.8-7.2-23.6-5.2-30.9 4.6l-.1.1-.1.2-24.6 33.3c-.1.1-.2.3-.2.4l-1.3 1.8c-7.2 9.9-5 23.5 4.7 30.7 9.8 7.3 23.7 5.1 30.9-4.6l26.2-35.5c7.3-9.9 5.2-23.8-4.6-31z"/><path class="st8" d="M1453.7 122.8l-.1.1-.1.2-24.6 33.3-.2.3-1.2 1.6c-7.3 10.1-5.1 23.6 4.7 30.9l52.4-70.9c-9.8-7.3-23.6-5.2-30.9 4.5z"/><path class="st4" d="M1484.6 118.3l-52.5 70.9c9.8 7.3 23.7 5.2 30.9-4.6l-.1-.1.1.1 26.2-35.4c7.3-9.8 5.2-23.7-4.6-30.9z"/></g><g id="iphone"><path class="st3" d="M1463.8-181.8l38.5-44.1c3-3.5 2.7-8.8-.8-11.8l-88.1-77c-3.5-3-8.8-2.7-11.8.8l-38.5 44.1c-3 3.5-2.7 8.8.8 11.8l88.1 77c3.4 3 8.7 2.6 11.8-.8z"/><path class="st18" d="M1407.1-315l-38.5 44.1c-3 3.5-2.7 8.8.8 11.8l88.1 77c3.5 3 8.8 2.7 11.8-.8l38.5-44.1c3-3.5 2.7-8.8-.8-11.8l-88.1-77c-3.5-3-8.8-2.7-11.8.8z"/><path class="st2" d="M1495.2-238l-38.5 44.1-81.8-71.5 38.5-44 81.8 71.4z"/><rect x="1476.2" y="-212.4" transform="matrix(-.658 .753 -.753 -.658 2299.558 -1464.912)" class="st18" width="12.5" height="4.2"/><path class="st19" d="M1374.9-265.4l81.8 71.5 38.5-44.1-81.8-71.5-38.5 44.1z"/><path class="st20" d="M1438.8-271l-5.5-2.6c-.6-.3-1.5-.3-2.1 0l-9.2 4.3-1.3-1.1c-.4-2.2-1.7-4.6-3.9-6.4l-1.7-1.5c-3-2.6-7.5-2.5-10 .4s-2.1 7.3.9 10l1.7 1.5c2.1 1.9 4.6 2.9 6.9 3l1.3 1.1-3.1 9.7c-.2.6 0 1.5.3 2.1l3.3 5.1c.3.5 1 .6 1.4.1l10.6-12.1 10.6-12.1c.5-.6.3-1.2-.2-1.5z"/><rect x="1422" y="-251.9" transform="matrix(-.658 .753 -.753 -.658 2200.986 -1494.523)" class="st6" width="35.9" height="9"/><rect x="1432.3" y="-242.9" transform="matrix(-.658 .753 -.753 -.658 2224.974 -1487.316)" class="st6" width="35.9" height="9"/><rect x="1451.1" y="-234" transform="matrix(-.658 .753 -.753 -.658 2247.907 -1479.905)" class="st6" width="17.9" height="9"/><circle class="st2" cx="1441.1" cy="-228.3" r="1.7"/><circle class="st2" cx="1447" cy="-235" r="1.7"/><circle class="st2" cx="1444.1" cy="-231.6" r="1.7"/><path class="st2" d="M1451.1-239.7c.7.6.8 1.7.1 2.4-.6.7-1.7.8-2.4.2-.7-.6-.8-1.7-.1-2.4.6-.7 1.7-.8 2.4-.2z"/><circle class="st2" cx="1431" cy="-237.1" r="1.7"/><circle class="st2" cx="1442.8" cy="-250.6" r="1.7"/><circle class="st2" cx="1436.9" cy="-243.9" r="1.7"/><circle class="st2" cx="1434" cy="-240.5" r="1.7"/><circle class="st2" cx="1439.9" cy="-247.2" r="1.7"/><rect x="1455.8" y="-230.6" transform="matrix(-.658 .753 -.753 -.658 2248.146 -1479.998)" class="st11" width="9" height="2.7"/><path class="st21" d="M1407.1-315l-29.9 34.2 113.6 73.3 17.1-19.5c3-3.5 2.7-8.8-.8-11.8l-88.1-77c-3.6-3-8.9-2.7-11.9.8z"/></g><g id="matita1"><polygon class="st3" points="1621,-46 1559,-174 1553.7,-171.4 1548.3,-168.9 1610.4,-40.8 1615.7,-43.4"/><polygon class="st22" points="1624.8,-28 1621,-46 1610.4,-40.8 1622.1,-26.7 1626.1,-22.1"/><polygon class="st23" points="1619.8,-44.5 1560.4,-167.2 1557.8,-172.5 1552.4,-170 1614.5,-41.9"/><polygon class="st23" points="1619.8,-44.5 1625.1,-47.1 1563.1,-175.1 1557.8,-172.5 1560.4,-167.2"/><polygon class="st24" points="1630.1,-23.1 1628.9,-29.1 1626.2,-27.8"/><polygon class="st25" points="1628.9,-29.1 1625.1,-47.1 1614.5,-41.9 1626.2,-27.8"/><rect x="1559.5" y="-158.7" transform="matrix(.9 -.436 .436 .9 225.054 667.225)" class="st26" width="11.9" height="4.4"/></g><g id="foglio2"><polygon class="st22" points="668.6,-357.3 644.5,-168.8 795.3,-149.5 819.4,-338.1 821,-350.6 670.3,-369.9"/><rect x="659.5" y="-351.2" transform="matrix(-.992 -.127 .127 -.992 1497.352 -416.987)" class="st28" width="151.9" height="190"/><rect x="672.4" y="-363" transform="matrix(-.992 -.127 .127 -.992 1535.795 -615.621)" class="st20" width="151.9" height="12.7"/><rect x="706.4" y="-284.7" transform="matrix(.992 .127 -.127 .992 -29.548 -92.626)" class="st21" width="12.7" height="12.7"/><rect x="728.8" y="-282.2" transform="matrix(-.992 -.127 .127 -.992 1493.45 -463.19)" class="st21" width="6.3" height="6.3"/><rect x="683.5" y="-298.7" transform="matrix(-.992 -.127 .127 -.992 1462.191 -501.199)" class="st18" width="63.2" height="3.2"/><rect x="752.6" y="-291.4" transform="matrix(-.992 -.127 .127 -.992 1576.892 -479.125)" class="st0" width="41.1" height="3.2"/><rect x="676.2" y="-289.4" transform="matrix(-.992 -.127 .127 -.992 1506.426 -479.788)" class="st0" width="123.4" height="3.2"/><rect x="682.1" y="-288.2" transform="matrix(-.992 -.127 .127 -.992 1426.417 -482.492)" class="st0" width="31.6" height="3.2"/><rect x="719.8" y="-284.6" transform="matrix(-.992 -.127 .127 -.992 1482.24 -471.47)" class="st18" width="12.7" height="3.2"/><rect x="738.5" y="-279.6" transform="matrix(-.992 -.127 .127 -.992 1559.784 -456.805)" class="st0" width="53.8" height="3.2"/><rect x="666.1" y="-239.2" transform="matrix(-.992 -.127 .127 -.992 1388.506 -386.723)" class="st18" width="31.6" height="3.2"/><rect x="664.7" y="-227.4" transform="matrix(-.992 -.127 .127 -.992 1371.531 -364.315)" class="st18" width="19" height="3.2"/><rect x="689.8" y="-224.7" transform="matrix(-.992 -.127 .127 -.992 1414.9 -355.961)" class="st18" width="12.7" height="3.2"/><rect x="665.5" y="-233.3" transform="matrix(-.992 -.127 .127 -.992 1380.118 -375.633)" class="st18" width="25.3" height="3.2"/><rect x="663.7" y="-220.4" transform="matrix(-.992 -.127 .127 -.992 1381.352 -349.577)" class="st18" width="31.6" height="3.2"/><rect x="669" y="-275" transform="matrix(-.992 -.127 .127 -.992 1403.258 -429)" class="st8" width="38" height="31.7"/><rect x="711.7" y="-220.2" transform="matrix(-.992 -.127 .127 -.992 1483.133 -342.882)" class="st18" width="38" height="3.2"/><rect x="711" y="-215.5" transform="matrix(-.992 -.127 .127 -.992 1455.939 -335.211)" class="st18" width="12.7" height="3.2"/><rect x="729.9" y="-213.5" transform="matrix(-.992 -.127 .127 -.992 1487.022 -329.088)" class="st18" width="6.3" height="3.2"/><rect x="712.6" y="-227.7" transform="matrix(-.992 -.127 .127 -.992 1466.954 -358.911)" class="st18" width="19" height="3.2"/><rect x="737.6" y="-224.9" transform="matrix(-.992 -.127 .127 -.992 1510.29 -350.357)" class="st18" width="12.7" height="3.2"/><rect x="713.2" y="-233.2" transform="matrix(-.992 -.127 .127 -.992 1481.569 -368.799)" class="st18" width="31.6" height="3.2"/><rect x="716.1" y="-269" transform="matrix(-.992 -.127 .127 -.992 1496.279 -411.149)" class="st8" width="38" height="31.7"/><rect x="760.3" y="-226.7" transform="matrix(-.992 -.127 .127 -.992 1580.952 -349.657)" class="st18" width="38" height="3.2"/><rect x="758.9" y="-214.9" transform="matrix(-.992 -.127 .127 -.992 1563.845 -327.059)" class="st18" width="25.3" height="3.2"/><rect x="760.6" y="-222" transform="matrix(-.992 -.127 .127 -.992 1555.749 -341.86)" class="st18" width="12.7" height="3.2"/><rect x="758.1" y="-209.1" transform="matrix(-.992 -.127 .127 -.992 1555.228 -316.085)" class="st18" width="19" height="3.2"/><rect x="783.1" y="-206.2" transform="matrix(-.992 -.127 .127 -.992 1598.559 -307.537)" class="st18" width="12.7" height="3.2"/><rect x="778.5" y="-219.3" transform="matrix(-.992 -.127 .127 -.992 1597.166 -333.549)" class="st18" width="19" height="3.2"/><rect x="763.1" y="-262.9" transform="matrix(-.992 -.127 .127 -.992 1589.324 -393.126)" class="st8" width="38" height="31.6"/><rect x="676.3" y="-319" transform="matrix(-.992 -.127 .127 -.992 1519.052 -528.686)" class="st8" width="132.9" height="12.7"/><rect x="683.3" y="-321" transform="matrix(-.992 -.127 .127 -.992 1414.741 -548.831)" class="st29" width="13.3" height="3.2"/><rect x="703" y="-322.4" transform="matrix(-.992 -.127 .127 -.992 1466.809 -538.824)" class="st18" width="26.6" height="12.7"/><rect x="709.6" y="-317.6" transform="matrix(-.992 -.127 .127 -.992 1466.885 -538.708)" class="st29" width="13.3" height="3.2"/><rect x="736.1" y="-314.2" transform="matrix(-.992 -.127 .127 -.992 1519.084 -528.507)" class="st29" width="13.3" height="3.2"/><rect x="762.5" y="-310.9" transform="matrix(-.992 -.127 .127 -.992 1571.22 -518.656)" class="st29" width="13.3" height="3.2"/><rect x="788.7" y="-307.5" transform="matrix(-.992 -.127 .127 -.992 1623.17 -508.57)" class="st29" width="13.3" height="3.2"/><rect x="681.9" y="-336.3" transform="matrix(-.992 -.127 .127 -.992 1476.533 -575.501)" class="st8" width="76" height="3.2"/><rect x="683.1" y="-346.2" transform="matrix(-.992 -.127 .127 -.992 1423.212 -598.679)" class="st8" width="19" height="3.2"/><rect x="660.2" y="-199.6" transform="matrix(-.992 -.127 .127 -.992 1471.053 -280.355)" class="st8" width="132.9" height="25.3"/></g><g id="foglio1"><rect x="496.5" y="-371.2" transform="matrix(-.95 .314 -.314 -.95 1040.186 -687.493)" class="st22" width="157.9" height="222.2"/><rect x="466.4" y="-338.4" transform="matrix(-.314 -.95 .95 -.314 1005.012 207.553)" class="st19" width="222.2" height="157.9"/><rect x="571.9" y="-316.4" transform="matrix(-.95 .314 -.314 -.95 1072.255 -799.43)" class="st30" width="57" height="6"/><rect x="575.1" y="-306.9" transform="matrix(-.95 .314 -.314 -.95 1081.291 -781.861)" class="st6" width="57" height="6"/><rect x="578.3" y="-297.5" transform="matrix(-.95 .314 -.314 -.95 1090.498 -764.382)" class="st6" width="57" height="6"/><rect x="581.4" y="-287.9" transform="matrix(-.95 .314 -.314 -.95 1099.532 -746.817)" class="st6" width="57" height="6"/><rect x="491" y="-322.3" transform="matrix(-.95 .314 -.314 -.95 987.498 -797.579)" class="st6" width="133.9" height="6"/><rect x="484.7" y="-351.3" transform="matrix(-.95 .314 -.314 -.95 969.255 -832.623)" class="st30" width="133.9" height="26"/><rect x="512.3" y="-257.8" transform="matrix(-.95 .314 -.314 -.95 1049.221 -678.486)" class="st6" width="133.9" height="6"/><rect x="515.4" y="-248.3" transform="matrix(-.95 .314 -.314 -.95 1058.43 -661.007)" class="st6" width="133.9" height="6"/><rect x="518.6" y="-238.8" transform="matrix(-.95 .314 -.314 -.95 1067.464 -643.437)" class="st6" width="133.9" height="6"/><rect x="536.8" y="-183.7" transform="matrix(-.95 .314 -.314 -.95 1120.244 -541.741)" class="st6" width="133.9" height="6"/><rect x="540.7" y="-169.6" transform="matrix(-.95 .314 -.314 -.95 1103.148 -510.624)" class="st6" width="104" height="6"/><rect x="525.7" y="-213.8" transform="matrix(-.95 .314 -.314 -.95 1045.402 -589.728)" class="st30" width="89" height="6"/><rect x="528.8" y="-204.2" transform="matrix(-.95 .314 -.314 -.95 1054.435 -572.159)" class="st6" width="89" height="6"/><rect x="532" y="-194.8" transform="matrix(-.95 .314 -.314 -.95 1063.646 -554.674)" class="st6" width="89" height="6"/><rect x="624.1" y="-236.8" transform="matrix(-.95 .314 -.314 -.95 1180.601 -637.596)" class="st20" width="35" height="26"/><rect x="504.8" y="-285.1" transform="matrix(-.95 .314 -.314 -.95 907.074 -680.225)" class="st6" width="7" height="36"/><rect x="514.3" y="-288.3" transform="matrix(-.95 .314 -.314 -.95 924.542 -689.506)" class="st6" width="7" height="36"/><rect x="523.8" y="-291.4" transform="matrix(-.95 .314 -.314 -.95 942.116 -698.543)" class="st6" width="7" height="36"/><rect x="533.3" y="-294.5" transform="matrix(-.95 .314 -.314 -.95 959.685 -707.573)" class="st6" width="7" height="36"/><rect x="542.8" y="-297.7" transform="matrix(-.95 .314 -.314 -.95 977.17 -716.722)" class="st6" width="7" height="36"/><rect x="552.3" y="-300.8" transform="matrix(-.95 .313 -.313 -.95 994.878 -725.621)" class="st6" width="7" height="36"/><rect x="561.8" y="-304" transform="matrix(-.95 .314 -.314 -.95 1012.301 -734.851)" class="st6" width="7" height="36"/><rect x="508" y="-265.6" transform="matrix(-.95 .313 -.313 -.95 916.418 -662.609)" class="st11" width="7" height="16"/><rect x="517" y="-271.7" transform="matrix(-.95 .314 -.314 -.95 932.386 -674.517)" class="st11" width="7" height="19"/><rect x="527.6" y="-268.1" transform="matrix(-.95 .314 -.314 -.95 953.083 -677.539)" class="st11" width="7" height="12"/><rect x="535.5" y="-280.9" transform="matrix(-.95 .314 -.314 -.95 966.029 -695.322)" class="st11" width="7" height="22"/><rect x="544.4" y="-287.9" transform="matrix(-.95 .314 -.314 -.95 981.824 -707.889)" class="st11" width="7" height="26"/><rect x="557" y="-271.7" transform="matrix(-.95 .314 -.314 -.95 1008.323 -699.605)" class="st11" width="7" height="6"/><rect x="564.9" y="-284.4" transform="matrix(-.95 .313 -.313 -.95 1021.472 -717.08)" class="st11" width="7" height="16"/></g><g id="occhiali"><path class="st2" d="M638.1-240.8c-1.3-.2-2.2-1.5-2-2.8 1.6-9.2-4.6-18.1-13.8-19.7l-86.3-15.2c-1.3-.2-2.2-1.5-2-2.8s1.5-2.2 2.8-2l86.3 15.2c11.9 2.1 19.9 13.5 17.8 25.4-.2 1.2-1.5 2.1-2.8 1.9z"/><path class="st2" d="M638.1-240.8c-1.3-.2-2.2-1.5-2-2.8 1.6-9.2-4.6-18.1-13.8-19.7l-86.3-15.2c-1.3-.2-2.2-1.5-2-2.8s1.5-2.2 2.8-2l86.3 15.2c11.9 2.1 19.9 13.5 17.8 25.4-.2 1.2-1.5 2.1-2.8 1.9z"/><path class="st2" d="M542.3-257.7c-1.3-.2-2.2-1.5-2-2.8 2.1-11.9 13.5-19.9 25.4-17.8l86.3 15.2c1.3.2 2.2 1.5 2 2.8s-1.5 2.2-2.8 2l-86.3-15.2c-9.2-1.6-18.1 4.6-19.7 13.8-.4 1.4-1.6 2.2-2.9 2z"/><path class="st32" d="M581-253.3c-.9 5.3-6 8.8-11.3 7.9l-28.8-5.1c-5.3-.9-8.8-6-7.9-11.3l3.4-19.2c.9-5.3 6-8.8 11.3-7.9l28.8 5.1c5.3.9 8.8 6 7.9 11.3l-3.4 19.2z"/><path class="st32" d="M648.1-241.5c-.9 5.3-6 8.8-11.3 7.9l-28.8-5.1c-5.3-.9-8.8-6-7.9-11.3l3.4-19.2c.9-5.3 6-8.8 11.3-7.9l28.8 5.1c5.3.9 8.8 6 7.9 11.3l-3.4 19.2z"/><path class="st2" d="M600.6-252.4c-1.3-.2-2.2-1.5-2-2.8.7-4-2-7.8-5.9-8.5-4-.7-7.8 2-8.5 5.9-.2 1.3-1.5 2.2-2.8 2s-2.2-1.5-2-2.8c1.2-6.6 7.5-11 14.1-9.9 6.6 1.2 11 7.5 9.9 14.1-.2 1.4-1.5 2.3-2.8 2z"/><path class="st32" d="M547.7-288.5c-5.3-.9-10.2 2.3-11.1 7.6l-3.4 19.2c-.9 5.3 2.5 10.8 7.8 11.7l14.1 2.5 6.8-38.4-14.2-2.6z"/><path class="st32" d="M614.8-276.7c-5.3-.9-9.4 2.4-10.3 7.7l-3.4 19.2c-.9 5.3 1.6 10.6 6.9 11.5l14 2.5 6.8-38.4-14-2.5z"/><path class="st21" d="M643.2-269.6l-28.8-5.1c-4-.7-7.8 2-8.5 5.9l-3.4 19.2c-.7 4 2 7.8 5.9 8.5l28.8 5.1c4 .7 7.8-2 8.5-5.9l3.4-19.2c.7-4-2-7.8-5.9-8.5z"/><path class="st21" d="M576.1-281.4l-28.8-5.1c-4-.7-7.8 2-8.5 5.9l-3.4 19.2c-.7 4 2 7.8 5.9 8.5l28.8 5.1c4 .7 7.8-2 8.5-5.9l3.4-19.2c.7-4-2-7.8-5.9-8.5z"/><path class="st2" d="M576.9-286.2l-28.8-5.1c-6.6-1.2-12.9 3.3-14.1 9.9l-3.4 19.2c-1.2 6.6 3.3 12.9 9.9 14.1l28.8 5.1c6.6 1.2 12.9-3.3 14.1-9.9l3.4-19.2c1.1-6.6-3.3-12.9-9.9-14.1zm1.7 32.4c-.7 4-4.5 6.6-8.5 5.9l-28.8-5.1c-4-.7-6.6-4.5-5.9-8.5l3.4-19.2c.7-4 4.5-6.6 8.5-5.9l28.8 5.1c4 .7 6.6 4.5 5.9 8.5l-3.4 19.2z"/><path class="st2" d="M644-274.4l-28.8-5.1c-6.6-1.2-12.9 3.3-14.1 9.9l-3.4 19.2c-1.2 6.6 3.3 12.9 9.9 14.1l28.8 5.1c6.6 1.2 12.9-3.3 14.1-9.9l3.4-19.2c1.1-6.6-3.3-12.9-9.9-14.1zm1.7 32.5c-.7 4-4.5 6.6-8.5 5.9l-28.8-5.1c-4-.7-6.6-4.5-5.9-8.5l3.4-19.2c.7-4 4.5-6.6 8.5-5.9l28.8 5.1c4 .7 6.6 4.5 5.9 8.5l-3.4 19.2z"/></g><g id="calcolatrice"><path class="st3" d="M1689.1-327.9l-33.9-36.1c-2.6-2.8-7.1-2.9-9.9-.3l-53.9 50.6c-2.8 2.6-2.9 7.1-.3 9.9l33.9 36.1c2.6 2.8 7.1 2.9 9.9.3l53.9-50.6c2.8-2.6 3-7.1.3-9.9z"/><path class="st19" d="M1595.4-313.7c-2.8 2.6-2.9 7.1-.3 9.9l33.9 36.1c2.6 2.8 7.1 2.9 9.9.3l53.9-50.6c2.8-2.6 2.9-7.1.3-9.9l-33.9-36.1c-2.6-2.8-7.1-2.9-9.9-.3l-53.9 50.6z"/><rect x="1631.9" y="-342.3" transform="matrix(-.684 -.729 .729 -.684 3002.792 624.552)" class="st11" width="9.3" height="9.3"/><rect x="1641.4" y="-332" transform="matrix(-.684 -.729 .729 -.684 3011.283 648.773)" class="st11" width="9.3" height="9.3"/><rect x="1651" y="-321.8" transform="matrix(-.684 -.729 .729 -.684 3020.074 672.984)" class="st11" width="9.3" height="9.3"/><rect x="1660.6" y="-311.5" transform="matrix(-.684 -.729 .729 -.684 3028.656 697.259)" class="st11" width="9.3" height="9.3"/><rect x="1621.6" y="-332.7" transform="matrix(-.684 -.729 .729 -.684 2978.56 632.984)" class="st11" width="9.3" height="9.3"/><rect x="1631.3" y="-322.5" transform="matrix(-.684 -.729 .729 -.684 2987.358 657.403)" class="st11" width="9.3" height="9.3"/><rect x="1640.8" y="-312.2" transform="matrix(-.684 -.729 .729 -.684 2995.645 681.92)" class="st11" width="9.3" height="9.3"/><rect x="1650.5" y="-302" transform="matrix(-.684 -.729 .729 -.684 3004.716 706.006)" class="st11" width="9.3" height="9.3"/><rect x="1611.3" y="-323" transform="matrix(-.684 -.729 .729 -.684 2953.88 642.192)" class="st11" width="9.3" height="9.3"/><rect x="1621" y="-312.7" transform="matrix(-.684 -.729 .729 -.684 2962.903 666.345)" class="st11" width="9.3" height="9.3"/><rect x="1630.6" y="-302.6" transform="matrix(-.684 -.729 .729 -.684 2971.637 690.42)" class="st11" width="9.3" height="9.3"/><rect x="1640.2" y="-292.3" transform="matrix(-.684 -.729 .729 -.684 2980.253 714.765)" class="st11" width="9.3" height="9.3"/><rect x="1601.2" y="-313.5" transform="matrix(-.684 -.729 .729 -.684 2930.225 650.49)" class="st11" width="9.3" height="9.3"/><rect x="1610.9" y="-303.1" transform="matrix(-.685 -.729 .729 -.685 2938.994 674.851)" class="st11" width="9.3" height="9.3"/><rect x="1618" y="-287.8" transform="matrix(-.684 -.729 .729 -.684 2951.564 711.391)" class="st33" width="23.4" height="9.3"/><rect x="1638.9" y="-344.3" transform="matrix(-.684 -.729 .729 -.684 3048.05 649.433)" class="st34" width="51.4" height="18.7"/><rect x="1668.7" y="-332.8" transform="matrix(-.684 -.729 .729 -.684 3053.8 665.76)" class="st35" width="4.7" height="9.3"/><rect x="1675" y="-326" transform="matrix(-.685 -.729 .729 -.685 3060.073 681.067)" class="st35" width="4.7" height="9.4"/><rect x="1655.9" y="-346.4" transform="matrix(-.684 -.729 .729 -.684 3042.016 633.774)" class="st35" width="4.7" height="9.3"/><rect x="1662.1" y="-339.5" transform="matrix(-.684 -.729 .729 -.684 3047.656 649.681)" class="st35" width="4.7" height="9.3"/></g><text id="hello" transform="translate(533.877 23.958)" class="st35 st36 st37">hello</text><g id="subtitle"><text id="scrolldown" transform="translate(912.746 23.958)" class="st38 st39 st40">scroll down</text><text id="viewresume" transform="translate(987.346 23.958)" class="st41 st39 st40">or just view my resume.</text></g></g><g id="scrollthing"><rect x="1472.9" y="-572" class="st42" width="14.7" height="170.5"/><g id="moving"><rect id="scrollertop" x="1474.5" y="-569.7" class="st0" width="11.5" height="81.6"/><g id="cursor"><polygon class="st42" points="1452.2,-533.6 1452.2,-532.6 1448.1,-532.6 1448.1,-530.7 1448.1,-530.7 1447.1,-530.7 1447.1,-533.6 1447.1,-533.6 1448.1,-533.6 1450.1,-533.6 1450.1,-534.5 1451.1,-534.5 1451.1,-533.6"/><polygon class="st42" points="1451.1,-526.8 1451.1,-524.9 1450,-524.9 1450,-524.9 1450,-526.8 1450.1,-526.8"/><rect x="1449.1" y="-535.4" class="st42" width="1" height="1"/><polygon class="st42" points="1450.1,-528.8 1450.1,-526.8 1450,-526.8 1449.1,-526.8 1449.1,-528.8 1449.1,-528.8"/><polygon class="st42" points="1450,-524.9 1450,-523.9 1448.1,-523.9 1448.1,-524.9 1448.1,-524.9"/><rect x="1448.1" y="-536.4" class="st42" width="1" height="1"/><polygon class="st42" points="1449.1,-530.7 1449.1,-528.8 1449.1,-528.8 1448.1,-528.8 1448.1,-530.7 1448.1,-530.7"/><polygon class="st42" points="1448.1,-526.8 1448.1,-524.9 1448.1,-524.9 1447.1,-524.9 1447.1,-526.8"/><rect x="1447.1" y="-537.4" class="st42" width="1" height="1"/><polygon class="st42" points="1447.1,-526.8 1447.1,-526.8 1446.1,-526.8 1446.1,-528.7 1446.1,-528.7 1447.1,-528.7"/><rect x="1446.1" y="-538.4" class="st42" width="1" height="1"/><polygon class="st42" points="1446.1,-530.7 1446.1,-528.7 1446.1,-528.7 1445.1,-528.7 1445.1,-530.7 1445.1,-530.7"/><rect x="1445.1" y="-539.4" class="st42" width="1" height="1"/><rect x="1444.1" y="-540.4" class="st42" width="1" height="1"/><polygon class="st42" points="1445.1,-530.7 1445.1,-530.7 1444.1,-530.7 1444.1,-530.7 1444.1,-532.6 1445.1,-532.6"/><rect x="1443.1" y="-541.4" class="st42" width="1" height="1"/><polygon class="st42" points="1444.1,-530.7 1444.1,-529.7 1443.1,-529.7 1443.1,-530.7"/><rect x="1442.1" y="-529.7" class="st42" width="1" height="1"/><rect x="1442.1" y="-542.4" class="st42" width="1" height="1"/><polygon class="st42" points="1442.1,-528.7 1442.1,-527.7 1441.1,-527.7 1441.1,-526.9 1440.1,-526.9 1440.1,-544.4 1441.1,-544.4 1441.1,-543.4 1442.1,-543.4 1442.1,-542.4 1441.1,-542.4 1441.1,-528.7"/></g></g></g><g id="intro3"><text transform="translate(538.212 286.798)" class="st43 st44 st45">a design and technology hybrid .</text><text transform="translate(536.324 227.198)" class="st43 st44 st45">- Participate in the design process: Discover, Ideate, Design &amp; Def ine</text><text transform="translate(536.324 248.798)" class="st43 st44 st45">- Leads the UI development efforts across all web applications, ensuring best practices are followed at all times.</text><text transform="translate(536.324 204.998)" class="st43 st44 st45">* An engineer who has the technical knowhow and edge to create production code and:</text></g><text transform="translate(533.864 148.798)" class="st46 st44 st47" id="intro2">I’m Lead Product Design Engineer* @ Workshare.com, London</text><g id="intro1"><text transform="translate(534.364 63.351)" class="st35 st44 st47">I’m Albino Tonnina,</text><text transform="translate(534.364 99.351)" class="st35 st44 st47">a self-taught developer.</text></g></svg>