<svg xmlns="http://www.w3.org/2000/svg" viewBox="496 -368 1024 768" enable-background="new 496 -368 1024 768"><rect x="-3360.3" y="-2658.6" width="8736.7" height="5396" fill="#44C650" id="bg2_1_"/><g id="objects" xmlns:dc="http://purl.org/dc/elements/1.1/" xmlns:inkscape="http://www.inkscape.org/namespaces/inkscape" xmlns:rdf="http://www.w3.org/1999/02/22-rdf-syntax-ns#" xmlns:cc="http://creativecommons.org/ns#" xmlns:svg="http://www.w3.org/2000/svg" xmlns:sodipodi="http://sodipodi.sourceforge.net/DTD/sodipodi-0.dtd" sodipodi:docname="drawing.svg" inkscape:version="0.48.4 r9939"><g id="iphone"><path d="M1438.5 69.9l1.2 9.7c.5 3.6 3.7 6.1 7.3 5.7l52-6.6c3.6-.5 6.1-3.7 5.7-7.3l-1.2-9.7-65 8.2z" fill="#0F0D10"/><path d="M1491.1-35.8l-1.2-9.7c-.5-3.6-3.7-6.1-7.3-5.7l-52 6.6c-3.6.5-6.1 3.7-5.7 7.3l1.2 9.7 65-8.2z" fill="#0F0D10"/><rect x="1432" y="-32" transform="matrix(-.992 .126 -.126 -.992 2920.054 -149.964)" width="65.5" height="98.2" fill="#0F0D10"/><rect x="1435.3" y="-32.1" transform="matrix(-.992 .126 -.126 -.992 2920.063 -150.014)" width="58.9" height="98.2" fill="#F5F7FA"/><circle cx="1472" cy="73.9" r="4.9" fill="#272528"/><g id="s3"><rect id="s3-bg1" x="1439" y="26.6" transform="matrix(-.992 .126 -.126 -.992 2931.111 -92.211)" width="58.9" height="39.3" fill="#CCD1D9"/><rect id="i1" x="1455.8" y="48.7" transform="matrix(-.992 .126 -.126 -.992 2932.289 -85.818)" width="26.2" height="1.6" fill="#F5F7FA"/><rect id="i2" x="1456.6" y="55.2" transform="matrix(-.992 .126 -.126 -.992 2934.831 -73.013)" width="26.2" height="1.6" fill="#F5F7FA"/><rect id="i3" x="1456.2" y="51.9" transform="matrix(-.992 .126 -.126 -.992 2933.57 -79.424)" width="26.2" height="1.6" fill="#F5F7FA"/><rect id="i4" x="1457" y="59.3" transform="matrix(-.992 .126 -.126 -.992 2923.124 -64.246)" width="13.1" height="1.6" fill="#F5F7FA"/><rect id="i5" x="1454.5" y="32.4" transform="matrix(-.992 .126 -.126 -.992 2928.4 -106.789)" width="26.2" height="13.1" fill="#44C650"/><rect id="i6" x="1447.1" y="6.5" transform="matrix(-.992 .126 -.126 -.992 2916.378 -169.247)" width="32.7" height="1.6" fill="#AAB2BD"/><rect id="i7" x="1448" y="13" transform="matrix(-.992 .126 -.126 -.992 2918.858 -156.368)" width="32.7" height="1.6" fill="#AAB2BD"/><rect id="i8" x="1447.6" y="9.7" transform="matrix(-.992 .126 -.126 -.992 2917.608 -162.83)" width="32.7" height="1.6" fill="#AAB2BD"/><rect id="i9" x="1455" y="16.1" transform="matrix(-.992 .126 -.126 -.992 2920.127 -150.193)" width="19.6" height="1.6" fill="#AAB2BD"/><rect id="i10" x="1437.7" y="-25.2" transform="matrix(-.992 .126 -.126 -.992 2907.799 -214.182)" width="45.8" height="19.6" fill="#3498DB"/><rect id="i11" x="1443.1" y="-.4" transform="matrix(-.992 .126 -.126 -.992 2913.924 -182.085)" width="39.3" height="2.5" fill="#E1E1E2"/></g></g><g id="ipad"><path d="M1385.8-66.4v-12c0-4.4-3.6-8-8-8h-144c-4.4 0-8 3.6-8 8v12h160z" fill="#0F0D10"/><path d="M1225.8 101.6v12c0 4.4 3.6 8 8 8h144c4.4 0 8-3.6 8-8v-12h-160z" fill="#0F0D10"/><rect x="1225.8" y="-66.4" width="160" height="168" fill="#0F0D10"/><rect x="1233.8" y="-66.4" width="144" height="168" fill="#C4C3C4"/><circle cx="1305.8" cy="111.6" r="6" fill="#272528"/><g id="s2"><rect x="1233.8" y="-66.4" width="144" height="168" fill="#E6E9ED"/><rect id="s2-bg1" x="1233.8" y="37.6" width="144" height="64" fill="#fff"/><rect id="g1" x="1257.8" y="-50.4" width="96" height="48" fill="#44C650"/><g id="g2g" fill="#434A54"><rect id="g2" x="1273.8" y="12.6" width="64" height="2"/><rect id="g3" x="1273.8" y="20.6" width="64" height="2"/><rect id="g4" x="1273.8" y="16.6" width="64" height="2"/><rect id="g5" x="1281.8" y="24.6" width="48" height="2"/></g><rect id="g21" x="1265.8" y="3.6" width="80" height="4" fill="#4FC1E9"/><g id="g6g" fill="#AAB2BD"><rect id="g6" x="1289.8" y="69.6" width="32" height="2"/><rect id="g7" x="1289.8" y="77.6" width="32" height="2"/><rect id="g8" x="1289.8" y="73.6" width="32" height="2"/><rect id="g9" x="1289.8" y="81.6" width="16" height="2"/></g><rect id="g10" x="1289.8" y="49.6" width="32" height="16" fill="#44C650"/><g id="g11g" fill="#AAB2BD"><rect id="g11" x="1241.8" y="81.6" width="16" height="2"/><rect id="g12" x="1241.8" y="73.6" width="32" height="2"/><rect id="g13" x="1241.8" y="77.6" width="32" height="2"/><rect id="g14" x="1241.8" y="69.6" width="32" height="2"/></g><rect id="g15" x="1241.8" y="49.6" width="32" height="16" fill="#44C650"/><rect id="g16" x="1337.8" y="69.6" width="32" height="2" fill="#AAB2BD"/><rect id="g17" x="1337.8" y="77.6" width="32" height="2" fill="#AAB2BD"/><rect id="g18" x="1337.8" y="73.6" width="32" height="2" fill="#AAB2BD"/><rect id="g19" x="1337.8" y="81.6" width="16" height="2" fill="#AAB2BD"/><rect id="g20" x="1337.8" y="49.6" width="32" height="16" fill="#44C650"/><rect x="1233.8" y="-66.4" width="144" height="8" fill="#4B4A4C"/></g></g><g id="imac"><rect id="gridbg" x="888.7" y="-180.4" width="299.5" height="165.8" fill="#F5B8B6"/><g id="grid" fill="#fff"><rect id="grid1" x="907.8" y="-180.4" width="6.4" height="166"/><rect id="grid2" x="933.8" y="-180.4" width="6.4" height="166"/><rect id="grid3" x="958.8" y="-180.4" width="6.4" height="166"/><rect id="grid4" x="984.8" y="-180.4" width="6.4" height="166"/><rect id="grid5" x="1009.8" y="-180.4" width="6.4" height="166"/><rect id="grid6" x="1035.8" y="-180.4" width="6.4" height="166"/><rect id="grid7" x="1060.8" y="-180.4" width="6.4" height="166"/><rect id="grid8" x="1086.8" y="-180.4" width="6.4" height="166"/><rect id="grid9" x="1111.8" y="-180.4" width="6.4" height="166"/><rect id="grid10" x="1137.8" y="-180.4" width="6.4" height="166"/><rect id="grid11" x="1162.8" y="-180.4" width="6.4" height="166"/></g><path id="bg1" d="M1188.2-180.4v165.9h-300v-165.9h300z" fill="#F5F7FA"/><rect id="bg2" x="888.2" y="-103.8" width="300" height="76.6" fill="#E6E9ED"/><g id="b4" fill="#434A54"><rect id="f22" x="1112.3" y="-41.6" width="28.6" height="3.2"/><rect id="f21" x="1112.3" y="-54.4" width="57.1" height="3.2"/><rect id="f20" x="1112.3" y="-48" width="57.1" height="3.2"/><rect id="f19" x="1112.3" y="-60.8" width="57.1" height="3.2"/></g><rect id="f18" x="1112.3" y="-92.7" width="57.1" height="25.5" fill="#3498DB"/><g id="b3" fill="#434A54"><rect id="f17" x="1009.6" y="-60.8" width="57.1" height="3.2"/><rect id="f16" x="1009.6" y="-48" width="57.1" height="3.2"/><rect id="f15" x="1009.6" y="-54.4" width="57.1" height="3.2"/><rect id="f14" x="1009.6" y="-41.6" width="28.6" height="3.2"/></g><rect id="f13" x="1009.6" y="-92.7" width="57.1" height="25.5" fill="#3498DB"/><g id="b2" fill="#434A54"><rect id="f12" x="907.9" y="-60.8" width="57.1" height="3.2"/><rect id="f11" x="907.9" y="-48" width="57.1" height="3.2"/><rect id="f10" x="907.9" y="-54.4" width="57.1" height="3.2"/><rect id="f9" x="907.9" y="-41.6" width="28.6" height="3.2"/></g><rect id="f8" x="907.9" y="-92.7" width="57.1" height="25.5" fill="#3498DB"/><g id="b1"><rect id="f6" x="1023.8" y="-165.2" width="110.7" height="6.4" fill="#E74C3C"/><rect id="f5" x="1023.8" y="-126.9" width="39.3" height="12.8" fill="#39B54A"/><rect id="f4" x="1023.8" y="-154" width="110.7" height="3.2" fill="#656D78"/><rect id="f3" x="1023.8" y="-141.3" width="110.7" height="3.2" fill="#656D78"/><rect id="f2" x="1023.8" y="-147.7" width="110.7" height="3.2" fill="#656D78"/><rect id="f7" x="1023.8" y="-134.9" width="82.1" height="3.2" fill="#656D78"/></g><rect id="f1" x="907.9" y="-165.2" width="110.7" height="51" fill="#3498DB"/></g><g id="diagramma1"><polygon points="736.6,-1 708.9,-34.2 561,-45.1 543,200 720.9,213.1" fill="#39B54A"/><polygon points="712.9,-37.8 565,-48.7 547,196.4 724.8,209.5 740.6,-4.6" fill="#F5F7FA"/><polygon points="710.6,-6.8 740.6,-4.6 712.9,-37.8" fill="#8996A9"/><g id="dg1"><ellipse id="d1" transform="matrix(-.073 .997 -.997 -.073 688.316 -663.018)" cx="652.2" cy="-11.7" rx="15.4" ry="14.9" fill="#3498DB"/><rect id="d2" x="642.4" y="-13.5" transform="matrix(-.997 -.073 .073 -.997 1302.553 24.59)" width="18.6" height="3.8" fill="#F5F7FA"/><rect id="d3" x="648.9" y="-3.1" transform="matrix(-.997 -.073 .073 -.997 1299.127 63.555)" width="3.7" height="22.3" fill="#E6E9ED"/></g><g id="dg2"><polygon id="d4" points="687.7,37.2 684,36.9 685,23.6 614.6,18.4 613.9,28 610.2,27.8 611.1,14.3 688.9,20.1" fill="#E6E9ED"/><polygon id="d5" points="581.5,37.2 612.3,24.1 640.8,41.6 610,54.7" fill="#E74C3C"/><rect id="d6" x="596.3" y="37.5" transform="matrix(-.997 -.073 .073 -.997 1217.799 123.526)" width="29.7" height="3.8" fill="#F5F7FA"/><rect id="d7" x="608.1" y="46.9" transform="matrix(-.997 -.074 .074 -.997 1214.122 156.757)" width="3.7" height="18.3" fill="#E6E9ED"/></g><g id="dg3"><rect id="d8" x="578.6" y="62.2" transform="matrix(-.997 -.073 .073 -.997 1209.332 199.605)" width="59.4" height="30.8" fill="#3498DB"/><rect id="d9" x="590.1" y="71" transform="matrix(-.997 -.073 .073 -.997 1188.173 189.446)" width="14.9" height="3.8" fill="#F5F7FA"/><rect id="d10" x="612.3" y="72.4" transform="matrix(-.997 -.073 .073 -.997 1224.958 193.658)" width="7.4" height="3.8" fill="#F5F7FA"/><rect id="d11" x="589.5" y="79.5" transform="matrix(-.997 -.073 .073 -.997 1208.471 207.184)" width="37.1" height="3.8" fill="#F5F7FA"/><rect id="d12" x="605.1" y="81.4" transform="matrix(-.997 -.073 .073 -.997 1205.068 239.037)" width="3.7" height="32.2" fill="#E6E9ED"/></g><g id="dg4"><rect id="d13" x="574.6" y="108.3" transform="matrix(-.997 -.073 .073 -.997 1197.463 306.83)" width="59.4" height="46.1" fill="#3498DB"/><rect id="d14" x="581.4" y="133.3" transform="matrix(-.997 -.073 .073 -.997 1195.769 314.299)" width="44.6" height="3.8" fill="#F5F7FA"/><rect id="d15" x="580.8" y="139.9" transform="matrix(-.997 -.073 .073 -.997 1164.471 326.315)" width="14.9" height="3.8" fill="#F5F7FA"/><rect id="d16" x="603.1" y="141.2" transform="matrix(-.997 -.073 .073 -.997 1201.475 330.392)" width="7.4" height="3.8" fill="#F5F7FA"/><rect id="d17" x="581.9" y="124.8" transform="matrix(-.997 -.073 .073 -.997 1175.283 296.576)" width="22.3" height="3.8" fill="#F5F7FA"/><rect id="d18" x="611.6" y="126.7" transform="matrix(-.997 -.073 .073 -.997 1227.028 302.287)" width="14.9" height="3.8" fill="#F5F7FA"/><rect id="d19" x="582.5" y="117.7" transform="matrix(-.997 -.073 .073 -.997 1191.733 283)" width="37.1" height="3.8" fill="#F5F7FA"/></g><g id="dg5"><polygon id="d20" points="655.6,42.7 686.4,29.5 714.9,47 684.1,60.2" fill="#44C650"/><rect id="d21" x="670.4" y="42.9" transform="matrix(-.997 -.073 .073 -.997 1365.49 139.761)" width="29.7" height="3.8" fill="#F5F7FA"/><rect id="d22" x="668.2" y="67.7" transform="matrix(-.997 -.073 .073 -.997 1358.668 200.581)" width="29.7" height="15.4" fill="#3498DB"/></g><g id="dg6"><rect id="d23" x="682.2" y="52.3" transform="matrix(-.997 -.073 .073 -.997 1361.759 172.756)" width="3.7" height="18.3" fill="#E6E9ED"/><rect id="d24" x="676" y="73.5" transform="matrix(-.997 -.073 .073 -.997 1359.573 200.695)" width="14.9" height="3.8" fill="#F5F7FA"/><rect id="d25" x="679.7" y="70.5" transform="matrix(-.997 -.073 .073 -.997 1354.236 241.644)" width="3.7" height="51.1" fill="#E6E9ED"/></g><g id="dg7"><rect id="d26" x="651.6" y="90.8" transform="matrix(.997 .073 -.073 .997 9.055 -49.674)" width="59.4" height="15.4" fill="#3498DB"/><rect id="d27" x="681.8" y="97.4" transform="matrix(-.997 -.073 .073 -.997 1376.672 249.244)" width="22.3" height="3.8" fill="#F5F7FA"/><rect id="d28" x="659.5" y="95.5" transform="matrix(-.997 -.073 .073 -.997 1324.932 243.546)" width="14.9" height="3.8" fill="#F5F7FA"/></g><g id="dg8"><rect id="d29" x="657.4" y="113.8" transform="matrix(-.997 -.073 .073 -.997 1348.563 292.518)" width="44.6" height="15.4" fill="#3498DB"/><rect id="d30" x="676.5" y="129" transform="matrix(-.997 -.073 .073 -.997 1344.755 326.737)" width="3.7" height="19.4" fill="#E6E9ED"/><rect id="d32" x="668.5" y="119.6" transform="matrix(-.997 -.073 .073 -.997 1348.567 292.514)" width="22.3" height="3.8" fill="#F5F7FA"/></g><g id="dg9"><ellipse id="d31" transform="matrix(-.073 .997 -.997 -.073 885.861 -503.413)" cx="676.8" cy="159.9" rx="15.4" ry="14.9" fill="#3498DB"/><rect id="d33" x="667.1" y="158.1" transform="matrix(-.997 -.073 .073 -.997 1339.146 369.095)" width="18.6" height="3.8" fill="#fff"/></g></g><g id="appunti"><rect x="1244.8" y="149.3" transform="matrix(.101 -.995 .995 .101 931.372 1585.564)" width="196.7" height="256.2" fill="#39B54A"/><rect x="1249.7" y="145.2" transform="matrix(.101 -.995 .995 .101 939.846 1586.938)" width="196.7" height="256.2" fill="#E6E9ED"/><rect x="1256.2" y="145.3" transform="matrix(-.035 -.999 .999 -.035 1128.143 1636.528)" width="196.7" height="256.2" fill="#F5F7FA"/><g id="ag1" fill="#44C650"><path id="a1" d="M1439.2 302.8l-108.7 4.2-3.6-91.1 108.7-4.2 3.6 91.1zm-104.5-.3l100-3.9-3.2-82.4-100 3.9 3.2 82.4z"/><rect id="a2" x="1329.8" y="231.2" transform="matrix(-.999 .039 -.039 -.999 2772.029 412.699)" width="104.4" height="4.3"/></g><g id="ag2" fill="#44C650"><path id="a3" d="M1369.4 296.8l-21.7.8-.9-21.7 21.7-.8.9 21.7zm-17.5-3.6l13-.5-.5-13-13 .5.5 13z"/><path id="a4" d="M1395.3 295.8l-21.7.9-.8-21.7 21.7-.8.8 21.6zm-17.5-3.7l13-.5-.5-13-13 .5.5 13z"/><path id="a5" d="M1421.4 294.8l-21.7.8-.8-21.7 21.7-.8.8 21.7zm-17.5-3.7l13-.5-.5-13-13 .5.5 13z"/></g><g id="ag3" fill="#44C650"><path id="a6" d="M1385.8 270.1l-39.1 1.5-1.2-30.4 39.1-1.5 1.2 30.4zm-34.9-3l30.4-1.2-.8-21.7-30.4 1.2.8 21.7z"/><rect id="a7" x="1391.1" y="238.9" transform="matrix(-.999 .039 -.039 -.999 2816.499 427.195)" width="26.1" height="4.3"/><rect id="a8" x="1391.3" y="247.7" transform="matrix(-.999 .039 -.039 -.999 2817.451 444.85)" width="26.1" height="4.3"/><rect id="a9" x="1391.7" y="256.4" transform="matrix(-.999 .039 -.039 -.999 2809.849 462.531)" width="17.4" height="4.3"/></g><g id="ag4" fill="#44C650"><rect id="a10" x="1402.7" y="316.5" transform="matrix(-.999 .039 -.039 -.999 2851.614 581.806)" width="34.8" height="4.3"/><rect id="a11" x="1403.1" y="325.2" transform="matrix(-.999 .039 -.039 -.999 2852.687 599.276)" width="34.9" height="4.3"/><rect id="a18" x="1419.9" y="307.6" transform="matrix(-.999 .039 -.039 -.999 2868.076 563.64)" width="17.4" height="4.3"/></g><g id="ag5" fill="#44C650"><rect id="a12" x="1314.7" y="285" transform="matrix(-.999 .039 -.039 -.999 2683.086 521.988)" width="43.4" height="4.3"/><rect id="a13" x="1297.4" y="286.4" transform="matrix(-.999 .039 -.039 -.999 2613.597 526.551)" width="8.7" height="4.3"/><rect id="a14" x="1312.4" y="224.4" transform="matrix(-.999 .039 -.039 -.999 2675.994 400.99)" width="43.4" height="4.3"/><rect id="a15" x="1295" y="225.9" transform="matrix(-.999 .039 -.039 -.999 2606.608 405.771)" width="8.7" height="4.3"/><rect id="a16" x="1295.7" y="243" transform="matrix(-.999 .039 -.039 -.999 2608.538 439.778)" width="8.7" height="4.3"/><polygon id="a17" points="1365,257.7 1330.1,246.2 1313.1,246.9 1313,242.5 1330.7,241.8 1366.3,253.6"/></g></g><g id="appunti2"><rect x="1683.4" y="-4" transform="matrix(-.955 .297 -.297 -.955 3433.011 -344.529)" width="118.5" height="185.2" fill="#363532"/><circle cx="1776.2" cy="-3.3" r="14.8" fill="#363532"/><circle cx="1822.5" cy="145.3" r="14.8" fill="#363532"/><rect x="1799.1" y="-9.1" transform="matrix(.955 -.297 .297 .955 61.208 540.002)" width="14.8" height="155.6" fill="#363532"/><circle cx="1711.5" cy="187.6" r="7.4" fill="#363532"/><circle cx="1660.8" cy="24.9" r="7.4" fill="#363532"/><rect x="1678.5" y="20.3" transform="matrix(-.955 .297 -.297 -.955 3332.516 -295.612)" width="20.4" height="170.4" fill="#363532"/><rect x="1682.9" y="-5.7" transform="matrix(-.955 .297 -.297 -.955 3431.405 -347.858)" width="118.5" height="185.2" fill="#fff"/><circle cx="1775.7" cy="-5" r="14.8" fill="#fff"/><circle cx="1821.9" cy="143.5" r="14.8" fill="#fff"/><rect x="1798.4" y="-10.7" transform="matrix(.955 -.297 .297 .955 61.671 539.723)" width="14.8" height="155.6" fill="#fff"/><circle cx="1711.5" cy="187.6" r="5.6" fill="#fff"/><circle cx="1660.3" cy="23.1" r="7.4" fill="#fff"/><rect x="1680.1" y="18.2" transform="matrix(-.955 .297 -.297 -.955 3333.39 -298.073)" width="18.5" height="172.2" fill="#fff"/><path d="M1770.7-21l-113.2 35.2c-3.9 1.2-6.1 5.4-4.9 9.3l50.6 162.7c1.2 3.9 5.4 6.1 9.3 4.9l113.2-35.2c7.8-2.4 12.2-10.7 9.7-18.6l-46.2-148.6c-2.3-7.7-10.7-12.1-18.5-9.7z" fill="#434A54"/><rect x="1692.8" y="4.8" transform="matrix(-.955 .297 -.297 -.955 3346.921 -303.819)" width="7.4" height="194.5" fill="#A0D468"/><rect x="1704.3" y="51.3" transform="matrix(.954 -.299 .299 .954 63.652 522.117)" width="65.2" height="3.7" fill="#E6E9ED"/><rect x="1708.7" y="65.8" transform="matrix(.954 -.299 .299 .954 59.521 524.088)" width="65.2" height="3.7" fill="#E6E9ED"/><rect x="1713.1" y="80.4" transform="matrix(.954 -.299 .299 .954 55.368 526.061)" width="65.2" height="3.7" fill="#E6E9ED"/><rect x="1717.4" y="94.9" transform="matrix(.954 -.299 .299 .954 51.22 528.033)" width="65.2" height="3.7" fill="#E6E9ED"/></g><g id="coffee"><circle cx="1618.8" cy="-91.4" r="50.6" fill="#39B54A"/><circle cx="1623.8" cy="-93.4" r="50.6" fill="#E6E9ED"/><path d="M1623.8-135.1c23 0 41.7 18.7 41.7 41.7s-18.7 41.7-41.7 41.7c-10.4 0-19.9-3.8-27.2-10.1-8.9-7.6-14.5-19-14.5-31.6 0-23 18.7-41.7 41.7-41.7z" fill="#3498DB"/><path id="linecover2" d="M1623.8-136.1c23.6 0 42.7 19.1 42.7 42.7s-19.1 42.7-42.7 42.7c-10.6 0-20.3-3.9-27.8-10.3-9.1-7.8-14.9-19.4-14.9-32.4 0-23.6 19.2-42.7 42.7-42.7z" fill="#E6E9ED"/><ellipse transform="matrix(.118 -.993 .993 .118 1480.383 1544.543)" cx="1610" cy="-61.4" rx="7.7" ry="11.6" fill="#D8D8DA"/><polygon points="1560.7,-71.2 1601.5,-64.3 1601.1,-60.7 1559.7,-63.5" fill="#CCD1D9"/><ellipse transform="matrix(.118 -.993 .993 .118 1480.292 1544.427)" cx="1609.9" cy="-61.4" rx="6.4" ry="9.6" fill="#AAB2BD"/><path d="M1596.6-136.3l9.7 12.5c1.6 2.1 1.2 5-.8 6.7-2.1 1.6-5 1.2-6.7-.8l-9.7-12.5c-1.6-2.1-1.2-5 .8-6.7 2.1-1.6 5-1.2 6.7.8z" fill="#fff"/><circle cx="1623.8" cy="-93.4" r="34.8" fill="#fff"/><circle cx="1623.8" cy="-93.4" r="31.3" fill="#E6E7E8"/><circle cx="1623.8" cy="-93.4" r="29.6" fill="#49433C"/><path d="M1602.6-76.9c9.1 11.7 26 13.8 37.7 4.7.7-.5.8-1.5.3-2.2-.5-.7-1.5-.8-2.2-.3l-.9.6c-.1.1-.2.1-.2.2-.3.2-.5.4-.8.5l-.3.2-.6.3-.4.2c-.2.1-.5.2-.7.4-.2.1-.4.2-.5.3l-.4.2c-.2.1-.3.2-.5.2l-.7.3-.5.2-.5.2-.4.1c-.3.1-.6.2-.9.2l-.3.1c-.2.1-.5.1-.8.2-.1 0-.2 0-.2.1l-1 .2h-.1l-.6.1c-.1 0-.3 0-.5.1h-.1c-.7.1-1.5.1-2.2.1-.7 0-1.5 0-2.2-.1h-.1l-1-.1h-.1l-.9-.1c-.1 0-.3 0-.4-.1-.2 0-.4-.1-.5-.1-.6-.1-1.3-.3-1.9-.5-3.4-1-6.6-2.8-9.2-5.2h-.1l-.4-.4-.4-.4-.4-.4c-.2-.2-.4-.4-.6-.7-.1-.1-.1-.2-.2-.2l-.7-.8-.6-.9-.2-.3-.5-.7-.3-.4-.3-.4c-.1-.2-.2-.4-.3-.5v-.1c-1.7-3.2-2.6-6.7-2.8-10.3v-2.9c0-.3.1-.6.1-1v-.1l.1-1v-.1c.1-.7.3-1.4.5-2.2.2-.7.4-1.4.7-2.1v-.1l.2-.4c.1-.2.2-.4.2-.6v-.1l.4-.9.1-.2c.1-.2.2-.5.4-.7l.2-.3c.1-.3.3-.5.5-.8l.3-.4.3-.4.3-.4.5-.6.3-.4.3-.3.4-.5.5-.6.3-.3.5-.5c.1-.1.1-.2.2-.2l.7-.7.2-.2.8-.7c.7-.5.8-1.5.3-2.2-.5-.7-1.5-.8-2.2-.3-11.7 9.1-13.8 26-4.7 37.7z" fill="#363532"/><path d="M1612.6-116.1c.3.8 1.3 1.2 2.1.8l.6-.3h.1l.6-.2c.1 0 .1 0 .2-.1l.6-.2c.4-.1.9-.3 1.4-.4h.2l1.3-.3c.1 0 .2 0 .3-.1h0c.1 0 .3 0 .4-.1h.30000000000000004c.6-.1 1.1.2 1.4.6.2.2.3.5.3.8.1.9-.5 1.7-1.3 1.8-1.3.2-2.6.5-3.9.9h-.1c-.4.1-.8.3-1.2.5-.8.3-1.1 1.3-.8 2.1.3.8 1.3 1.2 2.1.8 2.2-.9 4.5-1.4 6.9-1.4h2.2c.4.1.7.3.9.6.2.3.4.7.3 1.2-.1.9-.9 1.5-1.8 1.4-2.5-.3-5 0-7.2 1h-.1c-.8.3-1.2 1.3-.8 2.1.3.8 1.3 1.2 2.1.8 4.6-1.9 10-.5 13 3.4 3.1 4 3.1 9.5.1 13.5-.5.7-.4 1.7.3 2.2.7.5 1.7.4 2.2-.3l.2-.2c1.4-1.9 2.3-4.2 2.6-6.6.1-.9.9-1.5 1.8-1.4.4.1.8.3 1.1.6.2.3.3.7.3 1.1v.1c0 .1 0 .2-.1.3v.3l-.1.4c0 .1 0 .2-.1.3l-.1.5v.2c-.6 2.3-1.6 4.4-3 6.3-.5.7-.4 1.7.3 2.2.7.5 1.7.4 2.2-.3l.8-1.1v-.1c.7-1.1 1.4-2.3 1.9-3.5.3-.8 1.2-1.2 2.1-.9.3.1.5.3.6.5.3.4.4 1 .2 1.5 0 .1 0 .1-.1.2-.1.2-.2.4-.2.6l-.1.3-.3.6c0 .1-.1.2-.1.2l-.3.6-.1.2c-.1.3-.3.5-.5.8-.1.2-.2.4-.4.6l-.1.1-.2.3-.1.2-.1.1-.4.6c-.5.7-.4 1.7.3 2.2.7.5 1.7.4 2.2-.3 7.3-9.7 7.3-23.1-.2-32.7-7.5-9.6-20.5-13-31.6-8.3-1.1.7-1.5 1.6-1.1 2.4zm32.9 32.4c0 .1-.1.2-.1.2 0-.1 0-.2.1-.2zm-.4.8l-.1.2s0-.1.1-.2zm-.5.9l-.1.1c.1 0 .1-.1.1-.1zm1.1-2.4s0-.1.1-.1l-.1.1z" fill="#363532"/><path d="M1642.7-79.1c.2-.2.3-.4.4-.6-.1.3-.3.4-.4.6z" fill="#363532"/></g></g><g id="tblock1"><path d="M505.3-211.1h257.1v68.8h-257.1v-68.8z" fill="#3498DB"/><path d="M808.5-173.5l-48 13v-24l48 11z" fill="#3498DB"/><g fill="#ECF0F1" font-family="Roboto-Light" font-size="18"><text transform="translate(513.091 -157.205)">UX and Design</text><text transform="translate(513.5 -185.022)">Front-End development</text></g></g><g id="tblock2"><path d="M1231.1-209.4h257.1v69.8h-257.1v-69.8z" fill="#3498DB"/><path d="M1360.6-107l-13-48h24l-11 48z" fill="#3498DB"/><text transform="translate(1241.885 -180.037)" fill="#ECF0F1" font-family="Roboto-Light" font-size="18">Mobile Applications</text><text transform="translate(1241.885 -157.766)" fill="#ECF0F1" font-family="Roboto-Light" font-size="18">Responsive Web Design</text></g><g id="tblock3"><path d="M865.2 167.9h314.3v124.8h-314.3v-124.8z" fill="#3498DB"/><path d="M997 125.6l13 48h-24l11-48z" fill="#3498DB"/><text transform="translate(881.441 197.219)" fill="#ECF0F1" font-family="Roboto-Light" font-size="18">Project Management</text><g fill="#ECF0F1" font-family="Roboto-Light" font-size="18"><text transform="translate(881.441 221.919)">Estimating / Strategy / Planning</text><text transform="translate(881.441 273.485)">Client relationship</text></g><text transform="translate(881.441 247.485)" fill="#ECF0F1" font-family="Roboto-Light" font-size="18">Mentoring, Team Leading</text></g><text id="texttitle" transform="translate(512.681 -321.019)" fill="#F5F7FA" font-family="Roboto-Thin" font-size="36">Knowledge, skills and abilities:</text><path id="wire2" d="M1167.2-369.2l-1.2 1.2c-65.5 59.8-48.7 76-135.9 87-56.8 7.2-163 16-199.6 65.9-46 62.6-33.6 201.1 62.6 201.1h295.9v-90.1c31.9 0 29.2.1 64.3.1h146.7c0 18.9.7 70.3.7 87.3v156.1c-36.7 0-11.8.4-65.7.4-38.8 0-89.6 11.3-120.6-12.7-66.5-51.3-152.9-21.5-227-8.1-60.8 11-140.9-14.7-195.5 18.5-71.5 43.4-34.2 173.1-108 208.6-32.3 15.5-93.5 2.1-97.8 54.3" opacity=".6" fill="none" stroke="#EFEFEF" stroke-miterlimit="10" enable-background="new"/></svg>