<svg id="svg2" xmlns="http://www.w3.org/2000/svg" viewBox="496 -368 1024 768"><rect x="-3360.3" y="-2658.6" width="8736.7" height="5396" fill="#44c650" id="bg2_1_"/><g id="objects" xmlns:dc="http://purl.org/dc/elements/1.1/" xmlns:inkscape="http://www.inkscape.org/namespaces/inkscape" xmlns:rdf="http://www.w3.org/1999/02/22-rdf-syntax-ns#" xmlns:cc="http://creativecommons.org/ns#" xmlns:svg="http://www.w3.org/2000/svg" xmlns:sodipodi="http://sodipodi.sourceforge.net/DTD/sodipodi-0.dtd" sodipodi:docname="drawing.svg" inkscape:version="0.48.4 r9939"><g id="iphone"><path d="M1438.5 69.9l1.2 9.7c.5 3.6 3.7 6.1 7.3 5.7l52-6.6c3.6-.5 6.1-3.7 5.7-7.3l-1.2-9.7-65 8.2zM1491.1-35.8l-1.2-9.7c-.5-3.6-3.7-6.1-7.3-5.7l-52 6.6c-3.6.5-6.1 3.7-5.7 7.3l1.2 9.7 65-8.2z" fill="#0f0d10"/><rect x="1432" y="-32.1" transform="rotate(-7.207 1464.717 16.824)" width="65.5" height="98.2" fill="#0f0d10"/><rect x="1435.3" y="-32" transform="rotate(-7.207 1464.738 16.874)" width="58.9" height="98.2" fill="#f5f7fa"/><circle cx="1472" cy="73.9" r="4.9" fill="#272528"/><g id="s3"><rect id="s3-bg1" x="1439" y="26.7" transform="rotate(-7.207 1468.445 46.121)" width="58.9" height="39.3" fill="#ccd1d9"/><rect id="i1" x="1455.7" y="48.8" transform="rotate(-7.207 1468.77 49.346)" width="26.2" height="1.6" fill="#f5f7fa"/><rect id="i2" x="1456.6" y="55.2" transform="rotate(-7.207 1469.703 55.803)" width="26.2" height="1.6" fill="#f5f7fa"/><rect id="i3" x="1456.2" y="52" transform="rotate(-7.207 1469.253 52.616)" width="26.2" height="1.6" fill="#f5f7fa"/><rect id="i4" x="1457" y="59.3" transform="rotate(-7.221 1463.535 60.095)" width="13.1" height="1.6" fill="#f5f7fa"/><rect id="i5" x="1454.4" y="32.3" transform="rotate(-7.207 1467.494 38.68)" width="26.2" height="13.1" fill="#44c650"/><g><rect id="i6" x="1447.2" y="6.5" transform="rotate(-7.207 1463.56 7.1)" width="32.7" height="1.6" fill="#aab2bd"/><rect id="i7" x="1448" y="13.1" transform="rotate(-7.207 1464.331 13.644)" width="32.7" height="1.6" fill="#aab2bd"/><rect id="i8" x="1447.6" y="9.8" transform="rotate(-7.207 1463.892 10.406)" width="32.7" height="1.6" fill="#aab2bd"/><rect id="i9" x="1455" y="16.2" transform="rotate(-7.207 1464.765 16.8)" width="19.6" height="1.6" fill="#aab2bd"/><rect id="i10" x="1437.8" y="-25.3" transform="rotate(-7.207 1460.656 -15.671)" width="45.8" height="19.6" fill="#3498db"/><rect id="i11" x="1443" y="-.5" transform="rotate(-7.207 1462.61 .574)" width="39.3" height="2.5" fill="#e1e1e2"/></g></g></g><g id="ipad"><path d="M1385.8-66.4v-12c0-4.4-3.6-8-8-8h-144c-4.4 0-8 3.6-8 8v12h160zM1225.8 101.6v12c0 4.4 3.6 8 8 8h144c4.4 0 8-3.6 8-8v-12h-160z" fill="#0f0d10"/><rect x="1225.8" y="-66.4" width="160" height="168" fill="#0f0d10"/><rect x="1233.8" y="-66.4" width="144" height="168" fill="#c4c3c4"/><circle cx="1305.8" cy="111.6" r="6" fill="#272528"/><g id="s2"><rect x="1233.8" y="-66.4" width="144" height="168" fill="#e6e9ed"/><rect id="s2-bg1" x="1233.8" y="37.6" width="144" height="64" fill="#fff"/><rect id="g1" x="1257.8" y="-50.4" width="96" height="48" fill="#44c650"/><g id="g2g" fill="#434a54"><rect id="g2" x="1273.8" y="12.6" width="64" height="2"/><rect id="g3" x="1273.8" y="20.6" width="64" height="2"/><rect id="g4" x="1273.8" y="16.6" width="64" height="2"/><rect id="g5" x="1281.8" y="24.6" width="48" height="2"/></g><rect id="g21" x="1265.8" y="3.6" width="80" height="4" fill="#4fc1e9"/><g id="g6g" fill="#aab2bd"><rect id="g6" x="1289.8" y="69.6" width="32" height="2"/><rect id="g7" x="1289.8" y="77.6" width="32" height="2"/><rect id="g8" x="1289.8" y="73.6" width="32" height="2"/><rect id="g9" x="1289.8" y="81.6" width="16" height="2"/></g><rect id="g10" x="1289.8" y="49.6" width="32" height="16" fill="#44c650"/><g><g id="g11g" fill="#aab2bd"><rect id="g11" x="1241.8" y="81.6" width="16" height="2"/><rect id="g12" x="1241.8" y="73.6" width="32" height="2"/><rect id="g13" x="1241.8" y="77.6" width="32" height="2"/><rect id="g14" x="1241.8" y="69.6" width="32" height="2"/></g><rect id="g15" x="1241.8" y="49.6" width="32" height="16" fill="#44c650"/></g><g><rect id="g16" x="1337.8" y="69.6" width="32" height="2" fill="#aab2bd"/><rect id="g17" x="1337.8" y="77.6" width="32" height="2" fill="#aab2bd"/><rect id="g18" x="1337.8" y="73.6" width="32" height="2" fill="#aab2bd"/><rect id="g19" x="1337.8" y="81.6" width="16" height="2" fill="#aab2bd"/><rect id="g20" x="1337.8" y="49.6" width="32" height="16" fill="#44c650"/></g><rect x="1233.8" y="-66.4" width="144" height="8" fill="#4b4a4c"/></g></g><g id="imac"><rect id="gridbg" x="888.7" y="-180.4" width="299.5" height="165.8" fill="#f5b8b6"/><g id="grid" fill="#fff"><rect id="grid1" x="907.8" y="-180.4" width="6.4" height="166"/><rect id="grid2" x="933.8" y="-180.4" width="6.4" height="166"/><rect id="grid3" x="958.8" y="-180.4" width="6.4" height="166"/><rect id="grid4" x="984.8" y="-180.4" width="6.4" height="166"/><rect id="grid5" x="1009.8" y="-180.4" width="6.4" height="166"/><rect id="grid6" x="1035.8" y="-180.4" width="6.4" height="166"/><rect id="grid7" x="1060.8" y="-180.4" width="6.4" height="166"/><rect id="grid8" x="1086.8" y="-180.4" width="6.4" height="166"/><rect id="grid9" x="1111.8" y="-180.4" width="6.4" height="166"/><rect id="grid10" x="1137.8" y="-180.4" width="6.4" height="166"/><rect id="grid11" x="1162.8" y="-180.4" width="6.4" height="166"/></g><path id="bg1" d="M1188.2-180.4v165.9h-300v-153.1-12.8h300z" fill="#f5f7fa"/><rect id="bg2" x="888.2" y="-103.8" width="300" height="76.6" fill="#e6e9ed"/><g id="b4" fill="#434a54"><rect id="f22" x="1112.3" y="-41.6" width="28.6" height="3.2"/><rect id="f21" x="1112.3" y="-54.4" width="57.1" height="3.2"/><rect id="f20" x="1112.3" y="-48" width="57.1" height="3.2"/><rect id="f19" x="1112.3" y="-60.8" width="57.1" height="3.2"/></g><rect id="f18" x="1112.3" y="-92.7" width="57.1" height="25.5" fill="#3498db"/><g id="b3" fill="#434a54"><rect id="f17" x="1009.6" y="-60.8" width="57.1" height="3.2"/><rect id="f16" x="1009.6" y="-48" width="57.1" height="3.2"/><rect id="f15" x="1009.6" y="-54.4" width="57.1" height="3.2"/><rect id="f14" x="1009.6" y="-41.6" width="28.6" height="3.2"/></g><rect id="f13" x="1009.6" y="-92.7" width="57.1" height="25.5" fill="#3498db"/><g id="b2" fill="#434a54"><rect id="f12" x="907.9" y="-60.8" width="57.1" height="3.2"/><rect id="f11" x="907.9" y="-48" width="57.1" height="3.2"/><rect id="f10" x="907.9" y="-54.4" width="57.1" height="3.2"/><rect id="f9" x="907.9" y="-41.6" width="28.6" height="3.2"/></g><rect id="f8" x="907.9" y="-92.7" width="57.1" height="25.5" fill="#3498db"/><g id="b1"><rect id="f6" x="1023.8" y="-165.2" width="110.7" height="6.4" fill="#e74c3c"/><rect id="f5" x="1023.8" y="-126.9" width="39.3" height="12.8" fill="#39b54a"/><rect id="f4" x="1023.8" y="-154" width="110.7" height="3.2" fill="#656d78"/><rect id="f3" x="1023.8" y="-141.3" width="110.7" height="3.2" fill="#656d78"/><rect id="f2" x="1023.8" y="-147.7" width="110.7" height="3.2" fill="#656d78"/><rect id="f7" x="1023.8" y="-134.9" width="82.1" height="3.2" fill="#656d78"/></g><rect id="f1" x="907.9" y="-165.2" width="110.7" height="51" fill="#3498db"/></g><g id="diagramma1"><polygon points="736.6,-1 708.9,-34.2 561,-45.1 543,200 720.9,213.1" fill="#39b54a"/><polygon points="712.9,-37.8 565,-48.7 547,196.4 724.8,209.5 740.6,-4.6" fill="#f5f7fa"/><polygon points="710.6,-6.8 740.6,-4.6 712.9,-37.8" fill="#8996a9"/><g id="dg1"><ellipse id="d1" transform="rotate(4.204 652.171 -11.72) scale(.99999)" cx="652.2" cy="-11.7" rx="14.9" ry="15.4" fill="#3498db"/><rect id="d2" x="642.5" y="-13.5" transform="rotate(4.204 651.755 -11.61) scale(.99999)" width="18.6" height="3.8" fill="#f5f7fa"/><rect id="d3" x="648.9" y="-3.2" transform="matrix(.9973 .0731 -.0731 .9973 2.323 -47.549)" width="3.7" height="22.3" fill="#e6e9ed"/></g><g id="dg2"><polygon id="d4" points="687.7,37.2 684,36.9 685,23.6 614.6,18.4 613.9,28 610.2,27.8 611.1,14.3 688.9,20.1" fill="#e6e9ed"/><polygon id="d5" points="581.5,37.2 612.3,24.1 640.8,41.6 610,54.7" fill="#e74c3c"/><rect id="d6" x="596.3" y="37.5" transform="rotate(4.209 611.19 39.374)" width="29.7" height="3.8" fill="#f5f7fa"/><rect id="d7" x="608.1" y="46.8" transform="rotate(4.219 609.949 55.984) scale(1.00001)" width="3.7" height="18.3" fill="#e6e9ed"/></g><g id="dg3"><rect id="d8" x="578.7" y="62.2" transform="rotate(4.209 608.37 77.566)" width="59.4" height="30.8" fill="#3498db"/><rect id="d9" x="590.1" y="71" transform="rotate(4.204 597.573 72.943) scale(.99999)" width="14.9" height="3.8" fill="#f5f7fa"/><rect id="d10" x="612.4" y="72.4" transform="rotate(4.215 616.082 74.283)" width="7.4" height="3.8" fill="#f5f7fa"/><rect id="d11" x="589.5" y="79.5" transform="rotate(4.204 608.022 81.434) scale(.99999)" width="37.1" height="3.8" fill="#f5f7fa"/><rect id="d12" x="605" y="81.3" transform="matrix(.9973 .0731 -.0731 .9973 8.746 -44.105)" width="3.7" height="32.2" fill="#e6e9ed"/></g><g id="dg4"><rect id="d13" x="574.7" y="108.4" transform="rotate(4.209 604.435 131.478)" width="59.4" height="46.1" fill="#3498db"/><rect id="d14" x="581.3" y="133.3" transform="rotate(4.204 603.603 135.213) scale(.99999)" width="44.6" height="3.8" fill="#f5f7fa"/><rect id="d15" x="580.8" y="139.9" transform="rotate(4.204 588.198 141.778) scale(.99999)" width="14.9" height="3.8" fill="#f5f7fa"/><rect id="d16" x="603.1" y="141.3" transform="rotate(4.204 606.797 143.199) scale(.99999)" width="7.4" height="3.8" fill="#f5f7fa"/><rect id="d17" x="582" y="124.8" transform="rotate(4.204 593.115 126.747) scale(.99999)" width="22.3" height="3.8" fill="#f5f7fa"/><rect id="d18" x="611.6" y="126.8" transform="rotate(4.204 619.069 128.658) scale(.99999)" width="14.9" height="3.8" fill="#f5f7fa"/><rect id="d19" x="582.5" y="117.7" transform="rotate(4.209 601.085 119.606)" width="37.1" height="3.8" fill="#f5f7fa"/></g><g id="dg5"><polygon id="d20" points="655.6,42.7 686.4,29.5 714.9,47 684.1,60.2" fill="#44c650"/><rect id="d21" x="670.5" y="43" transform="rotate(4.204 685.367 44.853) scale(.99999)" width="29.7" height="3.8" fill="#f5f7fa"/><rect id="d22" x="668.1" y="67.6" transform="rotate(4.204 682.983 75.318) scale(.99999)" width="29.7" height="15.4" fill="#3498db"/></g><g id="dg6"><rect id="d23" x="682.2" y="52.3" transform="matrix(.9973 .0731 -.0731 .9973 6.324 -49.842)" width="3.7" height="18.3" fill="#e6e9ed"/><rect id="d24" x="676" y="73.5" transform="rotate(4.204 683.488 75.402) scale(.99999)" width="14.9" height="3.8" fill="#f5f7fa"/><rect id="d25" x="679.7" y="70.5" transform="matrix(.9973 .0731 -.0731 .9973 8.844 -49.567)" width="3.7" height="51.1" fill="#e6e9ed"/></g><g id="dg7"><rect id="d26" x="651.6" y="90.8" transform="rotate(-175.796 681.295 98.5) scale(.99999)" width="59.4" height="15.4" fill="#3498db"/><rect id="d27" x="681.7" y="97.5" transform="rotate(4.204 692.864 99.418) scale(.99999)" width="22.3" height="3.8" fill="#f5f7fa"/><rect id="d28" x="659.5" y="95.6" transform="rotate(4.204 666.915 97.522) scale(.99999)" width="14.9" height="3.8" fill="#f5f7fa"/></g><g id="dg8"><rect id="d29" x="657.3" y="113.8" transform="rotate(4.204 679.597 121.524) scale(.99999)" width="44.6" height="15.4" fill="#3498db"/><rect id="d30" x="676.6" y="129" transform="rotate(4.204 678.397 138.687) scale(.99999)" width="3.7" height="19.4" fill="#e6e9ed"/><rect id="d32" x="668.5" y="119.6" transform="rotate(4.204 679.651 121.523) scale(.99999)" width="22.3" height="3.8" fill="#f5f7fa"/></g><g id="dg9"><ellipse id="d31" transform="rotate(4.204 676.776 159.838) scale(.99999)" cx="676.8" cy="159.8" rx="14.9" ry="15.4" fill="#3498db"/><rect id="d33" x="667" y="158" transform="rotate(4.204 676.293 159.947) scale(.99999)" width="18.6" height="3.8" fill="#fff"/></g></g><g id="appunti"><rect x="1244.8" y="149.2" transform="rotate(95.803 1343.131 277.32)" width="196.7" height="256.2" fill="#39b54a"/><rect x="1249.7" y="145.3" transform="rotate(95.803 1348.02 273.405)" width="196.7" height="256.2" fill="#e6e9ed"/><rect x="1256.2" y="145.2" transform="rotate(88.017 1354.512 273.33)" width="196.7" height="256.2" fill="#f5f7fa"/><g id="ag1" fill="#44c650"><path id="a1" d="M1439.2 302.8l-108.7 4.2-3.6-91.1 108.7-4.2 3.6 91.1zm-104.5-.3l100-3.9-3.2-82.4-100 3.9 3.2 82.4z"/><rect id="a2" x="1329.9" y="231.1" transform="matrix(.9992 -.0389 .0389 .9992 -8.03 53.943)" width="104.4" height="4.3"/></g><g id="ag2" fill="#44c650"><path id="a3" d="M1369.4 296.8l-21.7.8-.9-21.7 21.7-.8.9 21.7zm-17.5-3.6l13-.5-.5-13-13 .5.5 13z"/><path id="a4" d="M1395.3 295.8l-21.7.9-.8-21.7 21.7-.8.8 21.6zm-17.5-3.7l13-.5-.5-13-13 .5.5 13z"/><path id="a5" d="M1421.4 294.8l-21.7.8-.8-21.7 21.7-.8.8 21.7zm-17.5-3.7l13-.5-.5-13-13 .5.5 13z"/></g><g id="ag3" fill="#44c650"><path id="a6" d="M1385.8 270.1l-39.1 1.5-1.2-30.4 39.1-1.5 1.2 30.4zm-34.9-3l30.4-1.2-.8-21.7-30.4 1.2.8 21.7z"/><rect id="a7" x="1391" y="239" transform="rotate(-2.234 1404.02 241.061) scale(.99996)" width="26.1" height="4.3"/><rect id="a8" x="1391.5" y="247.7" transform="matrix(.9992 -.0389 .0389 .9992 -8.656 54.83)" width="26.1" height="4.3"/><rect id="a9" x="1391.8" y="256.5" transform="matrix(.9992 -.0389 .0389 .9992 -9.003 54.68)" width="17.4" height="4.3"/></g><g id="ag4" fill="#44c650"><rect id="a10" x="1402.8" y="316.6" transform="rotate(-2.234 1420.174 318.751) scale(.99996)" width="34.8" height="4.3"/><rect id="a11" x="1403.1" y="325.3" transform="matrix(.9992 -.0389 .0389 .9992 -11.664 55.512)" width="34.9" height="4.3"/><rect id="a18" x="1419.8" y="307.7" transform="rotate(-2.234 1428.488 309.81) scale(.99996)" width="17.4" height="4.3"/></g><g id="ag5" fill="#44c650"><rect id="a12" x="1314.9" y="285" transform="rotate(-2.234 1336.51 287.148) scale(.99996)" width="43.4" height="4.3"/><rect id="a13" x="1297.2" y="286.4" transform="rotate(-2.219 1301.649 288.626) scale(1.00005)" width="8.7" height="4.3"/><rect id="a14" x="1312.4" y="224.5" transform="matrix(.9992 -.039 .039 .9992 -7.825 52.207)" width="43.4" height="4.3"/><rect id="a15" x="1295" y="225.9" transform="matrix(.9993 -.0386 .0386 .9993 -7.833 50.32)" width="8.7" height="4.3"/><rect id="a16" x="1295.7" y="243.1" transform="matrix(.9992 -.0388 .0388 .9992 -8.538 50.63)" width="8.7" height="4.3"/><polygon id="a17" points="1365,257.7 1330.1,246.2 1313.1,246.9 1313,242.5 1330.7,241.8 1366.3,253.6"/></g></g><g id="appunti2"><rect x="1683.6" y="-4" transform="rotate(-17.284 1742.883 88.621)" width="118.5" height="185.2" fill="#363532"/><circle cx="1776.2" cy="-3.3" r="14.8" fill="#363532"/><circle cx="1822.5" cy="145.3" r="14.8" fill="#363532"/><rect x="1799.1" y="-9.1" transform="rotate(162.708 1806.485 68.704)" width="14.8" height="155.6" fill="#363532"/><circle cx="1711.5" cy="187.6" r="7.4" fill="#363532"/><circle cx="1660.8" cy="24.9" r="7.4" fill="#363532"/><rect x="1678.6" y="20.3" transform="rotate(-17.292 1688.798 105.62)" width="20.4" height="170.4" fill="#363532"/><rect x="1682.9" y="-5.8" transform="rotate(-17.284 1742.26 86.767)" width="118.5" height="185.2" fill="#fff"/><circle cx="1775.7" cy="-5" r="14.8" fill="#fff"/><circle cx="1821.9" cy="143.5" r="14.8" fill="#fff"/><rect x="1798.4" y="-10.7" transform="rotate(162.708 1805.804 67.105)" width="14.8" height="155.6" fill="#fff"/><circle cx="1711.5" cy="187.6" r="5.6" fill="#fff"/><circle cx="1660.3" cy="23.1" r="7.4" fill="#fff"/><rect x="1680.2" y="18.2" transform="rotate(-17.284 1689.486 104.252)" width="18.5" height="172.2" fill="#fff"/><path d="M1770.7-21l-113.2 35.2c-3.9 1.2-6.1 5.4-4.9 9.3l50.6 162.7c1.2 3.9 5.4 6.1 9.3 4.9l113.2-35.2c7.8-2.4 12.2-10.7 9.7-18.6l-46.2-148.6c-2.3-7.7-10.7-12.1-18.5-9.7z" fill="#434a54"/><rect x="1692.8" y="4.8" transform="rotate(-17.259 1696.438 102.072)" width="7.4" height="194.5" fill="#a0d468"/><rect x="1704.3" y="51.3" transform="rotate(162.592 1736.896 53.153)" width="65.2" height="3.7" fill="#e6e9ed"/><rect x="1708.7" y="65.8" transform="rotate(162.592 1741.302 67.644)" width="65.2" height="3.7" fill="#e6e9ed"/><rect x="1713.1" y="80.4" transform="rotate(162.592 1745.717 82.231)" width="65.2" height="3.7" fill="#e6e9ed"/><rect x="1717.4" y="94.9" transform="rotate(162.592 1750.01 96.753)" width="65.2" height="3.7" fill="#e6e9ed"/></g><g id="coffee"><circle cx="1618.8" cy="-91.4" r="50.6" fill="#39b54a"/><circle cx="1623.8" cy="-93.4" r="50.6" fill="#e6e9ed"/><path d="M1623.8-135.1c23 0 41.7 18.7 41.7 41.7s-18.7 41.7-41.7 41.7c-10.4 0-19.9-3.8-27.2-10.1-8.9-7.6-14.5-19-14.5-31.6 0-23 18.7-41.7 41.7-41.7z" fill="#3498db"/><path id="linecover2" d="M1623.8-136.1c23.6 0 42.7 19.1 42.7 42.7s-19.1 42.7-42.7 42.7c-10.6 0-20.3-3.9-27.8-10.3-9.1-7.8-14.9-19.4-14.9-32.4 0-23.6 19.2-42.7 42.7-42.7z" fill="#e6e9ed"/><ellipse transform="scale(-1) rotate(6.8 -1034.472 -27100.916)" cx="1610" cy="-61.5" rx="11.6" ry="7.7" fill="#d8d8da"/><polygon points="1560.7,-71.2 1601.5,-64.3 1601.1,-60.7 1559.7,-63.5" fill="#ccd1d9"/><ellipse transform="scale(-1) rotate(6.8 -1034.745 -27099.196)" cx="1609.9" cy="-61.5" rx="9.6" ry="6.4" fill="#aab2bd"/><path d="M1596.6-136.3l9.7 12.5c1.6 2.1 1.2 5-.8 6.7-2.1 1.6-5 1.2-6.7-.8l-9.7-12.5c-1.6-2.1-1.2-5 .8-6.7 2.1-1.6 5-1.2 6.7.8z" fill="#fff"/><circle cx="1623.8" cy="-93.4" r="34.8" fill="#fff"/><circle cx="1623.8" cy="-93.4" r="31.3" fill="#e6e7e8"/><circle cx="1623.8" cy="-93.4" r="29.6" fill="#49433c"/><path d="M1602.6-76.9c9.1 11.7 26 13.8 37.7 4.7.7-.5.8-1.5.3-2.2s-1.5-.8-2.2-.3l-.9.6c-.1.1-.2.1-.2.2-.3.2-.5.4-.8.5-.1.1-.2.1-.3.2l-.6.3c-.1.1-.3.1-.4.2-.2.1-.5.2-.7.4-.2.1-.4.2-.5.3-.1.1-.3.1-.4.2-.2.1-.3.2-.5.2-.2.1-.5.2-.7.3-.2.1-.3.1-.5.2s-.3.1-.5.2c-.1 0-.3.1-.4.1-.3.1-.6.2-.9.2-.1 0-.2.1-.3.1-.2.1-.5.1-.8.2-.1 0-.2 0-.2.1-.3.1-.7.1-1 .2h-.1c-.2 0-.4.1-.6.1-.1 0-.3 0-.5.1h-.1c-.7.1-1.5.1-2.2.1-.7 0-1.5 0-2.2-.1h-.1c-.3 0-.7-.1-1-.1h-.1c-.3 0-.6-.1-.9-.1-.1 0-.3 0-.4-.1-.2 0-.4-.1-.5-.1-.6-.1-1.3-.3-1.9-.5-3.4-1-6.6-2.8-9.2-5.2h-.1l-.4-.4-.4-.4-.4-.4c-.2-.2-.4-.4-.6-.7-.1-.1-.1-.2-.2-.2-.2-.3-.5-.5-.7-.8l-.6-.9c-.1-.1-.1-.2-.2-.3-.2-.2-.3-.5-.5-.7-.1-.1-.2-.3-.3-.4-.1-.1-.2-.3-.3-.4-.1-.2-.2-.4-.3-.5v-.1c-1.7-3.2-2.6-6.7-2.8-10.3v-2-.5-.4c0-.3.1-.6.1-1v-.1c0-.3.1-.7.1-1v-.1c.1-.7.3-1.4.5-2.2.2-.7.4-1.4.7-2.1v-.1c.1-.1.1-.3.2-.4.1-.2.2-.4.2-.6v-.1c.1-.3.3-.6.4-.9 0-.1.1-.1.1-.2.1-.2.2-.5.4-.7.1-.1.1-.2.2-.3.1-.3.3-.5.5-.8.1-.1.2-.3.3-.4.1-.1.2-.3.3-.4.1-.1.2-.3.3-.4.2-.2.3-.4.5-.6.1-.1.2-.3.3-.4l.3-.3c.1-.2.3-.3.4-.5.2-.2.3-.4.5-.6l.3-.3.5-.5c.1-.1.1-.2.2-.2l.7-.7.2-.2c.3-.2.5-.5.8-.7.7-.5.8-1.5.3-2.2s-1.5-.8-2.2-.3c-11.7 9.1-13.8 26-4.7 37.7zM1612.6-116.1c.3.8 1.3 1.2 2.1.8l.6-.3h.1c.2-.1.4-.1.6-.2.1 0 .1 0 .2-.1.2-.1.4-.1.6-.2.4-.1.9-.3 1.4-.4h.2c.4-.1.9-.2 1.3-.3.1 0 .2 0 .3-.1h-.2.2c.1 0 .3 0 .4-.1h.2-.1.2c.6-.1 1.1.2 1.4.6.2.2.3.5.3.8.1.9-.5 1.7-1.3 1.8-1.3.2-2.6.5-3.9.9h-.1c-.4.1-.8.3-1.2.5-.8.3-1.1 1.3-.8 2.1.3.8 1.3 1.2 2.1.8 2.2-.9 4.5-1.4 6.9-1.4h2.2c.4.1.7.3.9.6.2.3.4.7.3 1.2-.1.9-.9 1.5-1.8 1.4-2.5-.3-5 0-7.2 1h-.1c-.8.3-1.2 1.3-.8 2.1.3.8 1.3 1.2 2.1.8 4.6-1.9 10-.5 13 3.4 3.1 4 3.1 9.5.1 13.5-.5.7-.4 1.7.3 2.2.7.5 1.7.4 2.2-.3l.2-.2c1.4-1.9 2.3-4.2 2.6-6.6.1-.9.9-1.5 1.8-1.4.4.1.8.3 1.1.6.2.3.3.7.3 1.1v.1c0 .1 0 .2-.1.3v.3c0 .1-.1.3-.1.4s0 .2-.1.3c0 .2-.1.3-.1.5v.2c-.6 2.3-1.6 4.4-3 6.3-.5.7-.4 1.7.3 2.2.7.5 1.7.4 2.2-.3.3-.4.5-.7.8-1.1v-.1c.7-1.1 1.4-2.3 1.9-3.5.3-.8 1.2-1.2 2.1-.9.3.1.5.3.6.5.3.4.4 1 .2 1.5 0 .1 0 .1-.1.2-.1.2-.2.4-.2.6 0 .1-.1.2-.1.3l-.3.6c0 .1-.1.2-.1.2l-.3.6c0 .1-.1.1-.1.2-.1.3-.3.5-.5.8-.1.2-.2.4-.4.6l-.1.1c-.1.1-.1.2-.2.3 0 .1-.1.1-.1.2l-.1.1c-.1.2-.3.4-.4.6-.5.7-.4 1.7.3 2.2.7.5 1.7.4 2.2-.3 7.3-9.7 7.3-23.1-.2-32.7s-20.5-13-31.6-8.3c-1.1.7-1.5 1.6-1.1 2.4zm32.9 32.4c0 .1-.1.2-.1.2 0-.1 0-.2.1-.2zm-.4.8c0 .1-.1.1-.1.2 0 0 0-.1.1-.2zm-.5.9c0 .1 0 0 0 0zm1.1-2.4s0-.1 0 0c.1-.1.1-.1 0 0 .1 0 .1 0 0 0z" fill="#363532"/><path d="M1642.7-79.1c.2-.2.3-.4.4-.6-.1.3-.3.4-.4.6z" fill="#363532"/></g></g><g id="tblock1"><path d="M505.3-211.1h257.1v68.8H505.3v-68.8z" fill="#3498db"/><path d="M808.5-173.5l-48 13v-24l48 11z" fill="#3498db"/><text transform="translate(563.735 -119.754)" fill="#ecf0f1" font-family="ArialHebrew-Light" font-size="21"></text><g fill="#ecf0f1"><text transform="translate(513.09 -157.205)" font-family="Roboto-Light" font-size="18">UX and Design</text><text transform="translate(513.5 -185.022)" font-family="Roboto-Light" font-size="18">Front-End development</text><text transform="translate(549.078 -161.022)" font-family="ArialHebrew-Light" font-size="21"></text><text transform="translate(588.533 -191.022)" font-family="ArialHebrew-Light" font-size="21"></text><text transform="translate(655.497 -191.022)" font-family="ArialHebrew-Light" font-size="21"></text></g><text transform="translate(613.109 -143.51)" fill="#ecf0f1" font-family="ArialHebrew-Light" font-size="21"></text></g><g id="tblock2"><path d="M1231.1-209.4h257.1v69.8h-257.1v-69.8z" fill="#3498db"/><path d="M1360.6-107l-13-48h24l-11 48z" fill="#3498db"/><text transform="translate(1241.885 -180.037)" fill="#ecf0f1" font-family="Roboto-Light" font-size="18">Mobile Applications</text><text transform="translate(1241.885 -157.766)" fill="#ecf0f1" font-family="Roboto-Light" font-size="18">Responsive Web Design</text></g><g id="tblock3"><path d="M865.2 167.9h314.3v124.8H865.2V167.9z" fill="#3498db"/><path d="M997 125.6l13 48h-24l11-48z" fill="#3498db"/><g fill="#ecf0f1"><text transform="translate(881.44 197.219)" font-family="Roboto-Light" font-size="18">Project Management</text><text transform="translate(943.823 192.614)" font-family="ArialHebrew-Light" font-size="21"></text><text transform="translate(1085.88 192.614)" font-family="Roboto-Light" font-size="18"></text></g><g fill="#ecf0f1" font-family="ArialHebrew-Light" font-size="21"><text transform="translate(953.778 216.37)"></text><text transform="translate(972.317 216.37)"></text><text transform="translate(1035.46 216.37)"></text></g><text transform="translate(923.454 240.126)" fill="#ecf0f1" font-family="ArialHebrew-Light" font-size="21"></text><g fill="#ecf0f1"><text transform="translate(881.44 221.919)" font-family="Roboto-Light" font-size="18">Estimating / Strategy / Planning</text><text transform="translate(881.44 273.485)" font-family="Roboto-Light" font-size="18">Client relationship</text><text transform="translate(933.555 263.882)" font-family="ArialHebrew-Light" font-size="21"></text><text transform="translate(993.674 263.882)" font-family="ArialHebrew-Light" font-size="21"></text></g><text transform="translate(881.44 247.485)" fill="#ecf0f1" font-family="Roboto-Light" font-size="18">Mentoring, Team Leading</text></g><g id="title"><text id="texttitle" transform="translate(512.681 -321.02)" fill="#f5f7fa" font-family="Roboto-Thin" font-size="36">Knowledge, skills and abilities:</text></g><path id="wire2" d="M1167.2-369.2l-1.2 1.2c-65.5 59.8-48.7 76-135.9 87-56.8 7.2-163 16-199.6 65.9-46 62.6-33.6 201.1 62.6 201.1H1189v-90.1c31.9 0 29.2.1 64.3.1H1400c0 18.9.7 70.3.7 87.3v156.1c-36.7 0-11.8.4-65.7.4-38.8 0-89.6 11.3-120.6-12.7-66.5-51.3-152.9-21.5-227-8.1-60.8 11-140.9-14.7-195.5 18.5-71.5 43.4-34.2 173.1-108 208.6-32.3 15.5-93.5 2.1-97.8 54.3" opacity=".6" fill="none" stroke="#efefef" stroke-miterlimit="10"/></svg>