<svg id="svg2" xmlns="http://www.w3.org/2000/svg" viewBox="496 -368 1024 768"><rect x="-3360.1" y="-2659.6" fill="#44C650" width="8736.7" height="5396" id="bg2_1_"/><g id="objects" xmlns:cc="http://creativecommons.org/ns#" xmlns:rdf="http://www.w3.org/1999/02/22-rdf-syntax-ns#" xmlns:svg="http://www.w3.org/2000/svg" xmlns:dc="http://purl.org/dc/elements/1.1/" xmlns:inkscape="http://www.inkscape.org/namespaces/inkscape" xmlns:sodipodi="http://sodipodi.sourceforge.net/DTD/sodipodi-0.dtd" inkscape:version="0.48.4 r9939" sodipodi:docname="drawing.svg"><g id="iphone"><path fill="#0F0D10" d="M1438.7 68.9l1.2 9.7c.5 3.6 3.7 6.1 7.3 5.7l52-6.6c3.6-.5 6.1-3.7 5.7-7.3l-1.2-9.7-65 8.2zM1491.3-36.8l-1.2-9.7c-.5-3.6-3.7-6.1-7.3-5.7l-52 6.6c-3.6.5-6.1 3.7-5.7 7.3l1.2 9.7 65-8.2z"/><rect x="1432.3" y="-33.1" transform="rotate(172.793 1465.008 15.995)" fill="#0F0D10" width="65.5" height="98.2"/><rect x="1435.6" y="-33" transform="rotate(172.793 1465.014 16.098)" fill="#F5F7FA" width="58.9" height="98.2"/><circle fill="#272528" cx="1472.2" cy="72.9" r="4.9"/><g id="s3"><rect id="s3-bg1" x="1439.3" y="25.7" transform="rotate(172.793 1468.715 45.348)" fill="#CCD1D9" width="58.9" height="39.3"/><rect id="i1" x="1456" y="47.8" transform="rotate(172.793 1469.067 48.595)" fill="#F5F7FA" width="26.2" height="1.6"/><rect id="i2" x="1456.9" y="54.2" transform="rotate(172.793 1469.96 55)" fill="#F5F7FA" width="26.2" height="1.6"/><rect id="i3" x="1456.5" y="51" transform="rotate(172.793 1469.558 51.793)" fill="#F5F7FA" width="26.2" height="1.6"/><rect id="i4" x="1457.3" y="58.3" transform="scale(-1) rotate(-7.221 -936.606 23198.747)" fill="#F5F7FA" width="13.1" height="1.6"/><rect id="i5" x="1454.7" y="31.3" transform="rotate(172.793 1467.757 37.849)" fill="#44C650" width="26.2" height="13.1"/><g><rect id="i6" x="1447.5" y="5.5" transform="rotate(172.793 1463.811 6.3)" fill="#AAB2BD" width="32.7" height="1.6"/><rect id="i7" x="1448.3" y="12.1" transform="rotate(172.793 1464.618 12.896)" fill="#AAB2BD" width="32.7" height="1.6"/><rect id="i8" x="1447.9" y="8.8" transform="rotate(172.793 1464.21 9.592)" fill="#AAB2BD" width="32.7" height="1.6"/><rect id="i9" x="1455.3" y="15.2" transform="rotate(172.793 1465.06 15.995)" fill="#AAB2BD" width="19.6" height="1.6"/><rect id="i10" x="1438.1" y="-26.3" transform="rotate(172.793 1460.957 -16.506)" fill="#3498DB" width="45.8" height="19.6"/><rect id="i11" x="1443.3" y="-1.5" transform="rotate(172.793 1462.908 -.255)" fill="#E1E1E2" width="39.3" height="2.5"/></g></g></g><g id="ipad"><path fill="#0F0D10" d="M1386-67.4v-12c0-4.4-3.6-8-8-8h-144c-4.4 0-8 3.6-8 8v12h160zM1226 100.6v12c0 4.4 3.6 8 8 8h144c4.4 0 8-3.6 8-8v-12h-160z"/><rect x="1226" y="-67.4" fill="#0F0D10" width="160" height="168"/><rect x="1234" y="-67.4" fill="#C4C3C4" width="144" height="168"/><circle fill="#272528" cx="1306" cy="110.6" r="6"/><g id="s2"><rect x="1234" y="-67.4" fill="#E6E9ED" width="144" height="168"/><rect id="s2-bg1" x="1234" y="36.6" fill="#FFF" width="144" height="64"/><rect id="g1" x="1258" y="-51.4" fill="#44C650" width="96" height="48"/><g id="g2g" fill="#434A54"><rect id="g2" x="1274" y="11.6" width="64" height="2"/><rect id="g3" x="1274" y="19.6" width="64" height="2"/><rect id="g4" x="1274" y="15.6" width="64" height="2"/><rect id="g5" x="1282" y="23.6" width="48" height="2"/></g><rect id="g21" x="1266" y="2.6" fill="#4FC1E9" width="80" height="4"/><g id="g6g" fill="#AAB2BD"><rect id="g6" x="1290" y="68.6" width="32" height="2"/><rect id="g7" x="1290" y="76.6" width="32" height="2"/><rect id="g8" x="1290" y="72.6" width="32" height="2"/><rect id="g9" x="1290" y="80.6" width="16" height="2"/></g><rect id="g10" x="1290" y="48.6" fill="#44C650" width="32" height="16"/><g><g id="g11g" fill="#AAB2BD"><rect id="g11" x="1242" y="80.6" width="16" height="2"/><rect id="g12" x="1242" y="72.6" width="32" height="2"/><rect id="g13" x="1242" y="76.6" width="32" height="2"/><rect id="g14" x="1242" y="68.6" width="32" height="2"/></g><rect id="g15" x="1242" y="48.6" fill="#44C650" width="32" height="16"/></g><g><rect id="g16" x="1338" y="68.6" fill="#AAB2BD" width="32" height="2"/><rect id="g17" x="1338" y="76.6" fill="#AAB2BD" width="32" height="2"/><rect id="g18" x="1338" y="72.6" fill="#AAB2BD" width="32" height="2"/><rect id="g19" x="1338" y="80.6" fill="#AAB2BD" width="16" height="2"/><rect id="g20" x="1338" y="48.6" fill="#44C650" width="32" height="16"/></g><rect x="1234" y="-67.4" fill="#4B4A4C" width="144" height="8"/></g></g><g id="imac"><rect id="gridbg" x="888.9" y="-181.4" fill="#F5B8B6" width="299.5" height="165.8"/><g id="grid" fill="#FFF"><rect id="grid1" x="908" y="-181.4" width="6.4" height="166"/><rect id="grid2" x="934" y="-181.4" width="6.4" height="166"/><rect id="grid3" x="959" y="-181.4" width="6.4" height="166"/><rect id="grid4" x="985" y="-181.4" width="6.4" height="166"/><rect id="grid5" x="1010" y="-181.4" width="6.4" height="166"/><rect id="grid6" x="1036" y="-181.4" width="6.4" height="166"/><rect id="grid7" x="1061" y="-181.4" width="6.4" height="166"/><rect id="grid8" x="1087" y="-181.4" width="6.4" height="166"/><rect id="grid9" x="1112" y="-181.4" width="6.4" height="166"/><rect id="grid10" x="1138" y="-181.4" width="6.4" height="166"/><rect id="grid11" x="1163" y="-181.4" width="6.4" height="166"/></g><path id="bg1" fill="#F5F7FA" d="M1188.4-181.4v165.9h-300v-153.1-12.8h300z"/><rect id="bg2" x="888.4" y="-104.8" fill="#E6E9ED" width="300" height="76.6"/><g id="b4" fill="#434A54"><rect id="f22" x="1112.5" y="-42.6" width="28.6" height="3.2"/><rect id="f21" x="1112.5" y="-55.4" width="57.1" height="3.2"/><rect id="f20" x="1112.5" y="-49" width="57.1" height="3.2"/><rect id="f19" x="1112.5" y="-61.8" width="57.1" height="3.2"/></g><rect id="f18" x="1112.5" y="-93.7" fill="#3498DB" width="57.1" height="25.5"/><g id="b3" fill="#434A54"><rect id="f17" x="1009.8" y="-61.8" width="57.1" height="3.2"/><rect id="f16" x="1009.8" y="-49" width="57.1" height="3.2"/><rect id="f15" x="1009.8" y="-55.4" width="57.1" height="3.2"/><rect id="f14" x="1009.8" y="-42.6" width="28.6" height="3.2"/></g><rect id="f13" x="1009.8" y="-93.7" fill="#3498DB" width="57.1" height="25.5"/><g id="b2" fill="#434A54"><rect id="f12" x="908.1" y="-61.8" width="57.1" height="3.2"/><rect id="f11" x="908.1" y="-49" width="57.1" height="3.2"/><rect id="f10" x="908.1" y="-55.4" width="57.1" height="3.2"/><rect id="f9" x="908.1" y="-42.6" width="28.6" height="3.2"/></g><rect id="f8" x="908.1" y="-93.7" fill="#3498DB" width="57.1" height="25.5"/><g id="b1"><rect id="f6" x="1024" y="-166.2" fill="#E74C3C" width="110.7" height="6.4"/><rect id="f5" x="1024" y="-127.9" fill="#39B54A" width="39.3" height="12.8"/><rect id="f4" x="1024" y="-155" fill="#656D78" width="110.7" height="3.2"/><rect id="f3" x="1024" y="-142.3" fill="#656D78" width="110.7" height="3.2"/><rect id="f2" x="1024" y="-148.7" fill="#656D78" width="110.7" height="3.2"/><rect id="f7" x="1024" y="-135.9" fill="#656D78" width="82.1" height="3.2"/></g><rect id="f1" x="908.1" y="-166.2" fill="#3498DB" width="110.7" height="51"/></g><g id="diagramma1"><polygon fill="#39B54A" points="736.8,-2 709.1,-35.2 561.2,-46.1 543.2,199 721.1,212.1"/><polygon fill="#F5F7FA" points="713.1,-38.8 565.2,-49.7 547.2,195.4 725,208.5 740.8,-5.6"/><polygon fill="#8996A9" points="710.8,-7.8 740.8,-5.6 713.1,-38.8"/><g id="dg1"><ellipse id="d1" transform="rotate(-85.796 652.442 -12.699) scale(.99999)" fill="#3498DB" cx="652.4" cy="-12.7" rx="15.4" ry="14.9"/><rect id="d2" x="642.7" y="-14.5" transform="rotate(-175.796 652.042 -12.597) scale(.99999)" fill="#F5F7FA" width="18.6" height="3.8"/><rect id="d3" x="649.1" y="-4.2" transform="matrix(-.9973 -.0731 .0731 -.9973 1299.719 61.476)" fill="#E6E9ED" width="3.7" height="22.3"/></g><g id="dg2"><polygon id="d4" fill="#E6E9ED" points="687.9,36.2 684.2,35.9 685.2,22.6 614.8,17.4 614.1,27 610.4,26.8 611.3,13.3 689.1,19.1"/><polygon id="d5" fill="#E74C3C" points="581.7,36.2 612.5,23.1 641,40.6 610.2,53.7"/><rect id="d6" x="596.5" y="36.5" transform="scale(-1) rotate(4.209 1044.817 -16636.71)" fill="#F5F7FA" width="29.7" height="3.8"/><rect id="d7" x="608.4" y="45.8" transform="rotate(-175.781 610.208 54.951) scale(1.00001)" fill="#E6E9ED" width="3.7" height="18.3"/></g><g id="dg3"><rect id="d8" x="578.9" y="61.2" transform="scale(-1) rotate(4.209 2084.414 -16561.86)" fill="#3498DB" width="59.4" height="30.8"/><rect id="d9" x="590.3" y="70" transform="rotate(-175.796 597.797 71.897) scale(.99999)" fill="#F5F7FA" width="14.9" height="3.8"/><rect id="d10" x="612.7" y="71.4" transform="scale(-1) rotate(4.215 1991.938 -16749.027)" fill="#F5F7FA" width="7.4" height="3.8"/><rect id="d11" x="589.7" y="78.5" transform="rotate(-175.796 608.296 80.4) scale(.99999)" fill="#F5F7FA" width="37.1" height="3.8"/><rect id="d12" x="605.2" y="80.3" transform="matrix(-.9973 -.0731 .0731 -.9973 1205.503 236.914)" fill="#E6E9ED" width="3.7" height="32.2"/></g><g id="dg4"><rect id="d13" x="575" y="107.4" transform="scale(-1) rotate(4.209 3549.599 -16453.147)" fill="#3498DB" width="59.4" height="46.1"/><rect id="d14" x="581.5" y="132.3" transform="rotate(-175.796 603.845 134.198) scale(.99999)" fill="#F5F7FA" width="44.6" height="3.8"/><rect id="d15" x="581" y="138.9" transform="rotate(-175.796 588.492 140.802) scale(.99999)" fill="#F5F7FA" width="14.9" height="3.8"/><rect id="d16" x="603.3" y="140.3" transform="rotate(-175.796 607.044 142.198) scale(.99999)" fill="#F5F7FA" width="7.4" height="3.8"/><rect id="d17" x="582.2" y="123.8" transform="rotate(-175.796 593.397 125.7) scale(.99999)" fill="#F5F7FA" width="22.3" height="3.8"/><rect id="d18" x="611.8" y="125.8" transform="rotate(-175.796 619.29 127.697) scale(.99999)" fill="#F5F7FA" width="14.9" height="3.8"/><rect id="d19" x="582.7" y="116.7" transform="scale(-1) rotate(4.209 3227.15 -16361.943)" fill="#F5F7FA" width="37.1" height="3.8"/></g><g id="dg5"><polygon id="d20" fill="#44C650" points="655.8,41.7 686.6,28.5 715.1,46 684.3,59.2"/><rect id="d21" x="670.7" y="42" transform="rotate(-175.796 685.59 43.898) scale(.99999)" fill="#F5F7FA" width="29.7" height="3.8"/><rect id="d22" x="668.3" y="66.6" transform="rotate(-175.796 683.194 74.296) scale(.99999)" fill="#3498DB" width="29.7" height="15.4"/></g><g id="dg6"><rect id="d23" x="682.4" y="51.3" transform="matrix(-.9973 -.0731 .0731 -.9973 1362.319 170.76)" fill="#E6E9ED" width="3.7" height="18.3"/><rect id="d24" x="676.2" y="72.5" transform="rotate(-175.796 683.693 74.396) scale(.99999)" fill="#F5F7FA" width="14.9" height="3.8"/><rect id="d25" x="679.9" y="69.5" transform="matrix(-.9973 -.0731 .0731 -.9973 1354.79 239.683)" fill="#E6E9ED" width="3.7" height="51.1"/></g><g id="dg7"><rect id="d26" x="651.8" y="89.8" transform="rotate(4.204 681.54 97.501) scale(.99999)" fill="#3498DB" width="59.4" height="15.4"/><rect id="d27" x="681.9" y="96.5" transform="rotate(-175.796 693.094 98.397) scale(.99999)" fill="#F5F7FA" width="22.3" height="3.8"/><rect id="d28" x="659.7" y="94.6" transform="rotate(-175.796 667.195 96.501) scale(.99999)" fill="#F5F7FA" width="14.9" height="3.8"/></g><g id="dg8"><rect id="d29" x="657.5" y="112.8" transform="rotate(-175.796 679.845 120.498) scale(.99999)" fill="#3498DB" width="44.6" height="15.4"/><rect id="d30" x="676.8" y="128" transform="rotate(-175.796 678.692 137.702) scale(.99999)" fill="#E6E9ED" width="3.7" height="19.4"/><rect id="d32" x="668.7" y="118.6" transform="rotate(-175.796 679.895 120.498) scale(.99999)" fill="#F5F7FA" width="22.3" height="3.8"/></g><g id="dg9"><ellipse id="d31" transform="rotate(-85.796 677.046 158.8) scale(.99999)" fill="#3498DB" cx="677" cy="158.8" rx="15.4" ry="14.9"/><rect id="d33" x="667.2" y="157" transform="rotate(-175.796 676.547 158.898) scale(.99999)" fill="#FFF" width="18.6" height="3.8"/></g></g><g id="appunti"><rect x="1245" y="148.2" transform="rotate(-84.197 1343.387 276.32)" fill="#39B54A" width="196.7" height="256.2"/><rect x="1249.9" y="144.3" transform="rotate(-84.197 1348.26 272.413)" fill="#E6E9ED" width="196.7" height="256.2"/><rect x="1256.4" y="144.3" transform="rotate(-91.983 1354.794 272.368)" fill="#F5F7FA" width="196.7" height="256.2"/><g id="ag1" fill="#44C650"><path id="a1" d="M1439.4 301.8l-108.7 4.2-3.6-91.1 108.7-4.2 3.6 91.1zm-104.5-.3l100-3.9-3.2-82.4-100 3.9 3.2 82.4z"/><rect id="a2" x="1330.1" y="230.1" transform="matrix(-.9992 .0389 -.0389 -.9992 2772.566 410.523)" width="104.4" height="4.3"/></g><g id="ag2" fill="#44C650"><path id="a3" d="M1369.6 295.8l-21.7.8-.9-21.7 21.7-.8.9 21.7zm-17.5-3.6l13-.5-.5-13-13 .5.5 13z"/><path id="a4" d="M1395.5 294.8l-21.7.9-.8-21.7 21.7-.8.8 21.6zm-17.5-3.7l13-.5-.5-13-13 .5.5 13z"/><path id="a5" d="M1421.6 293.8l-21.7.8-.8-21.7 21.7-.8.8 21.7zm-17.5-3.7l13-.5-.5-13-13 .5.5 13z"/></g><g id="ag3" fill="#44C650"><path id="a6" d="M1386 269.1l-39.1 1.5-1.2-30.4 39.1-1.5 1.2 30.4zm-34.9-3l30.4-1.2-.8-21.7-30.4 1.2.8 21.7z"/><rect id="a7" x="1391.2" y="238" transform="rotate(177.766 1404.246 240.142) scale(.99996)" width="26.1" height="4.3"/><rect id="a8" x="1391.7" y="246.7" transform="matrix(-.9992 .0389 -.0389 -.9992 2818.098 442.835)" width="26.1" height="4.3"/><rect id="a9" x="1392" y="255.5" transform="matrix(-.9992 .0389 -.0389 -.9992 2810.341 460.59)" width="17.4" height="4.3"/></g><g id="ag4" fill="#44C650"><rect id="a10" x="1403" y="315.6" transform="rotate(177.766 1420.392 317.74) scale(.99996)" width="34.8" height="4.3"/><rect id="a11" x="1403.3" y="324.3" transform="matrix(-.9992 .0389 -.0389 -.9992 2853.102 597.35)" width="34.9" height="4.3"/><rect id="a18" x="1420" y="306.7" transform="rotate(177.766 1428.693 308.84) scale(.99996)" width="17.4" height="4.3"/></g><g id="ag5" fill="#44C650"><rect id="a12" x="1315.1" y="284" transform="rotate(177.766 1336.795 286.138) scale(.99996)" width="43.4" height="4.3"/><rect id="a13" x="1297.5" y="285.4" transform="rotate(177.781 1301.863 287.565) scale(1.00005)" width="8.7" height="4.3"/><rect id="a14" x="1312.6" y="223.5" transform="rotate(177.766 1334.297 225.643) scale(.99996)" width="43.4" height="4.3"/><rect id="a15" x="1295.3" y="224.9" transform="matrix(-.9993 .0386 -.0386 -.9993 2607.113 403.793)" width="8.7" height="4.3"/><rect id="a16" x="1295.9" y="242.1" transform="matrix(-.9992 .0388 -.0388 -.9992 2608.975 437.834)" width="8.7" height="4.3"/><polygon id="a17" points="1365.2,256.7 1330.3,245.2 1313.3,245.9 1313.2,241.5 1330.9,240.8 1366.5,252.6"/></g></g><g id="appunti2"><rect x="1683.8" y="-5" transform="scale(-1) rotate(-17.284 -576.43 11468.613)" fill="#363532" width="118.5" height="185.2"/><circle fill="#363532" cx="1776.4" cy="-4.3" r="14.8"/><circle fill="#363532" cx="1822.7" cy="144.3" r="14.8"/><rect x="1799.3" y="-10.1" transform="rotate(-17.292 1806.731 67.8)" fill="#363532" width="14.8" height="155.6"/><circle fill="#363532" cx="1711.7" cy="186.6" r="7.4"/><circle fill="#363532" cx="1661" cy="23.9" r="7.4"/><rect x="1678.8" y="19.3" transform="rotate(162.708 1689.027 104.504)" fill="#363532" width="20.4" height="170.4"/><rect x="1683.1" y="-6.8" transform="scale(-1) rotate(-17.284 -564.72 11464.137)" fill="#FFF" width="118.5" height="185.2"/><circle fill="#FFF" cx="1775.9" cy="-6" r="14.8"/><circle fill="#FFF" cx="1822.1" cy="142.5" r="14.8"/><rect x="1798.7" y="-11.7" transform="rotate(-17.292 1806.07 66.196)" fill="#FFF" width="14.8" height="155.6"/><circle fill="#FFF" cx="1711.7" cy="186.6" r="5.6"/><circle fill="#FFF" cx="1660.5" cy="22.1" r="7.4"/><rect x="1680.4" y="17.2" transform="scale(-1) rotate(-17.284 -679.714 11117.405)" fill="#FFF" width="18.5" height="172.2"/><path fill="#434A54" d="M1770.9-22l-113.2 35.2c-3.9 1.2-6.1 5.4-4.9 9.3l50.6 162.7c1.2 3.9 5.4 6.1 9.3 4.9l113.2-35.2c7.8-2.4 12.2-10.7 9.7-18.6l-46.2-148.6c-2.3-7.7-10.7-12.1-18.5-9.7z"/><rect x="1693.1" y="3.8" transform="scale(-1) rotate(-17.259 -665.729 11180.233)" fill="#A0D468" width="7.4" height="194.5"/><rect x="1704.5" y="50.3" transform="rotate(-17.408 1737.137 52.106)" fill="#E6E9ED" width="65.2" height="3.7"/><rect x="1709" y="64.8" transform="rotate(-17.408 1741.546 66.585)" fill="#E6E9ED" width="65.2" height="3.7"/><rect x="1713.4" y="79.4" transform="rotate(-17.408 1745.971 81.156)" fill="#E6E9ED" width="65.2" height="3.7"/><rect x="1717.7" y="93.9" transform="rotate(-17.408 1750.263 95.7)" fill="#E6E9ED" width="65.2" height="3.7"/></g><g id="coffee"><circle fill="#39B54A" cx="1619" cy="-92.4" r="50.6"/><circle fill="#E6E9ED" cx="1624" cy="-94.4" r="50.6"/><path fill="#3498DB" d="M1624-136.1c23 0 41.7 18.7 41.7 41.7S1647-52.7 1624-52.7c-10.4 0-19.9-3.8-27.2-10.1-8.9-7.6-14.5-19-14.5-31.6 0-23 18.7-41.7 41.7-41.7z"/><path id="linecover2" fill="#E6E9ED" d="M1624-137.1c23.6 0 42.7 19.1 42.7 42.7s-19.1 42.7-42.7 42.7c-10.6 0-20.3-3.9-27.8-10.3-9.1-7.8-14.9-19.4-14.9-32.4 0-23.6 19.2-42.7 42.7-42.7z"/><ellipse transform="scale(-1) rotate(-83.2 70.296 1813.607)" fill="#D8D8DA" cx="1610.3" cy="-62.4" rx="7.7" ry="11.6"/><polygon fill="#CCD1D9" points="1560.9,-72.2 1601.7,-65.3 1601.3,-61.7 1559.9,-64.5"/><ellipse transform="scale(-1) rotate(-83.2 70.332 1813.492)" fill="#AAB2BD" cx="1610.2" cy="-62.4" rx="6.4" ry="9.6"/><path fill="#FFF" d="M1596.8-137.3l9.7 12.5c1.6 2.1 1.2 5-.8 6.7-2.1 1.6-5 1.2-6.7-.8l-9.7-12.5c-1.6-2.1-1.2-5 .8-6.7 2.1-1.6 5-1.2 6.7.8z"/><circle fill="#FFF" cx="1624" cy="-94.4" r="34.8"/><circle fill="#E6E7E8" cx="1624" cy="-94.4" r="31.3"/><circle fill="#49433C" cx="1624" cy="-94.4" r="29.6"/><path fill="#363532" d="M1602.8-77.9c9.1 11.7 26 13.8 37.7 4.7.7-.5.8-1.5.3-2.2s-1.5-.8-2.2-.3l-.9.6c-.1.1-.2.1-.2.2-.3.2-.5.4-.8.5-.1.1-.2.1-.3.2l-.6.3c-.1.1-.3.1-.4.2-.2.1-.5.2-.7.4-.2.1-.4.2-.5.3-.1.1-.3.1-.4.2-.2.1-.3.2-.5.2-.2.1-.5.2-.7.3-.2.1-.3.1-.5.2s-.3.1-.5.2c-.1 0-.3.1-.4.1-.3.1-.6.2-.9.2-.1 0-.2.1-.3.1-.2.1-.5.1-.8.2-.1 0-.2 0-.2.1-.3.1-.7.1-1 .2h-.1c-.2 0-.4.1-.6.1-.1 0-.3 0-.5.1h-.1c-.7.1-1.5.1-2.2.1-.7 0-1.5 0-2.2-.1h-.1c-.3 0-.7-.1-1-.1h-.1c-.3 0-.6-.1-.9-.1-.1 0-.3 0-.4-.1-.2 0-.4-.1-.5-.1-.6-.1-1.3-.3-1.9-.5-3.4-1-6.6-2.8-9.2-5.2h-.1l-.4-.4-.4-.4-.4-.4c-.2-.2-.4-.4-.6-.7-.1-.1-.1-.2-.2-.2-.2-.3-.5-.5-.7-.8l-.6-.9c-.1-.1-.1-.2-.2-.3-.2-.2-.3-.5-.5-.7-.1-.1-.2-.3-.3-.4s-.2-.3-.3-.4c-.1-.2-.2-.4-.3-.5v-.1c-1.7-3.2-2.6-6.7-2.8-10.3v-2-.5-.4c0-.3.1-.6.1-1v-.1c0-.3.1-.7.1-1v-.1c.1-.7.3-1.4.5-2.2.2-.7.4-1.4.7-2.1v-.1c.1-.1.1-.3.2-.4.1-.2.2-.4.2-.6v-.1c.1-.3.3-.6.4-.9 0-.1.1-.1.1-.2.1-.2.2-.5.4-.7.1-.1.1-.2.2-.3.1-.3.3-.5.5-.8.1-.1.2-.3.3-.4s.2-.3.3-.4.2-.3.3-.4c.2-.2.3-.4.5-.6.1-.1.2-.3.3-.4l.3-.3c.1-.2.3-.3.4-.5.2-.2.3-.4.5-.6l.3-.3.5-.5c.1-.1.1-.2.2-.2l.7-.7.2-.2c.3-.2.5-.5.8-.7.7-.5.8-1.5.3-2.2s-1.5-.8-2.2-.3c-11.7 9.1-13.8 26-4.7 37.7zM1612.8-117.1c.3.8 1.3 1.2 2.1.8l.6-.3h.1c.2-.1.4-.1.6-.2.1 0 .1 0 .2-.1.2-.1.4-.1.6-.2.4-.1.9-.3 1.4-.4h.2c.4-.1.9-.2 1.3-.3.1 0 .2 0 .3-.1h-.2.2c.1 0 .3 0 .4-.1h.2-.1.2c.6-.1 1.1.2 1.4.6.2.2.3.5.3.8.1.9-.5 1.7-1.3 1.8-1.3.2-2.6.5-3.9.9h-.1c-.4.1-.8.3-1.2.5-.8.3-1.1 1.3-.8 2.1.3.8 1.3 1.2 2.1.8 2.2-.9 4.5-1.4 6.9-1.4h2.2c.4.1.7.3.9.6.2.3.4.7.3 1.2-.1.9-.9 1.5-1.8 1.4-2.5-.3-5 0-7.2 1h-.1c-.8.3-1.2 1.3-.8 2.1.3.8 1.3 1.2 2.1.8 4.6-1.9 10-.5 13 3.4 3.1 4 3.1 9.5.1 13.5-.5.7-.4 1.7.3 2.2.7.5 1.7.4 2.2-.3l.2-.2c1.4-1.9 2.3-4.2 2.6-6.6.1-.9.9-1.5 1.8-1.4.4.1.8.3 1.1.6.2.3.3.7.3 1.1v.1c0 .1 0 .2-.1.3v.3c0 .1-.1.3-.1.4s0 .2-.1.3c0 .2-.1.3-.1.5v.2c-.6 2.3-1.6 4.4-3 6.3-.5.7-.4 1.7.3 2.2.7.5 1.7.4 2.2-.3.3-.4.5-.7.8-1.1v-.1c.7-1.1 1.4-2.3 1.9-3.5.3-.8 1.2-1.2 2.1-.9.3.1.5.3.6.5.3.4.4 1 .2 1.5 0 .1 0 .1-.1.2-.1.2-.2.4-.2.6 0 .1-.1.2-.1.3l-.3.6c0 .1-.1.2-.1.2l-.3.6c0 .1-.1.1-.1.2-.1.3-.3.5-.5.8-.1.2-.2.4-.4.6l-.1.1c-.1.1-.1.2-.2.3 0 .1-.1.1-.1.2l-.1.1c-.1.2-.3.4-.4.6-.5.7-.4 1.7.3 2.2.7.5 1.7.4 2.2-.3 7.3-9.7 7.3-23.1-.2-32.7s-20.5-13-31.6-8.3c-1.1.7-1.5 1.6-1.1 2.4zm32.9 32.4c0 .1-.1.2-.1.2 0-.1 0-.2.1-.2zm-.4.8c0 .1-.1.1-.1.2 0 0 0-.1.1-.2zm-.5.9c0 .1 0 0 0 0zm1.1-2.4s0-.1 0 0c.1-.1.1-.1 0 0 .1 0 .1 0 0 0z"/><path fill="#363532" d="M1642.9-80.1c.2-.2.3-.4.4-.6-.1.3-.3.4-.4.6z"/></g></g><g id="tblock1"><path fill="#3498DB" d="M505.5-212.1h257.1v68.8H505.5v-68.8z"/><path fill="#3498DB" d="M808.7-174.5l-48 13v-24l48 11z"/><text transform="translate(563.985 -120.754)" fill="#ECF0F1" font-family="'ArialHebrew-Light'" font-size="21"></text><g fill="#ECF0F1"><text transform="translate(513.34 -158.205)" font-weight="300" font-size="18">UX and Design</text><text transform="translate(513.75 -186.021)" font-weight="300" font-size="18">Front-End development</text><text transform="translate(549.328 -162.021)" font-family="'ArialHebrew-Light'" font-size="21"></text><text transform="translate(588.783 -192.021)" font-family="'ArialHebrew-Light'" font-size="21"></text><text transform="translate(655.747 -192.021)" font-family="'ArialHebrew-Light'" font-size="21"></text></g><text transform="translate(613.359 -144.51)" fill="#ECF0F1" font-family="'ArialHebrew-Light'" font-size="21"></text></g><g id="tblock2"><path fill="#3498DB" d="M1231.3-210.4h257.1v69.8h-257.1v-69.8z"/><path fill="#3498DB" d="M1360.8-108l-13-48h24l-11 48z"/><text transform="translate(1242.134 -181.037)" fill="#ECF0F1" font-weight="300" font-size="18">Mobile Applications</text><text transform="translate(1242.134 -158.766)" fill="#ECF0F1" font-weight="300" font-size="18">Responsive Web Design</text></g><g id="tblock3"><path fill="#3498DB" d="M865.4 166.9h314.3v124.8H865.4V166.9z"/><path fill="#3498DB" d="M997.2 124.6l13 48h-24l11-48z"/><g fill="#ECF0F1"><text transform="translate(881.69 196.219)" font-weight="300" font-size="18">Project Management</text><text transform="translate(944.073 191.614)" font-family="'ArialHebrew-Light'" font-size="21"></text><text transform="translate(1086.13 191.614)" font-weight="300" font-size="18"></text></g><g fill="#ECF0F1" font-family="'ArialHebrew-Light'" font-size="21"><text transform="translate(954.028 215.37)"></text><text transform="translate(972.567 215.37)"></text><text transform="translate(1035.71 215.37)"></text></g><text transform="translate(923.704 239.126)" fill="#ECF0F1" font-family="'ArialHebrew-Light'" font-size="21"></text><g fill="#ECF0F1"><text transform="translate(881.69 220.919)" font-weight="300" font-size="18">Estimating / Strategy / Planning</text><text transform="translate(881.69 272.486)" font-weight="300" font-size="18">Client relationship</text><text transform="translate(933.804 262.882)" font-family="'ArialHebrew-Light'" font-size="21"></text><text transform="translate(993.924 262.882)" font-family="'ArialHebrew-Light'" font-size="21"></text></g><text transform="translate(881.69 246.486)" fill="#ECF0F1" font-weight="300" font-size="18">Mentoring, Team Leading</text></g><g id="title"><text id="texttitle" transform="translate(512.931 -322.02)" fill="#F5F7FA" font-weight="100" font-size="36">Knowledge, skills and abilities:</text></g><path id="wire2" opacity=".6" fill="none" stroke="#EFEFEF" stroke-miterlimit="10" d="M1167.4-370.2l-1.2 1.2c-65.5 59.8-48.7 76-135.9 87-56.8 7.2-163 16-199.6 65.9-46 62.6-33.6 201.1 62.6 201.1h295.9v-90.1c31.9 0 29.2.1 64.3.1h146.7c0 18.9.7 70.3.7 87.3v156.1c-36.7 0-11.8.4-65.7.4-38.8 0-89.6 11.3-120.6-12.7-66.5-51.3-152.9-21.5-227-8.1-60.8 11-140.9-14.7-195.5 18.5-71.5 43.4-34.2 173.1-108 208.6-32.3 15.5-93.5 2.1-97.8 54.3"/></svg>